<?xml version="1.0" encoding="utf-8" standalone="no"?>
<!DOCTYPE svg PUBLIC "-//W3C//DTD SVG 1.1//EN"
  "http://www.w3.org/Graphics/SVG/1.1/DTD/svg11.dtd">
<svg xmlns:xlink="http://www.w3.org/1999/xlink" width="893.752625pt" height="274.555469pt" viewBox="0 0 893.752625 274.555469" xmlns="http://www.w3.org/2000/svg" version="1.1">
 <metadata>
  <rdf:RDF xmlns:dc="http://purl.org/dc/elements/1.1/" xmlns:cc="http://creativecommons.org/ns#" xmlns:rdf="http://www.w3.org/1999/02/22-rdf-syntax-ns#">
   <cc:Work>
    <dc:type rdf:resource="http://purl.org/dc/dcmitype/StillImage"/>
    <dc:date>2025-09-22T10:57:42.794563</dc:date>
    <dc:format>image/svg+xml</dc:format>
    <dc:creator>
     <cc:Agent>
      <dc:title>Matplotlib v3.10.6, https://matplotlib.org/</dc:title>
     </cc:Agent>
    </dc:creator>
   </cc:Work>
  </rdf:RDF>
 </metadata>
 <defs>
  <style type="text/css">*{stroke-linejoin: round; stroke-linecap: butt}</style>
 </defs>
 <g id="figure_1">
  <g id="patch_1">
   <path d="M 0 274.555469 
L 893.752625 274.555469 
L 893.752625 0 
L 0 0 
z
" style="fill: #ffffff"/>
  </g>
  <g id="axes_1">
   <g id="patch_2">
    <path d="M 40.072812 242.598125 
L 709.672812 242.598125 
L 709.672812 20.838125 
L 40.072812 20.838125 
z
" style="fill: #ffffff"/>
   </g>
   <g id="matplotlib.axis_1">
    <g id="xtick_1">
     <g id="line2d_1">
      <path d="M 62.499607 242.598125 
L 62.499607 20.838125 
" clip-path="url(#p5376f017a7)" style="fill: none; stroke: #b0b0b0; stroke-opacity: 0.3; stroke-width: 0.5; stroke-linecap: square"/>
     </g>
     <g id="line2d_2">
      <defs>
       <path id="m2c3f20832e" d="M 0 0 
L 0 -3 
" style="stroke: #000000; stroke-width: 0.8"/>
      </defs>
      <g>
       <use xlink:href="#m2c3f20832e" x="62.499607" y="242.598125" style="stroke: #000000; stroke-width: 0.8"/>
      </g>
     </g>
     <g id="text_1">
      <!-- 0 -->
      <g transform="translate(60.249607 252.3475) scale(0.09 -0.09)">
       <defs>
        <path id="TimesNewRomanPSMT-30" d="M 231 2094 
Q 231 2819 450 3342 
Q 669 3866 1031 4122 
Q 1313 4325 1613 4325 
Q 2100 4325 2488 3828 
Q 2972 3213 2972 2159 
Q 2972 1422 2759 906 
Q 2547 391 2217 158 
Q 1888 -75 1581 -75 
Q 975 -75 572 641 
Q 231 1244 231 2094 
z
M 844 2016 
Q 844 1141 1059 588 
Q 1238 122 1591 122 
Q 1759 122 1940 273 
Q 2122 425 2216 781 
Q 2359 1319 2359 2297 
Q 2359 3022 2209 3506 
Q 2097 3866 1919 4016 
Q 1791 4119 1609 4119 
Q 1397 4119 1231 3928 
Q 1006 3669 925 3112 
Q 844 2556 844 2016 
z
" transform="scale(0.015625)"/>
       </defs>
       <use xlink:href="#TimesNewRomanPSMT-30"/>
      </g>
     </g>
    </g>
    <g id="xtick_2">
     <g id="line2d_3">
      <path d="M 142.595301 242.598125 
L 142.595301 20.838125 
" clip-path="url(#p5376f017a7)" style="fill: none; stroke: #b0b0b0; stroke-opacity: 0.3; stroke-width: 0.5; stroke-linecap: square"/>
     </g>
     <g id="line2d_4">
      <g>
       <use xlink:href="#m2c3f20832e" x="142.595301" y="242.598125" style="stroke: #000000; stroke-width: 0.8"/>
      </g>
     </g>
     <g id="text_2">
      <!-- 10 -->
      <g transform="translate(138.095301 252.3475) scale(0.09 -0.09)">
       <defs>
        <path id="TimesNewRomanPSMT-31" d="M 750 3822 
L 1781 4325 
L 1884 4325 
L 1884 747 
Q 1884 391 1914 303 
Q 1944 216 2037 169 
Q 2131 122 2419 116 
L 2419 0 
L 825 0 
L 825 116 
Q 1125 122 1212 167 
Q 1300 213 1334 289 
Q 1369 366 1369 747 
L 1369 3034 
Q 1369 3497 1338 3628 
Q 1316 3728 1258 3775 
Q 1200 3822 1119 3822 
Q 1003 3822 797 3725 
L 750 3822 
z
" transform="scale(0.015625)"/>
       </defs>
       <use xlink:href="#TimesNewRomanPSMT-31"/>
       <use xlink:href="#TimesNewRomanPSMT-30" transform="translate(50 0)"/>
      </g>
     </g>
    </g>
    <g id="xtick_3">
     <g id="line2d_5">
      <path d="M 222.690994 242.598125 
L 222.690994 20.838125 
" clip-path="url(#p5376f017a7)" style="fill: none; stroke: #b0b0b0; stroke-opacity: 0.3; stroke-width: 0.5; stroke-linecap: square"/>
     </g>
     <g id="line2d_6">
      <g>
       <use xlink:href="#m2c3f20832e" x="222.690994" y="242.598125" style="stroke: #000000; stroke-width: 0.8"/>
      </g>
     </g>
     <g id="text_3">
      <!-- 20 -->
      <g transform="translate(218.190994 252.3475) scale(0.09 -0.09)">
       <defs>
        <path id="TimesNewRomanPSMT-32" d="M 2934 816 
L 2638 0 
L 138 0 
L 138 116 
Q 1241 1122 1691 1759 
Q 2141 2397 2141 2925 
Q 2141 3328 1894 3587 
Q 1647 3847 1303 3847 
Q 991 3847 742 3664 
Q 494 3481 375 3128 
L 259 3128 
Q 338 3706 661 4015 
Q 984 4325 1469 4325 
Q 1984 4325 2329 3994 
Q 2675 3663 2675 3213 
Q 2675 2891 2525 2569 
Q 2294 2063 1775 1497 
Q 997 647 803 472 
L 1909 472 
Q 2247 472 2383 497 
Q 2519 522 2628 598 
Q 2738 675 2819 816 
L 2934 816 
z
" transform="scale(0.015625)"/>
       </defs>
       <use xlink:href="#TimesNewRomanPSMT-32"/>
       <use xlink:href="#TimesNewRomanPSMT-30" transform="translate(50 0)"/>
      </g>
     </g>
    </g>
    <g id="xtick_4">
     <g id="line2d_7">
      <path d="M 302.786688 242.598125 
L 302.786688 20.838125 
" clip-path="url(#p5376f017a7)" style="fill: none; stroke: #b0b0b0; stroke-opacity: 0.3; stroke-width: 0.5; stroke-linecap: square"/>
     </g>
     <g id="line2d_8">
      <g>
       <use xlink:href="#m2c3f20832e" x="302.786688" y="242.598125" style="stroke: #000000; stroke-width: 0.8"/>
      </g>
     </g>
     <g id="text_4">
      <!-- 30 -->
      <g transform="translate(298.286688 252.3475) scale(0.09 -0.09)">
       <defs>
        <path id="TimesNewRomanPSMT-33" d="M 325 3431 
Q 506 3859 782 4092 
Q 1059 4325 1472 4325 
Q 1981 4325 2253 3994 
Q 2459 3747 2459 3466 
Q 2459 3003 1878 2509 
Q 2269 2356 2469 2072 
Q 2669 1788 2669 1403 
Q 2669 853 2319 450 
Q 1863 -75 997 -75 
Q 569 -75 414 31 
Q 259 138 259 259 
Q 259 350 332 419 
Q 406 488 509 488 
Q 588 488 669 463 
Q 722 447 909 348 
Q 1097 250 1169 231 
Q 1284 197 1416 197 
Q 1734 197 1970 444 
Q 2206 691 2206 1028 
Q 2206 1275 2097 1509 
Q 2016 1684 1919 1775 
Q 1784 1900 1550 2001 
Q 1316 2103 1072 2103 
L 972 2103 
L 972 2197 
Q 1219 2228 1467 2375 
Q 1716 2522 1828 2728 
Q 1941 2934 1941 3181 
Q 1941 3503 1739 3701 
Q 1538 3900 1238 3900 
Q 753 3900 428 3381 
L 325 3431 
z
" transform="scale(0.015625)"/>
       </defs>
       <use xlink:href="#TimesNewRomanPSMT-33"/>
       <use xlink:href="#TimesNewRomanPSMT-30" transform="translate(50 0)"/>
      </g>
     </g>
    </g>
    <g id="xtick_5">
     <g id="line2d_9">
      <path d="M 382.882382 242.598125 
L 382.882382 20.838125 
" clip-path="url(#p5376f017a7)" style="fill: none; stroke: #b0b0b0; stroke-opacity: 0.3; stroke-width: 0.5; stroke-linecap: square"/>
     </g>
     <g id="line2d_10">
      <g>
       <use xlink:href="#m2c3f20832e" x="382.882382" y="242.598125" style="stroke: #000000; stroke-width: 0.8"/>
      </g>
     </g>
     <g id="text_5">
      <!-- 40 -->
      <g transform="translate(378.382382 252.3475) scale(0.09 -0.09)">
       <defs>
        <path id="TimesNewRomanPSMT-34" d="M 2978 1563 
L 2978 1119 
L 2409 1119 
L 2409 0 
L 1894 0 
L 1894 1119 
L 100 1119 
L 100 1519 
L 2066 4325 
L 2409 4325 
L 2409 1563 
L 2978 1563 
z
M 1894 1563 
L 1894 3666 
L 406 1563 
L 1894 1563 
z
" transform="scale(0.015625)"/>
       </defs>
       <use xlink:href="#TimesNewRomanPSMT-34"/>
       <use xlink:href="#TimesNewRomanPSMT-30" transform="translate(50 0)"/>
      </g>
     </g>
    </g>
    <g id="xtick_6">
     <g id="line2d_11">
      <path d="M 462.978076 242.598125 
L 462.978076 20.838125 
" clip-path="url(#p5376f017a7)" style="fill: none; stroke: #b0b0b0; stroke-opacity: 0.3; stroke-width: 0.5; stroke-linecap: square"/>
     </g>
     <g id="line2d_12">
      <g>
       <use xlink:href="#m2c3f20832e" x="462.978076" y="242.598125" style="stroke: #000000; stroke-width: 0.8"/>
      </g>
     </g>
     <g id="text_6">
      <!-- 50 -->
      <g transform="translate(458.478076 252.3475) scale(0.09 -0.09)">
       <defs>
        <path id="TimesNewRomanPSMT-35" d="M 2778 4238 
L 2534 3706 
L 1259 3706 
L 981 3138 
Q 1809 3016 2294 2522 
Q 2709 2097 2709 1522 
Q 2709 1188 2573 903 
Q 2438 619 2231 419 
Q 2025 219 1772 97 
Q 1413 -75 1034 -75 
Q 653 -75 479 54 
Q 306 184 306 341 
Q 306 428 378 495 
Q 450 563 559 563 
Q 641 563 702 538 
Q 763 513 909 409 
Q 1144 247 1384 247 
Q 1750 247 2026 523 
Q 2303 800 2303 1197 
Q 2303 1581 2056 1914 
Q 1809 2247 1375 2428 
Q 1034 2569 447 2591 
L 1259 4238 
L 2778 4238 
z
" transform="scale(0.015625)"/>
       </defs>
       <use xlink:href="#TimesNewRomanPSMT-35"/>
       <use xlink:href="#TimesNewRomanPSMT-30" transform="translate(50 0)"/>
      </g>
     </g>
    </g>
    <g id="xtick_7">
     <g id="line2d_13">
      <path d="M 543.073769 242.598125 
L 543.073769 20.838125 
" clip-path="url(#p5376f017a7)" style="fill: none; stroke: #b0b0b0; stroke-opacity: 0.3; stroke-width: 0.5; stroke-linecap: square"/>
     </g>
     <g id="line2d_14">
      <g>
       <use xlink:href="#m2c3f20832e" x="543.073769" y="242.598125" style="stroke: #000000; stroke-width: 0.8"/>
      </g>
     </g>
     <g id="text_7">
      <!-- 60 -->
      <g transform="translate(538.573769 252.3475) scale(0.09 -0.09)">
       <defs>
        <path id="TimesNewRomanPSMT-36" d="M 2869 4325 
L 2869 4209 
Q 2456 4169 2195 4045 
Q 1934 3922 1679 3669 
Q 1425 3416 1258 3105 
Q 1091 2794 978 2366 
Q 1428 2675 1881 2675 
Q 2316 2675 2634 2325 
Q 2953 1975 2953 1425 
Q 2953 894 2631 456 
Q 2244 -75 1606 -75 
Q 1172 -75 869 213 
Q 275 772 275 1663 
Q 275 2231 503 2743 
Q 731 3256 1154 3653 
Q 1578 4050 1965 4187 
Q 2353 4325 2688 4325 
L 2869 4325 
z
M 925 2138 
Q 869 1716 869 1456 
Q 869 1156 980 804 
Q 1091 453 1309 247 
Q 1469 100 1697 100 
Q 1969 100 2183 356 
Q 2397 613 2397 1088 
Q 2397 1622 2184 2012 
Q 1972 2403 1581 2403 
Q 1463 2403 1327 2353 
Q 1191 2303 925 2138 
z
" transform="scale(0.015625)"/>
       </defs>
       <use xlink:href="#TimesNewRomanPSMT-36"/>
       <use xlink:href="#TimesNewRomanPSMT-30" transform="translate(50 0)"/>
      </g>
     </g>
    </g>
    <g id="xtick_8">
     <g id="line2d_15">
      <path d="M 623.169463 242.598125 
L 623.169463 20.838125 
" clip-path="url(#p5376f017a7)" style="fill: none; stroke: #b0b0b0; stroke-opacity: 0.3; stroke-width: 0.5; stroke-linecap: square"/>
     </g>
     <g id="line2d_16">
      <g>
       <use xlink:href="#m2c3f20832e" x="623.169463" y="242.598125" style="stroke: #000000; stroke-width: 0.8"/>
      </g>
     </g>
     <g id="text_8">
      <!-- 70 -->
      <g transform="translate(618.669463 252.3475) scale(0.09 -0.09)">
       <defs>
        <path id="TimesNewRomanPSMT-37" d="M 644 4238 
L 2916 4238 
L 2916 4119 
L 1503 -88 
L 1153 -88 
L 2419 3728 
L 1253 3728 
Q 900 3728 750 3644 
Q 488 3500 328 3200 
L 238 3234 
L 644 4238 
z
" transform="scale(0.015625)"/>
       </defs>
       <use xlink:href="#TimesNewRomanPSMT-37"/>
       <use xlink:href="#TimesNewRomanPSMT-30" transform="translate(50 0)"/>
      </g>
     </g>
    </g>
    <g id="xtick_9">
     <g id="line2d_17">
      <path d="M 703.265157 242.598125 
L 703.265157 20.838125 
" clip-path="url(#p5376f017a7)" style="fill: none; stroke: #b0b0b0; stroke-opacity: 0.3; stroke-width: 0.5; stroke-linecap: square"/>
     </g>
     <g id="line2d_18">
      <g>
       <use xlink:href="#m2c3f20832e" x="703.265157" y="242.598125" style="stroke: #000000; stroke-width: 0.8"/>
      </g>
     </g>
     <g id="text_9">
      <!-- 80 -->
      <g transform="translate(698.765157 252.3475) scale(0.09 -0.09)">
       <defs>
        <path id="TimesNewRomanPSMT-38" d="M 1228 2134 
Q 725 2547 579 2797 
Q 434 3047 434 3316 
Q 434 3728 753 4026 
Q 1072 4325 1600 4325 
Q 2113 4325 2425 4047 
Q 2738 3769 2738 3413 
Q 2738 3175 2569 2928 
Q 2400 2681 1866 2347 
Q 2416 1922 2594 1678 
Q 2831 1359 2831 1006 
Q 2831 559 2490 242 
Q 2150 -75 1597 -75 
Q 994 -75 656 303 
Q 388 606 388 966 
Q 388 1247 577 1523 
Q 766 1800 1228 2134 
z
M 1719 2469 
Q 2094 2806 2194 3001 
Q 2294 3197 2294 3444 
Q 2294 3772 2109 3958 
Q 1925 4144 1606 4144 
Q 1288 4144 1088 3959 
Q 888 3775 888 3528 
Q 888 3366 970 3203 
Q 1053 3041 1206 2894 
L 1719 2469 
z
M 1375 2016 
Q 1116 1797 991 1539 
Q 866 1281 866 981 
Q 866 578 1086 336 
Q 1306 94 1647 94 
Q 1984 94 2187 284 
Q 2391 475 2391 747 
Q 2391 972 2272 1150 
Q 2050 1481 1375 2016 
z
" transform="scale(0.015625)"/>
       </defs>
       <use xlink:href="#TimesNewRomanPSMT-38"/>
       <use xlink:href="#TimesNewRomanPSMT-30" transform="translate(50 0)"/>
      </g>
     </g>
    </g>
    <g id="text_10">
     <!-- Epoch -->
     <g transform="translate(362.099375 265.216406) scale(0.1 -0.1)">
      <defs>
       <path id="TimesNewRomanPSMT-45" d="M 1338 4006 
L 1338 2331 
L 2269 2331 
Q 2631 2331 2753 2441 
Q 2916 2584 2934 2947 
L 3050 2947 
L 3050 1472 
L 2934 1472 
Q 2891 1781 2847 1869 
Q 2791 1978 2662 2040 
Q 2534 2103 2269 2103 
L 1338 2103 
L 1338 706 
Q 1338 425 1363 364 
Q 1388 303 1450 267 
Q 1513 231 1688 231 
L 2406 231 
Q 2766 231 2928 281 
Q 3091 331 3241 478 
Q 3434 672 3638 1063 
L 3763 1063 
L 3397 0 
L 131 0 
L 131 116 
L 281 116 
Q 431 116 566 188 
Q 666 238 702 338 
Q 738 438 738 747 
L 738 3500 
Q 738 3903 656 3997 
Q 544 4122 281 4122 
L 131 4122 
L 131 4238 
L 3397 4238 
L 3444 3309 
L 3322 3309 
Q 3256 3644 3176 3769 
Q 3097 3894 2941 3959 
Q 2816 4006 2500 4006 
L 1338 4006 
z
" transform="scale(0.015625)"/>
       <path id="TimesNewRomanPSMT-70" d="M -6 2578 
L 875 2934 
L 994 2934 
L 994 2266 
Q 1216 2644 1439 2795 
Q 1663 2947 1909 2947 
Q 2341 2947 2628 2609 
Q 2981 2197 2981 1534 
Q 2981 794 2556 309 
Q 2206 -88 1675 -88 
Q 1444 -88 1275 -22 
Q 1150 25 994 166 
L 994 -706 
Q 994 -1000 1030 -1079 
Q 1066 -1159 1155 -1206 
Q 1244 -1253 1478 -1253 
L 1478 -1369 
L -22 -1369 
L -22 -1253 
L 56 -1253 
Q 228 -1256 350 -1188 
Q 409 -1153 442 -1076 
Q 475 -1000 475 -688 
L 475 2019 
Q 475 2297 450 2372 
Q 425 2447 370 2484 
Q 316 2522 222 2522 
Q 147 2522 31 2478 
L -6 2578 
z
M 994 2081 
L 994 1013 
Q 994 666 1022 556 
Q 1066 375 1236 237 
Q 1406 100 1666 100 
Q 1978 100 2172 344 
Q 2425 663 2425 1241 
Q 2425 1897 2138 2250 
Q 1938 2494 1663 2494 
Q 1513 2494 1366 2419 
Q 1253 2363 994 2081 
z
" transform="scale(0.015625)"/>
       <path id="TimesNewRomanPSMT-6f" d="M 1600 2947 
Q 2250 2947 2644 2453 
Q 2978 2031 2978 1484 
Q 2978 1100 2793 706 
Q 2609 313 2286 112 
Q 1963 -88 1566 -88 
Q 919 -88 538 428 
Q 216 863 216 1403 
Q 216 1797 411 2186 
Q 606 2575 925 2761 
Q 1244 2947 1600 2947 
z
M 1503 2744 
Q 1338 2744 1170 2645 
Q 1003 2547 900 2300 
Q 797 2053 797 1666 
Q 797 1041 1045 587 
Q 1294 134 1700 134 
Q 2003 134 2200 384 
Q 2397 634 2397 1244 
Q 2397 2006 2069 2444 
Q 1847 2744 1503 2744 
z
" transform="scale(0.015625)"/>
       <path id="TimesNewRomanPSMT-63" d="M 2631 1088 
Q 2516 522 2178 217 
Q 1841 -88 1431 -88 
Q 944 -88 581 321 
Q 219 731 219 1428 
Q 219 2103 620 2525 
Q 1022 2947 1584 2947 
Q 2006 2947 2278 2723 
Q 2550 2500 2550 2259 
Q 2550 2141 2473 2067 
Q 2397 1994 2259 1994 
Q 2075 1994 1981 2113 
Q 1928 2178 1911 2362 
Q 1894 2547 1784 2644 
Q 1675 2738 1481 2738 
Q 1169 2738 978 2506 
Q 725 2200 725 1697 
Q 725 1184 976 792 
Q 1228 400 1656 400 
Q 1963 400 2206 609 
Q 2378 753 2541 1131 
L 2631 1088 
z
" transform="scale(0.015625)"/>
       <path id="TimesNewRomanPSMT-68" d="M 1041 4444 
L 1041 2350 
Q 1388 2731 1591 2839 
Q 1794 2947 1997 2947 
Q 2241 2947 2416 2812 
Q 2591 2678 2675 2391 
Q 2734 2191 2734 1659 
L 2734 647 
Q 2734 375 2778 275 
Q 2809 200 2884 156 
Q 2959 113 3159 113 
L 3159 0 
L 1753 0 
L 1753 113 
L 1819 113 
Q 2019 113 2097 173 
Q 2175 234 2206 353 
Q 2216 403 2216 647 
L 2216 1659 
Q 2216 2128 2167 2275 
Q 2119 2422 2012 2495 
Q 1906 2569 1756 2569 
Q 1603 2569 1437 2487 
Q 1272 2406 1041 2159 
L 1041 647 
Q 1041 353 1073 281 
Q 1106 209 1195 161 
Q 1284 113 1503 113 
L 1503 0 
L 84 0 
L 84 113 
Q 275 113 384 172 
Q 447 203 484 290 
Q 522 378 522 647 
L 522 3238 
Q 522 3728 498 3840 
Q 475 3953 426 3993 
Q 378 4034 297 4034 
Q 231 4034 84 3984 
L 41 4094 
L 897 4444 
L 1041 4444 
z
" transform="scale(0.015625)"/>
      </defs>
      <use xlink:href="#TimesNewRomanPSMT-45"/>
      <use xlink:href="#TimesNewRomanPSMT-70" transform="translate(61.083984 0)"/>
      <use xlink:href="#TimesNewRomanPSMT-6f" transform="translate(111.083984 0)"/>
      <use xlink:href="#TimesNewRomanPSMT-63" transform="translate(161.083984 0)"/>
      <use xlink:href="#TimesNewRomanPSMT-68" transform="translate(205.46875 0)"/>
     </g>
    </g>
   </g>
   <g id="matplotlib.axis_2">
    <g id="ytick_1">
     <g id="line2d_19">
      <path d="M 40.072812 232.518125 
L 709.672812 232.518125 
" clip-path="url(#p5376f017a7)" style="fill: none; stroke: #b0b0b0; stroke-opacity: 0.3; stroke-width: 0.5; stroke-linecap: square"/>
     </g>
     <g id="line2d_20">
      <defs>
       <path id="m49aa0cb61b" d="M 0 0 
L 3 0 
" style="stroke: #000000; stroke-width: 0.8"/>
      </defs>
      <g>
       <use xlink:href="#m49aa0cb61b" x="40.072812" y="232.518125" style="stroke: #000000; stroke-width: 0.8"/>
      </g>
     </g>
     <g id="text_11">
      <!-- $\mathdefault{10^{-2}}$ -->
      <g transform="translate(20.282812 236.505547) scale(0.09 -0.09)">
       <defs>
        <path id="TimesNewRomanPSMT-2212" d="M 3484 2000 
L 116 2000 
L 116 2256 
L 3484 2256 
L 3484 2000 
z
" transform="scale(0.015625)"/>
       </defs>
       <use xlink:href="#TimesNewRomanPSMT-31" transform="translate(0 0.582813)"/>
       <use xlink:href="#TimesNewRomanPSMT-30" transform="translate(50 0.582813)"/>
       <use xlink:href="#TimesNewRomanPSMT-2212" transform="translate(101.502813 60.695312) scale(0.7)"/>
       <use xlink:href="#TimesNewRomanPSMT-32" transform="translate(140.980352 60.695312) scale(0.7)"/>
      </g>
     </g>
    </g>
    <g id="ytick_2">
     <g id="line2d_21">
      <path d="M 40.072812 131.718125 
L 709.672812 131.718125 
" clip-path="url(#p5376f017a7)" style="fill: none; stroke: #b0b0b0; stroke-opacity: 0.3; stroke-width: 0.5; stroke-linecap: square"/>
     </g>
     <g id="line2d_22">
      <g>
       <use xlink:href="#m49aa0cb61b" x="40.072812" y="131.718125" style="stroke: #000000; stroke-width: 0.8"/>
      </g>
     </g>
     <g id="text_12">
      <!-- $\mathdefault{10^{-1}}$ -->
      <g transform="translate(20.282812 135.705547) scale(0.09 -0.09)">
       <use xlink:href="#TimesNewRomanPSMT-31" transform="translate(0 0.582813)"/>
       <use xlink:href="#TimesNewRomanPSMT-30" transform="translate(50 0.582813)"/>
       <use xlink:href="#TimesNewRomanPSMT-2212" transform="translate(101.502813 60.695312) scale(0.7)"/>
       <use xlink:href="#TimesNewRomanPSMT-31" transform="translate(140.980352 60.695312) scale(0.7)"/>
      </g>
     </g>
    </g>
    <g id="ytick_3">
     <g id="line2d_23">
      <path d="M 40.072812 30.918125 
L 709.672812 30.918125 
" clip-path="url(#p5376f017a7)" style="fill: none; stroke: #b0b0b0; stroke-opacity: 0.3; stroke-width: 0.5; stroke-linecap: square"/>
     </g>
     <g id="line2d_24">
      <g>
       <use xlink:href="#m49aa0cb61b" x="40.072812" y="30.918125" style="stroke: #000000; stroke-width: 0.8"/>
      </g>
     </g>
     <g id="text_13">
      <!-- $\mathdefault{10^{0}}$ -->
      <g transform="translate(23.882812 34.905547) scale(0.09 -0.09)">
       <use xlink:href="#TimesNewRomanPSMT-31" transform="translate(0 0.582813)"/>
       <use xlink:href="#TimesNewRomanPSMT-30" transform="translate(50 0.582813)"/>
       <use xlink:href="#TimesNewRomanPSMT-30" transform="translate(101.502813 60.695312) scale(0.7)"/>
      </g>
     </g>
    </g>
    <g id="ytick_4">
     <g id="line2d_25">
      <defs>
       <path id="mafe5a95f88" d="M 0 0 
L 1.5 0 
" style="stroke: #000000; stroke-width: 0.6"/>
      </defs>
      <g>
       <use xlink:href="#mafe5a95f88" x="40.072812" y="242.286654" style="stroke: #000000; stroke-width: 0.6"/>
      </g>
     </g>
    </g>
    <g id="ytick_5">
     <g id="line2d_26">
      <g>
       <use xlink:href="#mafe5a95f88" x="40.072812" y="237.13048" style="stroke: #000000; stroke-width: 0.6"/>
      </g>
     </g>
    </g>
    <g id="ytick_6">
     <g id="line2d_27">
      <g>
       <use xlink:href="#mafe5a95f88" x="40.072812" y="202.174301" style="stroke: #000000; stroke-width: 0.6"/>
      </g>
     </g>
    </g>
    <g id="ytick_7">
     <g id="line2d_28">
      <g>
       <use xlink:href="#mafe5a95f88" x="40.072812" y="184.424303" style="stroke: #000000; stroke-width: 0.6"/>
      </g>
     </g>
    </g>
    <g id="ytick_8">
     <g id="line2d_29">
      <g>
       <use xlink:href="#mafe5a95f88" x="40.072812" y="171.830478" style="stroke: #000000; stroke-width: 0.6"/>
      </g>
     </g>
    </g>
    <g id="ytick_9">
     <g id="line2d_30">
      <g>
       <use xlink:href="#mafe5a95f88" x="40.072812" y="162.061949" style="stroke: #000000; stroke-width: 0.6"/>
      </g>
     </g>
    </g>
    <g id="ytick_10">
     <g id="line2d_31">
      <g>
       <use xlink:href="#mafe5a95f88" x="40.072812" y="154.080479" style="stroke: #000000; stroke-width: 0.6"/>
      </g>
     </g>
    </g>
    <g id="ytick_11">
     <g id="line2d_32">
      <g>
       <use xlink:href="#mafe5a95f88" x="40.072812" y="147.332243" style="stroke: #000000; stroke-width: 0.6"/>
      </g>
     </g>
    </g>
    <g id="ytick_12">
     <g id="line2d_33">
      <g>
       <use xlink:href="#mafe5a95f88" x="40.072812" y="141.486654" style="stroke: #000000; stroke-width: 0.6"/>
      </g>
     </g>
    </g>
    <g id="ytick_13">
     <g id="line2d_34">
      <g>
       <use xlink:href="#mafe5a95f88" x="40.072812" y="136.33048" style="stroke: #000000; stroke-width: 0.6"/>
      </g>
     </g>
    </g>
    <g id="ytick_14">
     <g id="line2d_35">
      <g>
       <use xlink:href="#mafe5a95f88" x="40.072812" y="101.374301" style="stroke: #000000; stroke-width: 0.6"/>
      </g>
     </g>
    </g>
    <g id="ytick_15">
     <g id="line2d_36">
      <g>
       <use xlink:href="#mafe5a95f88" x="40.072812" y="83.624303" style="stroke: #000000; stroke-width: 0.6"/>
      </g>
     </g>
    </g>
    <g id="ytick_16">
     <g id="line2d_37">
      <g>
       <use xlink:href="#mafe5a95f88" x="40.072812" y="71.030478" style="stroke: #000000; stroke-width: 0.6"/>
      </g>
     </g>
    </g>
    <g id="ytick_17">
     <g id="line2d_38">
      <g>
       <use xlink:href="#mafe5a95f88" x="40.072812" y="61.261949" style="stroke: #000000; stroke-width: 0.6"/>
      </g>
     </g>
    </g>
    <g id="ytick_18">
     <g id="line2d_39">
      <g>
       <use xlink:href="#mafe5a95f88" x="40.072812" y="53.280479" style="stroke: #000000; stroke-width: 0.6"/>
      </g>
     </g>
    </g>
    <g id="ytick_19">
     <g id="line2d_40">
      <g>
       <use xlink:href="#mafe5a95f88" x="40.072812" y="46.532243" style="stroke: #000000; stroke-width: 0.6"/>
      </g>
     </g>
    </g>
    <g id="ytick_20">
     <g id="line2d_41">
      <g>
       <use xlink:href="#mafe5a95f88" x="40.072812" y="40.686654" style="stroke: #000000; stroke-width: 0.6"/>
      </g>
     </g>
    </g>
    <g id="ytick_21">
     <g id="line2d_42">
      <g>
       <use xlink:href="#mafe5a95f88" x="40.072812" y="35.53048" style="stroke: #000000; stroke-width: 0.6"/>
      </g>
     </g>
    </g>
    <g id="text_14">
     <!-- Gradient Norm -->
     <g transform="translate(14.14375 162.125937) rotate(-90) scale(0.1 -0.1)">
      <defs>
       <path id="TimesNewRomanPSMT-47" d="M 3928 4334 
L 4038 2997 
L 3928 2997 
Q 3763 3497 3500 3750 
Q 3122 4116 2528 4116 
Q 1719 4116 1297 3475 
Q 944 2934 944 2188 
Q 944 1581 1178 1081 
Q 1413 581 1792 348 
Q 2172 116 2572 116 
Q 2806 116 3025 175 
Q 3244 234 3447 350 
L 3447 1575 
Q 3447 1894 3398 1992 
Q 3350 2091 3248 2142 
Q 3147 2194 2891 2194 
L 2891 2313 
L 4531 2313 
L 4531 2194 
L 4453 2194 
Q 4209 2194 4119 2031 
Q 4056 1916 4056 1575 
L 4056 278 
Q 3697 84 3347 -6 
Q 2997 -97 2569 -97 
Q 1341 -97 703 691 
Q 225 1281 225 2053 
Q 225 2613 494 3125 
Q 813 3734 1369 4063 
Q 1834 4334 2469 4334 
Q 2700 4334 2889 4296 
Q 3078 4259 3425 4131 
Q 3600 4066 3659 4066 
Q 3719 4066 3761 4120 
Q 3803 4175 3813 4334 
L 3928 4334 
z
" transform="scale(0.015625)"/>
       <path id="TimesNewRomanPSMT-72" d="M 1038 2947 
L 1038 2303 
Q 1397 2947 1775 2947 
Q 1947 2947 2059 2842 
Q 2172 2738 2172 2600 
Q 2172 2478 2090 2393 
Q 2009 2309 1897 2309 
Q 1788 2309 1652 2417 
Q 1516 2525 1450 2525 
Q 1394 2525 1328 2463 
Q 1188 2334 1038 2041 
L 1038 669 
Q 1038 431 1097 309 
Q 1138 225 1241 169 
Q 1344 113 1538 113 
L 1538 0 
L 72 0 
L 72 113 
Q 291 113 397 181 
Q 475 231 506 341 
Q 522 394 522 644 
L 522 1753 
Q 522 2253 501 2348 
Q 481 2444 426 2487 
Q 372 2531 291 2531 
Q 194 2531 72 2484 
L 41 2597 
L 906 2947 
L 1038 2947 
z
" transform="scale(0.015625)"/>
       <path id="TimesNewRomanPSMT-61" d="M 1822 413 
Q 1381 72 1269 19 
Q 1100 -59 909 -59 
Q 613 -59 420 144 
Q 228 347 228 678 
Q 228 888 322 1041 
Q 450 1253 767 1440 
Q 1084 1628 1822 1897 
L 1822 2009 
Q 1822 2438 1686 2597 
Q 1550 2756 1291 2756 
Q 1094 2756 978 2650 
Q 859 2544 859 2406 
L 866 2225 
Q 866 2081 792 2003 
Q 719 1925 600 1925 
Q 484 1925 411 2006 
Q 338 2088 338 2228 
Q 338 2497 613 2722 
Q 888 2947 1384 2947 
Q 1766 2947 2009 2819 
Q 2194 2722 2281 2516 
Q 2338 2381 2338 1966 
L 2338 994 
Q 2338 584 2353 492 
Q 2369 400 2405 369 
Q 2441 338 2488 338 
Q 2538 338 2575 359 
Q 2641 400 2828 588 
L 2828 413 
Q 2478 -56 2159 -56 
Q 2006 -56 1915 50 
Q 1825 156 1822 413 
z
M 1822 616 
L 1822 1706 
Q 1350 1519 1213 1441 
Q 966 1303 859 1153 
Q 753 1003 753 825 
Q 753 600 887 451 
Q 1022 303 1197 303 
Q 1434 303 1822 616 
z
" transform="scale(0.015625)"/>
       <path id="TimesNewRomanPSMT-64" d="M 2222 322 
Q 2013 103 1813 7 
Q 1613 -88 1381 -88 
Q 913 -88 563 304 
Q 213 697 213 1313 
Q 213 1928 600 2439 
Q 988 2950 1597 2950 
Q 1975 2950 2222 2709 
L 2222 3238 
Q 2222 3728 2198 3840 
Q 2175 3953 2125 3993 
Q 2075 4034 2000 4034 
Q 1919 4034 1784 3984 
L 1744 4094 
L 2597 4444 
L 2738 4444 
L 2738 1134 
Q 2738 631 2761 520 
Q 2784 409 2836 365 
Q 2888 322 2956 322 
Q 3041 322 3181 375 
L 3216 266 
L 2366 -88 
L 2222 -88 
L 2222 322 
z
M 2222 541 
L 2222 2016 
Q 2203 2228 2109 2403 
Q 2016 2578 1861 2667 
Q 1706 2756 1559 2756 
Q 1284 2756 1069 2509 
Q 784 2184 784 1559 
Q 784 928 1059 592 
Q 1334 256 1672 256 
Q 1956 256 2222 541 
z
" transform="scale(0.015625)"/>
       <path id="TimesNewRomanPSMT-69" d="M 928 4444 
Q 1059 4444 1151 4351 
Q 1244 4259 1244 4128 
Q 1244 3997 1151 3903 
Q 1059 3809 928 3809 
Q 797 3809 703 3903 
Q 609 3997 609 4128 
Q 609 4259 701 4351 
Q 794 4444 928 4444 
z
M 1188 2947 
L 1188 647 
Q 1188 378 1227 289 
Q 1266 200 1342 156 
Q 1419 113 1622 113 
L 1622 0 
L 231 0 
L 231 113 
Q 441 113 512 153 
Q 584 194 626 287 
Q 669 381 669 647 
L 669 1750 
Q 669 2216 641 2353 
Q 619 2453 572 2492 
Q 525 2531 444 2531 
Q 356 2531 231 2484 
L 188 2597 
L 1050 2947 
L 1188 2947 
z
" transform="scale(0.015625)"/>
       <path id="TimesNewRomanPSMT-65" d="M 681 1784 
Q 678 1147 991 784 
Q 1303 422 1725 422 
Q 2006 422 2214 576 
Q 2422 731 2563 1106 
L 2659 1044 
Q 2594 616 2278 264 
Q 1963 -88 1488 -88 
Q 972 -88 605 314 
Q 238 716 238 1394 
Q 238 2128 614 2539 
Q 991 2950 1559 2950 
Q 2041 2950 2350 2633 
Q 2659 2316 2659 1784 
L 681 1784 
z
M 681 1966 
L 2006 1966 
Q 1991 2241 1941 2353 
Q 1863 2528 1708 2628 
Q 1553 2728 1384 2728 
Q 1125 2728 920 2526 
Q 716 2325 681 1966 
z
" transform="scale(0.015625)"/>
       <path id="TimesNewRomanPSMT-6e" d="M 1034 2341 
Q 1538 2947 1994 2947 
Q 2228 2947 2397 2830 
Q 2566 2713 2666 2444 
Q 2734 2256 2734 1869 
L 2734 647 
Q 2734 375 2778 278 
Q 2813 200 2889 156 
Q 2966 113 3172 113 
L 3172 0 
L 1756 0 
L 1756 113 
L 1816 113 
Q 2016 113 2095 173 
Q 2175 234 2206 353 
Q 2219 400 2219 647 
L 2219 1819 
Q 2219 2209 2117 2386 
Q 2016 2563 1775 2563 
Q 1403 2563 1034 2156 
L 1034 647 
Q 1034 356 1069 288 
Q 1113 197 1189 155 
Q 1266 113 1500 113 
L 1500 0 
L 84 0 
L 84 113 
L 147 113 
Q 366 113 442 223 
Q 519 334 519 647 
L 519 1709 
Q 519 2225 495 2337 
Q 472 2450 423 2490 
Q 375 2531 294 2531 
Q 206 2531 84 2484 
L 38 2597 
L 900 2947 
L 1034 2947 
L 1034 2341 
z
" transform="scale(0.015625)"/>
       <path id="TimesNewRomanPSMT-74" d="M 1031 3803 
L 1031 2863 
L 1700 2863 
L 1700 2644 
L 1031 2644 
L 1031 788 
Q 1031 509 1111 412 
Q 1191 316 1316 316 
Q 1419 316 1516 380 
Q 1613 444 1666 569 
L 1788 569 
Q 1678 263 1478 108 
Q 1278 -47 1066 -47 
Q 922 -47 784 33 
Q 647 113 581 261 
Q 516 409 516 719 
L 516 2644 
L 63 2644 
L 63 2747 
Q 234 2816 414 2980 
Q 594 3144 734 3369 
Q 806 3488 934 3803 
L 1031 3803 
z
" transform="scale(0.015625)"/>
       <path id="TimesNewRomanPSMT-20" transform="scale(0.015625)"/>
       <path id="TimesNewRomanPSMT-4e" d="M -84 4238 
L 1066 4238 
L 3656 1059 
L 3656 3503 
Q 3656 3894 3569 3991 
Q 3453 4122 3203 4122 
L 3056 4122 
L 3056 4238 
L 4531 4238 
L 4531 4122 
L 4381 4122 
Q 4113 4122 4000 3959 
Q 3931 3859 3931 3503 
L 3931 -69 
L 3819 -69 
L 1025 3344 
L 1025 734 
Q 1025 344 1109 247 
Q 1228 116 1475 116 
L 1625 116 
L 1625 0 
L 150 0 
L 150 116 
L 297 116 
Q 569 116 681 278 
Q 750 378 750 734 
L 750 3681 
Q 566 3897 470 3965 
Q 375 4034 191 4094 
Q 100 4122 -84 4122 
L -84 4238 
z
" transform="scale(0.015625)"/>
       <path id="TimesNewRomanPSMT-6d" d="M 1050 2338 
Q 1363 2650 1419 2697 
Q 1559 2816 1721 2881 
Q 1884 2947 2044 2947 
Q 2313 2947 2506 2790 
Q 2700 2634 2766 2338 
Q 3088 2713 3309 2830 
Q 3531 2947 3766 2947 
Q 3994 2947 4170 2830 
Q 4347 2713 4450 2447 
Q 4519 2266 4519 1878 
L 4519 647 
Q 4519 378 4559 278 
Q 4591 209 4675 161 
Q 4759 113 4950 113 
L 4950 0 
L 3538 0 
L 3538 113 
L 3597 113 
Q 3781 113 3884 184 
Q 3956 234 3988 344 
Q 4000 397 4000 647 
L 4000 1878 
Q 4000 2228 3916 2372 
Q 3794 2572 3525 2572 
Q 3359 2572 3192 2489 
Q 3025 2406 2788 2181 
L 2781 2147 
L 2788 2013 
L 2788 647 
Q 2788 353 2820 281 
Q 2853 209 2943 161 
Q 3034 113 3253 113 
L 3253 0 
L 1806 0 
L 1806 113 
Q 2044 113 2133 169 
Q 2222 225 2256 338 
Q 2272 391 2272 647 
L 2272 1878 
Q 2272 2228 2169 2381 
Q 2031 2581 1784 2581 
Q 1616 2581 1450 2491 
Q 1191 2353 1050 2181 
L 1050 647 
Q 1050 366 1089 281 
Q 1128 197 1204 155 
Q 1281 113 1516 113 
L 1516 0 
L 100 0 
L 100 113 
Q 297 113 375 155 
Q 453 197 493 289 
Q 534 381 534 647 
L 534 1741 
Q 534 2213 506 2350 
Q 484 2453 437 2492 
Q 391 2531 309 2531 
Q 222 2531 100 2484 
L 53 2597 
L 916 2947 
L 1050 2947 
L 1050 2338 
z
" transform="scale(0.015625)"/>
      </defs>
      <use xlink:href="#TimesNewRomanPSMT-47"/>
      <use xlink:href="#TimesNewRomanPSMT-72" transform="translate(72.216797 0)"/>
      <use xlink:href="#TimesNewRomanPSMT-61" transform="translate(105.517578 0)"/>
      <use xlink:href="#TimesNewRomanPSMT-64" transform="translate(149.902344 0)"/>
      <use xlink:href="#TimesNewRomanPSMT-69" transform="translate(199.902344 0)"/>
      <use xlink:href="#TimesNewRomanPSMT-65" transform="translate(227.685547 0)"/>
      <use xlink:href="#TimesNewRomanPSMT-6e" transform="translate(272.070312 0)"/>
      <use xlink:href="#TimesNewRomanPSMT-74" transform="translate(322.070312 0)"/>
      <use xlink:href="#TimesNewRomanPSMT-20" transform="translate(349.853516 0)"/>
      <use xlink:href="#TimesNewRomanPSMT-4e" transform="translate(374.853516 0)"/>
      <use xlink:href="#TimesNewRomanPSMT-6f" transform="translate(447.070312 0)"/>
      <use xlink:href="#TimesNewRomanPSMT-72" transform="translate(497.070312 0)"/>
      <use xlink:href="#TimesNewRomanPSMT-6d" transform="translate(530.371094 0)"/>
     </g>
    </g>
   </g>
   <g id="line2d_43">
    <path d="M 70.509176 76.691993 
L 78.518746 88.002536 
L 86.528315 93.374208 
L 94.537884 94.760384 
L 102.547454 96.522205 
L 110.557023 97.708061 
L 118.566592 97.620495 
L 126.576162 98.401183 
L 134.585731 97.999695 
L 142.595301 96.81525 
L 150.60487 96.849678 
L 158.614439 97.563243 
L 166.624009 96.557443 
L 174.633578 96.429949 
L 182.643147 97.331265 
L 190.652717 97.806637 
L 198.662286 98.169692 
L 206.671856 96.751236 
L 214.681425 99.331969 
L 222.690994 97.727386 
L 230.700564 97.873833 
L 238.710133 98.173294 
L 246.719702 98.632848 
L 254.729272 97.863218 
L 262.738841 96.70099 
L 270.748411 97.523243 
L 278.75798 96.65271 
L 286.767549 97.556794 
L 294.777119 97.799035 
L 302.786688 98.564433 
L 310.796257 98.84283 
L 318.805827 97.300322 
L 326.815396 96.729382 
L 334.824966 97.01346 
L 342.834535 96.023066 
L 350.844104 95.645842 
L 358.853674 97.456774 
L 366.863243 97.235677 
L 374.872812 96.701371 
L 382.882382 95.395256 
L 390.891951 94.955276 
L 398.901521 96.985824 
L 406.91109 96.072424 
L 414.920659 96.004217 
L 422.930229 95.822959 
L 430.939798 96.288178 
L 438.949368 94.402901 
L 446.958937 95.556591 
L 454.968506 94.952538 
L 462.978076 94.057844 
L 470.987645 94.884942 
L 478.997214 92.983845 
L 487.006784 92.652739 
L 495.016353 93.731421 
L 503.025923 93.304277 
L 511.035492 91.679005 
L 519.045061 94.11849 
L 527.054631 92.456654 
L 535.0642 93.730707 
L 543.073769 91.129754 
L 551.083339 92.289234 
L 559.092908 91.785288 
L 567.102478 92.341577 
L 575.112047 90.349635 
L 583.121616 89.644454 
L 591.131186 91.013988 
L 599.140755 90.027328 
L 607.150324 90.709344 
L 615.159894 90.479536 
L 623.169463 89.465304 
L 631.179033 88.269014 
L 639.188602 88.861709 
L 647.198171 86.376892 
L 655.207741 87.791338 
L 663.21731 88.584982 
L 671.226879 87.467084 
L 679.236449 87.989536 
" clip-path="url(#p5376f017a7)" style="fill: none; stroke: #1f77b4; stroke-width: 1.2; stroke-linecap: square"/>
    <defs>
     <path id="m0e0bbde295" d="M -1.5 1.5 
L 1.5 1.5 
L 1.5 -1.5 
L -1.5 -1.5 
z
" style="stroke: #1f77b4; stroke-linejoin: miter"/>
    </defs>
    <g clip-path="url(#p5376f017a7)">
     <use xlink:href="#m0e0bbde295" x="70.509176" y="76.691993" style="fill: #1f77b4; stroke: #1f77b4; stroke-linejoin: miter"/>
     <use xlink:href="#m0e0bbde295" x="86.528315" y="93.374208" style="fill: #1f77b4; stroke: #1f77b4; stroke-linejoin: miter"/>
     <use xlink:href="#m0e0bbde295" x="102.547454" y="96.522205" style="fill: #1f77b4; stroke: #1f77b4; stroke-linejoin: miter"/>
     <use xlink:href="#m0e0bbde295" x="118.566592" y="97.620495" style="fill: #1f77b4; stroke: #1f77b4; stroke-linejoin: miter"/>
     <use xlink:href="#m0e0bbde295" x="134.585731" y="97.999695" style="fill: #1f77b4; stroke: #1f77b4; stroke-linejoin: miter"/>
     <use xlink:href="#m0e0bbde295" x="150.60487" y="96.849678" style="fill: #1f77b4; stroke: #1f77b4; stroke-linejoin: miter"/>
     <use xlink:href="#m0e0bbde295" x="166.624009" y="96.557443" style="fill: #1f77b4; stroke: #1f77b4; stroke-linejoin: miter"/>
     <use xlink:href="#m0e0bbde295" x="182.643147" y="97.331265" style="fill: #1f77b4; stroke: #1f77b4; stroke-linejoin: miter"/>
     <use xlink:href="#m0e0bbde295" x="198.662286" y="98.169692" style="fill: #1f77b4; stroke: #1f77b4; stroke-linejoin: miter"/>
     <use xlink:href="#m0e0bbde295" x="214.681425" y="99.331969" style="fill: #1f77b4; stroke: #1f77b4; stroke-linejoin: miter"/>
     <use xlink:href="#m0e0bbde295" x="230.700564" y="97.873833" style="fill: #1f77b4; stroke: #1f77b4; stroke-linejoin: miter"/>
     <use xlink:href="#m0e0bbde295" x="246.719702" y="98.632848" style="fill: #1f77b4; stroke: #1f77b4; stroke-linejoin: miter"/>
     <use xlink:href="#m0e0bbde295" x="262.738841" y="96.70099" style="fill: #1f77b4; stroke: #1f77b4; stroke-linejoin: miter"/>
     <use xlink:href="#m0e0bbde295" x="278.75798" y="96.65271" style="fill: #1f77b4; stroke: #1f77b4; stroke-linejoin: miter"/>
     <use xlink:href="#m0e0bbde295" x="294.777119" y="97.799035" style="fill: #1f77b4; stroke: #1f77b4; stroke-linejoin: miter"/>
     <use xlink:href="#m0e0bbde295" x="310.796257" y="98.84283" style="fill: #1f77b4; stroke: #1f77b4; stroke-linejoin: miter"/>
     <use xlink:href="#m0e0bbde295" x="326.815396" y="96.729382" style="fill: #1f77b4; stroke: #1f77b4; stroke-linejoin: miter"/>
     <use xlink:href="#m0e0bbde295" x="342.834535" y="96.023066" style="fill: #1f77b4; stroke: #1f77b4; stroke-linejoin: miter"/>
     <use xlink:href="#m0e0bbde295" x="358.853674" y="97.456774" style="fill: #1f77b4; stroke: #1f77b4; stroke-linejoin: miter"/>
     <use xlink:href="#m0e0bbde295" x="374.872812" y="96.701371" style="fill: #1f77b4; stroke: #1f77b4; stroke-linejoin: miter"/>
     <use xlink:href="#m0e0bbde295" x="390.891951" y="94.955276" style="fill: #1f77b4; stroke: #1f77b4; stroke-linejoin: miter"/>
     <use xlink:href="#m0e0bbde295" x="406.91109" y="96.072424" style="fill: #1f77b4; stroke: #1f77b4; stroke-linejoin: miter"/>
     <use xlink:href="#m0e0bbde295" x="422.930229" y="95.822959" style="fill: #1f77b4; stroke: #1f77b4; stroke-linejoin: miter"/>
     <use xlink:href="#m0e0bbde295" x="438.949368" y="94.402901" style="fill: #1f77b4; stroke: #1f77b4; stroke-linejoin: miter"/>
     <use xlink:href="#m0e0bbde295" x="454.968506" y="94.952538" style="fill: #1f77b4; stroke: #1f77b4; stroke-linejoin: miter"/>
     <use xlink:href="#m0e0bbde295" x="470.987645" y="94.884942" style="fill: #1f77b4; stroke: #1f77b4; stroke-linejoin: miter"/>
     <use xlink:href="#m0e0bbde295" x="487.006784" y="92.652739" style="fill: #1f77b4; stroke: #1f77b4; stroke-linejoin: miter"/>
     <use xlink:href="#m0e0bbde295" x="503.025923" y="93.304277" style="fill: #1f77b4; stroke: #1f77b4; stroke-linejoin: miter"/>
     <use xlink:href="#m0e0bbde295" x="519.045061" y="94.11849" style="fill: #1f77b4; stroke: #1f77b4; stroke-linejoin: miter"/>
     <use xlink:href="#m0e0bbde295" x="535.0642" y="93.730707" style="fill: #1f77b4; stroke: #1f77b4; stroke-linejoin: miter"/>
     <use xlink:href="#m0e0bbde295" x="551.083339" y="92.289234" style="fill: #1f77b4; stroke: #1f77b4; stroke-linejoin: miter"/>
     <use xlink:href="#m0e0bbde295" x="567.102478" y="92.341577" style="fill: #1f77b4; stroke: #1f77b4; stroke-linejoin: miter"/>
     <use xlink:href="#m0e0bbde295" x="583.121616" y="89.644454" style="fill: #1f77b4; stroke: #1f77b4; stroke-linejoin: miter"/>
     <use xlink:href="#m0e0bbde295" x="599.140755" y="90.027328" style="fill: #1f77b4; stroke: #1f77b4; stroke-linejoin: miter"/>
     <use xlink:href="#m0e0bbde295" x="615.159894" y="90.479536" style="fill: #1f77b4; stroke: #1f77b4; stroke-linejoin: miter"/>
     <use xlink:href="#m0e0bbde295" x="631.179033" y="88.269014" style="fill: #1f77b4; stroke: #1f77b4; stroke-linejoin: miter"/>
     <use xlink:href="#m0e0bbde295" x="647.198171" y="86.376892" style="fill: #1f77b4; stroke: #1f77b4; stroke-linejoin: miter"/>
     <use xlink:href="#m0e0bbde295" x="663.21731" y="88.584982" style="fill: #1f77b4; stroke: #1f77b4; stroke-linejoin: miter"/>
     <use xlink:href="#m0e0bbde295" x="679.236449" y="87.989536" style="fill: #1f77b4; stroke: #1f77b4; stroke-linejoin: miter"/>
    </g>
   </g>
   <g id="line2d_44">
    <path d="M 70.509176 78.599891 
L 78.518746 92.517581 
L 86.528315 100.668822 
L 94.537884 107.171617 
L 102.547454 110.674139 
L 110.557023 114.333466 
L 118.566592 116.25641 
L 126.576162 124.731618 
L 134.585731 119.872606 
L 142.595301 121.900623 
L 150.60487 124.358839 
L 158.614439 122.327003 
L 166.624009 119.204533 
L 174.633578 123.241615 
L 182.643147 123.506019 
L 190.652717 119.494148 
L 198.662286 123.743843 
L 206.671856 120.606537 
L 214.681425 124.460581 
L 222.690994 121.386457 
L 230.700564 123.822273 
L 238.710133 123.439232 
L 246.719702 123.98449 
L 254.729272 123.291836 
L 262.738841 123.888043 
L 270.748411 121.521572 
L 278.75798 117.994248 
L 286.767549 123.997956 
L 294.777119 125.460865 
L 302.786688 119.823107 
L 310.796257 121.648499 
L 318.805827 123.594229 
L 326.815396 119.104306 
L 334.824966 118.657104 
L 342.834535 119.589199 
L 350.844104 118.572964 
L 358.853674 121.519827 
L 366.863243 118.537777 
L 374.872812 118.569742 
L 382.882382 118.022211 
L 390.891951 116.269812 
L 398.901521 115.618319 
L 406.91109 116.710007 
L 414.920659 116.212001 
L 422.930229 118.488642 
L 430.939798 118.883549 
L 438.949368 118.12468 
L 446.958937 115.869526 
L 454.968506 116.896787 
L 462.978076 114.598952 
L 470.987645 115.758846 
L 478.997214 116.324775 
L 487.006784 114.793214 
L 495.016353 114.817431 
L 503.025923 116.204735 
L 511.035492 110.597159 
L 519.045061 114.979377 
L 527.054631 114.452583 
L 535.0642 112.838468 
L 543.073769 110.656262 
L 551.083339 114.273135 
L 559.092908 110.313145 
L 567.102478 111.984118 
L 575.112047 111.830786 
L 583.121616 110.291362 
L 591.131186 111.548804 
L 599.140755 111.253742 
L 607.150324 110.27448 
L 615.159894 110.513638 
L 623.169463 111.393057 
L 631.179033 108.524492 
L 639.188602 106.607733 
L 647.198171 108.241984 
L 655.207741 104.994872 
L 663.21731 111.134258 
L 671.226879 107.644704 
L 679.236449 112.128755 
" clip-path="url(#p5376f017a7)" style="fill: none; stroke: #ff7f0e; stroke-width: 1.2; stroke-linecap: square"/>
    <defs>
     <path id="me67c8a8745" d="M -1.5 1.5 
L 1.5 1.5 
L 1.5 -1.5 
L -1.5 -1.5 
z
" style="stroke: #ff7f0e; stroke-linejoin: miter"/>
    </defs>
    <g clip-path="url(#p5376f017a7)">
     <use xlink:href="#me67c8a8745" x="70.509176" y="78.599891" style="fill: #ff7f0e; stroke: #ff7f0e; stroke-linejoin: miter"/>
     <use xlink:href="#me67c8a8745" x="86.528315" y="100.668822" style="fill: #ff7f0e; stroke: #ff7f0e; stroke-linejoin: miter"/>
     <use xlink:href="#me67c8a8745" x="102.547454" y="110.674139" style="fill: #ff7f0e; stroke: #ff7f0e; stroke-linejoin: miter"/>
     <use xlink:href="#me67c8a8745" x="118.566592" y="116.25641" style="fill: #ff7f0e; stroke: #ff7f0e; stroke-linejoin: miter"/>
     <use xlink:href="#me67c8a8745" x="134.585731" y="119.872606" style="fill: #ff7f0e; stroke: #ff7f0e; stroke-linejoin: miter"/>
     <use xlink:href="#me67c8a8745" x="150.60487" y="124.358839" style="fill: #ff7f0e; stroke: #ff7f0e; stroke-linejoin: miter"/>
     <use xlink:href="#me67c8a8745" x="166.624009" y="119.204533" style="fill: #ff7f0e; stroke: #ff7f0e; stroke-linejoin: miter"/>
     <use xlink:href="#me67c8a8745" x="182.643147" y="123.506019" style="fill: #ff7f0e; stroke: #ff7f0e; stroke-linejoin: miter"/>
     <use xlink:href="#me67c8a8745" x="198.662286" y="123.743843" style="fill: #ff7f0e; stroke: #ff7f0e; stroke-linejoin: miter"/>
     <use xlink:href="#me67c8a8745" x="214.681425" y="124.460581" style="fill: #ff7f0e; stroke: #ff7f0e; stroke-linejoin: miter"/>
     <use xlink:href="#me67c8a8745" x="230.700564" y="123.822273" style="fill: #ff7f0e; stroke: #ff7f0e; stroke-linejoin: miter"/>
     <use xlink:href="#me67c8a8745" x="246.719702" y="123.98449" style="fill: #ff7f0e; stroke: #ff7f0e; stroke-linejoin: miter"/>
     <use xlink:href="#me67c8a8745" x="262.738841" y="123.888043" style="fill: #ff7f0e; stroke: #ff7f0e; stroke-linejoin: miter"/>
     <use xlink:href="#me67c8a8745" x="278.75798" y="117.994248" style="fill: #ff7f0e; stroke: #ff7f0e; stroke-linejoin: miter"/>
     <use xlink:href="#me67c8a8745" x="294.777119" y="125.460865" style="fill: #ff7f0e; stroke: #ff7f0e; stroke-linejoin: miter"/>
     <use xlink:href="#me67c8a8745" x="310.796257" y="121.648499" style="fill: #ff7f0e; stroke: #ff7f0e; stroke-linejoin: miter"/>
     <use xlink:href="#me67c8a8745" x="326.815396" y="119.104306" style="fill: #ff7f0e; stroke: #ff7f0e; stroke-linejoin: miter"/>
     <use xlink:href="#me67c8a8745" x="342.834535" y="119.589199" style="fill: #ff7f0e; stroke: #ff7f0e; stroke-linejoin: miter"/>
     <use xlink:href="#me67c8a8745" x="358.853674" y="121.519827" style="fill: #ff7f0e; stroke: #ff7f0e; stroke-linejoin: miter"/>
     <use xlink:href="#me67c8a8745" x="374.872812" y="118.569742" style="fill: #ff7f0e; stroke: #ff7f0e; stroke-linejoin: miter"/>
     <use xlink:href="#me67c8a8745" x="390.891951" y="116.269812" style="fill: #ff7f0e; stroke: #ff7f0e; stroke-linejoin: miter"/>
     <use xlink:href="#me67c8a8745" x="406.91109" y="116.710007" style="fill: #ff7f0e; stroke: #ff7f0e; stroke-linejoin: miter"/>
     <use xlink:href="#me67c8a8745" x="422.930229" y="118.488642" style="fill: #ff7f0e; stroke: #ff7f0e; stroke-linejoin: miter"/>
     <use xlink:href="#me67c8a8745" x="438.949368" y="118.12468" style="fill: #ff7f0e; stroke: #ff7f0e; stroke-linejoin: miter"/>
     <use xlink:href="#me67c8a8745" x="454.968506" y="116.896787" style="fill: #ff7f0e; stroke: #ff7f0e; stroke-linejoin: miter"/>
     <use xlink:href="#me67c8a8745" x="470.987645" y="115.758846" style="fill: #ff7f0e; stroke: #ff7f0e; stroke-linejoin: miter"/>
     <use xlink:href="#me67c8a8745" x="487.006784" y="114.793214" style="fill: #ff7f0e; stroke: #ff7f0e; stroke-linejoin: miter"/>
     <use xlink:href="#me67c8a8745" x="503.025923" y="116.204735" style="fill: #ff7f0e; stroke: #ff7f0e; stroke-linejoin: miter"/>
     <use xlink:href="#me67c8a8745" x="519.045061" y="114.979377" style="fill: #ff7f0e; stroke: #ff7f0e; stroke-linejoin: miter"/>
     <use xlink:href="#me67c8a8745" x="535.0642" y="112.838468" style="fill: #ff7f0e; stroke: #ff7f0e; stroke-linejoin: miter"/>
     <use xlink:href="#me67c8a8745" x="551.083339" y="114.273135" style="fill: #ff7f0e; stroke: #ff7f0e; stroke-linejoin: miter"/>
     <use xlink:href="#me67c8a8745" x="567.102478" y="111.984118" style="fill: #ff7f0e; stroke: #ff7f0e; stroke-linejoin: miter"/>
     <use xlink:href="#me67c8a8745" x="583.121616" y="110.291362" style="fill: #ff7f0e; stroke: #ff7f0e; stroke-linejoin: miter"/>
     <use xlink:href="#me67c8a8745" x="599.140755" y="111.253742" style="fill: #ff7f0e; stroke: #ff7f0e; stroke-linejoin: miter"/>
     <use xlink:href="#me67c8a8745" x="615.159894" y="110.513638" style="fill: #ff7f0e; stroke: #ff7f0e; stroke-linejoin: miter"/>
     <use xlink:href="#me67c8a8745" x="631.179033" y="108.524492" style="fill: #ff7f0e; stroke: #ff7f0e; stroke-linejoin: miter"/>
     <use xlink:href="#me67c8a8745" x="647.198171" y="108.241984" style="fill: #ff7f0e; stroke: #ff7f0e; stroke-linejoin: miter"/>
     <use xlink:href="#me67c8a8745" x="663.21731" y="111.134258" style="fill: #ff7f0e; stroke: #ff7f0e; stroke-linejoin: miter"/>
     <use xlink:href="#me67c8a8745" x="679.236449" y="112.128755" style="fill: #ff7f0e; stroke: #ff7f0e; stroke-linejoin: miter"/>
    </g>
   </g>
   <g id="line2d_45">
    <path d="M 70.509176 58.584517 
L 78.518746 70.879985 
L 86.528315 76.28564 
L 94.537884 81.740429 
L 102.547454 86.274265 
L 110.557023 90.051727 
L 118.566592 95.033776 
L 126.576162 109.012818 
L 134.585731 104.654478 
L 142.595301 105.435669 
L 150.60487 112.617885 
L 158.614439 110.018175 
L 166.624009 106.493095 
L 174.633578 111.169801 
L 182.643147 108.648214 
L 190.652717 111.728925 
L 198.662286 114.09854 
L 206.671856 107.846176 
L 214.681425 112.904147 
L 222.690994 107.475052 
L 230.700564 113.466767 
L 238.710133 111.975028 
L 246.719702 112.899407 
L 254.729272 113.417207 
L 262.738841 113.159046 
L 270.748411 111.742595 
L 278.75798 107.612056 
L 286.767549 119.512745 
L 294.777119 118.881623 
L 302.786688 105.419857 
L 310.796257 112.830786 
L 318.805827 115.581282 
L 326.815396 108.122998 
L 334.824966 109.330544 
L 342.834535 111.910564 
L 350.844104 107.886254 
L 358.853674 114.232504 
L 366.863243 113.189365 
L 374.872812 110.594776 
L 382.882382 110.528947 
L 390.891951 109.557711 
L 398.901521 109.354673 
L 406.91109 114.761067 
L 414.920659 107.869088 
L 422.930229 114.696912 
L 430.939798 112.850823 
L 438.949368 115.566399 
L 446.958937 109.035291 
L 454.968506 114.187595 
L 462.978076 112.150032 
L 470.987645 112.22642 
L 478.997214 115.559733 
L 487.006784 114.891693 
L 495.016353 112.039384 
L 503.025923 118.494297 
L 511.035492 107.479627 
L 519.045061 111.374043 
L 527.054631 114.023449 
L 535.0642 110.54366 
L 543.073769 111.142536 
L 551.083339 118.115403 
L 559.092908 108.65699 
L 567.102478 116.072413 
L 575.112047 115.87985 
L 583.121616 112.583157 
L 591.131186 115.825134 
L 599.140755 116.307932 
L 607.150324 109.906392 
L 615.159894 114.363511 
L 623.169463 117.172026 
L 631.179033 111.994317 
L 639.188602 109.259006 
L 647.198171 113.295331 
L 655.207741 106.860026 
L 663.21731 122.871167 
L 671.226879 114.769395 
L 679.236449 123.635244 
" clip-path="url(#p5376f017a7)" style="fill: none; stroke: #2ca02c; stroke-width: 1.2; stroke-linecap: square"/>
    <defs>
     <path id="m1da41a0b6d" d="M -1.5 1.5 
L 1.5 1.5 
L 1.5 -1.5 
L -1.5 -1.5 
z
" style="stroke: #2ca02c; stroke-linejoin: miter"/>
    </defs>
    <g clip-path="url(#p5376f017a7)">
     <use xlink:href="#m1da41a0b6d" x="70.509176" y="58.584517" style="fill: #2ca02c; stroke: #2ca02c; stroke-linejoin: miter"/>
     <use xlink:href="#m1da41a0b6d" x="86.528315" y="76.28564" style="fill: #2ca02c; stroke: #2ca02c; stroke-linejoin: miter"/>
     <use xlink:href="#m1da41a0b6d" x="102.547454" y="86.274265" style="fill: #2ca02c; stroke: #2ca02c; stroke-linejoin: miter"/>
     <use xlink:href="#m1da41a0b6d" x="118.566592" y="95.033776" style="fill: #2ca02c; stroke: #2ca02c; stroke-linejoin: miter"/>
     <use xlink:href="#m1da41a0b6d" x="134.585731" y="104.654478" style="fill: #2ca02c; stroke: #2ca02c; stroke-linejoin: miter"/>
     <use xlink:href="#m1da41a0b6d" x="150.60487" y="112.617885" style="fill: #2ca02c; stroke: #2ca02c; stroke-linejoin: miter"/>
     <use xlink:href="#m1da41a0b6d" x="166.624009" y="106.493095" style="fill: #2ca02c; stroke: #2ca02c; stroke-linejoin: miter"/>
     <use xlink:href="#m1da41a0b6d" x="182.643147" y="108.648214" style="fill: #2ca02c; stroke: #2ca02c; stroke-linejoin: miter"/>
     <use xlink:href="#m1da41a0b6d" x="198.662286" y="114.09854" style="fill: #2ca02c; stroke: #2ca02c; stroke-linejoin: miter"/>
     <use xlink:href="#m1da41a0b6d" x="214.681425" y="112.904147" style="fill: #2ca02c; stroke: #2ca02c; stroke-linejoin: miter"/>
     <use xlink:href="#m1da41a0b6d" x="230.700564" y="113.466767" style="fill: #2ca02c; stroke: #2ca02c; stroke-linejoin: miter"/>
     <use xlink:href="#m1da41a0b6d" x="246.719702" y="112.899407" style="fill: #2ca02c; stroke: #2ca02c; stroke-linejoin: miter"/>
     <use xlink:href="#m1da41a0b6d" x="262.738841" y="113.159046" style="fill: #2ca02c; stroke: #2ca02c; stroke-linejoin: miter"/>
     <use xlink:href="#m1da41a0b6d" x="278.75798" y="107.612056" style="fill: #2ca02c; stroke: #2ca02c; stroke-linejoin: miter"/>
     <use xlink:href="#m1da41a0b6d" x="294.777119" y="118.881623" style="fill: #2ca02c; stroke: #2ca02c; stroke-linejoin: miter"/>
     <use xlink:href="#m1da41a0b6d" x="310.796257" y="112.830786" style="fill: #2ca02c; stroke: #2ca02c; stroke-linejoin: miter"/>
     <use xlink:href="#m1da41a0b6d" x="326.815396" y="108.122998" style="fill: #2ca02c; stroke: #2ca02c; stroke-linejoin: miter"/>
     <use xlink:href="#m1da41a0b6d" x="342.834535" y="111.910564" style="fill: #2ca02c; stroke: #2ca02c; stroke-linejoin: miter"/>
     <use xlink:href="#m1da41a0b6d" x="358.853674" y="114.232504" style="fill: #2ca02c; stroke: #2ca02c; stroke-linejoin: miter"/>
     <use xlink:href="#m1da41a0b6d" x="374.872812" y="110.594776" style="fill: #2ca02c; stroke: #2ca02c; stroke-linejoin: miter"/>
     <use xlink:href="#m1da41a0b6d" x="390.891951" y="109.557711" style="fill: #2ca02c; stroke: #2ca02c; stroke-linejoin: miter"/>
     <use xlink:href="#m1da41a0b6d" x="406.91109" y="114.761067" style="fill: #2ca02c; stroke: #2ca02c; stroke-linejoin: miter"/>
     <use xlink:href="#m1da41a0b6d" x="422.930229" y="114.696912" style="fill: #2ca02c; stroke: #2ca02c; stroke-linejoin: miter"/>
     <use xlink:href="#m1da41a0b6d" x="438.949368" y="115.566399" style="fill: #2ca02c; stroke: #2ca02c; stroke-linejoin: miter"/>
     <use xlink:href="#m1da41a0b6d" x="454.968506" y="114.187595" style="fill: #2ca02c; stroke: #2ca02c; stroke-linejoin: miter"/>
     <use xlink:href="#m1da41a0b6d" x="470.987645" y="112.22642" style="fill: #2ca02c; stroke: #2ca02c; stroke-linejoin: miter"/>
     <use xlink:href="#m1da41a0b6d" x="487.006784" y="114.891693" style="fill: #2ca02c; stroke: #2ca02c; stroke-linejoin: miter"/>
     <use xlink:href="#m1da41a0b6d" x="503.025923" y="118.494297" style="fill: #2ca02c; stroke: #2ca02c; stroke-linejoin: miter"/>
     <use xlink:href="#m1da41a0b6d" x="519.045061" y="111.374043" style="fill: #2ca02c; stroke: #2ca02c; stroke-linejoin: miter"/>
     <use xlink:href="#m1da41a0b6d" x="535.0642" y="110.54366" style="fill: #2ca02c; stroke: #2ca02c; stroke-linejoin: miter"/>
     <use xlink:href="#m1da41a0b6d" x="551.083339" y="118.115403" style="fill: #2ca02c; stroke: #2ca02c; stroke-linejoin: miter"/>
     <use xlink:href="#m1da41a0b6d" x="567.102478" y="116.072413" style="fill: #2ca02c; stroke: #2ca02c; stroke-linejoin: miter"/>
     <use xlink:href="#m1da41a0b6d" x="583.121616" y="112.583157" style="fill: #2ca02c; stroke: #2ca02c; stroke-linejoin: miter"/>
     <use xlink:href="#m1da41a0b6d" x="599.140755" y="116.307932" style="fill: #2ca02c; stroke: #2ca02c; stroke-linejoin: miter"/>
     <use xlink:href="#m1da41a0b6d" x="615.159894" y="114.363511" style="fill: #2ca02c; stroke: #2ca02c; stroke-linejoin: miter"/>
     <use xlink:href="#m1da41a0b6d" x="631.179033" y="111.994317" style="fill: #2ca02c; stroke: #2ca02c; stroke-linejoin: miter"/>
     <use xlink:href="#m1da41a0b6d" x="647.198171" y="113.295331" style="fill: #2ca02c; stroke: #2ca02c; stroke-linejoin: miter"/>
     <use xlink:href="#m1da41a0b6d" x="663.21731" y="122.871167" style="fill: #2ca02c; stroke: #2ca02c; stroke-linejoin: miter"/>
     <use xlink:href="#m1da41a0b6d" x="679.236449" y="123.635244" style="fill: #2ca02c; stroke: #2ca02c; stroke-linejoin: miter"/>
    </g>
   </g>
   <g id="line2d_46">
    <path d="M 40.072812 30.918125 
L 709.672812 30.918125 
" clip-path="url(#p5376f017a7)" style="fill: none; stroke-dasharray: 5.55,2.4; stroke-dashoffset: 0; stroke: #2ca02c; stroke-opacity: 0.7; stroke-width: 1.5"/>
   </g>
   <g id="line2d_47">
    <path d="M 40.072812 232.518125 
L 709.672812 232.518125 
" clip-path="url(#p5376f017a7)" style="fill: none; stroke-dasharray: 5.55,2.4; stroke-dashoffset: 0; stroke: #ff7f0e; stroke-opacity: 0.7; stroke-width: 1.5"/>
   </g>
   <g id="patch_3">
    <path d="M 40.072812 242.598125 
L 40.072812 20.838125 
" style="fill: none; stroke: #000000; stroke-width: 0.8; stroke-linejoin: miter; stroke-linecap: square"/>
   </g>
   <g id="patch_4">
    <path d="M 40.072812 242.598125 
L 709.672812 242.598125 
" style="fill: none; stroke: #000000; stroke-width: 0.8; stroke-linejoin: miter; stroke-linecap: square"/>
   </g>
   <g id="text_15">
    <!-- Gradient Norms Over Epochs -->
    <g transform="translate(309.347187 14.838125) scale(0.11 -0.11)">
     <defs>
      <path id="TimesNewRomanPSMT-73" d="M 2050 2947 
L 2050 1972 
L 1947 1972 
Q 1828 2431 1642 2597 
Q 1456 2763 1169 2763 
Q 950 2763 815 2647 
Q 681 2531 681 2391 
Q 681 2216 781 2091 
Q 878 1963 1175 1819 
L 1631 1597 
Q 2266 1288 2266 781 
Q 2266 391 1970 151 
Q 1675 -88 1309 -88 
Q 1047 -88 709 6 
Q 606 38 541 38 
Q 469 38 428 -44 
L 325 -44 
L 325 978 
L 428 978 
Q 516 541 762 319 
Q 1009 97 1316 97 
Q 1531 97 1667 223 
Q 1803 350 1803 528 
Q 1803 744 1651 891 
Q 1500 1038 1047 1263 
Q 594 1488 453 1669 
Q 313 1847 313 2119 
Q 313 2472 555 2709 
Q 797 2947 1181 2947 
Q 1350 2947 1591 2875 
Q 1750 2828 1803 2828 
Q 1853 2828 1881 2850 
Q 1909 2872 1947 2947 
L 2050 2947 
z
" transform="scale(0.015625)"/>
      <path id="TimesNewRomanPSMT-4f" d="M 2341 4334 
Q 3166 4334 3770 3707 
Q 4375 3081 4375 2144 
Q 4375 1178 3765 540 
Q 3156 -97 2291 -97 
Q 1416 -97 820 525 
Q 225 1147 225 2134 
Q 225 3144 913 3781 
Q 1509 4334 2341 4334 
z
M 2281 4106 
Q 1713 4106 1369 3684 
Q 941 3159 941 2147 
Q 941 1109 1384 550 
Q 1725 125 2284 125 
Q 2881 125 3270 590 
Q 3659 1056 3659 2059 
Q 3659 3147 3231 3681 
Q 2888 4106 2281 4106 
z
" transform="scale(0.015625)"/>
      <path id="TimesNewRomanPSMT-76" d="M 53 2863 
L 1400 2863 
L 1400 2747 
L 1313 2747 
Q 1191 2747 1127 2687 
Q 1063 2628 1063 2528 
Q 1063 2419 1128 2269 
L 1794 688 
L 2463 2328 
Q 2534 2503 2534 2594 
Q 2534 2638 2509 2666 
Q 2475 2713 2422 2730 
Q 2369 2747 2206 2747 
L 2206 2863 
L 3141 2863 
L 3141 2747 
Q 2978 2734 2916 2681 
Q 2806 2588 2719 2369 
L 1703 -88 
L 1575 -88 
L 553 2328 
Q 484 2497 421 2570 
Q 359 2644 263 2694 
Q 209 2722 53 2747 
L 53 2863 
z
" transform="scale(0.015625)"/>
     </defs>
     <use xlink:href="#TimesNewRomanPSMT-47"/>
     <use xlink:href="#TimesNewRomanPSMT-72" transform="translate(72.216797 0)"/>
     <use xlink:href="#TimesNewRomanPSMT-61" transform="translate(105.517578 0)"/>
     <use xlink:href="#TimesNewRomanPSMT-64" transform="translate(149.902344 0)"/>
     <use xlink:href="#TimesNewRomanPSMT-69" transform="translate(199.902344 0)"/>
     <use xlink:href="#TimesNewRomanPSMT-65" transform="translate(227.685547 0)"/>
     <use xlink:href="#TimesNewRomanPSMT-6e" transform="translate(272.070312 0)"/>
     <use xlink:href="#TimesNewRomanPSMT-74" transform="translate(322.070312 0)"/>
     <use xlink:href="#TimesNewRomanPSMT-20" transform="translate(349.853516 0)"/>
     <use xlink:href="#TimesNewRomanPSMT-4e" transform="translate(374.853516 0)"/>
     <use xlink:href="#TimesNewRomanPSMT-6f" transform="translate(447.070312 0)"/>
     <use xlink:href="#TimesNewRomanPSMT-72" transform="translate(497.070312 0)"/>
     <use xlink:href="#TimesNewRomanPSMT-6d" transform="translate(530.371094 0)"/>
     <use xlink:href="#TimesNewRomanPSMT-73" transform="translate(608.154297 0)"/>
     <use xlink:href="#TimesNewRomanPSMT-20" transform="translate(647.070312 0)"/>
     <use xlink:href="#TimesNewRomanPSMT-4f" transform="translate(672.070312 0)"/>
     <use xlink:href="#TimesNewRomanPSMT-76" transform="translate(744.287109 0)"/>
     <use xlink:href="#TimesNewRomanPSMT-65" transform="translate(794.287109 0)"/>
     <use xlink:href="#TimesNewRomanPSMT-72" transform="translate(838.671875 0)"/>
     <use xlink:href="#TimesNewRomanPSMT-20" transform="translate(871.972656 0)"/>
     <use xlink:href="#TimesNewRomanPSMT-45" transform="translate(896.972656 0)"/>
     <use xlink:href="#TimesNewRomanPSMT-70" transform="translate(958.056641 0)"/>
     <use xlink:href="#TimesNewRomanPSMT-6f" transform="translate(1008.056641 0)"/>
     <use xlink:href="#TimesNewRomanPSMT-63" transform="translate(1058.056641 0)"/>
     <use xlink:href="#TimesNewRomanPSMT-68" transform="translate(1102.441406 0)"/>
     <use xlink:href="#TimesNewRomanPSMT-73" transform="translate(1152.441406 0)"/>
    </g>
   </g>
   <g id="legend_1">
    <g id="line2d_48">
     <path d="M 731.164813 32.088125 
L 740.164813 32.088125 
L 749.164813 32.088125 
" style="fill: none; stroke: #1f77b4; stroke-width: 1.2; stroke-linecap: square"/>
     <g>
      <use xlink:href="#m0e0bbde295" x="740.164813" y="32.088125" style="fill: #1f77b4; stroke: #1f77b4; stroke-linejoin: miter"/>
     </g>
    </g>
    <g id="text_16">
     <!-- Layer 1 -->
     <g transform="translate(756.364813 35.238125) scale(0.09 -0.09)">
      <defs>
       <path id="TimesNewRomanPSMT-4c" d="M 3669 1172 
L 3772 1150 
L 3409 0 
L 128 0 
L 128 116 
L 288 116 
Q 556 116 672 291 
Q 738 391 738 753 
L 738 3488 
Q 738 3884 650 3984 
Q 528 4122 288 4122 
L 128 4122 
L 128 4238 
L 2047 4238 
L 2047 4122 
Q 1709 4125 1573 4059 
Q 1438 3994 1388 3894 
Q 1338 3794 1338 3416 
L 1338 753 
Q 1338 494 1388 397 
Q 1425 331 1503 300 
Q 1581 269 1991 269 
L 2300 269 
Q 2788 269 2984 341 
Q 3181 413 3343 595 
Q 3506 778 3669 1172 
z
" transform="scale(0.015625)"/>
       <path id="TimesNewRomanPSMT-79" d="M 38 2863 
L 1372 2863 
L 1372 2747 
L 1306 2747 
Q 1166 2747 1095 2686 
Q 1025 2625 1025 2534 
Q 1025 2413 1128 2197 
L 1825 753 
L 2466 2334 
Q 2519 2463 2519 2588 
Q 2519 2644 2497 2672 
Q 2472 2706 2419 2726 
Q 2366 2747 2231 2747 
L 2231 2863 
L 3163 2863 
L 3163 2747 
Q 3047 2734 2984 2696 
Q 2922 2659 2847 2556 
Q 2819 2513 2741 2316 
L 1575 -541 
Q 1406 -956 1132 -1168 
Q 859 -1381 606 -1381 
Q 422 -1381 303 -1275 
Q 184 -1169 184 -1031 
Q 184 -900 270 -820 
Q 356 -741 506 -741 
Q 609 -741 788 -809 
Q 913 -856 944 -856 
Q 1038 -856 1148 -759 
Q 1259 -663 1372 -384 
L 1575 113 
L 547 2272 
Q 500 2369 397 2513 
Q 319 2622 269 2659 
Q 197 2709 38 2747 
L 38 2863 
z
" transform="scale(0.015625)"/>
      </defs>
      <use xlink:href="#TimesNewRomanPSMT-4c"/>
      <use xlink:href="#TimesNewRomanPSMT-61" transform="translate(61.083984 0)"/>
      <use xlink:href="#TimesNewRomanPSMT-79" transform="translate(105.46875 0)"/>
      <use xlink:href="#TimesNewRomanPSMT-65" transform="translate(155.46875 0)"/>
      <use xlink:href="#TimesNewRomanPSMT-72" transform="translate(199.853516 0)"/>
      <use xlink:href="#TimesNewRomanPSMT-20" transform="translate(233.154297 0)"/>
      <use xlink:href="#TimesNewRomanPSMT-31" transform="translate(258.154297 0)"/>
     </g>
    </g>
    <g id="line2d_49">
     <path d="M 731.164813 44.830156 
L 740.164813 44.830156 
L 749.164813 44.830156 
" style="fill: none; stroke: #ff7f0e; stroke-width: 1.2; stroke-linecap: square"/>
     <g>
      <use xlink:href="#me67c8a8745" x="740.164813" y="44.830156" style="fill: #ff7f0e; stroke: #ff7f0e; stroke-linejoin: miter"/>
     </g>
    </g>
    <g id="text_17">
     <!-- Layer 2 -->
     <g transform="translate(756.364813 47.980156) scale(0.09 -0.09)">
      <use xlink:href="#TimesNewRomanPSMT-4c"/>
      <use xlink:href="#TimesNewRomanPSMT-61" transform="translate(61.083984 0)"/>
      <use xlink:href="#TimesNewRomanPSMT-79" transform="translate(105.46875 0)"/>
      <use xlink:href="#TimesNewRomanPSMT-65" transform="translate(155.46875 0)"/>
      <use xlink:href="#TimesNewRomanPSMT-72" transform="translate(199.853516 0)"/>
      <use xlink:href="#TimesNewRomanPSMT-20" transform="translate(233.154297 0)"/>
      <use xlink:href="#TimesNewRomanPSMT-32" transform="translate(258.154297 0)"/>
     </g>
    </g>
    <g id="line2d_50">
     <path d="M 731.164813 57.572187 
L 740.164813 57.572187 
L 749.164813 57.572187 
" style="fill: none; stroke: #2ca02c; stroke-width: 1.2; stroke-linecap: square"/>
     <g>
      <use xlink:href="#m1da41a0b6d" x="740.164813" y="57.572187" style="fill: #2ca02c; stroke: #2ca02c; stroke-linejoin: miter"/>
     </g>
    </g>
    <g id="text_18">
     <!-- Layer 3 -->
     <g transform="translate(756.364813 60.722187) scale(0.09 -0.09)">
      <use xlink:href="#TimesNewRomanPSMT-4c"/>
      <use xlink:href="#TimesNewRomanPSMT-61" transform="translate(61.083984 0)"/>
      <use xlink:href="#TimesNewRomanPSMT-79" transform="translate(105.46875 0)"/>
      <use xlink:href="#TimesNewRomanPSMT-65" transform="translate(155.46875 0)"/>
      <use xlink:href="#TimesNewRomanPSMT-72" transform="translate(199.853516 0)"/>
      <use xlink:href="#TimesNewRomanPSMT-20" transform="translate(233.154297 0)"/>
      <use xlink:href="#TimesNewRomanPSMT-33" transform="translate(258.154297 0)"/>
     </g>
    </g>
    <g id="line2d_51">
     <path d="M 731.164813 70.314219 
L 740.164813 70.314219 
L 749.164813 70.314219 
" style="fill: none; stroke-dasharray: 5.55,2.4; stroke-dashoffset: 0; stroke: #2ca02c; stroke-opacity: 0.7; stroke-width: 1.5"/>
    </g>
    <g id="text_19">
     <!-- Clipping Threshold (1.0) -->
     <g transform="translate(756.364813 73.464219) scale(0.09 -0.09)">
      <defs>
       <path id="TimesNewRomanPSMT-43" d="M 3853 4334 
L 3950 2894 
L 3853 2894 
Q 3659 3541 3300 3825 
Q 2941 4109 2438 4109 
Q 2016 4109 1675 3895 
Q 1334 3681 1139 3212 
Q 944 2744 944 2047 
Q 944 1472 1128 1050 
Q 1313 628 1683 403 
Q 2053 178 2528 178 
Q 2941 178 3256 354 
Q 3572 531 3950 1056 
L 4047 994 
Q 3728 428 3303 165 
Q 2878 -97 2294 -97 
Q 1241 -97 663 684 
Q 231 1266 231 2053 
Q 231 2688 515 3219 
Q 800 3750 1298 4042 
Q 1797 4334 2388 4334 
Q 2847 4334 3294 4109 
Q 3425 4041 3481 4041 
Q 3566 4041 3628 4100 
Q 3709 4184 3744 4334 
L 3853 4334 
z
" transform="scale(0.015625)"/>
       <path id="TimesNewRomanPSMT-6c" d="M 1184 4444 
L 1184 647 
Q 1184 378 1223 290 
Q 1263 203 1344 158 
Q 1425 113 1647 113 
L 1647 0 
L 244 0 
L 244 113 
Q 441 113 512 153 
Q 584 194 625 287 
Q 666 381 666 647 
L 666 3247 
Q 666 3731 644 3842 
Q 622 3953 573 3993 
Q 525 4034 450 4034 
Q 369 4034 244 3984 
L 191 4094 
L 1044 4444 
L 1184 4444 
z
" transform="scale(0.015625)"/>
       <path id="TimesNewRomanPSMT-67" d="M 966 1044 
Q 703 1172 562 1401 
Q 422 1631 422 1909 
Q 422 2334 742 2640 
Q 1063 2947 1563 2947 
Q 1972 2947 2272 2747 
L 2878 2747 
Q 3013 2747 3034 2739 
Q 3056 2731 3066 2713 
Q 3084 2684 3084 2613 
Q 3084 2531 3069 2500 
Q 3059 2484 3036 2475 
Q 3013 2466 2878 2466 
L 2506 2466 
Q 2681 2241 2681 1891 
Q 2681 1491 2375 1206 
Q 2069 922 1553 922 
Q 1341 922 1119 984 
Q 981 866 932 777 
Q 884 688 884 625 
Q 884 572 936 522 
Q 988 472 1138 450 
Q 1225 438 1575 428 
Q 2219 413 2409 384 
Q 2700 344 2873 169 
Q 3047 -6 3047 -263 
Q 3047 -616 2716 -925 
Q 2228 -1381 1444 -1381 
Q 841 -1381 425 -1109 
Q 191 -953 191 -784 
Q 191 -709 225 -634 
Q 278 -519 444 -313 
Q 466 -284 763 25 
Q 600 122 533 198 
Q 466 275 466 372 
Q 466 481 555 628 
Q 644 775 966 1044 
z
M 1509 2797 
Q 1278 2797 1122 2612 
Q 966 2428 966 2047 
Q 966 1553 1178 1281 
Q 1341 1075 1591 1075 
Q 1828 1075 1981 1253 
Q 2134 1431 2134 1813 
Q 2134 2309 1919 2591 
Q 1759 2797 1509 2797 
z
M 934 0 
Q 788 -159 713 -296 
Q 638 -434 638 -550 
Q 638 -700 819 -813 
Q 1131 -1006 1722 -1006 
Q 2284 -1006 2551 -807 
Q 2819 -609 2819 -384 
Q 2819 -222 2659 -153 
Q 2497 -84 2016 -72 
Q 1313 -53 934 0 
z
" transform="scale(0.015625)"/>
       <path id="TimesNewRomanPSMT-54" d="M 3703 4238 
L 3750 3244 
L 3631 3244 
Q 3597 3506 3538 3619 
Q 3441 3800 3280 3886 
Q 3119 3972 2856 3972 
L 2259 3972 
L 2259 734 
Q 2259 344 2344 247 
Q 2463 116 2709 116 
L 2856 116 
L 2856 0 
L 1059 0 
L 1059 116 
L 1209 116 
Q 1478 116 1591 278 
Q 1659 378 1659 734 
L 1659 3972 
L 1150 3972 
Q 853 3972 728 3928 
Q 566 3869 450 3700 
Q 334 3531 313 3244 
L 194 3244 
L 244 4238 
L 3703 4238 
z
" transform="scale(0.015625)"/>
       <path id="TimesNewRomanPSMT-28" d="M 1988 -1253 
L 1988 -1369 
Q 1516 -1131 1200 -813 
Q 750 -359 506 256 
Q 263 872 263 1534 
Q 263 2503 741 3301 
Q 1219 4100 1988 4444 
L 1988 4313 
Q 1603 4100 1356 3731 
Q 1109 3363 987 2797 
Q 866 2231 866 1616 
Q 866 947 969 400 
Q 1050 -31 1165 -292 
Q 1281 -553 1476 -793 
Q 1672 -1034 1988 -1253 
z
" transform="scale(0.015625)"/>
       <path id="TimesNewRomanPSMT-2e" d="M 800 606 
Q 947 606 1047 504 
Q 1147 403 1147 259 
Q 1147 116 1045 14 
Q 944 -88 800 -88 
Q 656 -88 554 14 
Q 453 116 453 259 
Q 453 406 554 506 
Q 656 606 800 606 
z
" transform="scale(0.015625)"/>
       <path id="TimesNewRomanPSMT-29" d="M 144 4313 
L 144 4444 
Q 619 4209 934 3891 
Q 1381 3434 1625 2820 
Q 1869 2206 1869 1541 
Q 1869 572 1392 -226 
Q 916 -1025 144 -1369 
L 144 -1253 
Q 528 -1038 776 -670 
Q 1025 -303 1145 264 
Q 1266 831 1266 1447 
Q 1266 2113 1163 2663 
Q 1084 3094 967 3353 
Q 850 3613 656 3853 
Q 463 4094 144 4313 
z
" transform="scale(0.015625)"/>
      </defs>
      <use xlink:href="#TimesNewRomanPSMT-43"/>
      <use xlink:href="#TimesNewRomanPSMT-6c" transform="translate(66.699219 0)"/>
      <use xlink:href="#TimesNewRomanPSMT-69" transform="translate(94.482422 0)"/>
      <use xlink:href="#TimesNewRomanPSMT-70" transform="translate(122.265625 0)"/>
      <use xlink:href="#TimesNewRomanPSMT-70" transform="translate(172.265625 0)"/>
      <use xlink:href="#TimesNewRomanPSMT-69" transform="translate(222.265625 0)"/>
      <use xlink:href="#TimesNewRomanPSMT-6e" transform="translate(250.048828 0)"/>
      <use xlink:href="#TimesNewRomanPSMT-67" transform="translate(300.048828 0)"/>
      <use xlink:href="#TimesNewRomanPSMT-20" transform="translate(350.048828 0)"/>
      <use xlink:href="#TimesNewRomanPSMT-54" transform="translate(373.298828 0)"/>
      <use xlink:href="#TimesNewRomanPSMT-68" transform="translate(434.382812 0)"/>
      <use xlink:href="#TimesNewRomanPSMT-72" transform="translate(484.382812 0)"/>
      <use xlink:href="#TimesNewRomanPSMT-65" transform="translate(517.683594 0)"/>
      <use xlink:href="#TimesNewRomanPSMT-73" transform="translate(562.068359 0)"/>
      <use xlink:href="#TimesNewRomanPSMT-68" transform="translate(600.984375 0)"/>
      <use xlink:href="#TimesNewRomanPSMT-6f" transform="translate(650.984375 0)"/>
      <use xlink:href="#TimesNewRomanPSMT-6c" transform="translate(700.984375 0)"/>
      <use xlink:href="#TimesNewRomanPSMT-64" transform="translate(728.767578 0)"/>
      <use xlink:href="#TimesNewRomanPSMT-20" transform="translate(778.767578 0)"/>
      <use xlink:href="#TimesNewRomanPSMT-28" transform="translate(803.767578 0)"/>
      <use xlink:href="#TimesNewRomanPSMT-31" transform="translate(837.068359 0)"/>
      <use xlink:href="#TimesNewRomanPSMT-2e" transform="translate(887.068359 0)"/>
      <use xlink:href="#TimesNewRomanPSMT-30" transform="translate(912.068359 0)"/>
      <use xlink:href="#TimesNewRomanPSMT-29" transform="translate(962.068359 0)"/>
     </g>
    </g>
    <g id="line2d_52">
     <path d="M 731.164813 83.05625 
L 740.164813 83.05625 
L 749.164813 83.05625 
" style="fill: none; stroke-dasharray: 5.55,2.4; stroke-dashoffset: 0; stroke: #ff7f0e; stroke-opacity: 0.7; stroke-width: 1.5"/>
    </g>
    <g id="text_20">
     <!-- Vanishing Gradient Warning (0.01) -->
     <g transform="translate(756.364813 86.20625) scale(0.09 -0.09)">
      <defs>
       <path id="TimesNewRomanPSMT-56" d="M 4544 4238 
L 4544 4122 
Q 4319 4081 4203 3978 
Q 4038 3825 3909 3509 
L 2431 -97 
L 2316 -97 
L 728 3556 
Q 606 3838 556 3900 
Q 478 3997 364 4051 
Q 250 4106 56 4122 
L 56 4238 
L 1788 4238 
L 1788 4122 
Q 1494 4094 1406 4022 
Q 1319 3950 1319 3838 
Q 1319 3681 1463 3350 
L 2541 866 
L 3541 3319 
Q 3688 3681 3688 3822 
Q 3688 3913 3597 3995 
Q 3506 4078 3291 4113 
Q 3275 4116 3238 4122 
L 3238 4238 
L 4544 4238 
z
" transform="scale(0.015625)"/>
       <path id="TimesNewRomanPSMT-57" d="M 5991 4238 
L 5991 4122 
Q 5825 4122 5722 4062 
Q 5619 4003 5525 3841 
Q 5463 3731 5328 3319 
L 4147 -97 
L 4022 -97 
L 3056 2613 
L 2097 -97 
L 1984 -97 
L 725 3422 
Q 584 3816 547 3888 
Q 484 4006 376 4064 
Q 269 4122 84 4122 
L 84 4238 
L 1653 4238 
L 1653 4122 
L 1578 4122 
Q 1413 4122 1325 4047 
Q 1238 3972 1238 3866 
Q 1238 3756 1375 3363 
L 2209 984 
L 2913 3006 
L 2788 3363 
L 2688 3647 
Q 2622 3803 2541 3922 
Q 2500 3981 2441 4022 
Q 2363 4078 2284 4103 
Q 2225 4122 2097 4122 
L 2097 4238 
L 3747 4238 
L 3747 4122 
L 3634 4122 
Q 3459 4122 3378 4047 
Q 3297 3972 3297 3844 
Q 3297 3684 3438 3288 
L 4250 984 
L 5056 3319 
Q 5194 3706 5194 3856 
Q 5194 3928 5148 3990 
Q 5103 4053 5034 4078 
Q 4916 4122 4725 4122 
L 4725 4238 
L 5991 4238 
z
" transform="scale(0.015625)"/>
      </defs>
      <use xlink:href="#TimesNewRomanPSMT-56"/>
      <use xlink:href="#TimesNewRomanPSMT-61" transform="translate(61.091797 0)"/>
      <use xlink:href="#TimesNewRomanPSMT-6e" transform="translate(105.476562 0)"/>
      <use xlink:href="#TimesNewRomanPSMT-69" transform="translate(155.476562 0)"/>
      <use xlink:href="#TimesNewRomanPSMT-73" transform="translate(183.259766 0)"/>
      <use xlink:href="#TimesNewRomanPSMT-68" transform="translate(222.175781 0)"/>
      <use xlink:href="#TimesNewRomanPSMT-69" transform="translate(272.175781 0)"/>
      <use xlink:href="#TimesNewRomanPSMT-6e" transform="translate(299.958984 0)"/>
      <use xlink:href="#TimesNewRomanPSMT-67" transform="translate(349.958984 0)"/>
      <use xlink:href="#TimesNewRomanPSMT-20" transform="translate(399.958984 0)"/>
      <use xlink:href="#TimesNewRomanPSMT-47" transform="translate(424.958984 0)"/>
      <use xlink:href="#TimesNewRomanPSMT-72" transform="translate(497.175781 0)"/>
      <use xlink:href="#TimesNewRomanPSMT-61" transform="translate(530.476562 0)"/>
      <use xlink:href="#TimesNewRomanPSMT-64" transform="translate(574.861328 0)"/>
      <use xlink:href="#TimesNewRomanPSMT-69" transform="translate(624.861328 0)"/>
      <use xlink:href="#TimesNewRomanPSMT-65" transform="translate(652.644531 0)"/>
      <use xlink:href="#TimesNewRomanPSMT-6e" transform="translate(697.029297 0)"/>
      <use xlink:href="#TimesNewRomanPSMT-74" transform="translate(747.029297 0)"/>
      <use xlink:href="#TimesNewRomanPSMT-20" transform="translate(774.8125 0)"/>
      <use xlink:href="#TimesNewRomanPSMT-57" transform="translate(798.0625 0)"/>
      <use xlink:href="#TimesNewRomanPSMT-61" transform="translate(884.447266 0)"/>
      <use xlink:href="#TimesNewRomanPSMT-72" transform="translate(928.832031 0)"/>
      <use xlink:href="#TimesNewRomanPSMT-6e" transform="translate(962.132812 0)"/>
      <use xlink:href="#TimesNewRomanPSMT-69" transform="translate(1012.132812 0)"/>
      <use xlink:href="#TimesNewRomanPSMT-6e" transform="translate(1039.916016 0)"/>
      <use xlink:href="#TimesNewRomanPSMT-67" transform="translate(1089.916016 0)"/>
      <use xlink:href="#TimesNewRomanPSMT-20" transform="translate(1139.916016 0)"/>
      <use xlink:href="#TimesNewRomanPSMT-28" transform="translate(1164.916016 0)"/>
      <use xlink:href="#TimesNewRomanPSMT-30" transform="translate(1198.216797 0)"/>
      <use xlink:href="#TimesNewRomanPSMT-2e" transform="translate(1248.216797 0)"/>
      <use xlink:href="#TimesNewRomanPSMT-30" transform="translate(1273.216797 0)"/>
      <use xlink:href="#TimesNewRomanPSMT-31" transform="translate(1323.216797 0)"/>
      <use xlink:href="#TimesNewRomanPSMT-29" transform="translate(1373.216797 0)"/>
     </g>
    </g>
   </g>
  </g>
 </g>
 <defs>
  <clipPath id="p5376f017a7">
   <rect x="40.072812" y="20.838125" width="669.6" height="221.76"/>
  </clipPath>
 </defs>
</svg>
