<?xml version="1.0" encoding="utf-8" standalone="no"?>
<!DOCTYPE svg PUBLIC "-//W3C//DTD SVG 1.1//EN"
  "http://www.w3.org/Graphics/SVG/1.1/DTD/svg11.dtd">
<svg xmlns:xlink="http://www.w3.org/1999/xlink" width="838.638875pt" height="274.555469pt" viewBox="0 0 838.638875 274.555469" xmlns="http://www.w3.org/2000/svg" version="1.1">
 <metadata>
  <rdf:RDF xmlns:dc="http://purl.org/dc/elements/1.1/" xmlns:cc="http://creativecommons.org/ns#" xmlns:rdf="http://www.w3.org/1999/02/22-rdf-syntax-ns#">
   <cc:Work>
    <dc:type rdf:resource="http://purl.org/dc/dcmitype/StillImage"/>
    <dc:date>2025-09-22T10:58:05.861747</dc:date>
    <dc:format>image/svg+xml</dc:format>
    <dc:creator>
     <cc:Agent>
      <dc:title>Matplotlib v3.10.6, https://matplotlib.org/</dc:title>
     </cc:Agent>
    </dc:creator>
   </cc:Work>
  </rdf:RDF>
 </metadata>
 <defs>
  <style type="text/css">*{stroke-linejoin: round; stroke-linecap: butt}</style>
 </defs>
 <g id="figure_1">
  <g id="patch_1">
   <path d="M 0 274.555469 
L 838.638875 274.555469 
L 838.638875 0 
L 0 0 
z
" style="fill: #ffffff"/>
  </g>
  <g id="axes_1">
   <g id="patch_2">
    <path d="M 40.072812 242.598125 
L 709.672812 242.598125 
L 709.672812 20.838125 
L 40.072812 20.838125 
z
" style="fill: #ffffff"/>
   </g>
   <g id="matplotlib.axis_1">
    <g id="xtick_1">
     <g id="line2d_1">
      <path d="M 62.499607 242.598125 
L 62.499607 20.838125 
" clip-path="url(#pf83a0d397a)" style="fill: none; stroke: #b0b0b0; stroke-opacity: 0.3; stroke-width: 0.5; stroke-linecap: square"/>
     </g>
     <g id="line2d_2">
      <defs>
       <path id="m3b873f6f23" d="M 0 0 
L 0 -3 
" style="stroke: #000000; stroke-width: 0.8"/>
      </defs>
      <g>
       <use xlink:href="#m3b873f6f23" x="62.499607" y="242.598125" style="stroke: #000000; stroke-width: 0.8"/>
      </g>
     </g>
     <g id="text_1">
      <!-- 0 -->
      <g transform="translate(60.249607 252.3475) scale(0.09 -0.09)">
       <defs>
        <path id="TimesNewRomanPSMT-30" d="M 231 2094 
Q 231 2819 450 3342 
Q 669 3866 1031 4122 
Q 1313 4325 1613 4325 
Q 2100 4325 2488 3828 
Q 2972 3213 2972 2159 
Q 2972 1422 2759 906 
Q 2547 391 2217 158 
Q 1888 -75 1581 -75 
Q 975 -75 572 641 
Q 231 1244 231 2094 
z
M 844 2016 
Q 844 1141 1059 588 
Q 1238 122 1591 122 
Q 1759 122 1940 273 
Q 2122 425 2216 781 
Q 2359 1319 2359 2297 
Q 2359 3022 2209 3506 
Q 2097 3866 1919 4016 
Q 1791 4119 1609 4119 
Q 1397 4119 1231 3928 
Q 1006 3669 925 3112 
Q 844 2556 844 2016 
z
" transform="scale(0.015625)"/>
       </defs>
       <use xlink:href="#TimesNewRomanPSMT-30"/>
      </g>
     </g>
    </g>
    <g id="xtick_2">
     <g id="line2d_3">
      <path d="M 142.595301 242.598125 
L 142.595301 20.838125 
" clip-path="url(#pf83a0d397a)" style="fill: none; stroke: #b0b0b0; stroke-opacity: 0.3; stroke-width: 0.5; stroke-linecap: square"/>
     </g>
     <g id="line2d_4">
      <g>
       <use xlink:href="#m3b873f6f23" x="142.595301" y="242.598125" style="stroke: #000000; stroke-width: 0.8"/>
      </g>
     </g>
     <g id="text_2">
      <!-- 10 -->
      <g transform="translate(138.095301 252.3475) scale(0.09 -0.09)">
       <defs>
        <path id="TimesNewRomanPSMT-31" d="M 750 3822 
L 1781 4325 
L 1884 4325 
L 1884 747 
Q 1884 391 1914 303 
Q 1944 216 2037 169 
Q 2131 122 2419 116 
L 2419 0 
L 825 0 
L 825 116 
Q 1125 122 1212 167 
Q 1300 213 1334 289 
Q 1369 366 1369 747 
L 1369 3034 
Q 1369 3497 1338 3628 
Q 1316 3728 1258 3775 
Q 1200 3822 1119 3822 
Q 1003 3822 797 3725 
L 750 3822 
z
" transform="scale(0.015625)"/>
       </defs>
       <use xlink:href="#TimesNewRomanPSMT-31"/>
       <use xlink:href="#TimesNewRomanPSMT-30" transform="translate(50 0)"/>
      </g>
     </g>
    </g>
    <g id="xtick_3">
     <g id="line2d_5">
      <path d="M 222.690994 242.598125 
L 222.690994 20.838125 
" clip-path="url(#pf83a0d397a)" style="fill: none; stroke: #b0b0b0; stroke-opacity: 0.3; stroke-width: 0.5; stroke-linecap: square"/>
     </g>
     <g id="line2d_6">
      <g>
       <use xlink:href="#m3b873f6f23" x="222.690994" y="242.598125" style="stroke: #000000; stroke-width: 0.8"/>
      </g>
     </g>
     <g id="text_3">
      <!-- 20 -->
      <g transform="translate(218.190994 252.3475) scale(0.09 -0.09)">
       <defs>
        <path id="TimesNewRomanPSMT-32" d="M 2934 816 
L 2638 0 
L 138 0 
L 138 116 
Q 1241 1122 1691 1759 
Q 2141 2397 2141 2925 
Q 2141 3328 1894 3587 
Q 1647 3847 1303 3847 
Q 991 3847 742 3664 
Q 494 3481 375 3128 
L 259 3128 
Q 338 3706 661 4015 
Q 984 4325 1469 4325 
Q 1984 4325 2329 3994 
Q 2675 3663 2675 3213 
Q 2675 2891 2525 2569 
Q 2294 2063 1775 1497 
Q 997 647 803 472 
L 1909 472 
Q 2247 472 2383 497 
Q 2519 522 2628 598 
Q 2738 675 2819 816 
L 2934 816 
z
" transform="scale(0.015625)"/>
       </defs>
       <use xlink:href="#TimesNewRomanPSMT-32"/>
       <use xlink:href="#TimesNewRomanPSMT-30" transform="translate(50 0)"/>
      </g>
     </g>
    </g>
    <g id="xtick_4">
     <g id="line2d_7">
      <path d="M 302.786688 242.598125 
L 302.786688 20.838125 
" clip-path="url(#pf83a0d397a)" style="fill: none; stroke: #b0b0b0; stroke-opacity: 0.3; stroke-width: 0.5; stroke-linecap: square"/>
     </g>
     <g id="line2d_8">
      <g>
       <use xlink:href="#m3b873f6f23" x="302.786688" y="242.598125" style="stroke: #000000; stroke-width: 0.8"/>
      </g>
     </g>
     <g id="text_4">
      <!-- 30 -->
      <g transform="translate(298.286688 252.3475) scale(0.09 -0.09)">
       <defs>
        <path id="TimesNewRomanPSMT-33" d="M 325 3431 
Q 506 3859 782 4092 
Q 1059 4325 1472 4325 
Q 1981 4325 2253 3994 
Q 2459 3747 2459 3466 
Q 2459 3003 1878 2509 
Q 2269 2356 2469 2072 
Q 2669 1788 2669 1403 
Q 2669 853 2319 450 
Q 1863 -75 997 -75 
Q 569 -75 414 31 
Q 259 138 259 259 
Q 259 350 332 419 
Q 406 488 509 488 
Q 588 488 669 463 
Q 722 447 909 348 
Q 1097 250 1169 231 
Q 1284 197 1416 197 
Q 1734 197 1970 444 
Q 2206 691 2206 1028 
Q 2206 1275 2097 1509 
Q 2016 1684 1919 1775 
Q 1784 1900 1550 2001 
Q 1316 2103 1072 2103 
L 972 2103 
L 972 2197 
Q 1219 2228 1467 2375 
Q 1716 2522 1828 2728 
Q 1941 2934 1941 3181 
Q 1941 3503 1739 3701 
Q 1538 3900 1238 3900 
Q 753 3900 428 3381 
L 325 3431 
z
" transform="scale(0.015625)"/>
       </defs>
       <use xlink:href="#TimesNewRomanPSMT-33"/>
       <use xlink:href="#TimesNewRomanPSMT-30" transform="translate(50 0)"/>
      </g>
     </g>
    </g>
    <g id="xtick_5">
     <g id="line2d_9">
      <path d="M 382.882382 242.598125 
L 382.882382 20.838125 
" clip-path="url(#pf83a0d397a)" style="fill: none; stroke: #b0b0b0; stroke-opacity: 0.3; stroke-width: 0.5; stroke-linecap: square"/>
     </g>
     <g id="line2d_10">
      <g>
       <use xlink:href="#m3b873f6f23" x="382.882382" y="242.598125" style="stroke: #000000; stroke-width: 0.8"/>
      </g>
     </g>
     <g id="text_5">
      <!-- 40 -->
      <g transform="translate(378.382382 252.3475) scale(0.09 -0.09)">
       <defs>
        <path id="TimesNewRomanPSMT-34" d="M 2978 1563 
L 2978 1119 
L 2409 1119 
L 2409 0 
L 1894 0 
L 1894 1119 
L 100 1119 
L 100 1519 
L 2066 4325 
L 2409 4325 
L 2409 1563 
L 2978 1563 
z
M 1894 1563 
L 1894 3666 
L 406 1563 
L 1894 1563 
z
" transform="scale(0.015625)"/>
       </defs>
       <use xlink:href="#TimesNewRomanPSMT-34"/>
       <use xlink:href="#TimesNewRomanPSMT-30" transform="translate(50 0)"/>
      </g>
     </g>
    </g>
    <g id="xtick_6">
     <g id="line2d_11">
      <path d="M 462.978076 242.598125 
L 462.978076 20.838125 
" clip-path="url(#pf83a0d397a)" style="fill: none; stroke: #b0b0b0; stroke-opacity: 0.3; stroke-width: 0.5; stroke-linecap: square"/>
     </g>
     <g id="line2d_12">
      <g>
       <use xlink:href="#m3b873f6f23" x="462.978076" y="242.598125" style="stroke: #000000; stroke-width: 0.8"/>
      </g>
     </g>
     <g id="text_6">
      <!-- 50 -->
      <g transform="translate(458.478076 252.3475) scale(0.09 -0.09)">
       <defs>
        <path id="TimesNewRomanPSMT-35" d="M 2778 4238 
L 2534 3706 
L 1259 3706 
L 981 3138 
Q 1809 3016 2294 2522 
Q 2709 2097 2709 1522 
Q 2709 1188 2573 903 
Q 2438 619 2231 419 
Q 2025 219 1772 97 
Q 1413 -75 1034 -75 
Q 653 -75 479 54 
Q 306 184 306 341 
Q 306 428 378 495 
Q 450 563 559 563 
Q 641 563 702 538 
Q 763 513 909 409 
Q 1144 247 1384 247 
Q 1750 247 2026 523 
Q 2303 800 2303 1197 
Q 2303 1581 2056 1914 
Q 1809 2247 1375 2428 
Q 1034 2569 447 2591 
L 1259 4238 
L 2778 4238 
z
" transform="scale(0.015625)"/>
       </defs>
       <use xlink:href="#TimesNewRomanPSMT-35"/>
       <use xlink:href="#TimesNewRomanPSMT-30" transform="translate(50 0)"/>
      </g>
     </g>
    </g>
    <g id="xtick_7">
     <g id="line2d_13">
      <path d="M 543.073769 242.598125 
L 543.073769 20.838125 
" clip-path="url(#pf83a0d397a)" style="fill: none; stroke: #b0b0b0; stroke-opacity: 0.3; stroke-width: 0.5; stroke-linecap: square"/>
     </g>
     <g id="line2d_14">
      <g>
       <use xlink:href="#m3b873f6f23" x="543.073769" y="242.598125" style="stroke: #000000; stroke-width: 0.8"/>
      </g>
     </g>
     <g id="text_7">
      <!-- 60 -->
      <g transform="translate(538.573769 252.3475) scale(0.09 -0.09)">
       <defs>
        <path id="TimesNewRomanPSMT-36" d="M 2869 4325 
L 2869 4209 
Q 2456 4169 2195 4045 
Q 1934 3922 1679 3669 
Q 1425 3416 1258 3105 
Q 1091 2794 978 2366 
Q 1428 2675 1881 2675 
Q 2316 2675 2634 2325 
Q 2953 1975 2953 1425 
Q 2953 894 2631 456 
Q 2244 -75 1606 -75 
Q 1172 -75 869 213 
Q 275 772 275 1663 
Q 275 2231 503 2743 
Q 731 3256 1154 3653 
Q 1578 4050 1965 4187 
Q 2353 4325 2688 4325 
L 2869 4325 
z
M 925 2138 
Q 869 1716 869 1456 
Q 869 1156 980 804 
Q 1091 453 1309 247 
Q 1469 100 1697 100 
Q 1969 100 2183 356 
Q 2397 613 2397 1088 
Q 2397 1622 2184 2012 
Q 1972 2403 1581 2403 
Q 1463 2403 1327 2353 
Q 1191 2303 925 2138 
z
" transform="scale(0.015625)"/>
       </defs>
       <use xlink:href="#TimesNewRomanPSMT-36"/>
       <use xlink:href="#TimesNewRomanPSMT-30" transform="translate(50 0)"/>
      </g>
     </g>
    </g>
    <g id="xtick_8">
     <g id="line2d_15">
      <path d="M 623.169463 242.598125 
L 623.169463 20.838125 
" clip-path="url(#pf83a0d397a)" style="fill: none; stroke: #b0b0b0; stroke-opacity: 0.3; stroke-width: 0.5; stroke-linecap: square"/>
     </g>
     <g id="line2d_16">
      <g>
       <use xlink:href="#m3b873f6f23" x="623.169463" y="242.598125" style="stroke: #000000; stroke-width: 0.8"/>
      </g>
     </g>
     <g id="text_8">
      <!-- 70 -->
      <g transform="translate(618.669463 252.3475) scale(0.09 -0.09)">
       <defs>
        <path id="TimesNewRomanPSMT-37" d="M 644 4238 
L 2916 4238 
L 2916 4119 
L 1503 -88 
L 1153 -88 
L 2419 3728 
L 1253 3728 
Q 900 3728 750 3644 
Q 488 3500 328 3200 
L 238 3234 
L 644 4238 
z
" transform="scale(0.015625)"/>
       </defs>
       <use xlink:href="#TimesNewRomanPSMT-37"/>
       <use xlink:href="#TimesNewRomanPSMT-30" transform="translate(50 0)"/>
      </g>
     </g>
    </g>
    <g id="xtick_9">
     <g id="line2d_17">
      <path d="M 703.265157 242.598125 
L 703.265157 20.838125 
" clip-path="url(#pf83a0d397a)" style="fill: none; stroke: #b0b0b0; stroke-opacity: 0.3; stroke-width: 0.5; stroke-linecap: square"/>
     </g>
     <g id="line2d_18">
      <g>
       <use xlink:href="#m3b873f6f23" x="703.265157" y="242.598125" style="stroke: #000000; stroke-width: 0.8"/>
      </g>
     </g>
     <g id="text_9">
      <!-- 80 -->
      <g transform="translate(698.765157 252.3475) scale(0.09 -0.09)">
       <defs>
        <path id="TimesNewRomanPSMT-38" d="M 1228 2134 
Q 725 2547 579 2797 
Q 434 3047 434 3316 
Q 434 3728 753 4026 
Q 1072 4325 1600 4325 
Q 2113 4325 2425 4047 
Q 2738 3769 2738 3413 
Q 2738 3175 2569 2928 
Q 2400 2681 1866 2347 
Q 2416 1922 2594 1678 
Q 2831 1359 2831 1006 
Q 2831 559 2490 242 
Q 2150 -75 1597 -75 
Q 994 -75 656 303 
Q 388 606 388 966 
Q 388 1247 577 1523 
Q 766 1800 1228 2134 
z
M 1719 2469 
Q 2094 2806 2194 3001 
Q 2294 3197 2294 3444 
Q 2294 3772 2109 3958 
Q 1925 4144 1606 4144 
Q 1288 4144 1088 3959 
Q 888 3775 888 3528 
Q 888 3366 970 3203 
Q 1053 3041 1206 2894 
L 1719 2469 
z
M 1375 2016 
Q 1116 1797 991 1539 
Q 866 1281 866 981 
Q 866 578 1086 336 
Q 1306 94 1647 94 
Q 1984 94 2187 284 
Q 2391 475 2391 747 
Q 2391 972 2272 1150 
Q 2050 1481 1375 2016 
z
" transform="scale(0.015625)"/>
       </defs>
       <use xlink:href="#TimesNewRomanPSMT-38"/>
       <use xlink:href="#TimesNewRomanPSMT-30" transform="translate(50 0)"/>
      </g>
     </g>
    </g>
    <g id="text_10">
     <!-- Epoch -->
     <g transform="translate(362.099375 265.216406) scale(0.1 -0.1)">
      <defs>
       <path id="TimesNewRomanPSMT-45" d="M 1338 4006 
L 1338 2331 
L 2269 2331 
Q 2631 2331 2753 2441 
Q 2916 2584 2934 2947 
L 3050 2947 
L 3050 1472 
L 2934 1472 
Q 2891 1781 2847 1869 
Q 2791 1978 2662 2040 
Q 2534 2103 2269 2103 
L 1338 2103 
L 1338 706 
Q 1338 425 1363 364 
Q 1388 303 1450 267 
Q 1513 231 1688 231 
L 2406 231 
Q 2766 231 2928 281 
Q 3091 331 3241 478 
Q 3434 672 3638 1063 
L 3763 1063 
L 3397 0 
L 131 0 
L 131 116 
L 281 116 
Q 431 116 566 188 
Q 666 238 702 338 
Q 738 438 738 747 
L 738 3500 
Q 738 3903 656 3997 
Q 544 4122 281 4122 
L 131 4122 
L 131 4238 
L 3397 4238 
L 3444 3309 
L 3322 3309 
Q 3256 3644 3176 3769 
Q 3097 3894 2941 3959 
Q 2816 4006 2500 4006 
L 1338 4006 
z
" transform="scale(0.015625)"/>
       <path id="TimesNewRomanPSMT-70" d="M -6 2578 
L 875 2934 
L 994 2934 
L 994 2266 
Q 1216 2644 1439 2795 
Q 1663 2947 1909 2947 
Q 2341 2947 2628 2609 
Q 2981 2197 2981 1534 
Q 2981 794 2556 309 
Q 2206 -88 1675 -88 
Q 1444 -88 1275 -22 
Q 1150 25 994 166 
L 994 -706 
Q 994 -1000 1030 -1079 
Q 1066 -1159 1155 -1206 
Q 1244 -1253 1478 -1253 
L 1478 -1369 
L -22 -1369 
L -22 -1253 
L 56 -1253 
Q 228 -1256 350 -1188 
Q 409 -1153 442 -1076 
Q 475 -1000 475 -688 
L 475 2019 
Q 475 2297 450 2372 
Q 425 2447 370 2484 
Q 316 2522 222 2522 
Q 147 2522 31 2478 
L -6 2578 
z
M 994 2081 
L 994 1013 
Q 994 666 1022 556 
Q 1066 375 1236 237 
Q 1406 100 1666 100 
Q 1978 100 2172 344 
Q 2425 663 2425 1241 
Q 2425 1897 2138 2250 
Q 1938 2494 1663 2494 
Q 1513 2494 1366 2419 
Q 1253 2363 994 2081 
z
" transform="scale(0.015625)"/>
       <path id="TimesNewRomanPSMT-6f" d="M 1600 2947 
Q 2250 2947 2644 2453 
Q 2978 2031 2978 1484 
Q 2978 1100 2793 706 
Q 2609 313 2286 112 
Q 1963 -88 1566 -88 
Q 919 -88 538 428 
Q 216 863 216 1403 
Q 216 1797 411 2186 
Q 606 2575 925 2761 
Q 1244 2947 1600 2947 
z
M 1503 2744 
Q 1338 2744 1170 2645 
Q 1003 2547 900 2300 
Q 797 2053 797 1666 
Q 797 1041 1045 587 
Q 1294 134 1700 134 
Q 2003 134 2200 384 
Q 2397 634 2397 1244 
Q 2397 2006 2069 2444 
Q 1847 2744 1503 2744 
z
" transform="scale(0.015625)"/>
       <path id="TimesNewRomanPSMT-63" d="M 2631 1088 
Q 2516 522 2178 217 
Q 1841 -88 1431 -88 
Q 944 -88 581 321 
Q 219 731 219 1428 
Q 219 2103 620 2525 
Q 1022 2947 1584 2947 
Q 2006 2947 2278 2723 
Q 2550 2500 2550 2259 
Q 2550 2141 2473 2067 
Q 2397 1994 2259 1994 
Q 2075 1994 1981 2113 
Q 1928 2178 1911 2362 
Q 1894 2547 1784 2644 
Q 1675 2738 1481 2738 
Q 1169 2738 978 2506 
Q 725 2200 725 1697 
Q 725 1184 976 792 
Q 1228 400 1656 400 
Q 1963 400 2206 609 
Q 2378 753 2541 1131 
L 2631 1088 
z
" transform="scale(0.015625)"/>
       <path id="TimesNewRomanPSMT-68" d="M 1041 4444 
L 1041 2350 
Q 1388 2731 1591 2839 
Q 1794 2947 1997 2947 
Q 2241 2947 2416 2812 
Q 2591 2678 2675 2391 
Q 2734 2191 2734 1659 
L 2734 647 
Q 2734 375 2778 275 
Q 2809 200 2884 156 
Q 2959 113 3159 113 
L 3159 0 
L 1753 0 
L 1753 113 
L 1819 113 
Q 2019 113 2097 173 
Q 2175 234 2206 353 
Q 2216 403 2216 647 
L 2216 1659 
Q 2216 2128 2167 2275 
Q 2119 2422 2012 2495 
Q 1906 2569 1756 2569 
Q 1603 2569 1437 2487 
Q 1272 2406 1041 2159 
L 1041 647 
Q 1041 353 1073 281 
Q 1106 209 1195 161 
Q 1284 113 1503 113 
L 1503 0 
L 84 0 
L 84 113 
Q 275 113 384 172 
Q 447 203 484 290 
Q 522 378 522 647 
L 522 3238 
Q 522 3728 498 3840 
Q 475 3953 426 3993 
Q 378 4034 297 4034 
Q 231 4034 84 3984 
L 41 4094 
L 897 4444 
L 1041 4444 
z
" transform="scale(0.015625)"/>
      </defs>
      <use xlink:href="#TimesNewRomanPSMT-45"/>
      <use xlink:href="#TimesNewRomanPSMT-70" transform="translate(61.083984 0)"/>
      <use xlink:href="#TimesNewRomanPSMT-6f" transform="translate(111.083984 0)"/>
      <use xlink:href="#TimesNewRomanPSMT-63" transform="translate(161.083984 0)"/>
      <use xlink:href="#TimesNewRomanPSMT-68" transform="translate(205.46875 0)"/>
     </g>
    </g>
   </g>
   <g id="matplotlib.axis_2">
    <g id="ytick_1">
     <g id="line2d_19">
      <path d="M 40.072812 232.518125 
L 709.672812 232.518125 
" clip-path="url(#pf83a0d397a)" style="fill: none; stroke: #b0b0b0; stroke-opacity: 0.3; stroke-width: 0.5; stroke-linecap: square"/>
     </g>
     <g id="line2d_20">
      <defs>
       <path id="m293a5ab9de" d="M 0 0 
L 3 0 
" style="stroke: #000000; stroke-width: 0.8"/>
      </defs>
      <g>
       <use xlink:href="#m293a5ab9de" x="40.072812" y="232.518125" style="stroke: #000000; stroke-width: 0.8"/>
      </g>
     </g>
     <g id="text_11">
      <!-- $\mathdefault{10^{-4}}$ -->
      <g transform="translate(20.282812 236.505547) scale(0.09 -0.09)">
       <defs>
        <path id="TimesNewRomanPSMT-2212" d="M 3484 2000 
L 116 2000 
L 116 2256 
L 3484 2256 
L 3484 2000 
z
" transform="scale(0.015625)"/>
       </defs>
       <use xlink:href="#TimesNewRomanPSMT-31" transform="translate(0 0.582813)"/>
       <use xlink:href="#TimesNewRomanPSMT-30" transform="translate(50 0.582813)"/>
       <use xlink:href="#TimesNewRomanPSMT-2212" transform="translate(101.502813 60.695312) scale(0.7)"/>
       <use xlink:href="#TimesNewRomanPSMT-34" transform="translate(140.980352 60.695312) scale(0.7)"/>
      </g>
     </g>
    </g>
    <g id="ytick_2">
     <g id="line2d_21">
      <path d="M 40.072812 131.718125 
L 709.672812 131.718125 
" clip-path="url(#pf83a0d397a)" style="fill: none; stroke: #b0b0b0; stroke-opacity: 0.3; stroke-width: 0.5; stroke-linecap: square"/>
     </g>
     <g id="line2d_22">
      <g>
       <use xlink:href="#m293a5ab9de" x="40.072812" y="131.718125" style="stroke: #000000; stroke-width: 0.8"/>
      </g>
     </g>
     <g id="text_12">
      <!-- $\mathdefault{10^{-3}}$ -->
      <g transform="translate(20.282812 135.705547) scale(0.09 -0.09)">
       <use xlink:href="#TimesNewRomanPSMT-31" transform="translate(0 0.582813)"/>
       <use xlink:href="#TimesNewRomanPSMT-30" transform="translate(50 0.582813)"/>
       <use xlink:href="#TimesNewRomanPSMT-2212" transform="translate(101.502813 60.695312) scale(0.7)"/>
       <use xlink:href="#TimesNewRomanPSMT-33" transform="translate(140.980352 60.695312) scale(0.7)"/>
      </g>
     </g>
    </g>
    <g id="ytick_3">
     <g id="line2d_23">
      <path d="M 40.072812 30.918125 
L 709.672812 30.918125 
" clip-path="url(#pf83a0d397a)" style="fill: none; stroke: #b0b0b0; stroke-opacity: 0.3; stroke-width: 0.5; stroke-linecap: square"/>
     </g>
     <g id="line2d_24">
      <g>
       <use xlink:href="#m293a5ab9de" x="40.072812" y="30.918125" style="stroke: #000000; stroke-width: 0.8"/>
      </g>
     </g>
     <g id="text_13">
      <!-- $\mathdefault{10^{-2}}$ -->
      <g transform="translate(20.282812 34.905547) scale(0.09 -0.09)">
       <use xlink:href="#TimesNewRomanPSMT-31" transform="translate(0 0.582813)"/>
       <use xlink:href="#TimesNewRomanPSMT-30" transform="translate(50 0.582813)"/>
       <use xlink:href="#TimesNewRomanPSMT-2212" transform="translate(101.502813 60.695312) scale(0.7)"/>
       <use xlink:href="#TimesNewRomanPSMT-32" transform="translate(140.980352 60.695312) scale(0.7)"/>
      </g>
     </g>
    </g>
    <g id="ytick_4">
     <g id="line2d_25">
      <defs>
       <path id="md65079b471" d="M 0 0 
L 1.5 0 
" style="stroke: #000000; stroke-width: 0.6"/>
      </defs>
      <g>
       <use xlink:href="#md65079b471" x="40.072812" y="242.286654" style="stroke: #000000; stroke-width: 0.6"/>
      </g>
     </g>
    </g>
    <g id="ytick_5">
     <g id="line2d_26">
      <g>
       <use xlink:href="#md65079b471" x="40.072812" y="237.13048" style="stroke: #000000; stroke-width: 0.6"/>
      </g>
     </g>
    </g>
    <g id="ytick_6">
     <g id="line2d_27">
      <g>
       <use xlink:href="#md65079b471" x="40.072812" y="202.174301" style="stroke: #000000; stroke-width: 0.6"/>
      </g>
     </g>
    </g>
    <g id="ytick_7">
     <g id="line2d_28">
      <g>
       <use xlink:href="#md65079b471" x="40.072812" y="184.424303" style="stroke: #000000; stroke-width: 0.6"/>
      </g>
     </g>
    </g>
    <g id="ytick_8">
     <g id="line2d_29">
      <g>
       <use xlink:href="#md65079b471" x="40.072812" y="171.830478" style="stroke: #000000; stroke-width: 0.6"/>
      </g>
     </g>
    </g>
    <g id="ytick_9">
     <g id="line2d_30">
      <g>
       <use xlink:href="#md65079b471" x="40.072812" y="162.061949" style="stroke: #000000; stroke-width: 0.6"/>
      </g>
     </g>
    </g>
    <g id="ytick_10">
     <g id="line2d_31">
      <g>
       <use xlink:href="#md65079b471" x="40.072812" y="154.080479" style="stroke: #000000; stroke-width: 0.6"/>
      </g>
     </g>
    </g>
    <g id="ytick_11">
     <g id="line2d_32">
      <g>
       <use xlink:href="#md65079b471" x="40.072812" y="147.332243" style="stroke: #000000; stroke-width: 0.6"/>
      </g>
     </g>
    </g>
    <g id="ytick_12">
     <g id="line2d_33">
      <g>
       <use xlink:href="#md65079b471" x="40.072812" y="141.486654" style="stroke: #000000; stroke-width: 0.6"/>
      </g>
     </g>
    </g>
    <g id="ytick_13">
     <g id="line2d_34">
      <g>
       <use xlink:href="#md65079b471" x="40.072812" y="136.33048" style="stroke: #000000; stroke-width: 0.6"/>
      </g>
     </g>
    </g>
    <g id="ytick_14">
     <g id="line2d_35">
      <g>
       <use xlink:href="#md65079b471" x="40.072812" y="101.374301" style="stroke: #000000; stroke-width: 0.6"/>
      </g>
     </g>
    </g>
    <g id="ytick_15">
     <g id="line2d_36">
      <g>
       <use xlink:href="#md65079b471" x="40.072812" y="83.624303" style="stroke: #000000; stroke-width: 0.6"/>
      </g>
     </g>
    </g>
    <g id="ytick_16">
     <g id="line2d_37">
      <g>
       <use xlink:href="#md65079b471" x="40.072812" y="71.030478" style="stroke: #000000; stroke-width: 0.6"/>
      </g>
     </g>
    </g>
    <g id="ytick_17">
     <g id="line2d_38">
      <g>
       <use xlink:href="#md65079b471" x="40.072812" y="61.261949" style="stroke: #000000; stroke-width: 0.6"/>
      </g>
     </g>
    </g>
    <g id="ytick_18">
     <g id="line2d_39">
      <g>
       <use xlink:href="#md65079b471" x="40.072812" y="53.280479" style="stroke: #000000; stroke-width: 0.6"/>
      </g>
     </g>
    </g>
    <g id="ytick_19">
     <g id="line2d_40">
      <g>
       <use xlink:href="#md65079b471" x="40.072812" y="46.532243" style="stroke: #000000; stroke-width: 0.6"/>
      </g>
     </g>
    </g>
    <g id="ytick_20">
     <g id="line2d_41">
      <g>
       <use xlink:href="#md65079b471" x="40.072812" y="40.686654" style="stroke: #000000; stroke-width: 0.6"/>
      </g>
     </g>
    </g>
    <g id="ytick_21">
     <g id="line2d_42">
      <g>
       <use xlink:href="#md65079b471" x="40.072812" y="35.53048" style="stroke: #000000; stroke-width: 0.6"/>
      </g>
     </g>
    </g>
    <g id="text_14">
     <!-- Update Ratio -->
     <g transform="translate(14.14375 158.24) rotate(-90) scale(0.1 -0.1)">
      <defs>
       <path id="TimesNewRomanPSMT-55" d="M 3053 4122 
L 3053 4238 
L 4553 4238 
L 4553 4122 
L 4394 4122 
Q 4144 4122 4009 3913 
Q 3944 3816 3944 3463 
L 3944 1744 
Q 3944 1106 3817 754 
Q 3691 403 3320 151 
Q 2950 -100 2313 -100 
Q 1619 -100 1259 140 
Q 900 381 750 788 
Q 650 1066 650 1831 
L 650 3488 
Q 650 3878 542 4000 
Q 434 4122 194 4122 
L 34 4122 
L 34 4238 
L 1866 4238 
L 1866 4122 
L 1703 4122 
Q 1441 4122 1328 3956 
Q 1250 3844 1250 3488 
L 1250 1641 
Q 1250 1394 1295 1075 
Q 1341 756 1459 578 
Q 1578 400 1801 284 
Q 2025 169 2350 169 
Q 2766 169 3094 350 
Q 3422 531 3542 814 
Q 3663 1097 3663 1772 
L 3663 3488 
Q 3663 3884 3575 3984 
Q 3453 4122 3213 4122 
L 3053 4122 
z
" transform="scale(0.015625)"/>
       <path id="TimesNewRomanPSMT-64" d="M 2222 322 
Q 2013 103 1813 7 
Q 1613 -88 1381 -88 
Q 913 -88 563 304 
Q 213 697 213 1313 
Q 213 1928 600 2439 
Q 988 2950 1597 2950 
Q 1975 2950 2222 2709 
L 2222 3238 
Q 2222 3728 2198 3840 
Q 2175 3953 2125 3993 
Q 2075 4034 2000 4034 
Q 1919 4034 1784 3984 
L 1744 4094 
L 2597 4444 
L 2738 4444 
L 2738 1134 
Q 2738 631 2761 520 
Q 2784 409 2836 365 
Q 2888 322 2956 322 
Q 3041 322 3181 375 
L 3216 266 
L 2366 -88 
L 2222 -88 
L 2222 322 
z
M 2222 541 
L 2222 2016 
Q 2203 2228 2109 2403 
Q 2016 2578 1861 2667 
Q 1706 2756 1559 2756 
Q 1284 2756 1069 2509 
Q 784 2184 784 1559 
Q 784 928 1059 592 
Q 1334 256 1672 256 
Q 1956 256 2222 541 
z
" transform="scale(0.015625)"/>
       <path id="TimesNewRomanPSMT-61" d="M 1822 413 
Q 1381 72 1269 19 
Q 1100 -59 909 -59 
Q 613 -59 420 144 
Q 228 347 228 678 
Q 228 888 322 1041 
Q 450 1253 767 1440 
Q 1084 1628 1822 1897 
L 1822 2009 
Q 1822 2438 1686 2597 
Q 1550 2756 1291 2756 
Q 1094 2756 978 2650 
Q 859 2544 859 2406 
L 866 2225 
Q 866 2081 792 2003 
Q 719 1925 600 1925 
Q 484 1925 411 2006 
Q 338 2088 338 2228 
Q 338 2497 613 2722 
Q 888 2947 1384 2947 
Q 1766 2947 2009 2819 
Q 2194 2722 2281 2516 
Q 2338 2381 2338 1966 
L 2338 994 
Q 2338 584 2353 492 
Q 2369 400 2405 369 
Q 2441 338 2488 338 
Q 2538 338 2575 359 
Q 2641 400 2828 588 
L 2828 413 
Q 2478 -56 2159 -56 
Q 2006 -56 1915 50 
Q 1825 156 1822 413 
z
M 1822 616 
L 1822 1706 
Q 1350 1519 1213 1441 
Q 966 1303 859 1153 
Q 753 1003 753 825 
Q 753 600 887 451 
Q 1022 303 1197 303 
Q 1434 303 1822 616 
z
" transform="scale(0.015625)"/>
       <path id="TimesNewRomanPSMT-74" d="M 1031 3803 
L 1031 2863 
L 1700 2863 
L 1700 2644 
L 1031 2644 
L 1031 788 
Q 1031 509 1111 412 
Q 1191 316 1316 316 
Q 1419 316 1516 380 
Q 1613 444 1666 569 
L 1788 569 
Q 1678 263 1478 108 
Q 1278 -47 1066 -47 
Q 922 -47 784 33 
Q 647 113 581 261 
Q 516 409 516 719 
L 516 2644 
L 63 2644 
L 63 2747 
Q 234 2816 414 2980 
Q 594 3144 734 3369 
Q 806 3488 934 3803 
L 1031 3803 
z
" transform="scale(0.015625)"/>
       <path id="TimesNewRomanPSMT-65" d="M 681 1784 
Q 678 1147 991 784 
Q 1303 422 1725 422 
Q 2006 422 2214 576 
Q 2422 731 2563 1106 
L 2659 1044 
Q 2594 616 2278 264 
Q 1963 -88 1488 -88 
Q 972 -88 605 314 
Q 238 716 238 1394 
Q 238 2128 614 2539 
Q 991 2950 1559 2950 
Q 2041 2950 2350 2633 
Q 2659 2316 2659 1784 
L 681 1784 
z
M 681 1966 
L 2006 1966 
Q 1991 2241 1941 2353 
Q 1863 2528 1708 2628 
Q 1553 2728 1384 2728 
Q 1125 2728 920 2526 
Q 716 2325 681 1966 
z
" transform="scale(0.015625)"/>
       <path id="TimesNewRomanPSMT-20" transform="scale(0.015625)"/>
       <path id="TimesNewRomanPSMT-52" d="M 4325 0 
L 3194 0 
L 1759 1981 
Q 1600 1975 1500 1975 
Q 1459 1975 1412 1976 
Q 1366 1978 1316 1981 
L 1316 750 
Q 1316 350 1403 253 
Q 1522 116 1759 116 
L 1925 116 
L 1925 0 
L 109 0 
L 109 116 
L 269 116 
Q 538 116 653 291 
Q 719 388 719 750 
L 719 3488 
Q 719 3888 631 3984 
Q 509 4122 269 4122 
L 109 4122 
L 109 4238 
L 1653 4238 
Q 2328 4238 2648 4139 
Q 2969 4041 3192 3777 
Q 3416 3513 3416 3147 
Q 3416 2756 3161 2468 
Q 2906 2181 2372 2063 
L 3247 847 
Q 3547 428 3762 290 
Q 3978 153 4325 116 
L 4325 0 
z
M 1316 2178 
Q 1375 2178 1419 2176 
Q 1463 2175 1491 2175 
Q 2097 2175 2405 2437 
Q 2713 2700 2713 3106 
Q 2713 3503 2464 3751 
Q 2216 4000 1806 4000 
Q 1625 4000 1316 3941 
L 1316 2178 
z
" transform="scale(0.015625)"/>
       <path id="TimesNewRomanPSMT-69" d="M 928 4444 
Q 1059 4444 1151 4351 
Q 1244 4259 1244 4128 
Q 1244 3997 1151 3903 
Q 1059 3809 928 3809 
Q 797 3809 703 3903 
Q 609 3997 609 4128 
Q 609 4259 701 4351 
Q 794 4444 928 4444 
z
M 1188 2947 
L 1188 647 
Q 1188 378 1227 289 
Q 1266 200 1342 156 
Q 1419 113 1622 113 
L 1622 0 
L 231 0 
L 231 113 
Q 441 113 512 153 
Q 584 194 626 287 
Q 669 381 669 647 
L 669 1750 
Q 669 2216 641 2353 
Q 619 2453 572 2492 
Q 525 2531 444 2531 
Q 356 2531 231 2484 
L 188 2597 
L 1050 2947 
L 1188 2947 
z
" transform="scale(0.015625)"/>
      </defs>
      <use xlink:href="#TimesNewRomanPSMT-55"/>
      <use xlink:href="#TimesNewRomanPSMT-70" transform="translate(72.216797 0)"/>
      <use xlink:href="#TimesNewRomanPSMT-64" transform="translate(122.216797 0)"/>
      <use xlink:href="#TimesNewRomanPSMT-61" transform="translate(172.216797 0)"/>
      <use xlink:href="#TimesNewRomanPSMT-74" transform="translate(216.601562 0)"/>
      <use xlink:href="#TimesNewRomanPSMT-65" transform="translate(244.384766 0)"/>
      <use xlink:href="#TimesNewRomanPSMT-20" transform="translate(288.769531 0)"/>
      <use xlink:href="#TimesNewRomanPSMT-52" transform="translate(313.769531 0)"/>
      <use xlink:href="#TimesNewRomanPSMT-61" transform="translate(380.46875 0)"/>
      <use xlink:href="#TimesNewRomanPSMT-74" transform="translate(424.853516 0)"/>
      <use xlink:href="#TimesNewRomanPSMT-69" transform="translate(452.636719 0)"/>
      <use xlink:href="#TimesNewRomanPSMT-6f" transform="translate(480.419922 0)"/>
     </g>
    </g>
   </g>
   <g id="line2d_43">
    <path d="M 70.509176 106.051208 
L 78.518746 115.019681 
L 86.528315 120.126185 
L 94.537884 120.369487 
L 102.547454 122.011903 
L 110.557023 123.258375 
L 118.566592 125.488441 
L 126.576162 129.600305 
L 134.585731 133.543281 
L 142.595301 135.693259 
L 150.60487 139.836988 
L 158.614439 139.338649 
L 166.624009 140.740132 
L 174.633578 142.05907 
L 182.643147 143.881478 
L 190.652717 144.687882 
L 198.662286 144.619717 
L 206.671856 146.059665 
L 214.681425 147.13557 
L 222.690994 145.509946 
L 230.700564 147.013055 
L 238.710133 148.161943 
L 246.719702 148.282965 
L 254.729272 149.586021 
L 262.738841 148.843282 
L 270.748411 150.590119 
L 278.75798 149.469468 
L 286.767549 151.03945 
L 294.777119 150.309243 
L 302.786688 150.393149 
L 310.796257 151.100756 
L 318.805827 151.427459 
L 326.815396 147.530615 
L 334.824966 148.4353 
L 342.834535 149.937553 
L 350.844104 150.830916 
L 358.853674 152.022259 
L 366.863243 151.20741 
L 374.872812 152.536009 
L 382.882382 147.473586 
L 390.891951 149.327302 
L 398.901521 150.534654 
L 406.91109 148.217904 
L 414.920659 149.544091 
L 422.930229 149.38022 
L 430.939798 149.105496 
L 438.949368 149.768092 
L 446.958937 151.180476 
L 454.968506 148.687437 
L 462.978076 149.112445 
L 470.987645 150.610851 
L 478.997214 147.416024 
L 487.006784 148.808548 
L 495.016353 149.032087 
L 503.025923 151.53579 
L 511.035492 146.364062 
L 519.045061 149.998877 
L 527.054631 150.248976 
L 535.0642 151.92942 
L 543.073769 149.508611 
L 551.083339 150.26184 
L 559.092908 151.384229 
L 567.102478 153.321882 
L 575.112047 149.973042 
L 583.121616 148.73265 
L 591.131186 149.772934 
L 599.140755 147.94485 
L 607.150324 149.035315 
L 615.159894 150.456326 
L 623.169463 149.978675 
L 631.179033 148.863728 
L 639.188602 150.489872 
L 647.198171 152.105769 
L 655.207741 148.723853 
L 663.21731 151.438956 
L 671.226879 150.586012 
L 679.236449 152.694405 
" clip-path="url(#pf83a0d397a)" style="fill: none; stroke: #1f77b4; stroke-width: 1.2; stroke-linecap: square"/>
    <defs>
     <path id="mb347af4fb9" d="M 0 1.5 
C 0.397805 1.5 0.77937 1.341951 1.06066 1.06066 
C 1.341951 0.77937 1.5 0.397805 1.5 0 
C 1.5 -0.397805 1.341951 -0.77937 1.06066 -1.06066 
C 0.77937 -1.341951 0.397805 -1.5 0 -1.5 
C -0.397805 -1.5 -0.77937 -1.341951 -1.06066 -1.06066 
C -1.341951 -0.77937 -1.5 -0.397805 -1.5 0 
C -1.5 0.397805 -1.341951 0.77937 -1.06066 1.06066 
C -0.77937 1.341951 -0.397805 1.5 0 1.5 
z
" style="stroke: #1f77b4"/>
    </defs>
    <g clip-path="url(#pf83a0d397a)">
     <use xlink:href="#mb347af4fb9" x="70.509176" y="106.051208" style="fill: #1f77b4; stroke: #1f77b4"/>
     <use xlink:href="#mb347af4fb9" x="86.528315" y="120.126185" style="fill: #1f77b4; stroke: #1f77b4"/>
     <use xlink:href="#mb347af4fb9" x="102.547454" y="122.011903" style="fill: #1f77b4; stroke: #1f77b4"/>
     <use xlink:href="#mb347af4fb9" x="118.566592" y="125.488441" style="fill: #1f77b4; stroke: #1f77b4"/>
     <use xlink:href="#mb347af4fb9" x="134.585731" y="133.543281" style="fill: #1f77b4; stroke: #1f77b4"/>
     <use xlink:href="#mb347af4fb9" x="150.60487" y="139.836988" style="fill: #1f77b4; stroke: #1f77b4"/>
     <use xlink:href="#mb347af4fb9" x="166.624009" y="140.740132" style="fill: #1f77b4; stroke: #1f77b4"/>
     <use xlink:href="#mb347af4fb9" x="182.643147" y="143.881478" style="fill: #1f77b4; stroke: #1f77b4"/>
     <use xlink:href="#mb347af4fb9" x="198.662286" y="144.619717" style="fill: #1f77b4; stroke: #1f77b4"/>
     <use xlink:href="#mb347af4fb9" x="214.681425" y="147.13557" style="fill: #1f77b4; stroke: #1f77b4"/>
     <use xlink:href="#mb347af4fb9" x="230.700564" y="147.013055" style="fill: #1f77b4; stroke: #1f77b4"/>
     <use xlink:href="#mb347af4fb9" x="246.719702" y="148.282965" style="fill: #1f77b4; stroke: #1f77b4"/>
     <use xlink:href="#mb347af4fb9" x="262.738841" y="148.843282" style="fill: #1f77b4; stroke: #1f77b4"/>
     <use xlink:href="#mb347af4fb9" x="278.75798" y="149.469468" style="fill: #1f77b4; stroke: #1f77b4"/>
     <use xlink:href="#mb347af4fb9" x="294.777119" y="150.309243" style="fill: #1f77b4; stroke: #1f77b4"/>
     <use xlink:href="#mb347af4fb9" x="310.796257" y="151.100756" style="fill: #1f77b4; stroke: #1f77b4"/>
     <use xlink:href="#mb347af4fb9" x="326.815396" y="147.530615" style="fill: #1f77b4; stroke: #1f77b4"/>
     <use xlink:href="#mb347af4fb9" x="342.834535" y="149.937553" style="fill: #1f77b4; stroke: #1f77b4"/>
     <use xlink:href="#mb347af4fb9" x="358.853674" y="152.022259" style="fill: #1f77b4; stroke: #1f77b4"/>
     <use xlink:href="#mb347af4fb9" x="374.872812" y="152.536009" style="fill: #1f77b4; stroke: #1f77b4"/>
     <use xlink:href="#mb347af4fb9" x="390.891951" y="149.327302" style="fill: #1f77b4; stroke: #1f77b4"/>
     <use xlink:href="#mb347af4fb9" x="406.91109" y="148.217904" style="fill: #1f77b4; stroke: #1f77b4"/>
     <use xlink:href="#mb347af4fb9" x="422.930229" y="149.38022" style="fill: #1f77b4; stroke: #1f77b4"/>
     <use xlink:href="#mb347af4fb9" x="438.949368" y="149.768092" style="fill: #1f77b4; stroke: #1f77b4"/>
     <use xlink:href="#mb347af4fb9" x="454.968506" y="148.687437" style="fill: #1f77b4; stroke: #1f77b4"/>
     <use xlink:href="#mb347af4fb9" x="470.987645" y="150.610851" style="fill: #1f77b4; stroke: #1f77b4"/>
     <use xlink:href="#mb347af4fb9" x="487.006784" y="148.808548" style="fill: #1f77b4; stroke: #1f77b4"/>
     <use xlink:href="#mb347af4fb9" x="503.025923" y="151.53579" style="fill: #1f77b4; stroke: #1f77b4"/>
     <use xlink:href="#mb347af4fb9" x="519.045061" y="149.998877" style="fill: #1f77b4; stroke: #1f77b4"/>
     <use xlink:href="#mb347af4fb9" x="535.0642" y="151.92942" style="fill: #1f77b4; stroke: #1f77b4"/>
     <use xlink:href="#mb347af4fb9" x="551.083339" y="150.26184" style="fill: #1f77b4; stroke: #1f77b4"/>
     <use xlink:href="#mb347af4fb9" x="567.102478" y="153.321882" style="fill: #1f77b4; stroke: #1f77b4"/>
     <use xlink:href="#mb347af4fb9" x="583.121616" y="148.73265" style="fill: #1f77b4; stroke: #1f77b4"/>
     <use xlink:href="#mb347af4fb9" x="599.140755" y="147.94485" style="fill: #1f77b4; stroke: #1f77b4"/>
     <use xlink:href="#mb347af4fb9" x="615.159894" y="150.456326" style="fill: #1f77b4; stroke: #1f77b4"/>
     <use xlink:href="#mb347af4fb9" x="631.179033" y="148.863728" style="fill: #1f77b4; stroke: #1f77b4"/>
     <use xlink:href="#mb347af4fb9" x="647.198171" y="152.105769" style="fill: #1f77b4; stroke: #1f77b4"/>
     <use xlink:href="#mb347af4fb9" x="663.21731" y="151.438956" style="fill: #1f77b4; stroke: #1f77b4"/>
     <use xlink:href="#mb347af4fb9" x="679.236449" y="152.694405" style="fill: #1f77b4; stroke: #1f77b4"/>
    </g>
   </g>
   <g id="line2d_44">
    <path d="M 70.509176 98.198272 
L 78.518746 106.059987 
L 86.528315 111.571611 
L 94.537884 113.786959 
L 102.547454 119.144025 
L 110.557023 125.314603 
L 118.566592 129.873765 
L 126.576162 139.215602 
L 134.585731 145.432306 
L 142.595301 145.431241 
L 150.60487 154.879948 
L 158.614439 152.315035 
L 166.624009 153.309166 
L 174.633578 155.572637 
L 182.643147 155.800155 
L 190.652717 157.133036 
L 198.662286 152.018804 
L 206.671856 155.605678 
L 214.681425 156.084889 
L 222.690994 156.487306 
L 230.700564 154.154805 
L 238.710133 152.104211 
L 246.719702 156.064633 
L 254.729272 157.079906 
L 262.738841 153.83572 
L 270.748411 150.608795 
L 278.75798 150.843884 
L 286.767549 152.029072 
L 294.777119 154.841839 
L 302.786688 148.226321 
L 310.796257 141.030783 
L 318.805827 145.195698 
L 326.815396 141.388343 
L 334.824966 145.17121 
L 342.834535 150.42025 
L 350.844104 146.788955 
L 358.853674 153.91692 
L 366.863243 153.562695 
L 374.872812 149.155547 
L 382.882382 146.678698 
L 390.891951 151.117576 
L 398.901521 148.35736 
L 406.91109 146.311458 
L 414.920659 148.849981 
L 422.930229 148.493099 
L 430.939798 151.648981 
L 438.949368 150.57783 
L 446.958937 148.175489 
L 454.968506 148.280736 
L 462.978076 147.481891 
L 470.987645 149.711871 
L 478.997214 143.900249 
L 487.006784 149.4173 
L 495.016353 146.286784 
L 503.025923 143.52189 
L 511.035492 138.813517 
L 519.045061 145.683177 
L 527.054631 149.316484 
L 535.0642 148.616985 
L 543.073769 144.905849 
L 551.083339 149.273733 
L 559.092908 151.34592 
L 567.102478 150.112977 
L 575.112047 145.211941 
L 583.121616 150.257541 
L 591.131186 150.492851 
L 599.140755 148.404178 
L 607.150324 153.514428 
L 615.159894 153.62661 
L 623.169463 153.592991 
L 631.179033 153.14148 
L 639.188602 141.722352 
L 647.198171 153.594226 
L 655.207741 151.998873 
L 663.21731 150.853398 
L 671.226879 153.54213 
L 679.236449 157.038874 
" clip-path="url(#pf83a0d397a)" style="fill: none; stroke: #ff7f0e; stroke-width: 1.2; stroke-linecap: square"/>
    <defs>
     <path id="mbf3fd06937" d="M 0 1.5 
C 0.397805 1.5 0.77937 1.341951 1.06066 1.06066 
C 1.341951 0.77937 1.5 0.397805 1.5 0 
C 1.5 -0.397805 1.341951 -0.77937 1.06066 -1.06066 
C 0.77937 -1.341951 0.397805 -1.5 0 -1.5 
C -0.397805 -1.5 -0.77937 -1.341951 -1.06066 -1.06066 
C -1.341951 -0.77937 -1.5 -0.397805 -1.5 0 
C -1.5 0.397805 -1.341951 0.77937 -1.06066 1.06066 
C -0.77937 1.341951 -0.397805 1.5 0 1.5 
z
" style="stroke: #ff7f0e"/>
    </defs>
    <g clip-path="url(#pf83a0d397a)">
     <use xlink:href="#mbf3fd06937" x="70.509176" y="98.198272" style="fill: #ff7f0e; stroke: #ff7f0e"/>
     <use xlink:href="#mbf3fd06937" x="86.528315" y="111.571611" style="fill: #ff7f0e; stroke: #ff7f0e"/>
     <use xlink:href="#mbf3fd06937" x="102.547454" y="119.144025" style="fill: #ff7f0e; stroke: #ff7f0e"/>
     <use xlink:href="#mbf3fd06937" x="118.566592" y="129.873765" style="fill: #ff7f0e; stroke: #ff7f0e"/>
     <use xlink:href="#mbf3fd06937" x="134.585731" y="145.432306" style="fill: #ff7f0e; stroke: #ff7f0e"/>
     <use xlink:href="#mbf3fd06937" x="150.60487" y="154.879948" style="fill: #ff7f0e; stroke: #ff7f0e"/>
     <use xlink:href="#mbf3fd06937" x="166.624009" y="153.309166" style="fill: #ff7f0e; stroke: #ff7f0e"/>
     <use xlink:href="#mbf3fd06937" x="182.643147" y="155.800155" style="fill: #ff7f0e; stroke: #ff7f0e"/>
     <use xlink:href="#mbf3fd06937" x="198.662286" y="152.018804" style="fill: #ff7f0e; stroke: #ff7f0e"/>
     <use xlink:href="#mbf3fd06937" x="214.681425" y="156.084889" style="fill: #ff7f0e; stroke: #ff7f0e"/>
     <use xlink:href="#mbf3fd06937" x="230.700564" y="154.154805" style="fill: #ff7f0e; stroke: #ff7f0e"/>
     <use xlink:href="#mbf3fd06937" x="246.719702" y="156.064633" style="fill: #ff7f0e; stroke: #ff7f0e"/>
     <use xlink:href="#mbf3fd06937" x="262.738841" y="153.83572" style="fill: #ff7f0e; stroke: #ff7f0e"/>
     <use xlink:href="#mbf3fd06937" x="278.75798" y="150.843884" style="fill: #ff7f0e; stroke: #ff7f0e"/>
     <use xlink:href="#mbf3fd06937" x="294.777119" y="154.841839" style="fill: #ff7f0e; stroke: #ff7f0e"/>
     <use xlink:href="#mbf3fd06937" x="310.796257" y="141.030783" style="fill: #ff7f0e; stroke: #ff7f0e"/>
     <use xlink:href="#mbf3fd06937" x="326.815396" y="141.388343" style="fill: #ff7f0e; stroke: #ff7f0e"/>
     <use xlink:href="#mbf3fd06937" x="342.834535" y="150.42025" style="fill: #ff7f0e; stroke: #ff7f0e"/>
     <use xlink:href="#mbf3fd06937" x="358.853674" y="153.91692" style="fill: #ff7f0e; stroke: #ff7f0e"/>
     <use xlink:href="#mbf3fd06937" x="374.872812" y="149.155547" style="fill: #ff7f0e; stroke: #ff7f0e"/>
     <use xlink:href="#mbf3fd06937" x="390.891951" y="151.117576" style="fill: #ff7f0e; stroke: #ff7f0e"/>
     <use xlink:href="#mbf3fd06937" x="406.91109" y="146.311458" style="fill: #ff7f0e; stroke: #ff7f0e"/>
     <use xlink:href="#mbf3fd06937" x="422.930229" y="148.493099" style="fill: #ff7f0e; stroke: #ff7f0e"/>
     <use xlink:href="#mbf3fd06937" x="438.949368" y="150.57783" style="fill: #ff7f0e; stroke: #ff7f0e"/>
     <use xlink:href="#mbf3fd06937" x="454.968506" y="148.280736" style="fill: #ff7f0e; stroke: #ff7f0e"/>
     <use xlink:href="#mbf3fd06937" x="470.987645" y="149.711871" style="fill: #ff7f0e; stroke: #ff7f0e"/>
     <use xlink:href="#mbf3fd06937" x="487.006784" y="149.4173" style="fill: #ff7f0e; stroke: #ff7f0e"/>
     <use xlink:href="#mbf3fd06937" x="503.025923" y="143.52189" style="fill: #ff7f0e; stroke: #ff7f0e"/>
     <use xlink:href="#mbf3fd06937" x="519.045061" y="145.683177" style="fill: #ff7f0e; stroke: #ff7f0e"/>
     <use xlink:href="#mbf3fd06937" x="535.0642" y="148.616985" style="fill: #ff7f0e; stroke: #ff7f0e"/>
     <use xlink:href="#mbf3fd06937" x="551.083339" y="149.273733" style="fill: #ff7f0e; stroke: #ff7f0e"/>
     <use xlink:href="#mbf3fd06937" x="567.102478" y="150.112977" style="fill: #ff7f0e; stroke: #ff7f0e"/>
     <use xlink:href="#mbf3fd06937" x="583.121616" y="150.257541" style="fill: #ff7f0e; stroke: #ff7f0e"/>
     <use xlink:href="#mbf3fd06937" x="599.140755" y="148.404178" style="fill: #ff7f0e; stroke: #ff7f0e"/>
     <use xlink:href="#mbf3fd06937" x="615.159894" y="153.62661" style="fill: #ff7f0e; stroke: #ff7f0e"/>
     <use xlink:href="#mbf3fd06937" x="631.179033" y="153.14148" style="fill: #ff7f0e; stroke: #ff7f0e"/>
     <use xlink:href="#mbf3fd06937" x="647.198171" y="153.594226" style="fill: #ff7f0e; stroke: #ff7f0e"/>
     <use xlink:href="#mbf3fd06937" x="663.21731" y="150.853398" style="fill: #ff7f0e; stroke: #ff7f0e"/>
     <use xlink:href="#mbf3fd06937" x="679.236449" y="157.038874" style="fill: #ff7f0e; stroke: #ff7f0e"/>
    </g>
   </g>
   <g id="line2d_45">
    <path d="M 70.509176 81.153873 
L 78.518746 87.278186 
L 86.528315 93.216243 
L 94.537884 95.230576 
L 102.547454 102.875531 
L 110.557023 108.839321 
L 118.566592 116.932514 
L 126.576162 127.954187 
L 134.585731 139.481983 
L 142.595301 138.351433 
L 150.60487 156.824615 
L 158.614439 155.44891 
L 166.624009 156.068 
L 174.633578 160.633429 
L 182.643147 159.950299 
L 190.652717 158.670093 
L 198.662286 153.294631 
L 206.671856 155.592498 
L 214.681425 163.045635 
L 222.690994 161.361556 
L 230.700564 155.723821 
L 238.710133 155.274256 
L 246.719702 157.826364 
L 254.729272 155.148293 
L 262.738841 154.741215 
L 270.748411 151.615808 
L 278.75798 153.050303 
L 286.767549 154.482748 
L 294.777119 154.728713 
L 302.786688 143.664697 
L 310.796257 137.249525 
L 318.805827 146.900096 
L 326.815396 143.172854 
L 334.824966 141.457645 
L 342.834535 142.141887 
L 350.844104 138.007892 
L 358.853674 149.430904 
L 366.863243 149.150583 
L 374.872812 145.049821 
L 382.882382 139.663001 
L 390.891951 147.159647 
L 398.901521 144.746361 
L 406.91109 152.655282 
L 414.920659 141.340485 
L 422.930229 149.317568 
L 430.939798 151.804761 
L 438.949368 148.132299 
L 446.958937 145.126336 
L 454.968506 151.892515 
L 462.978076 146.867581 
L 470.987645 147.13067 
L 478.997214 148.397782 
L 487.006784 149.596864 
L 495.016353 148.481612 
L 503.025923 147.00654 
L 511.035492 137.701817 
L 519.045061 153.929745 
L 527.054631 150.243469 
L 535.0642 148.62993 
L 543.073769 148.717307 
L 551.083339 150.020273 
L 559.092908 150.800755 
L 567.102478 151.050477 
L 575.112047 145.654375 
L 583.121616 155.035195 
L 591.131186 150.581974 
L 599.140755 151.32611 
L 607.150324 152.632831 
L 615.159894 148.949192 
L 623.169463 155.253577 
L 631.179033 155.271206 
L 639.188602 142.886641 
L 647.198171 156.525102 
L 655.207741 152.787565 
L 663.21731 157.949397 
L 671.226879 153.92755 
L 679.236449 156.50761 
" clip-path="url(#pf83a0d397a)" style="fill: none; stroke: #2ca02c; stroke-width: 1.2; stroke-linecap: square"/>
    <defs>
     <path id="m9868636d00" d="M 0 1.5 
C 0.397805 1.5 0.77937 1.341951 1.06066 1.06066 
C 1.341951 0.77937 1.5 0.397805 1.5 0 
C 1.5 -0.397805 1.341951 -0.77937 1.06066 -1.06066 
C 0.77937 -1.341951 0.397805 -1.5 0 -1.5 
C -0.397805 -1.5 -0.77937 -1.341951 -1.06066 -1.06066 
C -1.341951 -0.77937 -1.5 -0.397805 -1.5 0 
C -1.5 0.397805 -1.341951 0.77937 -1.06066 1.06066 
C -0.77937 1.341951 -0.397805 1.5 0 1.5 
z
" style="stroke: #2ca02c"/>
    </defs>
    <g clip-path="url(#pf83a0d397a)">
     <use xlink:href="#m9868636d00" x="70.509176" y="81.153873" style="fill: #2ca02c; stroke: #2ca02c"/>
     <use xlink:href="#m9868636d00" x="86.528315" y="93.216243" style="fill: #2ca02c; stroke: #2ca02c"/>
     <use xlink:href="#m9868636d00" x="102.547454" y="102.875531" style="fill: #2ca02c; stroke: #2ca02c"/>
     <use xlink:href="#m9868636d00" x="118.566592" y="116.932514" style="fill: #2ca02c; stroke: #2ca02c"/>
     <use xlink:href="#m9868636d00" x="134.585731" y="139.481983" style="fill: #2ca02c; stroke: #2ca02c"/>
     <use xlink:href="#m9868636d00" x="150.60487" y="156.824615" style="fill: #2ca02c; stroke: #2ca02c"/>
     <use xlink:href="#m9868636d00" x="166.624009" y="156.068" style="fill: #2ca02c; stroke: #2ca02c"/>
     <use xlink:href="#m9868636d00" x="182.643147" y="159.950299" style="fill: #2ca02c; stroke: #2ca02c"/>
     <use xlink:href="#m9868636d00" x="198.662286" y="153.294631" style="fill: #2ca02c; stroke: #2ca02c"/>
     <use xlink:href="#m9868636d00" x="214.681425" y="163.045635" style="fill: #2ca02c; stroke: #2ca02c"/>
     <use xlink:href="#m9868636d00" x="230.700564" y="155.723821" style="fill: #2ca02c; stroke: #2ca02c"/>
     <use xlink:href="#m9868636d00" x="246.719702" y="157.826364" style="fill: #2ca02c; stroke: #2ca02c"/>
     <use xlink:href="#m9868636d00" x="262.738841" y="154.741215" style="fill: #2ca02c; stroke: #2ca02c"/>
     <use xlink:href="#m9868636d00" x="278.75798" y="153.050303" style="fill: #2ca02c; stroke: #2ca02c"/>
     <use xlink:href="#m9868636d00" x="294.777119" y="154.728713" style="fill: #2ca02c; stroke: #2ca02c"/>
     <use xlink:href="#m9868636d00" x="310.796257" y="137.249525" style="fill: #2ca02c; stroke: #2ca02c"/>
     <use xlink:href="#m9868636d00" x="326.815396" y="143.172854" style="fill: #2ca02c; stroke: #2ca02c"/>
     <use xlink:href="#m9868636d00" x="342.834535" y="142.141887" style="fill: #2ca02c; stroke: #2ca02c"/>
     <use xlink:href="#m9868636d00" x="358.853674" y="149.430904" style="fill: #2ca02c; stroke: #2ca02c"/>
     <use xlink:href="#m9868636d00" x="374.872812" y="145.049821" style="fill: #2ca02c; stroke: #2ca02c"/>
     <use xlink:href="#m9868636d00" x="390.891951" y="147.159647" style="fill: #2ca02c; stroke: #2ca02c"/>
     <use xlink:href="#m9868636d00" x="406.91109" y="152.655282" style="fill: #2ca02c; stroke: #2ca02c"/>
     <use xlink:href="#m9868636d00" x="422.930229" y="149.317568" style="fill: #2ca02c; stroke: #2ca02c"/>
     <use xlink:href="#m9868636d00" x="438.949368" y="148.132299" style="fill: #2ca02c; stroke: #2ca02c"/>
     <use xlink:href="#m9868636d00" x="454.968506" y="151.892515" style="fill: #2ca02c; stroke: #2ca02c"/>
     <use xlink:href="#m9868636d00" x="470.987645" y="147.13067" style="fill: #2ca02c; stroke: #2ca02c"/>
     <use xlink:href="#m9868636d00" x="487.006784" y="149.596864" style="fill: #2ca02c; stroke: #2ca02c"/>
     <use xlink:href="#m9868636d00" x="503.025923" y="147.00654" style="fill: #2ca02c; stroke: #2ca02c"/>
     <use xlink:href="#m9868636d00" x="519.045061" y="153.929745" style="fill: #2ca02c; stroke: #2ca02c"/>
     <use xlink:href="#m9868636d00" x="535.0642" y="148.62993" style="fill: #2ca02c; stroke: #2ca02c"/>
     <use xlink:href="#m9868636d00" x="551.083339" y="150.020273" style="fill: #2ca02c; stroke: #2ca02c"/>
     <use xlink:href="#m9868636d00" x="567.102478" y="151.050477" style="fill: #2ca02c; stroke: #2ca02c"/>
     <use xlink:href="#m9868636d00" x="583.121616" y="155.035195" style="fill: #2ca02c; stroke: #2ca02c"/>
     <use xlink:href="#m9868636d00" x="599.140755" y="151.32611" style="fill: #2ca02c; stroke: #2ca02c"/>
     <use xlink:href="#m9868636d00" x="615.159894" y="148.949192" style="fill: #2ca02c; stroke: #2ca02c"/>
     <use xlink:href="#m9868636d00" x="631.179033" y="155.271206" style="fill: #2ca02c; stroke: #2ca02c"/>
     <use xlink:href="#m9868636d00" x="647.198171" y="156.525102" style="fill: #2ca02c; stroke: #2ca02c"/>
     <use xlink:href="#m9868636d00" x="663.21731" y="157.949397" style="fill: #2ca02c; stroke: #2ca02c"/>
     <use xlink:href="#m9868636d00" x="679.236449" y="156.50761" style="fill: #2ca02c; stroke: #2ca02c"/>
    </g>
   </g>
   <g id="line2d_46">
    <path d="M 40.072812 232.518125 
L 709.672812 232.518125 
" clip-path="url(#pf83a0d397a)" style="fill: none; stroke-dasharray: 5.55,2.4; stroke-dashoffset: 0; stroke: #2ca02c; stroke-opacity: 0.7; stroke-width: 1.5"/>
   </g>
   <g id="line2d_47">
    <path d="M 40.072812 30.918125 
L 709.672812 30.918125 
" clip-path="url(#pf83a0d397a)" style="fill: none; stroke-dasharray: 5.55,2.4; stroke-dashoffset: 0; stroke: #2ca02c; stroke-opacity: 0.7; stroke-width: 1.5"/>
   </g>
   <g id="patch_3">
    <path d="M 40.072812 242.598125 
L 40.072812 20.838125 
" style="fill: none; stroke: #000000; stroke-width: 0.8; stroke-linejoin: miter; stroke-linecap: square"/>
   </g>
   <g id="patch_4">
    <path d="M 40.072812 242.598125 
L 709.672812 242.598125 
" style="fill: none; stroke: #000000; stroke-width: 0.8; stroke-linejoin: miter; stroke-linecap: square"/>
   </g>
   <g id="text_15">
    <!-- Weight Update Ratios Over Epochs -->
    <g transform="translate(296.497812 14.838125) scale(0.11 -0.11)">
     <defs>
      <path id="TimesNewRomanPSMT-57" d="M 5991 4238 
L 5991 4122 
Q 5825 4122 5722 4062 
Q 5619 4003 5525 3841 
Q 5463 3731 5328 3319 
L 4147 -97 
L 4022 -97 
L 3056 2613 
L 2097 -97 
L 1984 -97 
L 725 3422 
Q 584 3816 547 3888 
Q 484 4006 376 4064 
Q 269 4122 84 4122 
L 84 4238 
L 1653 4238 
L 1653 4122 
L 1578 4122 
Q 1413 4122 1325 4047 
Q 1238 3972 1238 3866 
Q 1238 3756 1375 3363 
L 2209 984 
L 2913 3006 
L 2788 3363 
L 2688 3647 
Q 2622 3803 2541 3922 
Q 2500 3981 2441 4022 
Q 2363 4078 2284 4103 
Q 2225 4122 2097 4122 
L 2097 4238 
L 3747 4238 
L 3747 4122 
L 3634 4122 
Q 3459 4122 3378 4047 
Q 3297 3972 3297 3844 
Q 3297 3684 3438 3288 
L 4250 984 
L 5056 3319 
Q 5194 3706 5194 3856 
Q 5194 3928 5148 3990 
Q 5103 4053 5034 4078 
Q 4916 4122 4725 4122 
L 4725 4238 
L 5991 4238 
z
" transform="scale(0.015625)"/>
      <path id="TimesNewRomanPSMT-67" d="M 966 1044 
Q 703 1172 562 1401 
Q 422 1631 422 1909 
Q 422 2334 742 2640 
Q 1063 2947 1563 2947 
Q 1972 2947 2272 2747 
L 2878 2747 
Q 3013 2747 3034 2739 
Q 3056 2731 3066 2713 
Q 3084 2684 3084 2613 
Q 3084 2531 3069 2500 
Q 3059 2484 3036 2475 
Q 3013 2466 2878 2466 
L 2506 2466 
Q 2681 2241 2681 1891 
Q 2681 1491 2375 1206 
Q 2069 922 1553 922 
Q 1341 922 1119 984 
Q 981 866 932 777 
Q 884 688 884 625 
Q 884 572 936 522 
Q 988 472 1138 450 
Q 1225 438 1575 428 
Q 2219 413 2409 384 
Q 2700 344 2873 169 
Q 3047 -6 3047 -263 
Q 3047 -616 2716 -925 
Q 2228 -1381 1444 -1381 
Q 841 -1381 425 -1109 
Q 191 -953 191 -784 
Q 191 -709 225 -634 
Q 278 -519 444 -313 
Q 466 -284 763 25 
Q 600 122 533 198 
Q 466 275 466 372 
Q 466 481 555 628 
Q 644 775 966 1044 
z
M 1509 2797 
Q 1278 2797 1122 2612 
Q 966 2428 966 2047 
Q 966 1553 1178 1281 
Q 1341 1075 1591 1075 
Q 1828 1075 1981 1253 
Q 2134 1431 2134 1813 
Q 2134 2309 1919 2591 
Q 1759 2797 1509 2797 
z
M 934 0 
Q 788 -159 713 -296 
Q 638 -434 638 -550 
Q 638 -700 819 -813 
Q 1131 -1006 1722 -1006 
Q 2284 -1006 2551 -807 
Q 2819 -609 2819 -384 
Q 2819 -222 2659 -153 
Q 2497 -84 2016 -72 
Q 1313 -53 934 0 
z
" transform="scale(0.015625)"/>
      <path id="TimesNewRomanPSMT-73" d="M 2050 2947 
L 2050 1972 
L 1947 1972 
Q 1828 2431 1642 2597 
Q 1456 2763 1169 2763 
Q 950 2763 815 2647 
Q 681 2531 681 2391 
Q 681 2216 781 2091 
Q 878 1963 1175 1819 
L 1631 1597 
Q 2266 1288 2266 781 
Q 2266 391 1970 151 
Q 1675 -88 1309 -88 
Q 1047 -88 709 6 
Q 606 38 541 38 
Q 469 38 428 -44 
L 325 -44 
L 325 978 
L 428 978 
Q 516 541 762 319 
Q 1009 97 1316 97 
Q 1531 97 1667 223 
Q 1803 350 1803 528 
Q 1803 744 1651 891 
Q 1500 1038 1047 1263 
Q 594 1488 453 1669 
Q 313 1847 313 2119 
Q 313 2472 555 2709 
Q 797 2947 1181 2947 
Q 1350 2947 1591 2875 
Q 1750 2828 1803 2828 
Q 1853 2828 1881 2850 
Q 1909 2872 1947 2947 
L 2050 2947 
z
" transform="scale(0.015625)"/>
      <path id="TimesNewRomanPSMT-4f" d="M 2341 4334 
Q 3166 4334 3770 3707 
Q 4375 3081 4375 2144 
Q 4375 1178 3765 540 
Q 3156 -97 2291 -97 
Q 1416 -97 820 525 
Q 225 1147 225 2134 
Q 225 3144 913 3781 
Q 1509 4334 2341 4334 
z
M 2281 4106 
Q 1713 4106 1369 3684 
Q 941 3159 941 2147 
Q 941 1109 1384 550 
Q 1725 125 2284 125 
Q 2881 125 3270 590 
Q 3659 1056 3659 2059 
Q 3659 3147 3231 3681 
Q 2888 4106 2281 4106 
z
" transform="scale(0.015625)"/>
      <path id="TimesNewRomanPSMT-76" d="M 53 2863 
L 1400 2863 
L 1400 2747 
L 1313 2747 
Q 1191 2747 1127 2687 
Q 1063 2628 1063 2528 
Q 1063 2419 1128 2269 
L 1794 688 
L 2463 2328 
Q 2534 2503 2534 2594 
Q 2534 2638 2509 2666 
Q 2475 2713 2422 2730 
Q 2369 2747 2206 2747 
L 2206 2863 
L 3141 2863 
L 3141 2747 
Q 2978 2734 2916 2681 
Q 2806 2588 2719 2369 
L 1703 -88 
L 1575 -88 
L 553 2328 
Q 484 2497 421 2570 
Q 359 2644 263 2694 
Q 209 2722 53 2747 
L 53 2863 
z
" transform="scale(0.015625)"/>
      <path id="TimesNewRomanPSMT-72" d="M 1038 2947 
L 1038 2303 
Q 1397 2947 1775 2947 
Q 1947 2947 2059 2842 
Q 2172 2738 2172 2600 
Q 2172 2478 2090 2393 
Q 2009 2309 1897 2309 
Q 1788 2309 1652 2417 
Q 1516 2525 1450 2525 
Q 1394 2525 1328 2463 
Q 1188 2334 1038 2041 
L 1038 669 
Q 1038 431 1097 309 
Q 1138 225 1241 169 
Q 1344 113 1538 113 
L 1538 0 
L 72 0 
L 72 113 
Q 291 113 397 181 
Q 475 231 506 341 
Q 522 394 522 644 
L 522 1753 
Q 522 2253 501 2348 
Q 481 2444 426 2487 
Q 372 2531 291 2531 
Q 194 2531 72 2484 
L 41 2597 
L 906 2947 
L 1038 2947 
z
" transform="scale(0.015625)"/>
     </defs>
     <use xlink:href="#TimesNewRomanPSMT-57"/>
     <use xlink:href="#TimesNewRomanPSMT-65" transform="translate(86.384766 0)"/>
     <use xlink:href="#TimesNewRomanPSMT-69" transform="translate(130.769531 0)"/>
     <use xlink:href="#TimesNewRomanPSMT-67" transform="translate(158.552734 0)"/>
     <use xlink:href="#TimesNewRomanPSMT-68" transform="translate(208.552734 0)"/>
     <use xlink:href="#TimesNewRomanPSMT-74" transform="translate(258.552734 0)"/>
     <use xlink:href="#TimesNewRomanPSMT-20" transform="translate(286.335938 0)"/>
     <use xlink:href="#TimesNewRomanPSMT-55" transform="translate(311.335938 0)"/>
     <use xlink:href="#TimesNewRomanPSMT-70" transform="translate(383.552734 0)"/>
     <use xlink:href="#TimesNewRomanPSMT-64" transform="translate(433.552734 0)"/>
     <use xlink:href="#TimesNewRomanPSMT-61" transform="translate(483.552734 0)"/>
     <use xlink:href="#TimesNewRomanPSMT-74" transform="translate(527.9375 0)"/>
     <use xlink:href="#TimesNewRomanPSMT-65" transform="translate(555.720703 0)"/>
     <use xlink:href="#TimesNewRomanPSMT-20" transform="translate(600.105469 0)"/>
     <use xlink:href="#TimesNewRomanPSMT-52" transform="translate(625.105469 0)"/>
     <use xlink:href="#TimesNewRomanPSMT-61" transform="translate(691.804688 0)"/>
     <use xlink:href="#TimesNewRomanPSMT-74" transform="translate(736.189453 0)"/>
     <use xlink:href="#TimesNewRomanPSMT-69" transform="translate(763.972656 0)"/>
     <use xlink:href="#TimesNewRomanPSMT-6f" transform="translate(791.755859 0)"/>
     <use xlink:href="#TimesNewRomanPSMT-73" transform="translate(841.755859 0)"/>
     <use xlink:href="#TimesNewRomanPSMT-20" transform="translate(880.671875 0)"/>
     <use xlink:href="#TimesNewRomanPSMT-4f" transform="translate(905.671875 0)"/>
     <use xlink:href="#TimesNewRomanPSMT-76" transform="translate(977.888672 0)"/>
     <use xlink:href="#TimesNewRomanPSMT-65" transform="translate(1027.888672 0)"/>
     <use xlink:href="#TimesNewRomanPSMT-72" transform="translate(1072.273438 0)"/>
     <use xlink:href="#TimesNewRomanPSMT-20" transform="translate(1105.574219 0)"/>
     <use xlink:href="#TimesNewRomanPSMT-45" transform="translate(1130.574219 0)"/>
     <use xlink:href="#TimesNewRomanPSMT-70" transform="translate(1191.658203 0)"/>
     <use xlink:href="#TimesNewRomanPSMT-6f" transform="translate(1241.658203 0)"/>
     <use xlink:href="#TimesNewRomanPSMT-63" transform="translate(1291.658203 0)"/>
     <use xlink:href="#TimesNewRomanPSMT-68" transform="translate(1336.042969 0)"/>
     <use xlink:href="#TimesNewRomanPSMT-73" transform="translate(1386.042969 0)"/>
    </g>
   </g>
   <g id="legend_1">
    <g id="line2d_48">
     <path d="M 731.164813 32.088125 
L 740.164813 32.088125 
L 749.164813 32.088125 
" style="fill: none; stroke: #1f77b4; stroke-width: 1.2; stroke-linecap: square"/>
     <g>
      <use xlink:href="#mb347af4fb9" x="740.164813" y="32.088125" style="fill: #1f77b4; stroke: #1f77b4"/>
     </g>
    </g>
    <g id="text_16">
     <!-- Layer 1 -->
     <g transform="translate(756.364813 35.238125) scale(0.09 -0.09)">
      <defs>
       <path id="TimesNewRomanPSMT-4c" d="M 3669 1172 
L 3772 1150 
L 3409 0 
L 128 0 
L 128 116 
L 288 116 
Q 556 116 672 291 
Q 738 391 738 753 
L 738 3488 
Q 738 3884 650 3984 
Q 528 4122 288 4122 
L 128 4122 
L 128 4238 
L 2047 4238 
L 2047 4122 
Q 1709 4125 1573 4059 
Q 1438 3994 1388 3894 
Q 1338 3794 1338 3416 
L 1338 753 
Q 1338 494 1388 397 
Q 1425 331 1503 300 
Q 1581 269 1991 269 
L 2300 269 
Q 2788 269 2984 341 
Q 3181 413 3343 595 
Q 3506 778 3669 1172 
z
" transform="scale(0.015625)"/>
       <path id="TimesNewRomanPSMT-79" d="M 38 2863 
L 1372 2863 
L 1372 2747 
L 1306 2747 
Q 1166 2747 1095 2686 
Q 1025 2625 1025 2534 
Q 1025 2413 1128 2197 
L 1825 753 
L 2466 2334 
Q 2519 2463 2519 2588 
Q 2519 2644 2497 2672 
Q 2472 2706 2419 2726 
Q 2366 2747 2231 2747 
L 2231 2863 
L 3163 2863 
L 3163 2747 
Q 3047 2734 2984 2696 
Q 2922 2659 2847 2556 
Q 2819 2513 2741 2316 
L 1575 -541 
Q 1406 -956 1132 -1168 
Q 859 -1381 606 -1381 
Q 422 -1381 303 -1275 
Q 184 -1169 184 -1031 
Q 184 -900 270 -820 
Q 356 -741 506 -741 
Q 609 -741 788 -809 
Q 913 -856 944 -856 
Q 1038 -856 1148 -759 
Q 1259 -663 1372 -384 
L 1575 113 
L 547 2272 
Q 500 2369 397 2513 
Q 319 2622 269 2659 
Q 197 2709 38 2747 
L 38 2863 
z
" transform="scale(0.015625)"/>
      </defs>
      <use xlink:href="#TimesNewRomanPSMT-4c"/>
      <use xlink:href="#TimesNewRomanPSMT-61" transform="translate(61.083984 0)"/>
      <use xlink:href="#TimesNewRomanPSMT-79" transform="translate(105.46875 0)"/>
      <use xlink:href="#TimesNewRomanPSMT-65" transform="translate(155.46875 0)"/>
      <use xlink:href="#TimesNewRomanPSMT-72" transform="translate(199.853516 0)"/>
      <use xlink:href="#TimesNewRomanPSMT-20" transform="translate(233.154297 0)"/>
      <use xlink:href="#TimesNewRomanPSMT-31" transform="translate(258.154297 0)"/>
     </g>
    </g>
    <g id="line2d_49">
     <path d="M 731.164813 44.830156 
L 740.164813 44.830156 
L 749.164813 44.830156 
" style="fill: none; stroke: #ff7f0e; stroke-width: 1.2; stroke-linecap: square"/>
     <g>
      <use xlink:href="#mbf3fd06937" x="740.164813" y="44.830156" style="fill: #ff7f0e; stroke: #ff7f0e"/>
     </g>
    </g>
    <g id="text_17">
     <!-- Layer 2 -->
     <g transform="translate(756.364813 47.980156) scale(0.09 -0.09)">
      <use xlink:href="#TimesNewRomanPSMT-4c"/>
      <use xlink:href="#TimesNewRomanPSMT-61" transform="translate(61.083984 0)"/>
      <use xlink:href="#TimesNewRomanPSMT-79" transform="translate(105.46875 0)"/>
      <use xlink:href="#TimesNewRomanPSMT-65" transform="translate(155.46875 0)"/>
      <use xlink:href="#TimesNewRomanPSMT-72" transform="translate(199.853516 0)"/>
      <use xlink:href="#TimesNewRomanPSMT-20" transform="translate(233.154297 0)"/>
      <use xlink:href="#TimesNewRomanPSMT-32" transform="translate(258.154297 0)"/>
     </g>
    </g>
    <g id="line2d_50">
     <path d="M 731.164813 57.572187 
L 740.164813 57.572187 
L 749.164813 57.572187 
" style="fill: none; stroke: #2ca02c; stroke-width: 1.2; stroke-linecap: square"/>
     <g>
      <use xlink:href="#m9868636d00" x="740.164813" y="57.572187" style="fill: #2ca02c; stroke: #2ca02c"/>
     </g>
    </g>
    <g id="text_18">
     <!-- Layer 3 -->
     <g transform="translate(756.364813 60.722187) scale(0.09 -0.09)">
      <use xlink:href="#TimesNewRomanPSMT-4c"/>
      <use xlink:href="#TimesNewRomanPSMT-61" transform="translate(61.083984 0)"/>
      <use xlink:href="#TimesNewRomanPSMT-79" transform="translate(105.46875 0)"/>
      <use xlink:href="#TimesNewRomanPSMT-65" transform="translate(155.46875 0)"/>
      <use xlink:href="#TimesNewRomanPSMT-72" transform="translate(199.853516 0)"/>
      <use xlink:href="#TimesNewRomanPSMT-20" transform="translate(233.154297 0)"/>
      <use xlink:href="#TimesNewRomanPSMT-33" transform="translate(258.154297 0)"/>
     </g>
    </g>
    <g id="line2d_51">
     <path d="M 731.164813 70.314219 
L 740.164813 70.314219 
L 749.164813 70.314219 
" style="fill: none; stroke-dasharray: 5.55,2.4; stroke-dashoffset: 0; stroke: #2ca02c; stroke-opacity: 0.7; stroke-width: 1.5"/>
    </g>
    <g id="text_19">
     <!-- Healthy Min (1e-4) -->
     <g transform="translate(756.364813 73.464219) scale(0.09 -0.09)">
      <defs>
       <path id="TimesNewRomanPSMT-48" d="M 1316 2272 
L 3284 2272 
L 3284 3484 
Q 3284 3809 3244 3913 
Q 3213 3991 3113 4047 
Q 2978 4122 2828 4122 
L 2678 4122 
L 2678 4238 
L 4491 4238 
L 4491 4122 
L 4341 4122 
Q 4191 4122 4056 4050 
Q 3956 4000 3920 3898 
Q 3884 3797 3884 3484 
L 3884 750 
Q 3884 428 3925 325 
Q 3956 247 4053 191 
Q 4191 116 4341 116 
L 4491 116 
L 4491 0 
L 2678 0 
L 2678 116 
L 2828 116 
Q 3088 116 3206 269 
Q 3284 369 3284 750 
L 3284 2041 
L 1316 2041 
L 1316 750 
Q 1316 428 1356 325 
Q 1388 247 1488 191 
Q 1622 116 1772 116 
L 1925 116 
L 1925 0 
L 109 0 
L 109 116 
L 259 116 
Q 522 116 641 269 
Q 716 369 716 750 
L 716 3484 
Q 716 3809 675 3913 
Q 644 3991 547 4047 
Q 409 4122 259 4122 
L 109 4122 
L 109 4238 
L 1925 4238 
L 1925 4122 
L 1772 4122 
Q 1622 4122 1488 4050 
Q 1391 4000 1353 3898 
Q 1316 3797 1316 3484 
L 1316 2272 
z
" transform="scale(0.015625)"/>
       <path id="TimesNewRomanPSMT-6c" d="M 1184 4444 
L 1184 647 
Q 1184 378 1223 290 
Q 1263 203 1344 158 
Q 1425 113 1647 113 
L 1647 0 
L 244 0 
L 244 113 
Q 441 113 512 153 
Q 584 194 625 287 
Q 666 381 666 647 
L 666 3247 
Q 666 3731 644 3842 
Q 622 3953 573 3993 
Q 525 4034 450 4034 
Q 369 4034 244 3984 
L 191 4094 
L 1044 4444 
L 1184 4444 
z
" transform="scale(0.015625)"/>
       <path id="TimesNewRomanPSMT-4d" d="M 2619 0 
L 981 3566 
L 981 734 
Q 981 344 1066 247 
Q 1181 116 1431 116 
L 1581 116 
L 1581 0 
L 106 0 
L 106 116 
L 256 116 
Q 525 116 638 278 
Q 706 378 706 734 
L 706 3503 
Q 706 3784 644 3909 
Q 600 4000 483 4061 
Q 366 4122 106 4122 
L 106 4238 
L 1306 4238 
L 2844 922 
L 4356 4238 
L 5556 4238 
L 5556 4122 
L 5409 4122 
Q 5138 4122 5025 3959 
Q 4956 3859 4956 3503 
L 4956 734 
Q 4956 344 5044 247 
Q 5159 116 5409 116 
L 5556 116 
L 5556 0 
L 3756 0 
L 3756 116 
L 3906 116 
Q 4178 116 4288 278 
Q 4356 378 4356 734 
L 4356 3566 
L 2722 0 
L 2619 0 
z
" transform="scale(0.015625)"/>
       <path id="TimesNewRomanPSMT-6e" d="M 1034 2341 
Q 1538 2947 1994 2947 
Q 2228 2947 2397 2830 
Q 2566 2713 2666 2444 
Q 2734 2256 2734 1869 
L 2734 647 
Q 2734 375 2778 278 
Q 2813 200 2889 156 
Q 2966 113 3172 113 
L 3172 0 
L 1756 0 
L 1756 113 
L 1816 113 
Q 2016 113 2095 173 
Q 2175 234 2206 353 
Q 2219 400 2219 647 
L 2219 1819 
Q 2219 2209 2117 2386 
Q 2016 2563 1775 2563 
Q 1403 2563 1034 2156 
L 1034 647 
Q 1034 356 1069 288 
Q 1113 197 1189 155 
Q 1266 113 1500 113 
L 1500 0 
L 84 0 
L 84 113 
L 147 113 
Q 366 113 442 223 
Q 519 334 519 647 
L 519 1709 
Q 519 2225 495 2337 
Q 472 2450 423 2490 
Q 375 2531 294 2531 
Q 206 2531 84 2484 
L 38 2597 
L 900 2947 
L 1034 2947 
L 1034 2341 
z
" transform="scale(0.015625)"/>
       <path id="TimesNewRomanPSMT-28" d="M 1988 -1253 
L 1988 -1369 
Q 1516 -1131 1200 -813 
Q 750 -359 506 256 
Q 263 872 263 1534 
Q 263 2503 741 3301 
Q 1219 4100 1988 4444 
L 1988 4313 
Q 1603 4100 1356 3731 
Q 1109 3363 987 2797 
Q 866 2231 866 1616 
Q 866 947 969 400 
Q 1050 -31 1165 -292 
Q 1281 -553 1476 -793 
Q 1672 -1034 1988 -1253 
z
" transform="scale(0.015625)"/>
       <path id="TimesNewRomanPSMT-2d" d="M 259 1672 
L 1875 1672 
L 1875 1200 
L 259 1200 
L 259 1672 
z
" transform="scale(0.015625)"/>
       <path id="TimesNewRomanPSMT-29" d="M 144 4313 
L 144 4444 
Q 619 4209 934 3891 
Q 1381 3434 1625 2820 
Q 1869 2206 1869 1541 
Q 1869 572 1392 -226 
Q 916 -1025 144 -1369 
L 144 -1253 
Q 528 -1038 776 -670 
Q 1025 -303 1145 264 
Q 1266 831 1266 1447 
Q 1266 2113 1163 2663 
Q 1084 3094 967 3353 
Q 850 3613 656 3853 
Q 463 4094 144 4313 
z
" transform="scale(0.015625)"/>
      </defs>
      <use xlink:href="#TimesNewRomanPSMT-48"/>
      <use xlink:href="#TimesNewRomanPSMT-65" transform="translate(72.216797 0)"/>
      <use xlink:href="#TimesNewRomanPSMT-61" transform="translate(116.601562 0)"/>
      <use xlink:href="#TimesNewRomanPSMT-6c" transform="translate(160.986328 0)"/>
      <use xlink:href="#TimesNewRomanPSMT-74" transform="translate(188.769531 0)"/>
      <use xlink:href="#TimesNewRomanPSMT-68" transform="translate(216.552734 0)"/>
      <use xlink:href="#TimesNewRomanPSMT-79" transform="translate(266.552734 0)"/>
      <use xlink:href="#TimesNewRomanPSMT-20" transform="translate(316.552734 0)"/>
      <use xlink:href="#TimesNewRomanPSMT-4d" transform="translate(341.552734 0)"/>
      <use xlink:href="#TimesNewRomanPSMT-69" transform="translate(430.46875 0)"/>
      <use xlink:href="#TimesNewRomanPSMT-6e" transform="translate(458.251953 0)"/>
      <use xlink:href="#TimesNewRomanPSMT-20" transform="translate(508.251953 0)"/>
      <use xlink:href="#TimesNewRomanPSMT-28" transform="translate(533.251953 0)"/>
      <use xlink:href="#TimesNewRomanPSMT-31" transform="translate(566.552734 0)"/>
      <use xlink:href="#TimesNewRomanPSMT-65" transform="translate(616.552734 0)"/>
      <use xlink:href="#TimesNewRomanPSMT-2d" transform="translate(660.9375 0)"/>
      <use xlink:href="#TimesNewRomanPSMT-34" transform="translate(694.238281 0)"/>
      <use xlink:href="#TimesNewRomanPSMT-29" transform="translate(744.238281 0)"/>
     </g>
    </g>
    <g id="line2d_52">
     <path d="M 731.164813 83.05625 
L 740.164813 83.05625 
L 749.164813 83.05625 
" style="fill: none; stroke-dasharray: 5.55,2.4; stroke-dashoffset: 0; stroke: #2ca02c; stroke-opacity: 0.7; stroke-width: 1.5"/>
    </g>
    <g id="text_20">
     <!-- Healthy Max (1e-2) -->
     <g transform="translate(756.364813 86.20625) scale(0.09 -0.09)">
      <defs>
       <path id="TimesNewRomanPSMT-78" d="M 84 2863 
L 1431 2863 
L 1431 2747 
Q 1303 2747 1251 2703 
Q 1200 2659 1200 2588 
Q 1200 2513 1309 2356 
Q 1344 2306 1413 2200 
L 1616 1875 
L 1850 2200 
Q 2075 2509 2075 2591 
Q 2075 2656 2022 2701 
Q 1969 2747 1850 2747 
L 1850 2863 
L 2819 2863 
L 2819 2747 
Q 2666 2738 2553 2663 
Q 2400 2556 2134 2200 
L 1744 1678 
L 2456 653 
Q 2719 275 2831 198 
Q 2944 122 3122 113 
L 3122 0 
L 1772 0 
L 1772 113 
Q 1913 113 1991 175 
Q 2050 219 2050 291 
Q 2050 363 1850 653 
L 1431 1266 
L 972 653 
Q 759 369 759 316 
Q 759 241 829 180 
Q 900 119 1041 113 
L 1041 0 
L 106 0 
L 106 113 
Q 219 128 303 191 
Q 422 281 703 653 
L 1303 1450 
L 759 2238 
Q 528 2575 401 2661 
Q 275 2747 84 2747 
L 84 2863 
z
" transform="scale(0.015625)"/>
      </defs>
      <use xlink:href="#TimesNewRomanPSMT-48"/>
      <use xlink:href="#TimesNewRomanPSMT-65" transform="translate(72.216797 0)"/>
      <use xlink:href="#TimesNewRomanPSMT-61" transform="translate(116.601562 0)"/>
      <use xlink:href="#TimesNewRomanPSMT-6c" transform="translate(160.986328 0)"/>
      <use xlink:href="#TimesNewRomanPSMT-74" transform="translate(188.769531 0)"/>
      <use xlink:href="#TimesNewRomanPSMT-68" transform="translate(216.552734 0)"/>
      <use xlink:href="#TimesNewRomanPSMT-79" transform="translate(266.552734 0)"/>
      <use xlink:href="#TimesNewRomanPSMT-20" transform="translate(316.552734 0)"/>
      <use xlink:href="#TimesNewRomanPSMT-4d" transform="translate(341.552734 0)"/>
      <use xlink:href="#TimesNewRomanPSMT-61" transform="translate(430.46875 0)"/>
      <use xlink:href="#TimesNewRomanPSMT-78" transform="translate(474.853516 0)"/>
      <use xlink:href="#TimesNewRomanPSMT-20" transform="translate(524.853516 0)"/>
      <use xlink:href="#TimesNewRomanPSMT-28" transform="translate(549.853516 0)"/>
      <use xlink:href="#TimesNewRomanPSMT-31" transform="translate(583.154297 0)"/>
      <use xlink:href="#TimesNewRomanPSMT-65" transform="translate(633.154297 0)"/>
      <use xlink:href="#TimesNewRomanPSMT-2d" transform="translate(677.539062 0)"/>
      <use xlink:href="#TimesNewRomanPSMT-32" transform="translate(710.839844 0)"/>
      <use xlink:href="#TimesNewRomanPSMT-29" transform="translate(760.839844 0)"/>
     </g>
    </g>
   </g>
  </g>
 </g>
 <defs>
  <clipPath id="pf83a0d397a">
   <rect x="40.072812" y="20.838125" width="669.6" height="221.76"/>
  </clipPath>
 </defs>
</svg>
