<?xml version="1.0" encoding="utf-8" standalone="no"?>
<!DOCTYPE svg PUBLIC "-//W3C//DTD SVG 1.1//EN"
  "http://www.w3.org/Graphics/SVG/1.1/DTD/svg11.dtd">
<svg xmlns:xlink="http://www.w3.org/1999/xlink" width="639.072939pt" height="279.055469pt" viewBox="0 0 639.072939 279.055469" xmlns="http://www.w3.org/2000/svg" version="1.1">
 <metadata>
  <rdf:RDF xmlns:dc="http://purl.org/dc/elements/1.1/" xmlns:cc="http://creativecommons.org/ns#" xmlns:rdf="http://www.w3.org/1999/02/22-rdf-syntax-ns#">
   <cc:Work>
    <dc:type rdf:resource="http://purl.org/dc/dcmitype/StillImage"/>
    <dc:date>2025-09-22T10:54:20.087852</dc:date>
    <dc:format>image/svg+xml</dc:format>
    <dc:creator>
     <cc:Agent>
      <dc:title>Matplotlib v3.10.6, https://matplotlib.org/</dc:title>
     </cc:Agent>
    </dc:creator>
   </cc:Work>
  </rdf:RDF>
 </metadata>
 <defs>
  <style type="text/css">*{stroke-linejoin: round; stroke-linecap: butt}</style>
 </defs>
 <g id="figure_1">
  <g id="patch_1">
   <path d="M 0 279.055469 
L 639.072939 279.055469 
L 639.072939 0 
L 0 0 
z
" style="fill: #ffffff"/>
  </g>
  <g id="axes_1">
   <g id="patch_2">
    <path d="M 35.051563 247.098125 
L 521.687562 247.098125 
L 521.687562 20.838125 
L 35.051563 20.838125 
z
" style="fill: #ffffff"/>
   </g>
   <g id="FillBetweenPolyCollection_1">
    <defs>
     <path id="me4523cac39" d="M 57.171381 -42.241889 
L 57.171381 -247.932798 
L 60.53948 -189.563821 
L 63.90758 -131.194845 
L 67.275679 -72.825868 
L 70.643779 -67.500979 
L 74.011878 -65.964953 
L 77.379978 -64.428927 
L 80.748077 -63.003837 
L 84.116177 -61.595813 
L 87.484276 -60.18779 
L 90.852376 -60.520595 
L 94.220475 -61.288608 
L 97.588575 -62.056621 
L 100.956674 -61.604347 
L 104.324774 -60.708332 
L 107.692873 -59.812317 
L 111.060973 -58.233624 
L 114.429072 -56.313591 
L 117.797172 -54.393559 
L 121.165271 -55.00797 
L 124.533371 -57.312008 
L 127.90147 -59.616047 
L 131.26957 -59.735515 
L 134.637669 -57.943485 
L 138.005769 -56.151455 
L 141.373868 -54.120488 
L 144.741968 -51.816449 
L 148.110067 -49.512411 
L 151.478167 -48.385992 
L 154.846266 -49.026003 
L 158.214365 -49.666013 
L 161.582465 -50.220689 
L 164.950564 -50.604696 
L 168.318664 -50.988702 
L 171.686763 -50.792432 
L 175.054863 -49.000402 
L 178.422962 -47.208372 
L 181.791062 -45.800349 
L 185.159161 -45.928351 
L 188.527261 -46.056353 
L 191.89536 -46.081953 
L 195.26346 -45.441943 
L 198.631559 -44.801932 
L 201.999659 -44.238723 
L 205.367758 -44.750731 
L 208.735858 -45.26274 
L 212.103957 -45.774748 
L 215.472057 -44.750731 
L 218.840156 -43.726714 
L 222.208256 -42.702697 
L 225.576355 -42.873366 
L 228.944455 -43.129371 
L 232.312554 -43.385375 
L 235.680654 -43.419509 
L 239.048753 -43.419509 
L 242.416853 -43.419509 
L 245.784952 -43.317107 
L 249.153052 -43.189105 
L 252.521151 -43.061103 
L 255.889251 -42.933101 
L 259.25735 -42.805099 
L 262.62545 -42.677096 
L 265.993549 -42.549094 
L 269.361649 -42.421092 
L 272.729748 -42.29309 
L 276.097848 -42.31869 
L 279.465947 -42.446693 
L 282.834047 -42.574695 
L 286.202146 -42.566161 
L 289.570246 -42.438159 
L 292.938345 -42.310157 
L 296.306445 -42.241889 
L 299.674544 -42.241889 
L 303.042644 -42.241889 
L 306.410743 -42.241889 
L 309.778843 -42.241889 
L 313.146942 -42.241889 
L 316.515042 -42.241889 
L 319.883141 -42.241889 
L 323.251241 -42.241889 
L 326.61934 -42.241889 
L 329.98744 -42.241889 
L 333.355539 -42.241889 
L 336.723639 -42.241889 
L 340.091738 -42.241889 
L 343.459838 -42.241889 
L 346.827937 -42.241889 
L 350.196037 -42.241889 
L 353.564136 -42.241889 
L 356.932236 -42.250423 
L 360.300335 -42.378425 
L 363.668435 -42.506427 
L 367.036534 -42.634429 
L 367.036534 -42.241889 
L 367.036534 -42.241889 
L 363.668435 -42.241889 
L 360.300335 -42.241889 
L 356.932236 -42.241889 
L 353.564136 -42.241889 
L 350.196037 -42.241889 
L 346.827937 -42.241889 
L 343.459838 -42.241889 
L 340.091738 -42.241889 
L 336.723639 -42.241889 
L 333.355539 -42.241889 
L 329.98744 -42.241889 
L 326.61934 -42.241889 
L 323.251241 -42.241889 
L 319.883141 -42.241889 
L 316.515042 -42.241889 
L 313.146942 -42.241889 
L 309.778843 -42.241889 
L 306.410743 -42.241889 
L 303.042644 -42.241889 
L 299.674544 -42.241889 
L 296.306445 -42.241889 
L 292.938345 -42.241889 
L 289.570246 -42.241889 
L 286.202146 -42.241889 
L 282.834047 -42.241889 
L 279.465947 -42.241889 
L 276.097848 -42.241889 
L 272.729748 -42.241889 
L 269.361649 -42.241889 
L 265.993549 -42.241889 
L 262.62545 -42.241889 
L 259.25735 -42.241889 
L 255.889251 -42.241889 
L 252.521151 -42.241889 
L 249.153052 -42.241889 
L 245.784952 -42.241889 
L 242.416853 -42.241889 
L 239.048753 -42.241889 
L 235.680654 -42.241889 
L 232.312554 -42.241889 
L 228.944455 -42.241889 
L 225.576355 -42.241889 
L 222.208256 -42.241889 
L 218.840156 -42.241889 
L 215.472057 -42.241889 
L 212.103957 -42.241889 
L 208.735858 -42.241889 
L 205.367758 -42.241889 
L 201.999659 -42.241889 
L 198.631559 -42.241889 
L 195.26346 -42.241889 
L 191.89536 -42.241889 
L 188.527261 -42.241889 
L 185.159161 -42.241889 
L 181.791062 -42.241889 
L 178.422962 -42.241889 
L 175.054863 -42.241889 
L 171.686763 -42.241889 
L 168.318664 -42.241889 
L 164.950564 -42.241889 
L 161.582465 -42.241889 
L 158.214365 -42.241889 
L 154.846266 -42.241889 
L 151.478167 -42.241889 
L 148.110067 -42.241889 
L 144.741968 -42.241889 
L 141.373868 -42.241889 
L 138.005769 -42.241889 
L 134.637669 -42.241889 
L 131.26957 -42.241889 
L 127.90147 -42.241889 
L 124.533371 -42.241889 
L 121.165271 -42.241889 
L 117.797172 -42.241889 
L 114.429072 -42.241889 
L 111.060973 -42.241889 
L 107.692873 -42.241889 
L 104.324774 -42.241889 
L 100.956674 -42.241889 
L 97.588575 -42.241889 
L 94.220475 -42.241889 
L 90.852376 -42.241889 
L 87.484276 -42.241889 
L 84.116177 -42.241889 
L 80.748077 -42.241889 
L 77.379978 -42.241889 
L 74.011878 -42.241889 
L 70.643779 -42.241889 
L 67.275679 -42.241889 
L 63.90758 -42.241889 
L 60.53948 -42.241889 
L 57.171381 -42.241889 
z
" style="stroke: #1f77b4; stroke-opacity: 0.3"/>
    </defs>
    <g clip-path="url(#pd675ba5f83)">
     <use xlink:href="#me4523cac39" x="0" y="279.055469" style="fill: #1f77b4; fill-opacity: 0.3; stroke: #1f77b4; stroke-opacity: 0.3"/>
    </g>
   </g>
   <g id="FillBetweenPolyCollection_2">
    <defs>
     <path id="mdaddb3e161" d="M 58.056339 -42.241889 
L 58.056339 -189.907516 
L 62.855376 -146.966141 
L 67.654413 -104.024766 
L 72.45345 -61.083391 
L 77.252487 -58.556018 
L 82.051524 -58.91536 
L 86.850561 -59.274702 
L 91.649598 -59.244757 
L 96.448635 -59.154922 
L 101.247672 -59.065086 
L 106.046709 -58.256567 
L 110.845746 -57.268376 
L 115.644783 -56.280185 
L 120.44382 -55.555512 
L 125.242857 -54.926664 
L 130.041894 -54.297815 
L 134.840931 -52.890392 
L 139.639968 -51.093682 
L 144.439005 -49.296971 
L 149.238042 -48.632189 
L 154.037079 -48.722024 
L 158.836117 -48.81186 
L 163.635154 -49.045432 
L 168.434191 -49.404774 
L 173.233228 -49.764116 
L 178.032265 -49.829996 
L 182.831302 -49.560489 
L 187.630339 -49.290982 
L 192.429376 -48.6262 
L 197.228413 -47.368502 
L 202.02745 -46.110805 
L 206.826487 -45.631683 
L 211.625524 -46.709709 
L 216.424561 -47.787735 
L 221.223598 -48.147077 
L 226.022635 -46.530038 
L 230.821672 -44.912998 
L 235.620709 -43.637334 
L 240.419746 -43.72717 
L 245.218783 -43.817005 
L 250.01782 -43.906841 
L 254.816857 -43.996676 
L 259.615894 -44.086512 
L 264.414931 -44.188325 
L 269.213968 -44.457832 
L 274.013005 -44.727338 
L 278.812042 -44.996845 
L 283.611079 -44.817174 
L 288.410116 -44.637503 
L 293.209153 -44.457832 
L 298.00819 -44.278161 
L 302.807227 -44.09849 
L 307.606264 -43.918819 
L 312.405301 -43.427718 
L 317.204338 -42.888705 
L 322.003375 -42.349692 
L 326.802412 -42.457494 
L 331.601449 -42.727001 
L 336.400486 -42.996508 
L 341.199523 -43.134255 
L 345.99856 -43.224091 
L 350.797597 -43.313926 
L 355.596634 -43.1642 
L 360.395671 -42.894694 
L 365.194708 -42.625187 
L 369.993745 -42.517385 
L 374.792782 -42.517385 
L 379.591819 -42.517385 
L 384.390856 -42.517385 
L 389.189893 -42.517385 
L 393.98893 -42.517385 
L 398.787967 -42.517385 
L 403.587004 -42.517385 
L 408.386041 -42.517385 
L 413.185078 -42.517385 
L 417.984115 -42.517385 
L 422.783152 -42.517385 
L 427.582189 -42.48744 
L 432.381226 -42.397604 
L 437.180263 -42.307769 
L 441.9793 -42.241889 
L 446.778337 -42.241889 
L 451.577374 -42.241889 
L 456.376411 -42.241889 
L 461.175448 -42.241889 
L 465.974485 -42.241889 
L 470.773522 -42.253867 
L 475.572559 -42.343703 
L 480.371596 -42.433538 
L 485.170633 -42.517385 
L 489.96967 -42.517385 
L 494.768707 -42.517385 
L 499.567744 -42.517385 
L 499.567744 -42.241889 
L 499.567744 -42.241889 
L 494.768707 -42.241889 
L 489.96967 -42.241889 
L 485.170633 -42.241889 
L 480.371596 -42.241889 
L 475.572559 -42.241889 
L 470.773522 -42.241889 
L 465.974485 -42.241889 
L 461.175448 -42.241889 
L 456.376411 -42.241889 
L 451.577374 -42.241889 
L 446.778337 -42.241889 
L 441.9793 -42.241889 
L 437.180263 -42.241889 
L 432.381226 -42.241889 
L 427.582189 -42.241889 
L 422.783152 -42.241889 
L 417.984115 -42.241889 
L 413.185078 -42.241889 
L 408.386041 -42.241889 
L 403.587004 -42.241889 
L 398.787967 -42.241889 
L 393.98893 -42.241889 
L 389.189893 -42.241889 
L 384.390856 -42.241889 
L 379.591819 -42.241889 
L 374.792782 -42.241889 
L 369.993745 -42.241889 
L 365.194708 -42.241889 
L 360.395671 -42.241889 
L 355.596634 -42.241889 
L 350.797597 -42.241889 
L 345.99856 -42.241889 
L 341.199523 -42.241889 
L 336.400486 -42.241889 
L 331.601449 -42.241889 
L 326.802412 -42.241889 
L 322.003375 -42.241889 
L 317.204338 -42.241889 
L 312.405301 -42.241889 
L 307.606264 -42.241889 
L 302.807227 -42.241889 
L 298.00819 -42.241889 
L 293.209153 -42.241889 
L 288.410116 -42.241889 
L 283.611079 -42.241889 
L 278.812042 -42.241889 
L 274.013005 -42.241889 
L 269.213968 -42.241889 
L 264.414931 -42.241889 
L 259.615894 -42.241889 
L 254.816857 -42.241889 
L 250.01782 -42.241889 
L 245.218783 -42.241889 
L 240.419746 -42.241889 
L 235.620709 -42.241889 
L 230.821672 -42.241889 
L 226.022635 -42.241889 
L 221.223598 -42.241889 
L 216.424561 -42.241889 
L 211.625524 -42.241889 
L 206.826487 -42.241889 
L 202.02745 -42.241889 
L 197.228413 -42.241889 
L 192.429376 -42.241889 
L 187.630339 -42.241889 
L 182.831302 -42.241889 
L 178.032265 -42.241889 
L 173.233228 -42.241889 
L 168.434191 -42.241889 
L 163.635154 -42.241889 
L 158.836117 -42.241889 
L 154.037079 -42.241889 
L 149.238042 -42.241889 
L 144.439005 -42.241889 
L 139.639968 -42.241889 
L 134.840931 -42.241889 
L 130.041894 -42.241889 
L 125.242857 -42.241889 
L 120.44382 -42.241889 
L 115.644783 -42.241889 
L 110.845746 -42.241889 
L 106.046709 -42.241889 
L 101.247672 -42.241889 
L 96.448635 -42.241889 
L 91.649598 -42.241889 
L 86.850561 -42.241889 
L 82.051524 -42.241889 
L 77.252487 -42.241889 
L 72.45345 -42.241889 
L 67.654413 -42.241889 
L 62.855376 -42.241889 
L 58.056339 -42.241889 
z
" style="stroke: #ff7f0e; stroke-opacity: 0.3"/>
    </defs>
    <g clip-path="url(#pd675ba5f83)">
     <use xlink:href="#mdaddb3e161" x="0" y="279.055469" style="fill: #ff7f0e; fill-opacity: 0.3; stroke: #ff7f0e; stroke-opacity: 0.3"/>
    </g>
   </g>
   <g id="matplotlib.axis_1">
    <g id="xtick_1">
     <g id="line2d_1">
      <path d="M 54.103594 247.098125 
L 54.103594 20.838125 
" clip-path="url(#pd675ba5f83)" style="fill: none; stroke: #b0b0b0; stroke-opacity: 0.3; stroke-width: 0.5; stroke-linecap: square"/>
     </g>
     <g id="line2d_2">
      <defs>
       <path id="m274caa448b" d="M 0 0 
L 0 -3 
" style="stroke: #000000; stroke-width: 0.8"/>
      </defs>
      <g>
       <use xlink:href="#m274caa448b" x="54.103594" y="247.098125" style="stroke: #000000; stroke-width: 0.8"/>
      </g>
     </g>
     <g id="text_1">
      <!-- 0 -->
      <g transform="translate(51.853594 256.8475) scale(0.09 -0.09)">
       <defs>
        <path id="TimesNewRomanPSMT-30" d="M 231 2094 
Q 231 2819 450 3342 
Q 669 3866 1031 4122 
Q 1313 4325 1613 4325 
Q 2100 4325 2488 3828 
Q 2972 3213 2972 2159 
Q 2972 1422 2759 906 
Q 2547 391 2217 158 
Q 1888 -75 1581 -75 
Q 975 -75 572 641 
Q 231 1244 231 2094 
z
M 844 2016 
Q 844 1141 1059 588 
Q 1238 122 1591 122 
Q 1759 122 1940 273 
Q 2122 425 2216 781 
Q 2359 1319 2359 2297 
Q 2359 3022 2209 3506 
Q 2097 3866 1919 4016 
Q 1791 4119 1609 4119 
Q 1397 4119 1231 3928 
Q 1006 3669 925 3112 
Q 844 2556 844 2016 
z
" transform="scale(0.015625)"/>
       </defs>
       <use xlink:href="#TimesNewRomanPSMT-30"/>
      </g>
     </g>
    </g>
    <g id="xtick_2">
     <g id="line2d_3">
      <path d="M 137.472968 247.098125 
L 137.472968 20.838125 
" clip-path="url(#pd675ba5f83)" style="fill: none; stroke: #b0b0b0; stroke-opacity: 0.3; stroke-width: 0.5; stroke-linecap: square"/>
     </g>
     <g id="line2d_4">
      <g>
       <use xlink:href="#m274caa448b" x="137.472968" y="247.098125" style="stroke: #000000; stroke-width: 0.8"/>
      </g>
     </g>
     <g id="text_2">
      <!-- 2 -->
      <g transform="translate(135.222968 256.8475) scale(0.09 -0.09)">
       <defs>
        <path id="TimesNewRomanPSMT-32" d="M 2934 816 
L 2638 0 
L 138 0 
L 138 116 
Q 1241 1122 1691 1759 
Q 2141 2397 2141 2925 
Q 2141 3328 1894 3587 
Q 1647 3847 1303 3847 
Q 991 3847 742 3664 
Q 494 3481 375 3128 
L 259 3128 
Q 338 3706 661 4015 
Q 984 4325 1469 4325 
Q 1984 4325 2329 3994 
Q 2675 3663 2675 3213 
Q 2675 2891 2525 2569 
Q 2294 2063 1775 1497 
Q 997 647 803 472 
L 1909 472 
Q 2247 472 2383 497 
Q 2519 522 2628 598 
Q 2738 675 2819 816 
L 2934 816 
z
" transform="scale(0.015625)"/>
       </defs>
       <use xlink:href="#TimesNewRomanPSMT-32"/>
      </g>
     </g>
    </g>
    <g id="xtick_3">
     <g id="line2d_5">
      <path d="M 220.842342 247.098125 
L 220.842342 20.838125 
" clip-path="url(#pd675ba5f83)" style="fill: none; stroke: #b0b0b0; stroke-opacity: 0.3; stroke-width: 0.5; stroke-linecap: square"/>
     </g>
     <g id="line2d_6">
      <g>
       <use xlink:href="#m274caa448b" x="220.842342" y="247.098125" style="stroke: #000000; stroke-width: 0.8"/>
      </g>
     </g>
     <g id="text_3">
      <!-- 4 -->
      <g transform="translate(218.592342 256.8475) scale(0.09 -0.09)">
       <defs>
        <path id="TimesNewRomanPSMT-34" d="M 2978 1563 
L 2978 1119 
L 2409 1119 
L 2409 0 
L 1894 0 
L 1894 1119 
L 100 1119 
L 100 1519 
L 2066 4325 
L 2409 4325 
L 2409 1563 
L 2978 1563 
z
M 1894 1563 
L 1894 3666 
L 406 1563 
L 1894 1563 
z
" transform="scale(0.015625)"/>
       </defs>
       <use xlink:href="#TimesNewRomanPSMT-34"/>
      </g>
     </g>
    </g>
    <g id="xtick_4">
     <g id="line2d_7">
      <path d="M 304.211715 247.098125 
L 304.211715 20.838125 
" clip-path="url(#pd675ba5f83)" style="fill: none; stroke: #b0b0b0; stroke-opacity: 0.3; stroke-width: 0.5; stroke-linecap: square"/>
     </g>
     <g id="line2d_8">
      <g>
       <use xlink:href="#m274caa448b" x="304.211715" y="247.098125" style="stroke: #000000; stroke-width: 0.8"/>
      </g>
     </g>
     <g id="text_4">
      <!-- 6 -->
      <g transform="translate(301.961715 256.8475) scale(0.09 -0.09)">
       <defs>
        <path id="TimesNewRomanPSMT-36" d="M 2869 4325 
L 2869 4209 
Q 2456 4169 2195 4045 
Q 1934 3922 1679 3669 
Q 1425 3416 1258 3105 
Q 1091 2794 978 2366 
Q 1428 2675 1881 2675 
Q 2316 2675 2634 2325 
Q 2953 1975 2953 1425 
Q 2953 894 2631 456 
Q 2244 -75 1606 -75 
Q 1172 -75 869 213 
Q 275 772 275 1663 
Q 275 2231 503 2743 
Q 731 3256 1154 3653 
Q 1578 4050 1965 4187 
Q 2353 4325 2688 4325 
L 2869 4325 
z
M 925 2138 
Q 869 1716 869 1456 
Q 869 1156 980 804 
Q 1091 453 1309 247 
Q 1469 100 1697 100 
Q 1969 100 2183 356 
Q 2397 613 2397 1088 
Q 2397 1622 2184 2012 
Q 1972 2403 1581 2403 
Q 1463 2403 1327 2353 
Q 1191 2303 925 2138 
z
" transform="scale(0.015625)"/>
       </defs>
       <use xlink:href="#TimesNewRomanPSMT-36"/>
      </g>
     </g>
    </g>
    <g id="xtick_5">
     <g id="line2d_9">
      <path d="M 387.581089 247.098125 
L 387.581089 20.838125 
" clip-path="url(#pd675ba5f83)" style="fill: none; stroke: #b0b0b0; stroke-opacity: 0.3; stroke-width: 0.5; stroke-linecap: square"/>
     </g>
     <g id="line2d_10">
      <g>
       <use xlink:href="#m274caa448b" x="387.581089" y="247.098125" style="stroke: #000000; stroke-width: 0.8"/>
      </g>
     </g>
     <g id="text_5">
      <!-- 8 -->
      <g transform="translate(385.331089 256.8475) scale(0.09 -0.09)">
       <defs>
        <path id="TimesNewRomanPSMT-38" d="M 1228 2134 
Q 725 2547 579 2797 
Q 434 3047 434 3316 
Q 434 3728 753 4026 
Q 1072 4325 1600 4325 
Q 2113 4325 2425 4047 
Q 2738 3769 2738 3413 
Q 2738 3175 2569 2928 
Q 2400 2681 1866 2347 
Q 2416 1922 2594 1678 
Q 2831 1359 2831 1006 
Q 2831 559 2490 242 
Q 2150 -75 1597 -75 
Q 994 -75 656 303 
Q 388 606 388 966 
Q 388 1247 577 1523 
Q 766 1800 1228 2134 
z
M 1719 2469 
Q 2094 2806 2194 3001 
Q 2294 3197 2294 3444 
Q 2294 3772 2109 3958 
Q 1925 4144 1606 4144 
Q 1288 4144 1088 3959 
Q 888 3775 888 3528 
Q 888 3366 970 3203 
Q 1053 3041 1206 2894 
L 1719 2469 
z
M 1375 2016 
Q 1116 1797 991 1539 
Q 866 1281 866 981 
Q 866 578 1086 336 
Q 1306 94 1647 94 
Q 1984 94 2187 284 
Q 2391 475 2391 747 
Q 2391 972 2272 1150 
Q 2050 1481 1375 2016 
z
" transform="scale(0.015625)"/>
       </defs>
       <use xlink:href="#TimesNewRomanPSMT-38"/>
      </g>
     </g>
    </g>
    <g id="xtick_6">
     <g id="line2d_11">
      <path d="M 470.950462 247.098125 
L 470.950462 20.838125 
" clip-path="url(#pd675ba5f83)" style="fill: none; stroke: #b0b0b0; stroke-opacity: 0.3; stroke-width: 0.5; stroke-linecap: square"/>
     </g>
     <g id="line2d_12">
      <g>
       <use xlink:href="#m274caa448b" x="470.950462" y="247.098125" style="stroke: #000000; stroke-width: 0.8"/>
      </g>
     </g>
     <g id="text_6">
      <!-- 10 -->
      <g transform="translate(466.450462 256.8475) scale(0.09 -0.09)">
       <defs>
        <path id="TimesNewRomanPSMT-31" d="M 750 3822 
L 1781 4325 
L 1884 4325 
L 1884 747 
Q 1884 391 1914 303 
Q 1944 216 2037 169 
Q 2131 122 2419 116 
L 2419 0 
L 825 0 
L 825 116 
Q 1125 122 1212 167 
Q 1300 213 1334 289 
Q 1369 366 1369 747 
L 1369 3034 
Q 1369 3497 1338 3628 
Q 1316 3728 1258 3775 
Q 1200 3822 1119 3822 
Q 1003 3822 797 3725 
L 750 3822 
z
" transform="scale(0.015625)"/>
       </defs>
       <use xlink:href="#TimesNewRomanPSMT-31"/>
       <use xlink:href="#TimesNewRomanPSMT-30" transform="translate(50 0)"/>
      </g>
     </g>
    </g>
    <g id="text_7">
     <!-- Activation Value -->
     <g transform="translate(244.718 269.716406) scale(0.1 -0.1)">
      <defs>
       <path id="TimesNewRomanPSMT-41" d="M 2928 1419 
L 1288 1419 
L 1000 750 
Q 894 503 894 381 
Q 894 284 986 211 
Q 1078 138 1384 116 
L 1384 0 
L 50 0 
L 50 116 
Q 316 163 394 238 
Q 553 388 747 847 
L 2238 4334 
L 2347 4334 
L 3822 809 
Q 4000 384 4145 257 
Q 4291 131 4550 116 
L 4550 0 
L 2878 0 
L 2878 116 
Q 3131 128 3220 200 
Q 3309 272 3309 375 
Q 3309 513 3184 809 
L 2928 1419 
z
M 2841 1650 
L 2122 3363 
L 1384 1650 
L 2841 1650 
z
" transform="scale(0.015625)"/>
       <path id="TimesNewRomanPSMT-63" d="M 2631 1088 
Q 2516 522 2178 217 
Q 1841 -88 1431 -88 
Q 944 -88 581 321 
Q 219 731 219 1428 
Q 219 2103 620 2525 
Q 1022 2947 1584 2947 
Q 2006 2947 2278 2723 
Q 2550 2500 2550 2259 
Q 2550 2141 2473 2067 
Q 2397 1994 2259 1994 
Q 2075 1994 1981 2113 
Q 1928 2178 1911 2362 
Q 1894 2547 1784 2644 
Q 1675 2738 1481 2738 
Q 1169 2738 978 2506 
Q 725 2200 725 1697 
Q 725 1184 976 792 
Q 1228 400 1656 400 
Q 1963 400 2206 609 
Q 2378 753 2541 1131 
L 2631 1088 
z
" transform="scale(0.015625)"/>
       <path id="TimesNewRomanPSMT-74" d="M 1031 3803 
L 1031 2863 
L 1700 2863 
L 1700 2644 
L 1031 2644 
L 1031 788 
Q 1031 509 1111 412 
Q 1191 316 1316 316 
Q 1419 316 1516 380 
Q 1613 444 1666 569 
L 1788 569 
Q 1678 263 1478 108 
Q 1278 -47 1066 -47 
Q 922 -47 784 33 
Q 647 113 581 261 
Q 516 409 516 719 
L 516 2644 
L 63 2644 
L 63 2747 
Q 234 2816 414 2980 
Q 594 3144 734 3369 
Q 806 3488 934 3803 
L 1031 3803 
z
" transform="scale(0.015625)"/>
       <path id="TimesNewRomanPSMT-69" d="M 928 4444 
Q 1059 4444 1151 4351 
Q 1244 4259 1244 4128 
Q 1244 3997 1151 3903 
Q 1059 3809 928 3809 
Q 797 3809 703 3903 
Q 609 3997 609 4128 
Q 609 4259 701 4351 
Q 794 4444 928 4444 
z
M 1188 2947 
L 1188 647 
Q 1188 378 1227 289 
Q 1266 200 1342 156 
Q 1419 113 1622 113 
L 1622 0 
L 231 0 
L 231 113 
Q 441 113 512 153 
Q 584 194 626 287 
Q 669 381 669 647 
L 669 1750 
Q 669 2216 641 2353 
Q 619 2453 572 2492 
Q 525 2531 444 2531 
Q 356 2531 231 2484 
L 188 2597 
L 1050 2947 
L 1188 2947 
z
" transform="scale(0.015625)"/>
       <path id="TimesNewRomanPSMT-76" d="M 53 2863 
L 1400 2863 
L 1400 2747 
L 1313 2747 
Q 1191 2747 1127 2687 
Q 1063 2628 1063 2528 
Q 1063 2419 1128 2269 
L 1794 688 
L 2463 2328 
Q 2534 2503 2534 2594 
Q 2534 2638 2509 2666 
Q 2475 2713 2422 2730 
Q 2369 2747 2206 2747 
L 2206 2863 
L 3141 2863 
L 3141 2747 
Q 2978 2734 2916 2681 
Q 2806 2588 2719 2369 
L 1703 -88 
L 1575 -88 
L 553 2328 
Q 484 2497 421 2570 
Q 359 2644 263 2694 
Q 209 2722 53 2747 
L 53 2863 
z
" transform="scale(0.015625)"/>
       <path id="TimesNewRomanPSMT-61" d="M 1822 413 
Q 1381 72 1269 19 
Q 1100 -59 909 -59 
Q 613 -59 420 144 
Q 228 347 228 678 
Q 228 888 322 1041 
Q 450 1253 767 1440 
Q 1084 1628 1822 1897 
L 1822 2009 
Q 1822 2438 1686 2597 
Q 1550 2756 1291 2756 
Q 1094 2756 978 2650 
Q 859 2544 859 2406 
L 866 2225 
Q 866 2081 792 2003 
Q 719 1925 600 1925 
Q 484 1925 411 2006 
Q 338 2088 338 2228 
Q 338 2497 613 2722 
Q 888 2947 1384 2947 
Q 1766 2947 2009 2819 
Q 2194 2722 2281 2516 
Q 2338 2381 2338 1966 
L 2338 994 
Q 2338 584 2353 492 
Q 2369 400 2405 369 
Q 2441 338 2488 338 
Q 2538 338 2575 359 
Q 2641 400 2828 588 
L 2828 413 
Q 2478 -56 2159 -56 
Q 2006 -56 1915 50 
Q 1825 156 1822 413 
z
M 1822 616 
L 1822 1706 
Q 1350 1519 1213 1441 
Q 966 1303 859 1153 
Q 753 1003 753 825 
Q 753 600 887 451 
Q 1022 303 1197 303 
Q 1434 303 1822 616 
z
" transform="scale(0.015625)"/>
       <path id="TimesNewRomanPSMT-6f" d="M 1600 2947 
Q 2250 2947 2644 2453 
Q 2978 2031 2978 1484 
Q 2978 1100 2793 706 
Q 2609 313 2286 112 
Q 1963 -88 1566 -88 
Q 919 -88 538 428 
Q 216 863 216 1403 
Q 216 1797 411 2186 
Q 606 2575 925 2761 
Q 1244 2947 1600 2947 
z
M 1503 2744 
Q 1338 2744 1170 2645 
Q 1003 2547 900 2300 
Q 797 2053 797 1666 
Q 797 1041 1045 587 
Q 1294 134 1700 134 
Q 2003 134 2200 384 
Q 2397 634 2397 1244 
Q 2397 2006 2069 2444 
Q 1847 2744 1503 2744 
z
" transform="scale(0.015625)"/>
       <path id="TimesNewRomanPSMT-6e" d="M 1034 2341 
Q 1538 2947 1994 2947 
Q 2228 2947 2397 2830 
Q 2566 2713 2666 2444 
Q 2734 2256 2734 1869 
L 2734 647 
Q 2734 375 2778 278 
Q 2813 200 2889 156 
Q 2966 113 3172 113 
L 3172 0 
L 1756 0 
L 1756 113 
L 1816 113 
Q 2016 113 2095 173 
Q 2175 234 2206 353 
Q 2219 400 2219 647 
L 2219 1819 
Q 2219 2209 2117 2386 
Q 2016 2563 1775 2563 
Q 1403 2563 1034 2156 
L 1034 647 
Q 1034 356 1069 288 
Q 1113 197 1189 155 
Q 1266 113 1500 113 
L 1500 0 
L 84 0 
L 84 113 
L 147 113 
Q 366 113 442 223 
Q 519 334 519 647 
L 519 1709 
Q 519 2225 495 2337 
Q 472 2450 423 2490 
Q 375 2531 294 2531 
Q 206 2531 84 2484 
L 38 2597 
L 900 2947 
L 1034 2947 
L 1034 2341 
z
" transform="scale(0.015625)"/>
       <path id="TimesNewRomanPSMT-20" transform="scale(0.015625)"/>
       <path id="TimesNewRomanPSMT-56" d="M 4544 4238 
L 4544 4122 
Q 4319 4081 4203 3978 
Q 4038 3825 3909 3509 
L 2431 -97 
L 2316 -97 
L 728 3556 
Q 606 3838 556 3900 
Q 478 3997 364 4051 
Q 250 4106 56 4122 
L 56 4238 
L 1788 4238 
L 1788 4122 
Q 1494 4094 1406 4022 
Q 1319 3950 1319 3838 
Q 1319 3681 1463 3350 
L 2541 866 
L 3541 3319 
Q 3688 3681 3688 3822 
Q 3688 3913 3597 3995 
Q 3506 4078 3291 4113 
Q 3275 4116 3238 4122 
L 3238 4238 
L 4544 4238 
z
" transform="scale(0.015625)"/>
       <path id="TimesNewRomanPSMT-6c" d="M 1184 4444 
L 1184 647 
Q 1184 378 1223 290 
Q 1263 203 1344 158 
Q 1425 113 1647 113 
L 1647 0 
L 244 0 
L 244 113 
Q 441 113 512 153 
Q 584 194 625 287 
Q 666 381 666 647 
L 666 3247 
Q 666 3731 644 3842 
Q 622 3953 573 3993 
Q 525 4034 450 4034 
Q 369 4034 244 3984 
L 191 4094 
L 1044 4444 
L 1184 4444 
z
" transform="scale(0.015625)"/>
       <path id="TimesNewRomanPSMT-75" d="M 2709 2863 
L 2709 1128 
Q 2709 631 2732 520 
Q 2756 409 2807 365 
Q 2859 322 2928 322 
Q 3025 322 3147 375 
L 3191 266 
L 2334 -88 
L 2194 -88 
L 2194 519 
Q 1825 119 1631 15 
Q 1438 -88 1222 -88 
Q 981 -88 804 51 
Q 628 191 559 409 
Q 491 628 491 1028 
L 491 2306 
Q 491 2509 447 2587 
Q 403 2666 317 2708 
Q 231 2750 6 2747 
L 6 2863 
L 1009 2863 
L 1009 947 
Q 1009 547 1148 422 
Q 1288 297 1484 297 
Q 1619 297 1789 381 
Q 1959 466 2194 703 
L 2194 2325 
Q 2194 2569 2105 2655 
Q 2016 2741 1734 2747 
L 1734 2863 
L 2709 2863 
z
" transform="scale(0.015625)"/>
       <path id="TimesNewRomanPSMT-65" d="M 681 1784 
Q 678 1147 991 784 
Q 1303 422 1725 422 
Q 2006 422 2214 576 
Q 2422 731 2563 1106 
L 2659 1044 
Q 2594 616 2278 264 
Q 1963 -88 1488 -88 
Q 972 -88 605 314 
Q 238 716 238 1394 
Q 238 2128 614 2539 
Q 991 2950 1559 2950 
Q 2041 2950 2350 2633 
Q 2659 2316 2659 1784 
L 681 1784 
z
M 681 1966 
L 2006 1966 
Q 1991 2241 1941 2353 
Q 1863 2528 1708 2628 
Q 1553 2728 1384 2728 
Q 1125 2728 920 2526 
Q 716 2325 681 1966 
z
" transform="scale(0.015625)"/>
      </defs>
      <use xlink:href="#TimesNewRomanPSMT-41"/>
      <use xlink:href="#TimesNewRomanPSMT-63" transform="translate(72.216797 0)"/>
      <use xlink:href="#TimesNewRomanPSMT-74" transform="translate(116.601562 0)"/>
      <use xlink:href="#TimesNewRomanPSMT-69" transform="translate(144.384766 0)"/>
      <use xlink:href="#TimesNewRomanPSMT-76" transform="translate(172.167969 0)"/>
      <use xlink:href="#TimesNewRomanPSMT-61" transform="translate(222.167969 0)"/>
      <use xlink:href="#TimesNewRomanPSMT-74" transform="translate(266.552734 0)"/>
      <use xlink:href="#TimesNewRomanPSMT-69" transform="translate(294.335938 0)"/>
      <use xlink:href="#TimesNewRomanPSMT-6f" transform="translate(322.119141 0)"/>
      <use xlink:href="#TimesNewRomanPSMT-6e" transform="translate(372.119141 0)"/>
      <use xlink:href="#TimesNewRomanPSMT-20" transform="translate(422.119141 0)"/>
      <use xlink:href="#TimesNewRomanPSMT-56" transform="translate(445.369141 0)"/>
      <use xlink:href="#TimesNewRomanPSMT-61" transform="translate(506.460938 0)"/>
      <use xlink:href="#TimesNewRomanPSMT-6c" transform="translate(550.845703 0)"/>
      <use xlink:href="#TimesNewRomanPSMT-75" transform="translate(578.628906 0)"/>
      <use xlink:href="#TimesNewRomanPSMT-65" transform="translate(628.628906 0)"/>
     </g>
    </g>
   </g>
   <g id="matplotlib.axis_2">
    <g id="ytick_1">
     <g id="line2d_13">
      <path d="M 35.051563 236.81358 
L 521.687562 236.81358 
" clip-path="url(#pd675ba5f83)" style="fill: none; stroke: #b0b0b0; stroke-opacity: 0.3; stroke-width: 0.5; stroke-linecap: square"/>
     </g>
     <g id="line2d_14">
      <defs>
       <path id="m4e5c520c3e" d="M 0 0 
L 3 0 
" style="stroke: #000000; stroke-width: 0.8"/>
      </defs>
      <g>
       <use xlink:href="#m4e5c520c3e" x="35.051563" y="236.81358" style="stroke: #000000; stroke-width: 0.8"/>
      </g>
     </g>
     <g id="text_8">
      <!-- 0.0 -->
      <g transform="translate(20.301563 239.938267) scale(0.09 -0.09)">
       <defs>
        <path id="TimesNewRomanPSMT-2e" d="M 800 606 
Q 947 606 1047 504 
Q 1147 403 1147 259 
Q 1147 116 1045 14 
Q 944 -88 800 -88 
Q 656 -88 554 14 
Q 453 116 453 259 
Q 453 406 554 506 
Q 656 606 800 606 
z
" transform="scale(0.015625)"/>
       </defs>
       <use xlink:href="#TimesNewRomanPSMT-30"/>
       <use xlink:href="#TimesNewRomanPSMT-2e" transform="translate(50 0)"/>
       <use xlink:href="#TimesNewRomanPSMT-30" transform="translate(75 0)"/>
      </g>
     </g>
    </g>
    <g id="ytick_2">
     <g id="line2d_15">
      <path d="M 35.051563 188.180837 
L 521.687562 188.180837 
" clip-path="url(#pd675ba5f83)" style="fill: none; stroke: #b0b0b0; stroke-opacity: 0.3; stroke-width: 0.5; stroke-linecap: square"/>
     </g>
     <g id="line2d_16">
      <g>
       <use xlink:href="#m4e5c520c3e" x="35.051563" y="188.180837" style="stroke: #000000; stroke-width: 0.8"/>
      </g>
     </g>
     <g id="text_9">
      <!-- 0.5 -->
      <g transform="translate(20.301563 191.305525) scale(0.09 -0.09)">
       <defs>
        <path id="TimesNewRomanPSMT-35" d="M 2778 4238 
L 2534 3706 
L 1259 3706 
L 981 3138 
Q 1809 3016 2294 2522 
Q 2709 2097 2709 1522 
Q 2709 1188 2573 903 
Q 2438 619 2231 419 
Q 2025 219 1772 97 
Q 1413 -75 1034 -75 
Q 653 -75 479 54 
Q 306 184 306 341 
Q 306 428 378 495 
Q 450 563 559 563 
Q 641 563 702 538 
Q 763 513 909 409 
Q 1144 247 1384 247 
Q 1750 247 2026 523 
Q 2303 800 2303 1197 
Q 2303 1581 2056 1914 
Q 1809 2247 1375 2428 
Q 1034 2569 447 2591 
L 1259 4238 
L 2778 4238 
z
" transform="scale(0.015625)"/>
       </defs>
       <use xlink:href="#TimesNewRomanPSMT-30"/>
       <use xlink:href="#TimesNewRomanPSMT-2e" transform="translate(50 0)"/>
       <use xlink:href="#TimesNewRomanPSMT-35" transform="translate(75 0)"/>
      </g>
     </g>
    </g>
    <g id="ytick_3">
     <g id="line2d_17">
      <path d="M 35.051563 139.548095 
L 521.687562 139.548095 
" clip-path="url(#pd675ba5f83)" style="fill: none; stroke: #b0b0b0; stroke-opacity: 0.3; stroke-width: 0.5; stroke-linecap: square"/>
     </g>
     <g id="line2d_18">
      <g>
       <use xlink:href="#m4e5c520c3e" x="35.051563" y="139.548095" style="stroke: #000000; stroke-width: 0.8"/>
      </g>
     </g>
     <g id="text_10">
      <!-- 1.0 -->
      <g transform="translate(20.301563 142.672783) scale(0.09 -0.09)">
       <use xlink:href="#TimesNewRomanPSMT-31"/>
       <use xlink:href="#TimesNewRomanPSMT-2e" transform="translate(50 0)"/>
       <use xlink:href="#TimesNewRomanPSMT-30" transform="translate(75 0)"/>
      </g>
     </g>
    </g>
    <g id="ytick_4">
     <g id="line2d_19">
      <path d="M 35.051563 90.915353 
L 521.687562 90.915353 
" clip-path="url(#pd675ba5f83)" style="fill: none; stroke: #b0b0b0; stroke-opacity: 0.3; stroke-width: 0.5; stroke-linecap: square"/>
     </g>
     <g id="line2d_20">
      <g>
       <use xlink:href="#m4e5c520c3e" x="35.051563" y="90.915353" style="stroke: #000000; stroke-width: 0.8"/>
      </g>
     </g>
     <g id="text_11">
      <!-- 1.5 -->
      <g transform="translate(20.301563 94.040041) scale(0.09 -0.09)">
       <use xlink:href="#TimesNewRomanPSMT-31"/>
       <use xlink:href="#TimesNewRomanPSMT-2e" transform="translate(50 0)"/>
       <use xlink:href="#TimesNewRomanPSMT-35" transform="translate(75 0)"/>
      </g>
     </g>
    </g>
    <g id="ytick_5">
     <g id="line2d_21">
      <path d="M 35.051563 42.282611 
L 521.687562 42.282611 
" clip-path="url(#pd675ba5f83)" style="fill: none; stroke: #b0b0b0; stroke-opacity: 0.3; stroke-width: 0.5; stroke-linecap: square"/>
     </g>
     <g id="line2d_22">
      <g>
       <use xlink:href="#m4e5c520c3e" x="35.051563" y="42.282611" style="stroke: #000000; stroke-width: 0.8"/>
      </g>
     </g>
     <g id="text_12">
      <!-- 2.0 -->
      <g transform="translate(20.301563 45.407299) scale(0.09 -0.09)">
       <use xlink:href="#TimesNewRomanPSMT-32"/>
       <use xlink:href="#TimesNewRomanPSMT-2e" transform="translate(50 0)"/>
       <use xlink:href="#TimesNewRomanPSMT-30" transform="translate(75 0)"/>
      </g>
     </g>
    </g>
    <g id="text_13">
     <!-- Density -->
     <g transform="translate(14.14375 149.522813) rotate(-90) scale(0.1 -0.1)">
      <defs>
       <path id="TimesNewRomanPSMT-44" d="M 109 0 
L 109 116 
L 269 116 
Q 538 116 650 288 
Q 719 391 719 750 
L 719 3488 
Q 719 3884 631 3984 
Q 509 4122 269 4122 
L 109 4122 
L 109 4238 
L 1834 4238 
Q 2784 4238 3279 4022 
Q 3775 3806 4076 3303 
Q 4378 2800 4378 2141 
Q 4378 1256 3841 663 
Q 3238 0 2003 0 
L 109 0 
z
M 1319 306 
Q 1716 219 1984 219 
Q 2709 219 3187 728 
Q 3666 1238 3666 2109 
Q 3666 2988 3187 3494 
Q 2709 4000 1959 4000 
Q 1678 4000 1319 3909 
L 1319 306 
z
" transform="scale(0.015625)"/>
       <path id="TimesNewRomanPSMT-73" d="M 2050 2947 
L 2050 1972 
L 1947 1972 
Q 1828 2431 1642 2597 
Q 1456 2763 1169 2763 
Q 950 2763 815 2647 
Q 681 2531 681 2391 
Q 681 2216 781 2091 
Q 878 1963 1175 1819 
L 1631 1597 
Q 2266 1288 2266 781 
Q 2266 391 1970 151 
Q 1675 -88 1309 -88 
Q 1047 -88 709 6 
Q 606 38 541 38 
Q 469 38 428 -44 
L 325 -44 
L 325 978 
L 428 978 
Q 516 541 762 319 
Q 1009 97 1316 97 
Q 1531 97 1667 223 
Q 1803 350 1803 528 
Q 1803 744 1651 891 
Q 1500 1038 1047 1263 
Q 594 1488 453 1669 
Q 313 1847 313 2119 
Q 313 2472 555 2709 
Q 797 2947 1181 2947 
Q 1350 2947 1591 2875 
Q 1750 2828 1803 2828 
Q 1853 2828 1881 2850 
Q 1909 2872 1947 2947 
L 2050 2947 
z
" transform="scale(0.015625)"/>
       <path id="TimesNewRomanPSMT-79" d="M 38 2863 
L 1372 2863 
L 1372 2747 
L 1306 2747 
Q 1166 2747 1095 2686 
Q 1025 2625 1025 2534 
Q 1025 2413 1128 2197 
L 1825 753 
L 2466 2334 
Q 2519 2463 2519 2588 
Q 2519 2644 2497 2672 
Q 2472 2706 2419 2726 
Q 2366 2747 2231 2747 
L 2231 2863 
L 3163 2863 
L 3163 2747 
Q 3047 2734 2984 2696 
Q 2922 2659 2847 2556 
Q 2819 2513 2741 2316 
L 1575 -541 
Q 1406 -956 1132 -1168 
Q 859 -1381 606 -1381 
Q 422 -1381 303 -1275 
Q 184 -1169 184 -1031 
Q 184 -900 270 -820 
Q 356 -741 506 -741 
Q 609 -741 788 -809 
Q 913 -856 944 -856 
Q 1038 -856 1148 -759 
Q 1259 -663 1372 -384 
L 1575 113 
L 547 2272 
Q 500 2369 397 2513 
Q 319 2622 269 2659 
Q 197 2709 38 2747 
L 38 2863 
z
" transform="scale(0.015625)"/>
      </defs>
      <use xlink:href="#TimesNewRomanPSMT-44"/>
      <use xlink:href="#TimesNewRomanPSMT-65" transform="translate(72.216797 0)"/>
      <use xlink:href="#TimesNewRomanPSMT-6e" transform="translate(116.601562 0)"/>
      <use xlink:href="#TimesNewRomanPSMT-73" transform="translate(166.601562 0)"/>
      <use xlink:href="#TimesNewRomanPSMT-69" transform="translate(205.517578 0)"/>
      <use xlink:href="#TimesNewRomanPSMT-74" transform="translate(233.300781 0)"/>
      <use xlink:href="#TimesNewRomanPSMT-79" transform="translate(261.083984 0)"/>
     </g>
    </g>
   </g>
   <g id="line2d_23">
    <path d="M 57.171381 31.12267 
L 60.53948 89.491647 
L 63.90758 147.860624 
L 67.275679 206.229601 
L 70.643779 211.55449 
L 74.011878 213.090516 
L 77.379978 214.626542 
L 80.748077 216.051632 
L 84.116177 217.459656 
L 87.484276 218.867679 
L 90.852376 218.534874 
L 94.220475 217.766861 
L 97.588575 216.998848 
L 100.956674 217.451122 
L 104.324774 218.347137 
L 107.692873 219.243152 
L 111.060973 220.821845 
L 114.429072 222.741877 
L 117.797172 224.66191 
L 121.165271 224.047499 
L 124.533371 221.743461 
L 127.90147 219.439422 
L 131.26957 219.319953 
L 134.637669 221.111983 
L 138.005769 222.904013 
L 141.373868 224.934981 
L 144.741968 227.239019 
L 148.110067 229.543058 
L 151.478167 230.669477 
L 154.846266 230.029466 
L 158.214365 229.389455 
L 161.582465 228.834779 
L 164.950564 228.450773 
L 168.318664 228.066766 
L 171.686763 228.263036 
L 175.054863 230.055066 
L 178.422962 231.847096 
L 181.791062 233.25512 
L 185.159161 233.127118 
L 188.527261 232.999116 
L 191.89536 232.973515 
L 195.26346 233.613526 
L 198.631559 234.253537 
L 201.999659 234.816746 
L 205.367758 234.304738 
L 208.735858 233.792729 
L 212.103957 233.28072 
L 215.472057 234.304738 
L 218.840156 235.328755 
L 222.208256 236.352772 
L 225.576355 236.182102 
L 228.944455 235.926098 
L 232.312554 235.670094 
L 235.680654 235.63596 
L 239.048753 235.63596 
L 242.416853 235.63596 
L 245.784952 235.738362 
L 249.153052 235.866364 
L 252.521151 235.994366 
L 255.889251 236.122368 
L 259.25735 236.25037 
L 262.62545 236.378372 
L 265.993549 236.506374 
L 269.361649 236.634377 
L 272.729748 236.762379 
L 276.097848 236.736778 
L 279.465947 236.608776 
L 282.834047 236.480774 
L 286.202146 236.489307 
L 289.570246 236.61731 
L 292.938345 236.745312 
L 296.306445 236.81358 
L 299.674544 236.81358 
L 303.042644 236.81358 
L 306.410743 236.81358 
L 309.778843 236.81358 
L 313.146942 236.81358 
L 316.515042 236.81358 
L 319.883141 236.81358 
L 323.251241 236.81358 
L 326.61934 236.81358 
L 329.98744 236.81358 
L 333.355539 236.81358 
L 336.723639 236.81358 
L 340.091738 236.81358 
L 343.459838 236.81358 
L 346.827937 236.81358 
L 350.196037 236.81358 
L 353.564136 236.81358 
L 356.932236 236.805046 
L 360.300335 236.677044 
L 363.668435 236.549042 
L 367.036534 236.42104 
" clip-path="url(#pd675ba5f83)" style="fill: none; stroke: #1f77b4; stroke-opacity: 0.9; stroke-width: 2; stroke-linecap: square"/>
   </g>
   <g id="line2d_24">
    <path d="M 58.056339 89.147953 
L 62.855376 132.089328 
L 67.654413 175.030703 
L 72.45345 217.972078 
L 77.252487 220.49945 
L 82.051524 220.140108 
L 86.850561 219.780766 
L 91.649598 219.810712 
L 96.448635 219.900547 
L 101.247672 219.990383 
L 106.046709 220.798902 
L 110.845746 221.787093 
L 115.644783 222.775283 
L 120.44382 223.499957 
L 125.242857 224.128805 
L 130.041894 224.757654 
L 134.840931 226.165077 
L 139.639968 227.961787 
L 144.439005 229.758497 
L 149.238042 230.42328 
L 154.037079 230.333445 
L 158.836117 230.243609 
L 163.635154 230.010037 
L 168.434191 229.650695 
L 173.233228 229.291353 
L 178.032265 229.225473 
L 182.831302 229.49498 
L 187.630339 229.764486 
L 192.429376 230.429269 
L 197.228413 231.686966 
L 202.02745 232.944663 
L 206.826487 233.423786 
L 211.625524 232.34576 
L 216.424561 231.267734 
L 221.223598 230.908392 
L 226.022635 232.525431 
L 230.821672 234.14247 
L 235.620709 235.418135 
L 240.419746 235.328299 
L 245.218783 235.238464 
L 250.01782 235.148628 
L 254.816857 235.058793 
L 259.615894 234.968957 
L 264.414931 234.867143 
L 269.213968 234.597637 
L 274.013005 234.32813 
L 278.812042 234.058624 
L 283.611079 234.238295 
L 288.410116 234.417966 
L 293.209153 234.597637 
L 298.00819 234.777308 
L 302.807227 234.956979 
L 307.606264 235.13665 
L 312.405301 235.627751 
L 317.204338 236.166764 
L 322.003375 236.705777 
L 326.802412 236.597974 
L 331.601449 236.328468 
L 336.400486 236.058961 
L 341.199523 235.921213 
L 345.99856 235.831378 
L 350.797597 235.741542 
L 355.596634 235.891268 
L 360.395671 236.160775 
L 365.194708 236.430281 
L 369.993745 236.538084 
L 374.792782 236.538084 
L 379.591819 236.538084 
L 384.390856 236.538084 
L 389.189893 236.538084 
L 393.98893 236.538084 
L 398.787967 236.538084 
L 403.587004 236.538084 
L 408.386041 236.538084 
L 413.185078 236.538084 
L 417.984115 236.538084 
L 422.783152 236.538084 
L 427.582189 236.568029 
L 432.381226 236.657865 
L 437.180263 236.7477 
L 441.9793 236.81358 
L 446.778337 236.81358 
L 451.577374 236.81358 
L 456.376411 236.81358 
L 461.175448 236.81358 
L 465.974485 236.81358 
L 470.773522 236.801601 
L 475.572559 236.711766 
L 480.371596 236.62193 
L 485.170633 236.538084 
L 489.96967 236.538084 
L 494.768707 236.538084 
L 499.567744 236.538084 
" clip-path="url(#pd675ba5f83)" style="fill: none; stroke: #ff7f0e; stroke-opacity: 0.9; stroke-width: 2; stroke-linecap: square"/>
   </g>
   <g id="patch_3">
    <path d="M 35.051563 247.098125 
L 35.051563 20.838125 
" style="fill: none; stroke: #000000; stroke-width: 0.8; stroke-linejoin: miter; stroke-linecap: square"/>
   </g>
   <g id="patch_4">
    <path d="M 35.051563 247.098125 
L 521.687562 247.098125 
" style="fill: none; stroke: #000000; stroke-width: 0.8; stroke-linejoin: miter; stroke-linecap: square"/>
   </g>
   <g id="text_14">
    <!-- Activation Distributions (Epoch-Agg) -->
    <g transform="translate(194.661281 14.838125) scale(0.11 -0.11)">
     <defs>
      <path id="TimesNewRomanPSMT-72" d="M 1038 2947 
L 1038 2303 
Q 1397 2947 1775 2947 
Q 1947 2947 2059 2842 
Q 2172 2738 2172 2600 
Q 2172 2478 2090 2393 
Q 2009 2309 1897 2309 
Q 1788 2309 1652 2417 
Q 1516 2525 1450 2525 
Q 1394 2525 1328 2463 
Q 1188 2334 1038 2041 
L 1038 669 
Q 1038 431 1097 309 
Q 1138 225 1241 169 
Q 1344 113 1538 113 
L 1538 0 
L 72 0 
L 72 113 
Q 291 113 397 181 
Q 475 231 506 341 
Q 522 394 522 644 
L 522 1753 
Q 522 2253 501 2348 
Q 481 2444 426 2487 
Q 372 2531 291 2531 
Q 194 2531 72 2484 
L 41 2597 
L 906 2947 
L 1038 2947 
z
" transform="scale(0.015625)"/>
      <path id="TimesNewRomanPSMT-62" d="M 984 2369 
Q 1400 2947 1881 2947 
Q 2322 2947 2650 2570 
Q 2978 2194 2978 1541 
Q 2978 778 2472 313 
Q 2038 -88 1503 -88 
Q 1253 -88 995 3 
Q 738 94 469 275 
L 469 3241 
Q 469 3728 445 3840 
Q 422 3953 372 3993 
Q 322 4034 247 4034 
Q 159 4034 28 3984 
L -16 4094 
L 844 4444 
L 984 4444 
L 984 2369 
z
M 984 2169 
L 984 456 
Q 1144 300 1314 220 
Q 1484 141 1663 141 
Q 1947 141 2192 453 
Q 2438 766 2438 1363 
Q 2438 1913 2192 2208 
Q 1947 2503 1634 2503 
Q 1469 2503 1303 2419 
Q 1178 2356 984 2169 
z
" transform="scale(0.015625)"/>
      <path id="TimesNewRomanPSMT-28" d="M 1988 -1253 
L 1988 -1369 
Q 1516 -1131 1200 -813 
Q 750 -359 506 256 
Q 263 872 263 1534 
Q 263 2503 741 3301 
Q 1219 4100 1988 4444 
L 1988 4313 
Q 1603 4100 1356 3731 
Q 1109 3363 987 2797 
Q 866 2231 866 1616 
Q 866 947 969 400 
Q 1050 -31 1165 -292 
Q 1281 -553 1476 -793 
Q 1672 -1034 1988 -1253 
z
" transform="scale(0.015625)"/>
      <path id="TimesNewRomanPSMT-45" d="M 1338 4006 
L 1338 2331 
L 2269 2331 
Q 2631 2331 2753 2441 
Q 2916 2584 2934 2947 
L 3050 2947 
L 3050 1472 
L 2934 1472 
Q 2891 1781 2847 1869 
Q 2791 1978 2662 2040 
Q 2534 2103 2269 2103 
L 1338 2103 
L 1338 706 
Q 1338 425 1363 364 
Q 1388 303 1450 267 
Q 1513 231 1688 231 
L 2406 231 
Q 2766 231 2928 281 
Q 3091 331 3241 478 
Q 3434 672 3638 1063 
L 3763 1063 
L 3397 0 
L 131 0 
L 131 116 
L 281 116 
Q 431 116 566 188 
Q 666 238 702 338 
Q 738 438 738 747 
L 738 3500 
Q 738 3903 656 3997 
Q 544 4122 281 4122 
L 131 4122 
L 131 4238 
L 3397 4238 
L 3444 3309 
L 3322 3309 
Q 3256 3644 3176 3769 
Q 3097 3894 2941 3959 
Q 2816 4006 2500 4006 
L 1338 4006 
z
" transform="scale(0.015625)"/>
      <path id="TimesNewRomanPSMT-70" d="M -6 2578 
L 875 2934 
L 994 2934 
L 994 2266 
Q 1216 2644 1439 2795 
Q 1663 2947 1909 2947 
Q 2341 2947 2628 2609 
Q 2981 2197 2981 1534 
Q 2981 794 2556 309 
Q 2206 -88 1675 -88 
Q 1444 -88 1275 -22 
Q 1150 25 994 166 
L 994 -706 
Q 994 -1000 1030 -1079 
Q 1066 -1159 1155 -1206 
Q 1244 -1253 1478 -1253 
L 1478 -1369 
L -22 -1369 
L -22 -1253 
L 56 -1253 
Q 228 -1256 350 -1188 
Q 409 -1153 442 -1076 
Q 475 -1000 475 -688 
L 475 2019 
Q 475 2297 450 2372 
Q 425 2447 370 2484 
Q 316 2522 222 2522 
Q 147 2522 31 2478 
L -6 2578 
z
M 994 2081 
L 994 1013 
Q 994 666 1022 556 
Q 1066 375 1236 237 
Q 1406 100 1666 100 
Q 1978 100 2172 344 
Q 2425 663 2425 1241 
Q 2425 1897 2138 2250 
Q 1938 2494 1663 2494 
Q 1513 2494 1366 2419 
Q 1253 2363 994 2081 
z
" transform="scale(0.015625)"/>
      <path id="TimesNewRomanPSMT-68" d="M 1041 4444 
L 1041 2350 
Q 1388 2731 1591 2839 
Q 1794 2947 1997 2947 
Q 2241 2947 2416 2812 
Q 2591 2678 2675 2391 
Q 2734 2191 2734 1659 
L 2734 647 
Q 2734 375 2778 275 
Q 2809 200 2884 156 
Q 2959 113 3159 113 
L 3159 0 
L 1753 0 
L 1753 113 
L 1819 113 
Q 2019 113 2097 173 
Q 2175 234 2206 353 
Q 2216 403 2216 647 
L 2216 1659 
Q 2216 2128 2167 2275 
Q 2119 2422 2012 2495 
Q 1906 2569 1756 2569 
Q 1603 2569 1437 2487 
Q 1272 2406 1041 2159 
L 1041 647 
Q 1041 353 1073 281 
Q 1106 209 1195 161 
Q 1284 113 1503 113 
L 1503 0 
L 84 0 
L 84 113 
Q 275 113 384 172 
Q 447 203 484 290 
Q 522 378 522 647 
L 522 3238 
Q 522 3728 498 3840 
Q 475 3953 426 3993 
Q 378 4034 297 4034 
Q 231 4034 84 3984 
L 41 4094 
L 897 4444 
L 1041 4444 
z
" transform="scale(0.015625)"/>
      <path id="TimesNewRomanPSMT-2d" d="M 259 1672 
L 1875 1672 
L 1875 1200 
L 259 1200 
L 259 1672 
z
" transform="scale(0.015625)"/>
      <path id="TimesNewRomanPSMT-67" d="M 966 1044 
Q 703 1172 562 1401 
Q 422 1631 422 1909 
Q 422 2334 742 2640 
Q 1063 2947 1563 2947 
Q 1972 2947 2272 2747 
L 2878 2747 
Q 3013 2747 3034 2739 
Q 3056 2731 3066 2713 
Q 3084 2684 3084 2613 
Q 3084 2531 3069 2500 
Q 3059 2484 3036 2475 
Q 3013 2466 2878 2466 
L 2506 2466 
Q 2681 2241 2681 1891 
Q 2681 1491 2375 1206 
Q 2069 922 1553 922 
Q 1341 922 1119 984 
Q 981 866 932 777 
Q 884 688 884 625 
Q 884 572 936 522 
Q 988 472 1138 450 
Q 1225 438 1575 428 
Q 2219 413 2409 384 
Q 2700 344 2873 169 
Q 3047 -6 3047 -263 
Q 3047 -616 2716 -925 
Q 2228 -1381 1444 -1381 
Q 841 -1381 425 -1109 
Q 191 -953 191 -784 
Q 191 -709 225 -634 
Q 278 -519 444 -313 
Q 466 -284 763 25 
Q 600 122 533 198 
Q 466 275 466 372 
Q 466 481 555 628 
Q 644 775 966 1044 
z
M 1509 2797 
Q 1278 2797 1122 2612 
Q 966 2428 966 2047 
Q 966 1553 1178 1281 
Q 1341 1075 1591 1075 
Q 1828 1075 1981 1253 
Q 2134 1431 2134 1813 
Q 2134 2309 1919 2591 
Q 1759 2797 1509 2797 
z
M 934 0 
Q 788 -159 713 -296 
Q 638 -434 638 -550 
Q 638 -700 819 -813 
Q 1131 -1006 1722 -1006 
Q 2284 -1006 2551 -807 
Q 2819 -609 2819 -384 
Q 2819 -222 2659 -153 
Q 2497 -84 2016 -72 
Q 1313 -53 934 0 
z
" transform="scale(0.015625)"/>
      <path id="TimesNewRomanPSMT-29" d="M 144 4313 
L 144 4444 
Q 619 4209 934 3891 
Q 1381 3434 1625 2820 
Q 1869 2206 1869 1541 
Q 1869 572 1392 -226 
Q 916 -1025 144 -1369 
L 144 -1253 
Q 528 -1038 776 -670 
Q 1025 -303 1145 264 
Q 1266 831 1266 1447 
Q 1266 2113 1163 2663 
Q 1084 3094 967 3353 
Q 850 3613 656 3853 
Q 463 4094 144 4313 
z
" transform="scale(0.015625)"/>
     </defs>
     <use xlink:href="#TimesNewRomanPSMT-41"/>
     <use xlink:href="#TimesNewRomanPSMT-63" transform="translate(72.216797 0)"/>
     <use xlink:href="#TimesNewRomanPSMT-74" transform="translate(116.601562 0)"/>
     <use xlink:href="#TimesNewRomanPSMT-69" transform="translate(144.384766 0)"/>
     <use xlink:href="#TimesNewRomanPSMT-76" transform="translate(172.167969 0)"/>
     <use xlink:href="#TimesNewRomanPSMT-61" transform="translate(222.167969 0)"/>
     <use xlink:href="#TimesNewRomanPSMT-74" transform="translate(266.552734 0)"/>
     <use xlink:href="#TimesNewRomanPSMT-69" transform="translate(294.335938 0)"/>
     <use xlink:href="#TimesNewRomanPSMT-6f" transform="translate(322.119141 0)"/>
     <use xlink:href="#TimesNewRomanPSMT-6e" transform="translate(372.119141 0)"/>
     <use xlink:href="#TimesNewRomanPSMT-20" transform="translate(422.119141 0)"/>
     <use xlink:href="#TimesNewRomanPSMT-44" transform="translate(447.119141 0)"/>
     <use xlink:href="#TimesNewRomanPSMT-69" transform="translate(519.335938 0)"/>
     <use xlink:href="#TimesNewRomanPSMT-73" transform="translate(547.119141 0)"/>
     <use xlink:href="#TimesNewRomanPSMT-74" transform="translate(586.035156 0)"/>
     <use xlink:href="#TimesNewRomanPSMT-72" transform="translate(613.818359 0)"/>
     <use xlink:href="#TimesNewRomanPSMT-69" transform="translate(647.119141 0)"/>
     <use xlink:href="#TimesNewRomanPSMT-62" transform="translate(674.902344 0)"/>
     <use xlink:href="#TimesNewRomanPSMT-75" transform="translate(724.902344 0)"/>
     <use xlink:href="#TimesNewRomanPSMT-74" transform="translate(774.902344 0)"/>
     <use xlink:href="#TimesNewRomanPSMT-69" transform="translate(802.685547 0)"/>
     <use xlink:href="#TimesNewRomanPSMT-6f" transform="translate(830.46875 0)"/>
     <use xlink:href="#TimesNewRomanPSMT-6e" transform="translate(880.46875 0)"/>
     <use xlink:href="#TimesNewRomanPSMT-73" transform="translate(930.46875 0)"/>
     <use xlink:href="#TimesNewRomanPSMT-20" transform="translate(969.384766 0)"/>
     <use xlink:href="#TimesNewRomanPSMT-28" transform="translate(994.384766 0)"/>
     <use xlink:href="#TimesNewRomanPSMT-45" transform="translate(1027.685547 0)"/>
     <use xlink:href="#TimesNewRomanPSMT-70" transform="translate(1088.769531 0)"/>
     <use xlink:href="#TimesNewRomanPSMT-6f" transform="translate(1138.769531 0)"/>
     <use xlink:href="#TimesNewRomanPSMT-63" transform="translate(1188.769531 0)"/>
     <use xlink:href="#TimesNewRomanPSMT-68" transform="translate(1233.154297 0)"/>
     <use xlink:href="#TimesNewRomanPSMT-2d" transform="translate(1283.154297 0)"/>
     <use xlink:href="#TimesNewRomanPSMT-41" transform="translate(1316.455078 0)"/>
     <use xlink:href="#TimesNewRomanPSMT-67" transform="translate(1388.671875 0)"/>
     <use xlink:href="#TimesNewRomanPSMT-67" transform="translate(1438.671875 0)"/>
     <use xlink:href="#TimesNewRomanPSMT-29" transform="translate(1488.671875 0)"/>
    </g>
   </g>
   <g id="legend_1">
    <g id="line2d_25">
     <path d="M 539.520283 32.088125 
L 548.520283 32.088125 
L 557.520283 32.088125 
" style="fill: none; stroke: #1f77b4; stroke-opacity: 0.9; stroke-width: 2; stroke-linecap: square"/>
    </g>
    <g id="text_15">
     <!-- Layer 1 (n=1000) -->
     <g transform="translate(564.720283 35.238125) scale(0.09 -0.09)">
      <defs>
       <path id="TimesNewRomanPSMT-4c" d="M 3669 1172 
L 3772 1150 
L 3409 0 
L 128 0 
L 128 116 
L 288 116 
Q 556 116 672 291 
Q 738 391 738 753 
L 738 3488 
Q 738 3884 650 3984 
Q 528 4122 288 4122 
L 128 4122 
L 128 4238 
L 2047 4238 
L 2047 4122 
Q 1709 4125 1573 4059 
Q 1438 3994 1388 3894 
Q 1338 3794 1338 3416 
L 1338 753 
Q 1338 494 1388 397 
Q 1425 331 1503 300 
Q 1581 269 1991 269 
L 2300 269 
Q 2788 269 2984 341 
Q 3181 413 3343 595 
Q 3506 778 3669 1172 
z
" transform="scale(0.015625)"/>
       <path id="TimesNewRomanPSMT-3d" d="M 116 2759 
L 3488 2759 
L 3488 2503 
L 116 2503 
L 116 2759 
z
M 116 1741 
L 3488 1741 
L 3488 1484 
L 116 1484 
L 116 1741 
z
" transform="scale(0.015625)"/>
      </defs>
      <use xlink:href="#TimesNewRomanPSMT-4c"/>
      <use xlink:href="#TimesNewRomanPSMT-61" transform="translate(61.083984 0)"/>
      <use xlink:href="#TimesNewRomanPSMT-79" transform="translate(105.46875 0)"/>
      <use xlink:href="#TimesNewRomanPSMT-65" transform="translate(155.46875 0)"/>
      <use xlink:href="#TimesNewRomanPSMT-72" transform="translate(199.853516 0)"/>
      <use xlink:href="#TimesNewRomanPSMT-20" transform="translate(233.154297 0)"/>
      <use xlink:href="#TimesNewRomanPSMT-31" transform="translate(258.154297 0)"/>
      <use xlink:href="#TimesNewRomanPSMT-20" transform="translate(308.154297 0)"/>
      <use xlink:href="#TimesNewRomanPSMT-28" transform="translate(333.154297 0)"/>
      <use xlink:href="#TimesNewRomanPSMT-6e" transform="translate(366.455078 0)"/>
      <use xlink:href="#TimesNewRomanPSMT-3d" transform="translate(416.455078 0)"/>
      <use xlink:href="#TimesNewRomanPSMT-31" transform="translate(472.851562 0)"/>
      <use xlink:href="#TimesNewRomanPSMT-30" transform="translate(522.851562 0)"/>
      <use xlink:href="#TimesNewRomanPSMT-30" transform="translate(572.851562 0)"/>
      <use xlink:href="#TimesNewRomanPSMT-30" transform="translate(622.851562 0)"/>
      <use xlink:href="#TimesNewRomanPSMT-29" transform="translate(672.851562 0)"/>
     </g>
    </g>
    <g id="line2d_26">
     <path d="M 539.520283 44.830156 
L 548.520283 44.830156 
L 557.520283 44.830156 
" style="fill: none; stroke: #ff7f0e; stroke-opacity: 0.9; stroke-width: 2; stroke-linecap: square"/>
    </g>
    <g id="text_16">
     <!-- Layer 2 (n=1000) -->
     <g transform="translate(564.720283 47.980156) scale(0.09 -0.09)">
      <use xlink:href="#TimesNewRomanPSMT-4c"/>
      <use xlink:href="#TimesNewRomanPSMT-61" transform="translate(61.083984 0)"/>
      <use xlink:href="#TimesNewRomanPSMT-79" transform="translate(105.46875 0)"/>
      <use xlink:href="#TimesNewRomanPSMT-65" transform="translate(155.46875 0)"/>
      <use xlink:href="#TimesNewRomanPSMT-72" transform="translate(199.853516 0)"/>
      <use xlink:href="#TimesNewRomanPSMT-20" transform="translate(233.154297 0)"/>
      <use xlink:href="#TimesNewRomanPSMT-32" transform="translate(258.154297 0)"/>
      <use xlink:href="#TimesNewRomanPSMT-20" transform="translate(308.154297 0)"/>
      <use xlink:href="#TimesNewRomanPSMT-28" transform="translate(333.154297 0)"/>
      <use xlink:href="#TimesNewRomanPSMT-6e" transform="translate(366.455078 0)"/>
      <use xlink:href="#TimesNewRomanPSMT-3d" transform="translate(416.455078 0)"/>
      <use xlink:href="#TimesNewRomanPSMT-31" transform="translate(472.851562 0)"/>
      <use xlink:href="#TimesNewRomanPSMT-30" transform="translate(522.851562 0)"/>
      <use xlink:href="#TimesNewRomanPSMT-30" transform="translate(572.851562 0)"/>
      <use xlink:href="#TimesNewRomanPSMT-30" transform="translate(622.851562 0)"/>
      <use xlink:href="#TimesNewRomanPSMT-29" transform="translate(672.851562 0)"/>
     </g>
    </g>
   </g>
  </g>
 </g>
 <defs>
  <clipPath id="pd675ba5f83">
   <rect x="35.051563" y="20.838125" width="486.636" height="226.26"/>
  </clipPath>
 </defs>
</svg>
