<?xml version="1.0" encoding="utf-8" standalone="no"?>
<!DOCTYPE svg PUBLIC "-//W3C//DTD SVG 1.1//EN"
  "http://www.w3.org/Graphics/SVG/1.1/DTD/svg11.dtd">
<svg xmlns:xlink="http://www.w3.org/1999/xlink" width="639.209739pt" height="279.055469pt" viewBox="0 0 639.209739 279.055469" xmlns="http://www.w3.org/2000/svg" version="1.1">
 <metadata>
  <rdf:RDF xmlns:dc="http://purl.org/dc/elements/1.1/" xmlns:cc="http://creativecommons.org/ns#" xmlns:rdf="http://www.w3.org/1999/02/22-rdf-syntax-ns#">
   <cc:Work>
    <dc:type rdf:resource="http://purl.org/dc/dcmitype/StillImage"/>
    <dc:date>2025-09-22T10:54:34.105920</dc:date>
    <dc:format>image/svg+xml</dc:format>
    <dc:creator>
     <cc:Agent>
      <dc:title>Matplotlib v3.10.6, https://matplotlib.org/</dc:title>
     </cc:Agent>
    </dc:creator>
   </cc:Work>
  </rdf:RDF>
 </metadata>
 <defs>
  <style type="text/css">*{stroke-linejoin: round; stroke-linecap: butt}</style>
 </defs>
 <g id="figure_1">
  <g id="patch_1">
   <path d="M 0 279.055469 
L 639.209739 279.055469 
L 639.209739 0 
L 0 0 
z
" style="fill: #ffffff"/>
  </g>
  <g id="axes_1">
   <g id="patch_2">
    <path d="M 32.801563 247.098125 
L 521.777562 247.098125 
L 521.777562 20.838125 
L 32.801563 20.838125 
z
" style="fill: #ffffff"/>
   </g>
   <g id="FillBetweenPolyCollection_1">
    <defs>
     <path id="m091579e581" d="M 55.027744 -42.241889 
L 55.027744 -42.651168 
L 59.859523 -42.517708 
L 64.691302 -42.384247 
L 69.52308 -42.250787 
L 74.354859 -42.241889 
L 79.186638 -42.241889 
L 84.018416 -42.241889 
L 88.850195 -42.241889 
L 93.681974 -42.241889 
L 98.513752 -42.241889 
L 103.345531 -42.241889 
L 108.17731 -42.241889 
L 113.009088 -42.241889 
L 117.840867 -42.241889 
L 122.672646 -42.241889 
L 127.504424 -42.241889 
L 132.336203 -42.241889 
L 137.167981 -42.241889 
L 141.99976 -42.241889 
L 146.831539 -42.402042 
L 151.663317 -42.668963 
L 156.495096 -42.935884 
L 161.326875 -43.202805 
L 166.158653 -43.469726 
L 170.990432 -43.736647 
L 175.822211 -43.629879 
L 180.653989 -43.096037 
L 185.485768 -42.562194 
L 190.317547 -42.402042 
L 195.149325 -42.802423 
L 199.981104 -43.202805 
L 204.812883 -43.380752 
L 209.644661 -43.113831 
L 214.47644 -42.84691 
L 219.308219 -42.793526 
L 224.139997 -43.327368 
L 228.971776 -43.86121 
L 233.803555 -44.501821 
L 238.635333 -45.569505 
L 243.467112 -46.637189 
L 248.298891 -47.722668 
L 253.130669 -48.923813 
L 257.962448 -50.124958 
L 262.794227 -51.388384 
L 267.626005 -53.523753 
L 272.457784 -55.659121 
L 277.289562 -57.79449 
L 282.121341 -60.4637 
L 286.95312 -63.132911 
L 291.784898 -65.802121 
L 296.616677 -70.713469 
L 301.448456 -75.784969 
L 306.280234 -80.856469 
L 311.112013 -91.248596 
L 315.943792 -102.45928 
L 320.77557 -113.669965 
L 325.607349 -122.531744 
L 330.439128 -130.806297 
L 335.270906 -139.08085 
L 340.102685 -132.185389 
L 344.934464 -119.77356 
L 349.766242 -107.36173 
L 354.598021 -97.619112 
L 359.4298 -89.211098 
L 364.261578 -80.803085 
L 369.093357 -74.156751 
L 373.925136 -68.684869 
L 378.756914 -63.212987 
L 383.588693 -59.4494 
L 388.420472 -57.180571 
L 393.25225 -54.911742 
L 398.084029 -52.642913 
L 402.915808 -50.374084 
L 407.747586 -48.105255 
L 412.579365 -46.530421 
L 417.411144 -45.996579 
L 422.242922 -45.462737 
L 427.074701 -44.973381 
L 431.906479 -44.573 
L 436.738258 -44.172618 
L 441.570037 -43.772237 
L 446.401815 -43.371855 
L 451.233594 -42.971473 
L 456.065373 -42.651168 
L 460.897151 -42.651168 
L 465.72893 -42.651168 
L 470.560709 -42.651168 
L 475.392487 -42.651168 
L 480.224266 -42.651168 
L 485.056045 -42.660066 
L 489.887823 -42.793526 
L 494.719602 -42.926987 
L 499.551381 -43.060447 
L 499.551381 -42.241889 
L 499.551381 -42.241889 
L 494.719602 -42.241889 
L 489.887823 -42.241889 
L 485.056045 -42.241889 
L 480.224266 -42.241889 
L 475.392487 -42.241889 
L 470.560709 -42.241889 
L 465.72893 -42.241889 
L 460.897151 -42.241889 
L 456.065373 -42.241889 
L 451.233594 -42.241889 
L 446.401815 -42.241889 
L 441.570037 -42.241889 
L 436.738258 -42.241889 
L 431.906479 -42.241889 
L 427.074701 -42.241889 
L 422.242922 -42.241889 
L 417.411144 -42.241889 
L 412.579365 -42.241889 
L 407.747586 -42.241889 
L 402.915808 -42.241889 
L 398.084029 -42.241889 
L 393.25225 -42.241889 
L 388.420472 -42.241889 
L 383.588693 -42.241889 
L 378.756914 -42.241889 
L 373.925136 -42.241889 
L 369.093357 -42.241889 
L 364.261578 -42.241889 
L 359.4298 -42.241889 
L 354.598021 -42.241889 
L 349.766242 -42.241889 
L 344.934464 -42.241889 
L 340.102685 -42.241889 
L 335.270906 -42.241889 
L 330.439128 -42.241889 
L 325.607349 -42.241889 
L 320.77557 -42.241889 
L 315.943792 -42.241889 
L 311.112013 -42.241889 
L 306.280234 -42.241889 
L 301.448456 -42.241889 
L 296.616677 -42.241889 
L 291.784898 -42.241889 
L 286.95312 -42.241889 
L 282.121341 -42.241889 
L 277.289562 -42.241889 
L 272.457784 -42.241889 
L 267.626005 -42.241889 
L 262.794227 -42.241889 
L 257.962448 -42.241889 
L 253.130669 -42.241889 
L 248.298891 -42.241889 
L 243.467112 -42.241889 
L 238.635333 -42.241889 
L 233.803555 -42.241889 
L 228.971776 -42.241889 
L 224.139997 -42.241889 
L 219.308219 -42.241889 
L 214.47644 -42.241889 
L 209.644661 -42.241889 
L 204.812883 -42.241889 
L 199.981104 -42.241889 
L 195.149325 -42.241889 
L 190.317547 -42.241889 
L 185.485768 -42.241889 
L 180.653989 -42.241889 
L 175.822211 -42.241889 
L 170.990432 -42.241889 
L 166.158653 -42.241889 
L 161.326875 -42.241889 
L 156.495096 -42.241889 
L 151.663317 -42.241889 
L 146.831539 -42.241889 
L 141.99976 -42.241889 
L 137.167981 -42.241889 
L 132.336203 -42.241889 
L 127.504424 -42.241889 
L 122.672646 -42.241889 
L 117.840867 -42.241889 
L 113.009088 -42.241889 
L 108.17731 -42.241889 
L 103.345531 -42.241889 
L 98.513752 -42.241889 
L 93.681974 -42.241889 
L 88.850195 -42.241889 
L 84.018416 -42.241889 
L 79.186638 -42.241889 
L 74.354859 -42.241889 
L 69.52308 -42.241889 
L 64.691302 -42.241889 
L 59.859523 -42.241889 
L 55.027744 -42.241889 
z
" style="stroke: #1f77b4; stroke-opacity: 0.3"/>
    </defs>
    <g clip-path="url(#p6c88ecf9e7)">
     <use xlink:href="#m091579e581" x="0" y="279.055469" style="fill: #1f77b4; fill-opacity: 0.3; stroke: #1f77b4; stroke-opacity: 0.3"/>
    </g>
   </g>
   <g id="FillBetweenPolyCollection_2">
    <defs>
     <path id="m7c9e43219a" d="M 207.001525 -42.241889 
L 207.001525 -43.12932 
L 209.22992 -42.83994 
L 211.458315 -42.550561 
L 213.68671 -42.261181 
L 215.915106 -42.241889 
L 218.143501 -42.241889 
L 220.371896 -42.241889 
L 222.600291 -42.74348 
L 224.828686 -43.322239 
L 227.057081 -43.900998 
L 229.285476 -43.785246 
L 231.513871 -43.495867 
L 233.742266 -43.206487 
L 235.970662 -42.917108 
L 238.199057 -42.627728 
L 240.427452 -42.338349 
L 242.655847 -42.627728 
L 244.884242 -43.206487 
L 247.112637 -43.785246 
L 249.341032 -44.190377 
L 251.569427 -44.479757 
L 253.797822 -44.769136 
L 256.026218 -44.441173 
L 258.254613 -43.573035 
L 260.483008 -42.704896 
L 262.711403 -42.511977 
L 264.939798 -43.090736 
L 267.168193 -43.669494 
L 269.396588 -45.058516 
L 271.624983 -47.662931 
L 273.853379 -50.267346 
L 276.081774 -51.907163 
L 278.310169 -51.617783 
L 280.538564 -51.328404 
L 282.766959 -51.502031 
L 284.995354 -52.948929 
L 287.223749 -54.395826 
L 289.452144 -55.669095 
L 291.680539 -56.247854 
L 293.908935 -56.826613 
L 296.13733 -57.521124 
L 298.365725 -58.968021 
L 300.59412 -60.414918 
L 302.822515 -62.286239 
L 305.05091 -70.099484 
L 307.279305 -77.912729 
L 309.5077 -85.725974 
L 311.736095 -98.458669 
L 313.964491 -111.191365 
L 316.192886 -123.92406 
L 318.421281 -130.444744 
L 320.649676 -136.521712 
L 322.878071 -142.598681 
L 325.106466 -175.009178 
L 327.334861 -211.470988 
L 329.563256 -247.932798 
L 331.791652 -237.399387 
L 334.020047 -215.117169 
L 336.248442 -192.834952 
L 338.476837 -175.858025 
L 340.705232 -160.810294 
L 342.933627 -145.762562 
L 345.162022 -128.785635 
L 347.390417 -110.844109 
L 349.618812 -92.902584 
L 351.847208 -83.121559 
L 354.075603 -78.780867 
L 356.303998 -74.440175 
L 358.532393 -71.642841 
L 360.760788 -70.195944 
L 362.989183 -68.749046 
L 365.217578 -65.276493 
L 367.445973 -59.488904 
L 369.674368 -53.701315 
L 371.902764 -50.344514 
L 374.131159 -50.633893 
L 376.359554 -50.923273 
L 378.587949 -50.537433 
L 380.816344 -48.801157 
L 383.044739 -47.06488 
L 385.273134 -45.714443 
L 387.501529 -45.425063 
L 389.729924 -45.135684 
L 391.95832 -44.730552 
L 394.186715 -43.862414 
L 396.41511 -42.994276 
L 398.643505 -42.357641 
L 400.8719 -43.225779 
L 403.100295 -44.093918 
L 405.32869 -44.90418 
L 407.557085 -44.90418 
L 409.785481 -44.90418 
L 412.013876 -44.90418 
L 412.013876 -42.241889 
L 412.013876 -42.241889 
L 409.785481 -42.241889 
L 407.557085 -42.241889 
L 405.32869 -42.241889 
L 403.100295 -42.241889 
L 400.8719 -42.241889 
L 398.643505 -42.241889 
L 396.41511 -42.241889 
L 394.186715 -42.241889 
L 391.95832 -42.241889 
L 389.729924 -42.241889 
L 387.501529 -42.241889 
L 385.273134 -42.241889 
L 383.044739 -42.241889 
L 380.816344 -42.241889 
L 378.587949 -42.241889 
L 376.359554 -42.241889 
L 374.131159 -42.241889 
L 371.902764 -42.241889 
L 369.674368 -42.241889 
L 367.445973 -42.241889 
L 365.217578 -42.241889 
L 362.989183 -42.241889 
L 360.760788 -42.241889 
L 358.532393 -42.241889 
L 356.303998 -42.241889 
L 354.075603 -42.241889 
L 351.847208 -42.241889 
L 349.618812 -42.241889 
L 347.390417 -42.241889 
L 345.162022 -42.241889 
L 342.933627 -42.241889 
L 340.705232 -42.241889 
L 338.476837 -42.241889 
L 336.248442 -42.241889 
L 334.020047 -42.241889 
L 331.791652 -42.241889 
L 329.563256 -42.241889 
L 327.334861 -42.241889 
L 325.106466 -42.241889 
L 322.878071 -42.241889 
L 320.649676 -42.241889 
L 318.421281 -42.241889 
L 316.192886 -42.241889 
L 313.964491 -42.241889 
L 311.736095 -42.241889 
L 309.5077 -42.241889 
L 307.279305 -42.241889 
L 305.05091 -42.241889 
L 302.822515 -42.241889 
L 300.59412 -42.241889 
L 298.365725 -42.241889 
L 296.13733 -42.241889 
L 293.908935 -42.241889 
L 291.680539 -42.241889 
L 289.452144 -42.241889 
L 287.223749 -42.241889 
L 284.995354 -42.241889 
L 282.766959 -42.241889 
L 280.538564 -42.241889 
L 278.310169 -42.241889 
L 276.081774 -42.241889 
L 273.853379 -42.241889 
L 271.624983 -42.241889 
L 269.396588 -42.241889 
L 267.168193 -42.241889 
L 264.939798 -42.241889 
L 262.711403 -42.241889 
L 260.483008 -42.241889 
L 258.254613 -42.241889 
L 256.026218 -42.241889 
L 253.797822 -42.241889 
L 251.569427 -42.241889 
L 249.341032 -42.241889 
L 247.112637 -42.241889 
L 244.884242 -42.241889 
L 242.655847 -42.241889 
L 240.427452 -42.241889 
L 238.199057 -42.241889 
L 235.970662 -42.241889 
L 233.742266 -42.241889 
L 231.513871 -42.241889 
L 229.285476 -42.241889 
L 227.057081 -42.241889 
L 224.828686 -42.241889 
L 222.600291 -42.241889 
L 220.371896 -42.241889 
L 218.143501 -42.241889 
L 215.915106 -42.241889 
L 213.68671 -42.241889 
L 211.458315 -42.241889 
L 209.22992 -42.241889 
L 207.001525 -42.241889 
z
" style="stroke: #ff7f0e; stroke-opacity: 0.3"/>
    </defs>
    <g clip-path="url(#p6c88ecf9e7)">
     <use xlink:href="#m7c9e43219a" x="0" y="279.055469" style="fill: #ff7f0e; fill-opacity: 0.3; stroke: #ff7f0e; stroke-opacity: 0.3"/>
    </g>
   </g>
   <g id="matplotlib.axis_1">
    <g id="xtick_1">
     <g id="line2d_1">
      <path d="M 58.497084 247.098125 
L 58.497084 20.838125 
" clip-path="url(#p6c88ecf9e7)" style="fill: none; stroke: #b0b0b0; stroke-opacity: 0.3; stroke-width: 0.5; stroke-linecap: square"/>
     </g>
     <g id="line2d_2">
      <defs>
       <path id="mb8e4e1f419" d="M 0 0 
L 0 -3 
" style="stroke: #000000; stroke-width: 0.8"/>
      </defs>
      <g>
       <use xlink:href="#mb8e4e1f419" x="58.497084" y="247.098125" style="stroke: #000000; stroke-width: 0.8"/>
      </g>
     </g>
     <g id="text_1">
      <!-- −0.10 -->
      <g transform="translate(48.084506 256.8475) scale(0.09 -0.09)">
       <defs>
        <path id="TimesNewRomanPSMT-2212" d="M 3484 2000 
L 116 2000 
L 116 2256 
L 3484 2256 
L 3484 2000 
z
" transform="scale(0.015625)"/>
        <path id="TimesNewRomanPSMT-30" d="M 231 2094 
Q 231 2819 450 3342 
Q 669 3866 1031 4122 
Q 1313 4325 1613 4325 
Q 2100 4325 2488 3828 
Q 2972 3213 2972 2159 
Q 2972 1422 2759 906 
Q 2547 391 2217 158 
Q 1888 -75 1581 -75 
Q 975 -75 572 641 
Q 231 1244 231 2094 
z
M 844 2016 
Q 844 1141 1059 588 
Q 1238 122 1591 122 
Q 1759 122 1940 273 
Q 2122 425 2216 781 
Q 2359 1319 2359 2297 
Q 2359 3022 2209 3506 
Q 2097 3866 1919 4016 
Q 1791 4119 1609 4119 
Q 1397 4119 1231 3928 
Q 1006 3669 925 3112 
Q 844 2556 844 2016 
z
" transform="scale(0.015625)"/>
        <path id="TimesNewRomanPSMT-2e" d="M 800 606 
Q 947 606 1047 504 
Q 1147 403 1147 259 
Q 1147 116 1045 14 
Q 944 -88 800 -88 
Q 656 -88 554 14 
Q 453 116 453 259 
Q 453 406 554 506 
Q 656 606 800 606 
z
" transform="scale(0.015625)"/>
        <path id="TimesNewRomanPSMT-31" d="M 750 3822 
L 1781 4325 
L 1884 4325 
L 1884 747 
Q 1884 391 1914 303 
Q 1944 216 2037 169 
Q 2131 122 2419 116 
L 2419 0 
L 825 0 
L 825 116 
Q 1125 122 1212 167 
Q 1300 213 1334 289 
Q 1369 366 1369 747 
L 1369 3034 
Q 1369 3497 1338 3628 
Q 1316 3728 1258 3775 
Q 1200 3822 1119 3822 
Q 1003 3822 797 3725 
L 750 3822 
z
" transform="scale(0.015625)"/>
       </defs>
       <use xlink:href="#TimesNewRomanPSMT-2212"/>
       <use xlink:href="#TimesNewRomanPSMT-30" transform="translate(56.396484 0)"/>
       <use xlink:href="#TimesNewRomanPSMT-2e" transform="translate(106.396484 0)"/>
       <use xlink:href="#TimesNewRomanPSMT-31" transform="translate(131.396484 0)"/>
       <use xlink:href="#TimesNewRomanPSMT-30" transform="translate(181.396484 0)"/>
      </g>
     </g>
    </g>
    <g id="xtick_2">
     <g id="line2d_3">
      <path d="M 113.149194 247.098125 
L 113.149194 20.838125 
" clip-path="url(#p6c88ecf9e7)" style="fill: none; stroke: #b0b0b0; stroke-opacity: 0.3; stroke-width: 0.5; stroke-linecap: square"/>
     </g>
     <g id="line2d_4">
      <g>
       <use xlink:href="#mb8e4e1f419" x="113.149194" y="247.098125" style="stroke: #000000; stroke-width: 0.8"/>
      </g>
     </g>
     <g id="text_2">
      <!-- −0.08 -->
      <g transform="translate(102.736616 256.8475) scale(0.09 -0.09)">
       <defs>
        <path id="TimesNewRomanPSMT-38" d="M 1228 2134 
Q 725 2547 579 2797 
Q 434 3047 434 3316 
Q 434 3728 753 4026 
Q 1072 4325 1600 4325 
Q 2113 4325 2425 4047 
Q 2738 3769 2738 3413 
Q 2738 3175 2569 2928 
Q 2400 2681 1866 2347 
Q 2416 1922 2594 1678 
Q 2831 1359 2831 1006 
Q 2831 559 2490 242 
Q 2150 -75 1597 -75 
Q 994 -75 656 303 
Q 388 606 388 966 
Q 388 1247 577 1523 
Q 766 1800 1228 2134 
z
M 1719 2469 
Q 2094 2806 2194 3001 
Q 2294 3197 2294 3444 
Q 2294 3772 2109 3958 
Q 1925 4144 1606 4144 
Q 1288 4144 1088 3959 
Q 888 3775 888 3528 
Q 888 3366 970 3203 
Q 1053 3041 1206 2894 
L 1719 2469 
z
M 1375 2016 
Q 1116 1797 991 1539 
Q 866 1281 866 981 
Q 866 578 1086 336 
Q 1306 94 1647 94 
Q 1984 94 2187 284 
Q 2391 475 2391 747 
Q 2391 972 2272 1150 
Q 2050 1481 1375 2016 
z
" transform="scale(0.015625)"/>
       </defs>
       <use xlink:href="#TimesNewRomanPSMT-2212"/>
       <use xlink:href="#TimesNewRomanPSMT-30" transform="translate(56.396484 0)"/>
       <use xlink:href="#TimesNewRomanPSMT-2e" transform="translate(106.396484 0)"/>
       <use xlink:href="#TimesNewRomanPSMT-30" transform="translate(131.396484 0)"/>
       <use xlink:href="#TimesNewRomanPSMT-38" transform="translate(181.396484 0)"/>
      </g>
     </g>
    </g>
    <g id="xtick_3">
     <g id="line2d_5">
      <path d="M 167.801303 247.098125 
L 167.801303 20.838125 
" clip-path="url(#p6c88ecf9e7)" style="fill: none; stroke: #b0b0b0; stroke-opacity: 0.3; stroke-width: 0.5; stroke-linecap: square"/>
     </g>
     <g id="line2d_6">
      <g>
       <use xlink:href="#mb8e4e1f419" x="167.801303" y="247.098125" style="stroke: #000000; stroke-width: 0.8"/>
      </g>
     </g>
     <g id="text_3">
      <!-- −0.06 -->
      <g transform="translate(157.388725 256.8475) scale(0.09 -0.09)">
       <defs>
        <path id="TimesNewRomanPSMT-36" d="M 2869 4325 
L 2869 4209 
Q 2456 4169 2195 4045 
Q 1934 3922 1679 3669 
Q 1425 3416 1258 3105 
Q 1091 2794 978 2366 
Q 1428 2675 1881 2675 
Q 2316 2675 2634 2325 
Q 2953 1975 2953 1425 
Q 2953 894 2631 456 
Q 2244 -75 1606 -75 
Q 1172 -75 869 213 
Q 275 772 275 1663 
Q 275 2231 503 2743 
Q 731 3256 1154 3653 
Q 1578 4050 1965 4187 
Q 2353 4325 2688 4325 
L 2869 4325 
z
M 925 2138 
Q 869 1716 869 1456 
Q 869 1156 980 804 
Q 1091 453 1309 247 
Q 1469 100 1697 100 
Q 1969 100 2183 356 
Q 2397 613 2397 1088 
Q 2397 1622 2184 2012 
Q 1972 2403 1581 2403 
Q 1463 2403 1327 2353 
Q 1191 2303 925 2138 
z
" transform="scale(0.015625)"/>
       </defs>
       <use xlink:href="#TimesNewRomanPSMT-2212"/>
       <use xlink:href="#TimesNewRomanPSMT-30" transform="translate(56.396484 0)"/>
       <use xlink:href="#TimesNewRomanPSMT-2e" transform="translate(106.396484 0)"/>
       <use xlink:href="#TimesNewRomanPSMT-30" transform="translate(131.396484 0)"/>
       <use xlink:href="#TimesNewRomanPSMT-36" transform="translate(181.396484 0)"/>
      </g>
     </g>
    </g>
    <g id="xtick_4">
     <g id="line2d_7">
      <path d="M 222.453412 247.098125 
L 222.453412 20.838125 
" clip-path="url(#p6c88ecf9e7)" style="fill: none; stroke: #b0b0b0; stroke-opacity: 0.3; stroke-width: 0.5; stroke-linecap: square"/>
     </g>
     <g id="line2d_8">
      <g>
       <use xlink:href="#mb8e4e1f419" x="222.453412" y="247.098125" style="stroke: #000000; stroke-width: 0.8"/>
      </g>
     </g>
     <g id="text_4">
      <!-- −0.04 -->
      <g transform="translate(212.040834 256.8475) scale(0.09 -0.09)">
       <defs>
        <path id="TimesNewRomanPSMT-34" d="M 2978 1563 
L 2978 1119 
L 2409 1119 
L 2409 0 
L 1894 0 
L 1894 1119 
L 100 1119 
L 100 1519 
L 2066 4325 
L 2409 4325 
L 2409 1563 
L 2978 1563 
z
M 1894 1563 
L 1894 3666 
L 406 1563 
L 1894 1563 
z
" transform="scale(0.015625)"/>
       </defs>
       <use xlink:href="#TimesNewRomanPSMT-2212"/>
       <use xlink:href="#TimesNewRomanPSMT-30" transform="translate(56.396484 0)"/>
       <use xlink:href="#TimesNewRomanPSMT-2e" transform="translate(106.396484 0)"/>
       <use xlink:href="#TimesNewRomanPSMT-30" transform="translate(131.396484 0)"/>
       <use xlink:href="#TimesNewRomanPSMT-34" transform="translate(181.396484 0)"/>
      </g>
     </g>
    </g>
    <g id="xtick_5">
     <g id="line2d_9">
      <path d="M 277.105522 247.098125 
L 277.105522 20.838125 
" clip-path="url(#p6c88ecf9e7)" style="fill: none; stroke: #b0b0b0; stroke-opacity: 0.3; stroke-width: 0.5; stroke-linecap: square"/>
     </g>
     <g id="line2d_10">
      <g>
       <use xlink:href="#mb8e4e1f419" x="277.105522" y="247.098125" style="stroke: #000000; stroke-width: 0.8"/>
      </g>
     </g>
     <g id="text_5">
      <!-- −0.02 -->
      <g transform="translate(266.692943 256.8475) scale(0.09 -0.09)">
       <defs>
        <path id="TimesNewRomanPSMT-32" d="M 2934 816 
L 2638 0 
L 138 0 
L 138 116 
Q 1241 1122 1691 1759 
Q 2141 2397 2141 2925 
Q 2141 3328 1894 3587 
Q 1647 3847 1303 3847 
Q 991 3847 742 3664 
Q 494 3481 375 3128 
L 259 3128 
Q 338 3706 661 4015 
Q 984 4325 1469 4325 
Q 1984 4325 2329 3994 
Q 2675 3663 2675 3213 
Q 2675 2891 2525 2569 
Q 2294 2063 1775 1497 
Q 997 647 803 472 
L 1909 472 
Q 2247 472 2383 497 
Q 2519 522 2628 598 
Q 2738 675 2819 816 
L 2934 816 
z
" transform="scale(0.015625)"/>
       </defs>
       <use xlink:href="#TimesNewRomanPSMT-2212"/>
       <use xlink:href="#TimesNewRomanPSMT-30" transform="translate(56.396484 0)"/>
       <use xlink:href="#TimesNewRomanPSMT-2e" transform="translate(106.396484 0)"/>
       <use xlink:href="#TimesNewRomanPSMT-30" transform="translate(131.396484 0)"/>
       <use xlink:href="#TimesNewRomanPSMT-32" transform="translate(181.396484 0)"/>
      </g>
     </g>
    </g>
    <g id="xtick_6">
     <g id="line2d_11">
      <path d="M 331.757631 247.098125 
L 331.757631 20.838125 
" clip-path="url(#p6c88ecf9e7)" style="fill: none; stroke: #b0b0b0; stroke-opacity: 0.3; stroke-width: 0.5; stroke-linecap: square"/>
     </g>
     <g id="line2d_12">
      <g>
       <use xlink:href="#mb8e4e1f419" x="331.757631" y="247.098125" style="stroke: #000000; stroke-width: 0.8"/>
      </g>
     </g>
     <g id="text_6">
      <!-- 0.00 -->
      <g transform="translate(323.882631 256.8475) scale(0.09 -0.09)">
       <use xlink:href="#TimesNewRomanPSMT-30"/>
       <use xlink:href="#TimesNewRomanPSMT-2e" transform="translate(50 0)"/>
       <use xlink:href="#TimesNewRomanPSMT-30" transform="translate(75 0)"/>
       <use xlink:href="#TimesNewRomanPSMT-30" transform="translate(125 0)"/>
      </g>
     </g>
    </g>
    <g id="xtick_7">
     <g id="line2d_13">
      <path d="M 386.40974 247.098125 
L 386.40974 20.838125 
" clip-path="url(#p6c88ecf9e7)" style="fill: none; stroke: #b0b0b0; stroke-opacity: 0.3; stroke-width: 0.5; stroke-linecap: square"/>
     </g>
     <g id="line2d_14">
      <g>
       <use xlink:href="#mb8e4e1f419" x="386.40974" y="247.098125" style="stroke: #000000; stroke-width: 0.8"/>
      </g>
     </g>
     <g id="text_7">
      <!-- 0.02 -->
      <g transform="translate(378.53474 256.8475) scale(0.09 -0.09)">
       <use xlink:href="#TimesNewRomanPSMT-30"/>
       <use xlink:href="#TimesNewRomanPSMT-2e" transform="translate(50 0)"/>
       <use xlink:href="#TimesNewRomanPSMT-30" transform="translate(75 0)"/>
       <use xlink:href="#TimesNewRomanPSMT-32" transform="translate(125 0)"/>
      </g>
     </g>
    </g>
    <g id="xtick_8">
     <g id="line2d_15">
      <path d="M 441.061849 247.098125 
L 441.061849 20.838125 
" clip-path="url(#p6c88ecf9e7)" style="fill: none; stroke: #b0b0b0; stroke-opacity: 0.3; stroke-width: 0.5; stroke-linecap: square"/>
     </g>
     <g id="line2d_16">
      <g>
       <use xlink:href="#mb8e4e1f419" x="441.061849" y="247.098125" style="stroke: #000000; stroke-width: 0.8"/>
      </g>
     </g>
     <g id="text_8">
      <!-- 0.04 -->
      <g transform="translate(433.186849 256.8475) scale(0.09 -0.09)">
       <use xlink:href="#TimesNewRomanPSMT-30"/>
       <use xlink:href="#TimesNewRomanPSMT-2e" transform="translate(50 0)"/>
       <use xlink:href="#TimesNewRomanPSMT-30" transform="translate(75 0)"/>
       <use xlink:href="#TimesNewRomanPSMT-34" transform="translate(125 0)"/>
      </g>
     </g>
    </g>
    <g id="xtick_9">
     <g id="line2d_17">
      <path d="M 495.713959 247.098125 
L 495.713959 20.838125 
" clip-path="url(#p6c88ecf9e7)" style="fill: none; stroke: #b0b0b0; stroke-opacity: 0.3; stroke-width: 0.5; stroke-linecap: square"/>
     </g>
     <g id="line2d_18">
      <g>
       <use xlink:href="#mb8e4e1f419" x="495.713959" y="247.098125" style="stroke: #000000; stroke-width: 0.8"/>
      </g>
     </g>
     <g id="text_9">
      <!-- 0.06 -->
      <g transform="translate(487.838959 256.8475) scale(0.09 -0.09)">
       <use xlink:href="#TimesNewRomanPSMT-30"/>
       <use xlink:href="#TimesNewRomanPSMT-2e" transform="translate(50 0)"/>
       <use xlink:href="#TimesNewRomanPSMT-30" transform="translate(75 0)"/>
       <use xlink:href="#TimesNewRomanPSMT-36" transform="translate(125 0)"/>
      </g>
     </g>
    </g>
    <g id="text_10">
     <!-- Gradient Value -->
     <g transform="translate(247.251281 269.716406) scale(0.1 -0.1)">
      <defs>
       <path id="TimesNewRomanPSMT-47" d="M 3928 4334 
L 4038 2997 
L 3928 2997 
Q 3763 3497 3500 3750 
Q 3122 4116 2528 4116 
Q 1719 4116 1297 3475 
Q 944 2934 944 2188 
Q 944 1581 1178 1081 
Q 1413 581 1792 348 
Q 2172 116 2572 116 
Q 2806 116 3025 175 
Q 3244 234 3447 350 
L 3447 1575 
Q 3447 1894 3398 1992 
Q 3350 2091 3248 2142 
Q 3147 2194 2891 2194 
L 2891 2313 
L 4531 2313 
L 4531 2194 
L 4453 2194 
Q 4209 2194 4119 2031 
Q 4056 1916 4056 1575 
L 4056 278 
Q 3697 84 3347 -6 
Q 2997 -97 2569 -97 
Q 1341 -97 703 691 
Q 225 1281 225 2053 
Q 225 2613 494 3125 
Q 813 3734 1369 4063 
Q 1834 4334 2469 4334 
Q 2700 4334 2889 4296 
Q 3078 4259 3425 4131 
Q 3600 4066 3659 4066 
Q 3719 4066 3761 4120 
Q 3803 4175 3813 4334 
L 3928 4334 
z
" transform="scale(0.015625)"/>
       <path id="TimesNewRomanPSMT-72" d="M 1038 2947 
L 1038 2303 
Q 1397 2947 1775 2947 
Q 1947 2947 2059 2842 
Q 2172 2738 2172 2600 
Q 2172 2478 2090 2393 
Q 2009 2309 1897 2309 
Q 1788 2309 1652 2417 
Q 1516 2525 1450 2525 
Q 1394 2525 1328 2463 
Q 1188 2334 1038 2041 
L 1038 669 
Q 1038 431 1097 309 
Q 1138 225 1241 169 
Q 1344 113 1538 113 
L 1538 0 
L 72 0 
L 72 113 
Q 291 113 397 181 
Q 475 231 506 341 
Q 522 394 522 644 
L 522 1753 
Q 522 2253 501 2348 
Q 481 2444 426 2487 
Q 372 2531 291 2531 
Q 194 2531 72 2484 
L 41 2597 
L 906 2947 
L 1038 2947 
z
" transform="scale(0.015625)"/>
       <path id="TimesNewRomanPSMT-61" d="M 1822 413 
Q 1381 72 1269 19 
Q 1100 -59 909 -59 
Q 613 -59 420 144 
Q 228 347 228 678 
Q 228 888 322 1041 
Q 450 1253 767 1440 
Q 1084 1628 1822 1897 
L 1822 2009 
Q 1822 2438 1686 2597 
Q 1550 2756 1291 2756 
Q 1094 2756 978 2650 
Q 859 2544 859 2406 
L 866 2225 
Q 866 2081 792 2003 
Q 719 1925 600 1925 
Q 484 1925 411 2006 
Q 338 2088 338 2228 
Q 338 2497 613 2722 
Q 888 2947 1384 2947 
Q 1766 2947 2009 2819 
Q 2194 2722 2281 2516 
Q 2338 2381 2338 1966 
L 2338 994 
Q 2338 584 2353 492 
Q 2369 400 2405 369 
Q 2441 338 2488 338 
Q 2538 338 2575 359 
Q 2641 400 2828 588 
L 2828 413 
Q 2478 -56 2159 -56 
Q 2006 -56 1915 50 
Q 1825 156 1822 413 
z
M 1822 616 
L 1822 1706 
Q 1350 1519 1213 1441 
Q 966 1303 859 1153 
Q 753 1003 753 825 
Q 753 600 887 451 
Q 1022 303 1197 303 
Q 1434 303 1822 616 
z
" transform="scale(0.015625)"/>
       <path id="TimesNewRomanPSMT-64" d="M 2222 322 
Q 2013 103 1813 7 
Q 1613 -88 1381 -88 
Q 913 -88 563 304 
Q 213 697 213 1313 
Q 213 1928 600 2439 
Q 988 2950 1597 2950 
Q 1975 2950 2222 2709 
L 2222 3238 
Q 2222 3728 2198 3840 
Q 2175 3953 2125 3993 
Q 2075 4034 2000 4034 
Q 1919 4034 1784 3984 
L 1744 4094 
L 2597 4444 
L 2738 4444 
L 2738 1134 
Q 2738 631 2761 520 
Q 2784 409 2836 365 
Q 2888 322 2956 322 
Q 3041 322 3181 375 
L 3216 266 
L 2366 -88 
L 2222 -88 
L 2222 322 
z
M 2222 541 
L 2222 2016 
Q 2203 2228 2109 2403 
Q 2016 2578 1861 2667 
Q 1706 2756 1559 2756 
Q 1284 2756 1069 2509 
Q 784 2184 784 1559 
Q 784 928 1059 592 
Q 1334 256 1672 256 
Q 1956 256 2222 541 
z
" transform="scale(0.015625)"/>
       <path id="TimesNewRomanPSMT-69" d="M 928 4444 
Q 1059 4444 1151 4351 
Q 1244 4259 1244 4128 
Q 1244 3997 1151 3903 
Q 1059 3809 928 3809 
Q 797 3809 703 3903 
Q 609 3997 609 4128 
Q 609 4259 701 4351 
Q 794 4444 928 4444 
z
M 1188 2947 
L 1188 647 
Q 1188 378 1227 289 
Q 1266 200 1342 156 
Q 1419 113 1622 113 
L 1622 0 
L 231 0 
L 231 113 
Q 441 113 512 153 
Q 584 194 626 287 
Q 669 381 669 647 
L 669 1750 
Q 669 2216 641 2353 
Q 619 2453 572 2492 
Q 525 2531 444 2531 
Q 356 2531 231 2484 
L 188 2597 
L 1050 2947 
L 1188 2947 
z
" transform="scale(0.015625)"/>
       <path id="TimesNewRomanPSMT-65" d="M 681 1784 
Q 678 1147 991 784 
Q 1303 422 1725 422 
Q 2006 422 2214 576 
Q 2422 731 2563 1106 
L 2659 1044 
Q 2594 616 2278 264 
Q 1963 -88 1488 -88 
Q 972 -88 605 314 
Q 238 716 238 1394 
Q 238 2128 614 2539 
Q 991 2950 1559 2950 
Q 2041 2950 2350 2633 
Q 2659 2316 2659 1784 
L 681 1784 
z
M 681 1966 
L 2006 1966 
Q 1991 2241 1941 2353 
Q 1863 2528 1708 2628 
Q 1553 2728 1384 2728 
Q 1125 2728 920 2526 
Q 716 2325 681 1966 
z
" transform="scale(0.015625)"/>
       <path id="TimesNewRomanPSMT-6e" d="M 1034 2341 
Q 1538 2947 1994 2947 
Q 2228 2947 2397 2830 
Q 2566 2713 2666 2444 
Q 2734 2256 2734 1869 
L 2734 647 
Q 2734 375 2778 278 
Q 2813 200 2889 156 
Q 2966 113 3172 113 
L 3172 0 
L 1756 0 
L 1756 113 
L 1816 113 
Q 2016 113 2095 173 
Q 2175 234 2206 353 
Q 2219 400 2219 647 
L 2219 1819 
Q 2219 2209 2117 2386 
Q 2016 2563 1775 2563 
Q 1403 2563 1034 2156 
L 1034 647 
Q 1034 356 1069 288 
Q 1113 197 1189 155 
Q 1266 113 1500 113 
L 1500 0 
L 84 0 
L 84 113 
L 147 113 
Q 366 113 442 223 
Q 519 334 519 647 
L 519 1709 
Q 519 2225 495 2337 
Q 472 2450 423 2490 
Q 375 2531 294 2531 
Q 206 2531 84 2484 
L 38 2597 
L 900 2947 
L 1034 2947 
L 1034 2341 
z
" transform="scale(0.015625)"/>
       <path id="TimesNewRomanPSMT-74" d="M 1031 3803 
L 1031 2863 
L 1700 2863 
L 1700 2644 
L 1031 2644 
L 1031 788 
Q 1031 509 1111 412 
Q 1191 316 1316 316 
Q 1419 316 1516 380 
Q 1613 444 1666 569 
L 1788 569 
Q 1678 263 1478 108 
Q 1278 -47 1066 -47 
Q 922 -47 784 33 
Q 647 113 581 261 
Q 516 409 516 719 
L 516 2644 
L 63 2644 
L 63 2747 
Q 234 2816 414 2980 
Q 594 3144 734 3369 
Q 806 3488 934 3803 
L 1031 3803 
z
" transform="scale(0.015625)"/>
       <path id="TimesNewRomanPSMT-20" transform="scale(0.015625)"/>
       <path id="TimesNewRomanPSMT-56" d="M 4544 4238 
L 4544 4122 
Q 4319 4081 4203 3978 
Q 4038 3825 3909 3509 
L 2431 -97 
L 2316 -97 
L 728 3556 
Q 606 3838 556 3900 
Q 478 3997 364 4051 
Q 250 4106 56 4122 
L 56 4238 
L 1788 4238 
L 1788 4122 
Q 1494 4094 1406 4022 
Q 1319 3950 1319 3838 
Q 1319 3681 1463 3350 
L 2541 866 
L 3541 3319 
Q 3688 3681 3688 3822 
Q 3688 3913 3597 3995 
Q 3506 4078 3291 4113 
Q 3275 4116 3238 4122 
L 3238 4238 
L 4544 4238 
z
" transform="scale(0.015625)"/>
       <path id="TimesNewRomanPSMT-6c" d="M 1184 4444 
L 1184 647 
Q 1184 378 1223 290 
Q 1263 203 1344 158 
Q 1425 113 1647 113 
L 1647 0 
L 244 0 
L 244 113 
Q 441 113 512 153 
Q 584 194 625 287 
Q 666 381 666 647 
L 666 3247 
Q 666 3731 644 3842 
Q 622 3953 573 3993 
Q 525 4034 450 4034 
Q 369 4034 244 3984 
L 191 4094 
L 1044 4444 
L 1184 4444 
z
" transform="scale(0.015625)"/>
       <path id="TimesNewRomanPSMT-75" d="M 2709 2863 
L 2709 1128 
Q 2709 631 2732 520 
Q 2756 409 2807 365 
Q 2859 322 2928 322 
Q 3025 322 3147 375 
L 3191 266 
L 2334 -88 
L 2194 -88 
L 2194 519 
Q 1825 119 1631 15 
Q 1438 -88 1222 -88 
Q 981 -88 804 51 
Q 628 191 559 409 
Q 491 628 491 1028 
L 491 2306 
Q 491 2509 447 2587 
Q 403 2666 317 2708 
Q 231 2750 6 2747 
L 6 2863 
L 1009 2863 
L 1009 947 
Q 1009 547 1148 422 
Q 1288 297 1484 297 
Q 1619 297 1789 381 
Q 1959 466 2194 703 
L 2194 2325 
Q 2194 2569 2105 2655 
Q 2016 2741 1734 2747 
L 1734 2863 
L 2709 2863 
z
" transform="scale(0.015625)"/>
      </defs>
      <use xlink:href="#TimesNewRomanPSMT-47"/>
      <use xlink:href="#TimesNewRomanPSMT-72" transform="translate(72.216797 0)"/>
      <use xlink:href="#TimesNewRomanPSMT-61" transform="translate(105.517578 0)"/>
      <use xlink:href="#TimesNewRomanPSMT-64" transform="translate(149.902344 0)"/>
      <use xlink:href="#TimesNewRomanPSMT-69" transform="translate(199.902344 0)"/>
      <use xlink:href="#TimesNewRomanPSMT-65" transform="translate(227.685547 0)"/>
      <use xlink:href="#TimesNewRomanPSMT-6e" transform="translate(272.070312 0)"/>
      <use xlink:href="#TimesNewRomanPSMT-74" transform="translate(322.070312 0)"/>
      <use xlink:href="#TimesNewRomanPSMT-20" transform="translate(349.853516 0)"/>
      <use xlink:href="#TimesNewRomanPSMT-56" transform="translate(373.103516 0)"/>
      <use xlink:href="#TimesNewRomanPSMT-61" transform="translate(434.195312 0)"/>
      <use xlink:href="#TimesNewRomanPSMT-6c" transform="translate(478.580078 0)"/>
      <use xlink:href="#TimesNewRomanPSMT-75" transform="translate(506.363281 0)"/>
      <use xlink:href="#TimesNewRomanPSMT-65" transform="translate(556.363281 0)"/>
     </g>
    </g>
   </g>
   <g id="matplotlib.axis_2">
    <g id="ytick_1">
     <g id="line2d_19">
      <path d="M 32.801563 236.81358 
L 521.777562 236.81358 
" clip-path="url(#p6c88ecf9e7)" style="fill: none; stroke: #b0b0b0; stroke-opacity: 0.3; stroke-width: 0.5; stroke-linecap: square"/>
     </g>
     <g id="line2d_20">
      <defs>
       <path id="m3eb8b2b441" d="M 0 0 
L 3 0 
" style="stroke: #000000; stroke-width: 0.8"/>
      </defs>
      <g>
       <use xlink:href="#m3eb8b2b441" x="32.801563" y="236.81358" style="stroke: #000000; stroke-width: 0.8"/>
      </g>
     </g>
     <g id="text_11">
      <!-- 0 -->
      <g transform="translate(24.801563 239.938267) scale(0.09 -0.09)">
       <use xlink:href="#TimesNewRomanPSMT-30"/>
      </g>
     </g>
    </g>
    <g id="ytick_2">
     <g id="line2d_21">
      <path d="M 32.801563 192.427572 
L 521.777562 192.427572 
" clip-path="url(#p6c88ecf9e7)" style="fill: none; stroke: #b0b0b0; stroke-opacity: 0.3; stroke-width: 0.5; stroke-linecap: square"/>
     </g>
     <g id="line2d_22">
      <g>
       <use xlink:href="#m3eb8b2b441" x="32.801563" y="192.427572" style="stroke: #000000; stroke-width: 0.8"/>
      </g>
     </g>
     <g id="text_12">
      <!-- 20 -->
      <g transform="translate(20.301563 195.552259) scale(0.09 -0.09)">
       <use xlink:href="#TimesNewRomanPSMT-32"/>
       <use xlink:href="#TimesNewRomanPSMT-30" transform="translate(50 0)"/>
      </g>
     </g>
    </g>
    <g id="ytick_3">
     <g id="line2d_23">
      <path d="M 32.801563 148.041564 
L 521.777562 148.041564 
" clip-path="url(#p6c88ecf9e7)" style="fill: none; stroke: #b0b0b0; stroke-opacity: 0.3; stroke-width: 0.5; stroke-linecap: square"/>
     </g>
     <g id="line2d_24">
      <g>
       <use xlink:href="#m3eb8b2b441" x="32.801563" y="148.041564" style="stroke: #000000; stroke-width: 0.8"/>
      </g>
     </g>
     <g id="text_13">
      <!-- 40 -->
      <g transform="translate(20.301563 151.166252) scale(0.09 -0.09)">
       <use xlink:href="#TimesNewRomanPSMT-34"/>
       <use xlink:href="#TimesNewRomanPSMT-30" transform="translate(50 0)"/>
      </g>
     </g>
    </g>
    <g id="ytick_4">
     <g id="line2d_25">
      <path d="M 32.801563 103.655556 
L 521.777562 103.655556 
" clip-path="url(#p6c88ecf9e7)" style="fill: none; stroke: #b0b0b0; stroke-opacity: 0.3; stroke-width: 0.5; stroke-linecap: square"/>
     </g>
     <g id="line2d_26">
      <g>
       <use xlink:href="#m3eb8b2b441" x="32.801563" y="103.655556" style="stroke: #000000; stroke-width: 0.8"/>
      </g>
     </g>
     <g id="text_14">
      <!-- 60 -->
      <g transform="translate(20.301563 106.780244) scale(0.09 -0.09)">
       <use xlink:href="#TimesNewRomanPSMT-36"/>
       <use xlink:href="#TimesNewRomanPSMT-30" transform="translate(50 0)"/>
      </g>
     </g>
    </g>
    <g id="ytick_5">
     <g id="line2d_27">
      <path d="M 32.801563 59.269549 
L 521.777562 59.269549 
" clip-path="url(#p6c88ecf9e7)" style="fill: none; stroke: #b0b0b0; stroke-opacity: 0.3; stroke-width: 0.5; stroke-linecap: square"/>
     </g>
     <g id="line2d_28">
      <g>
       <use xlink:href="#m3eb8b2b441" x="32.801563" y="59.269549" style="stroke: #000000; stroke-width: 0.8"/>
      </g>
     </g>
     <g id="text_15">
      <!-- 80 -->
      <g transform="translate(20.301563 62.394236) scale(0.09 -0.09)">
       <use xlink:href="#TimesNewRomanPSMT-38"/>
       <use xlink:href="#TimesNewRomanPSMT-30" transform="translate(50 0)"/>
      </g>
     </g>
    </g>
    <g id="text_16">
     <!-- Density -->
     <g transform="translate(14.14375 149.522813) rotate(-90) scale(0.1 -0.1)">
      <defs>
       <path id="TimesNewRomanPSMT-44" d="M 109 0 
L 109 116 
L 269 116 
Q 538 116 650 288 
Q 719 391 719 750 
L 719 3488 
Q 719 3884 631 3984 
Q 509 4122 269 4122 
L 109 4122 
L 109 4238 
L 1834 4238 
Q 2784 4238 3279 4022 
Q 3775 3806 4076 3303 
Q 4378 2800 4378 2141 
Q 4378 1256 3841 663 
Q 3238 0 2003 0 
L 109 0 
z
M 1319 306 
Q 1716 219 1984 219 
Q 2709 219 3187 728 
Q 3666 1238 3666 2109 
Q 3666 2988 3187 3494 
Q 2709 4000 1959 4000 
Q 1678 4000 1319 3909 
L 1319 306 
z
" transform="scale(0.015625)"/>
       <path id="TimesNewRomanPSMT-73" d="M 2050 2947 
L 2050 1972 
L 1947 1972 
Q 1828 2431 1642 2597 
Q 1456 2763 1169 2763 
Q 950 2763 815 2647 
Q 681 2531 681 2391 
Q 681 2216 781 2091 
Q 878 1963 1175 1819 
L 1631 1597 
Q 2266 1288 2266 781 
Q 2266 391 1970 151 
Q 1675 -88 1309 -88 
Q 1047 -88 709 6 
Q 606 38 541 38 
Q 469 38 428 -44 
L 325 -44 
L 325 978 
L 428 978 
Q 516 541 762 319 
Q 1009 97 1316 97 
Q 1531 97 1667 223 
Q 1803 350 1803 528 
Q 1803 744 1651 891 
Q 1500 1038 1047 1263 
Q 594 1488 453 1669 
Q 313 1847 313 2119 
Q 313 2472 555 2709 
Q 797 2947 1181 2947 
Q 1350 2947 1591 2875 
Q 1750 2828 1803 2828 
Q 1853 2828 1881 2850 
Q 1909 2872 1947 2947 
L 2050 2947 
z
" transform="scale(0.015625)"/>
       <path id="TimesNewRomanPSMT-79" d="M 38 2863 
L 1372 2863 
L 1372 2747 
L 1306 2747 
Q 1166 2747 1095 2686 
Q 1025 2625 1025 2534 
Q 1025 2413 1128 2197 
L 1825 753 
L 2466 2334 
Q 2519 2463 2519 2588 
Q 2519 2644 2497 2672 
Q 2472 2706 2419 2726 
Q 2366 2747 2231 2747 
L 2231 2863 
L 3163 2863 
L 3163 2747 
Q 3047 2734 2984 2696 
Q 2922 2659 2847 2556 
Q 2819 2513 2741 2316 
L 1575 -541 
Q 1406 -956 1132 -1168 
Q 859 -1381 606 -1381 
Q 422 -1381 303 -1275 
Q 184 -1169 184 -1031 
Q 184 -900 270 -820 
Q 356 -741 506 -741 
Q 609 -741 788 -809 
Q 913 -856 944 -856 
Q 1038 -856 1148 -759 
Q 1259 -663 1372 -384 
L 1575 113 
L 547 2272 
Q 500 2369 397 2513 
Q 319 2622 269 2659 
Q 197 2709 38 2747 
L 38 2863 
z
" transform="scale(0.015625)"/>
      </defs>
      <use xlink:href="#TimesNewRomanPSMT-44"/>
      <use xlink:href="#TimesNewRomanPSMT-65" transform="translate(72.216797 0)"/>
      <use xlink:href="#TimesNewRomanPSMT-6e" transform="translate(116.601562 0)"/>
      <use xlink:href="#TimesNewRomanPSMT-73" transform="translate(166.601562 0)"/>
      <use xlink:href="#TimesNewRomanPSMT-69" transform="translate(205.517578 0)"/>
      <use xlink:href="#TimesNewRomanPSMT-74" transform="translate(233.300781 0)"/>
      <use xlink:href="#TimesNewRomanPSMT-79" transform="translate(261.083984 0)"/>
     </g>
    </g>
   </g>
   <g id="line2d_29">
    <path d="M 55.027744 236.404301 
L 59.859523 236.537761 
L 64.691302 236.671222 
L 69.52308 236.804682 
L 74.354859 236.81358 
L 79.186638 236.81358 
L 84.018416 236.81358 
L 88.850195 236.81358 
L 93.681974 236.81358 
L 98.513752 236.81358 
L 103.345531 236.81358 
L 108.17731 236.81358 
L 113.009088 236.81358 
L 117.840867 236.81358 
L 122.672646 236.81358 
L 127.504424 236.81358 
L 132.336203 236.81358 
L 137.167981 236.81358 
L 141.99976 236.81358 
L 146.831539 236.653427 
L 151.663317 236.386506 
L 156.495096 236.119585 
L 161.326875 235.852664 
L 166.158653 235.585743 
L 170.990432 235.318822 
L 175.822211 235.42559 
L 180.653989 235.959432 
L 185.485768 236.493274 
L 190.317547 236.653427 
L 195.149325 236.253045 
L 199.981104 235.852664 
L 204.812883 235.674716 
L 209.644661 235.941637 
L 214.47644 236.208558 
L 219.308219 236.261943 
L 224.139997 235.728101 
L 228.971776 235.194258 
L 233.803555 234.553648 
L 238.635333 233.485964 
L 243.467112 232.418279 
L 248.298891 231.3328 
L 253.130669 230.131656 
L 257.962448 228.930511 
L 262.794227 227.667085 
L 267.626005 225.531716 
L 272.457784 223.396348 
L 277.289562 221.260979 
L 282.121341 218.591769 
L 286.95312 215.922558 
L 291.784898 213.253347 
L 296.616677 208.342 
L 301.448456 203.2705 
L 306.280234 198.199 
L 311.112013 187.806873 
L 315.943792 176.596188 
L 320.77557 165.385504 
L 325.607349 156.523725 
L 330.439128 148.249172 
L 335.270906 139.974619 
L 340.102685 146.87008 
L 344.934464 159.281909 
L 349.766242 171.693738 
L 354.598021 181.436357 
L 359.4298 189.84437 
L 364.261578 198.252384 
L 369.093357 204.898718 
L 373.925136 210.3706 
L 378.756914 215.842482 
L 383.588693 219.606069 
L 388.420472 221.874898 
L 393.25225 224.143727 
L 398.084029 226.412556 
L 402.915808 228.681385 
L 407.747586 230.950214 
L 412.579365 232.525048 
L 417.411144 233.05889 
L 422.242922 233.592732 
L 427.074701 234.082087 
L 431.906479 234.482469 
L 436.738258 234.882851 
L 441.570037 235.283232 
L 446.401815 235.683614 
L 451.233594 236.083995 
L 456.065373 236.404301 
L 460.897151 236.404301 
L 465.72893 236.404301 
L 470.560709 236.404301 
L 475.392487 236.404301 
L 480.224266 236.404301 
L 485.056045 236.395403 
L 489.887823 236.261943 
L 494.719602 236.128482 
L 499.551381 235.995022 
" clip-path="url(#p6c88ecf9e7)" style="fill: none; stroke: #1f77b4; stroke-opacity: 0.9; stroke-width: 2; stroke-linecap: square"/>
   </g>
   <g id="line2d_30">
    <path d="M 207.001525 235.926149 
L 209.22992 236.215529 
L 211.458315 236.504908 
L 213.68671 236.794288 
L 215.915106 236.81358 
L 218.143501 236.81358 
L 220.371896 236.81358 
L 222.600291 236.311989 
L 224.828686 235.73323 
L 227.057081 235.154471 
L 229.285476 235.270223 
L 231.513871 235.559602 
L 233.742266 235.848981 
L 235.970662 236.138361 
L 238.199057 236.42774 
L 240.427452 236.71712 
L 242.655847 236.42774 
L 244.884242 235.848981 
L 247.112637 235.270223 
L 249.341032 234.865091 
L 251.569427 234.575712 
L 253.797822 234.286332 
L 256.026218 234.614296 
L 258.254613 235.482434 
L 260.483008 236.350572 
L 262.711403 236.543492 
L 264.939798 235.964733 
L 267.168193 235.385974 
L 269.396588 233.996953 
L 271.624983 231.392538 
L 273.853379 228.788123 
L 276.081774 227.148306 
L 278.310169 227.437686 
L 280.538564 227.727065 
L 282.766959 227.553437 
L 284.995354 226.10654 
L 287.223749 224.659643 
L 289.452144 223.386373 
L 291.680539 222.807614 
L 293.908935 222.228856 
L 296.13733 221.534345 
L 298.365725 220.087448 
L 300.59412 218.64055 
L 302.822515 216.76923 
L 305.05091 208.955985 
L 307.279305 201.14274 
L 309.5077 193.329495 
L 311.736095 180.596799 
L 313.964491 167.864104 
L 316.192886 155.131408 
L 318.421281 148.610725 
L 320.649676 142.533757 
L 322.878071 136.456788 
L 325.106466 104.04629 
L 327.334861 67.58448 
L 329.563256 31.12267 
L 331.791652 41.656082 
L 334.020047 63.938299 
L 336.248442 86.220517 
L 338.476837 103.197444 
L 340.705232 118.245175 
L 342.933627 133.292906 
L 345.162022 150.269834 
L 347.390417 168.211359 
L 349.618812 186.152885 
L 351.847208 195.93391 
L 354.075603 200.274602 
L 356.303998 204.615293 
L 358.532393 207.412628 
L 360.760788 208.859525 
L 362.989183 210.306422 
L 365.217578 213.778976 
L 367.445973 219.566565 
L 369.674368 225.354154 
L 371.902764 228.710955 
L 374.131159 228.421576 
L 376.359554 228.132196 
L 378.587949 228.518035 
L 380.816344 230.254312 
L 383.044739 231.990589 
L 385.273134 233.341026 
L 387.501529 233.630406 
L 389.729924 233.919785 
L 391.95832 234.324916 
L 394.186715 235.193055 
L 396.41511 236.061193 
L 398.643505 236.697828 
L 400.8719 235.829689 
L 403.100295 234.961551 
L 405.32869 234.151289 
L 407.557085 234.151289 
L 409.785481 234.151289 
L 412.013876 234.151289 
" clip-path="url(#p6c88ecf9e7)" style="fill: none; stroke: #ff7f0e; stroke-opacity: 0.9; stroke-width: 2; stroke-linecap: square"/>
   </g>
   <g id="line2d_31">
    <path d="M 331.757631 247.098125 
L 331.757631 20.838125 
" clip-path="url(#p6c88ecf9e7)" style="fill: none; stroke-dasharray: 5.55,2.4; stroke-dashoffset: 0; stroke: #ff0000; stroke-opacity: 0.8; stroke-width: 1.5"/>
   </g>
   <g id="patch_3">
    <path d="M 32.801563 247.098125 
L 32.801563 20.838125 
" style="fill: none; stroke: #000000; stroke-width: 0.8; stroke-linejoin: miter; stroke-linecap: square"/>
   </g>
   <g id="patch_4">
    <path d="M 32.801562 247.098125 
L 521.777562 247.098125 
" style="fill: none; stroke: #000000; stroke-width: 0.8; stroke-linejoin: miter; stroke-linecap: square"/>
   </g>
   <g id="text_17">
    <!-- Gradient Distributions (Epoch-Agg) -->
    <g transform="translate(197.555891 14.838125) scale(0.11 -0.11)">
     <defs>
      <path id="TimesNewRomanPSMT-62" d="M 984 2369 
Q 1400 2947 1881 2947 
Q 2322 2947 2650 2570 
Q 2978 2194 2978 1541 
Q 2978 778 2472 313 
Q 2038 -88 1503 -88 
Q 1253 -88 995 3 
Q 738 94 469 275 
L 469 3241 
Q 469 3728 445 3840 
Q 422 3953 372 3993 
Q 322 4034 247 4034 
Q 159 4034 28 3984 
L -16 4094 
L 844 4444 
L 984 4444 
L 984 2369 
z
M 984 2169 
L 984 456 
Q 1144 300 1314 220 
Q 1484 141 1663 141 
Q 1947 141 2192 453 
Q 2438 766 2438 1363 
Q 2438 1913 2192 2208 
Q 1947 2503 1634 2503 
Q 1469 2503 1303 2419 
Q 1178 2356 984 2169 
z
" transform="scale(0.015625)"/>
      <path id="TimesNewRomanPSMT-6f" d="M 1600 2947 
Q 2250 2947 2644 2453 
Q 2978 2031 2978 1484 
Q 2978 1100 2793 706 
Q 2609 313 2286 112 
Q 1963 -88 1566 -88 
Q 919 -88 538 428 
Q 216 863 216 1403 
Q 216 1797 411 2186 
Q 606 2575 925 2761 
Q 1244 2947 1600 2947 
z
M 1503 2744 
Q 1338 2744 1170 2645 
Q 1003 2547 900 2300 
Q 797 2053 797 1666 
Q 797 1041 1045 587 
Q 1294 134 1700 134 
Q 2003 134 2200 384 
Q 2397 634 2397 1244 
Q 2397 2006 2069 2444 
Q 1847 2744 1503 2744 
z
" transform="scale(0.015625)"/>
      <path id="TimesNewRomanPSMT-28" d="M 1988 -1253 
L 1988 -1369 
Q 1516 -1131 1200 -813 
Q 750 -359 506 256 
Q 263 872 263 1534 
Q 263 2503 741 3301 
Q 1219 4100 1988 4444 
L 1988 4313 
Q 1603 4100 1356 3731 
Q 1109 3363 987 2797 
Q 866 2231 866 1616 
Q 866 947 969 400 
Q 1050 -31 1165 -292 
Q 1281 -553 1476 -793 
Q 1672 -1034 1988 -1253 
z
" transform="scale(0.015625)"/>
      <path id="TimesNewRomanPSMT-45" d="M 1338 4006 
L 1338 2331 
L 2269 2331 
Q 2631 2331 2753 2441 
Q 2916 2584 2934 2947 
L 3050 2947 
L 3050 1472 
L 2934 1472 
Q 2891 1781 2847 1869 
Q 2791 1978 2662 2040 
Q 2534 2103 2269 2103 
L 1338 2103 
L 1338 706 
Q 1338 425 1363 364 
Q 1388 303 1450 267 
Q 1513 231 1688 231 
L 2406 231 
Q 2766 231 2928 281 
Q 3091 331 3241 478 
Q 3434 672 3638 1063 
L 3763 1063 
L 3397 0 
L 131 0 
L 131 116 
L 281 116 
Q 431 116 566 188 
Q 666 238 702 338 
Q 738 438 738 747 
L 738 3500 
Q 738 3903 656 3997 
Q 544 4122 281 4122 
L 131 4122 
L 131 4238 
L 3397 4238 
L 3444 3309 
L 3322 3309 
Q 3256 3644 3176 3769 
Q 3097 3894 2941 3959 
Q 2816 4006 2500 4006 
L 1338 4006 
z
" transform="scale(0.015625)"/>
      <path id="TimesNewRomanPSMT-70" d="M -6 2578 
L 875 2934 
L 994 2934 
L 994 2266 
Q 1216 2644 1439 2795 
Q 1663 2947 1909 2947 
Q 2341 2947 2628 2609 
Q 2981 2197 2981 1534 
Q 2981 794 2556 309 
Q 2206 -88 1675 -88 
Q 1444 -88 1275 -22 
Q 1150 25 994 166 
L 994 -706 
Q 994 -1000 1030 -1079 
Q 1066 -1159 1155 -1206 
Q 1244 -1253 1478 -1253 
L 1478 -1369 
L -22 -1369 
L -22 -1253 
L 56 -1253 
Q 228 -1256 350 -1188 
Q 409 -1153 442 -1076 
Q 475 -1000 475 -688 
L 475 2019 
Q 475 2297 450 2372 
Q 425 2447 370 2484 
Q 316 2522 222 2522 
Q 147 2522 31 2478 
L -6 2578 
z
M 994 2081 
L 994 1013 
Q 994 666 1022 556 
Q 1066 375 1236 237 
Q 1406 100 1666 100 
Q 1978 100 2172 344 
Q 2425 663 2425 1241 
Q 2425 1897 2138 2250 
Q 1938 2494 1663 2494 
Q 1513 2494 1366 2419 
Q 1253 2363 994 2081 
z
" transform="scale(0.015625)"/>
      <path id="TimesNewRomanPSMT-63" d="M 2631 1088 
Q 2516 522 2178 217 
Q 1841 -88 1431 -88 
Q 944 -88 581 321 
Q 219 731 219 1428 
Q 219 2103 620 2525 
Q 1022 2947 1584 2947 
Q 2006 2947 2278 2723 
Q 2550 2500 2550 2259 
Q 2550 2141 2473 2067 
Q 2397 1994 2259 1994 
Q 2075 1994 1981 2113 
Q 1928 2178 1911 2362 
Q 1894 2547 1784 2644 
Q 1675 2738 1481 2738 
Q 1169 2738 978 2506 
Q 725 2200 725 1697 
Q 725 1184 976 792 
Q 1228 400 1656 400 
Q 1963 400 2206 609 
Q 2378 753 2541 1131 
L 2631 1088 
z
" transform="scale(0.015625)"/>
      <path id="TimesNewRomanPSMT-68" d="M 1041 4444 
L 1041 2350 
Q 1388 2731 1591 2839 
Q 1794 2947 1997 2947 
Q 2241 2947 2416 2812 
Q 2591 2678 2675 2391 
Q 2734 2191 2734 1659 
L 2734 647 
Q 2734 375 2778 275 
Q 2809 200 2884 156 
Q 2959 113 3159 113 
L 3159 0 
L 1753 0 
L 1753 113 
L 1819 113 
Q 2019 113 2097 173 
Q 2175 234 2206 353 
Q 2216 403 2216 647 
L 2216 1659 
Q 2216 2128 2167 2275 
Q 2119 2422 2012 2495 
Q 1906 2569 1756 2569 
Q 1603 2569 1437 2487 
Q 1272 2406 1041 2159 
L 1041 647 
Q 1041 353 1073 281 
Q 1106 209 1195 161 
Q 1284 113 1503 113 
L 1503 0 
L 84 0 
L 84 113 
Q 275 113 384 172 
Q 447 203 484 290 
Q 522 378 522 647 
L 522 3238 
Q 522 3728 498 3840 
Q 475 3953 426 3993 
Q 378 4034 297 4034 
Q 231 4034 84 3984 
L 41 4094 
L 897 4444 
L 1041 4444 
z
" transform="scale(0.015625)"/>
      <path id="TimesNewRomanPSMT-2d" d="M 259 1672 
L 1875 1672 
L 1875 1200 
L 259 1200 
L 259 1672 
z
" transform="scale(0.015625)"/>
      <path id="TimesNewRomanPSMT-41" d="M 2928 1419 
L 1288 1419 
L 1000 750 
Q 894 503 894 381 
Q 894 284 986 211 
Q 1078 138 1384 116 
L 1384 0 
L 50 0 
L 50 116 
Q 316 163 394 238 
Q 553 388 747 847 
L 2238 4334 
L 2347 4334 
L 3822 809 
Q 4000 384 4145 257 
Q 4291 131 4550 116 
L 4550 0 
L 2878 0 
L 2878 116 
Q 3131 128 3220 200 
Q 3309 272 3309 375 
Q 3309 513 3184 809 
L 2928 1419 
z
M 2841 1650 
L 2122 3363 
L 1384 1650 
L 2841 1650 
z
" transform="scale(0.015625)"/>
      <path id="TimesNewRomanPSMT-67" d="M 966 1044 
Q 703 1172 562 1401 
Q 422 1631 422 1909 
Q 422 2334 742 2640 
Q 1063 2947 1563 2947 
Q 1972 2947 2272 2747 
L 2878 2747 
Q 3013 2747 3034 2739 
Q 3056 2731 3066 2713 
Q 3084 2684 3084 2613 
Q 3084 2531 3069 2500 
Q 3059 2484 3036 2475 
Q 3013 2466 2878 2466 
L 2506 2466 
Q 2681 2241 2681 1891 
Q 2681 1491 2375 1206 
Q 2069 922 1553 922 
Q 1341 922 1119 984 
Q 981 866 932 777 
Q 884 688 884 625 
Q 884 572 936 522 
Q 988 472 1138 450 
Q 1225 438 1575 428 
Q 2219 413 2409 384 
Q 2700 344 2873 169 
Q 3047 -6 3047 -263 
Q 3047 -616 2716 -925 
Q 2228 -1381 1444 -1381 
Q 841 -1381 425 -1109 
Q 191 -953 191 -784 
Q 191 -709 225 -634 
Q 278 -519 444 -313 
Q 466 -284 763 25 
Q 600 122 533 198 
Q 466 275 466 372 
Q 466 481 555 628 
Q 644 775 966 1044 
z
M 1509 2797 
Q 1278 2797 1122 2612 
Q 966 2428 966 2047 
Q 966 1553 1178 1281 
Q 1341 1075 1591 1075 
Q 1828 1075 1981 1253 
Q 2134 1431 2134 1813 
Q 2134 2309 1919 2591 
Q 1759 2797 1509 2797 
z
M 934 0 
Q 788 -159 713 -296 
Q 638 -434 638 -550 
Q 638 -700 819 -813 
Q 1131 -1006 1722 -1006 
Q 2284 -1006 2551 -807 
Q 2819 -609 2819 -384 
Q 2819 -222 2659 -153 
Q 2497 -84 2016 -72 
Q 1313 -53 934 0 
z
" transform="scale(0.015625)"/>
      <path id="TimesNewRomanPSMT-29" d="M 144 4313 
L 144 4444 
Q 619 4209 934 3891 
Q 1381 3434 1625 2820 
Q 1869 2206 1869 1541 
Q 1869 572 1392 -226 
Q 916 -1025 144 -1369 
L 144 -1253 
Q 528 -1038 776 -670 
Q 1025 -303 1145 264 
Q 1266 831 1266 1447 
Q 1266 2113 1163 2663 
Q 1084 3094 967 3353 
Q 850 3613 656 3853 
Q 463 4094 144 4313 
z
" transform="scale(0.015625)"/>
     </defs>
     <use xlink:href="#TimesNewRomanPSMT-47"/>
     <use xlink:href="#TimesNewRomanPSMT-72" transform="translate(72.216797 0)"/>
     <use xlink:href="#TimesNewRomanPSMT-61" transform="translate(105.517578 0)"/>
     <use xlink:href="#TimesNewRomanPSMT-64" transform="translate(149.902344 0)"/>
     <use xlink:href="#TimesNewRomanPSMT-69" transform="translate(199.902344 0)"/>
     <use xlink:href="#TimesNewRomanPSMT-65" transform="translate(227.685547 0)"/>
     <use xlink:href="#TimesNewRomanPSMT-6e" transform="translate(272.070312 0)"/>
     <use xlink:href="#TimesNewRomanPSMT-74" transform="translate(322.070312 0)"/>
     <use xlink:href="#TimesNewRomanPSMT-20" transform="translate(349.853516 0)"/>
     <use xlink:href="#TimesNewRomanPSMT-44" transform="translate(374.853516 0)"/>
     <use xlink:href="#TimesNewRomanPSMT-69" transform="translate(447.070312 0)"/>
     <use xlink:href="#TimesNewRomanPSMT-73" transform="translate(474.853516 0)"/>
     <use xlink:href="#TimesNewRomanPSMT-74" transform="translate(513.769531 0)"/>
     <use xlink:href="#TimesNewRomanPSMT-72" transform="translate(541.552734 0)"/>
     <use xlink:href="#TimesNewRomanPSMT-69" transform="translate(574.853516 0)"/>
     <use xlink:href="#TimesNewRomanPSMT-62" transform="translate(602.636719 0)"/>
     <use xlink:href="#TimesNewRomanPSMT-75" transform="translate(652.636719 0)"/>
     <use xlink:href="#TimesNewRomanPSMT-74" transform="translate(702.636719 0)"/>
     <use xlink:href="#TimesNewRomanPSMT-69" transform="translate(730.419922 0)"/>
     <use xlink:href="#TimesNewRomanPSMT-6f" transform="translate(758.203125 0)"/>
     <use xlink:href="#TimesNewRomanPSMT-6e" transform="translate(808.203125 0)"/>
     <use xlink:href="#TimesNewRomanPSMT-73" transform="translate(858.203125 0)"/>
     <use xlink:href="#TimesNewRomanPSMT-20" transform="translate(897.119141 0)"/>
     <use xlink:href="#TimesNewRomanPSMT-28" transform="translate(922.119141 0)"/>
     <use xlink:href="#TimesNewRomanPSMT-45" transform="translate(955.419922 0)"/>
     <use xlink:href="#TimesNewRomanPSMT-70" transform="translate(1016.503906 0)"/>
     <use xlink:href="#TimesNewRomanPSMT-6f" transform="translate(1066.503906 0)"/>
     <use xlink:href="#TimesNewRomanPSMT-63" transform="translate(1116.503906 0)"/>
     <use xlink:href="#TimesNewRomanPSMT-68" transform="translate(1160.888672 0)"/>
     <use xlink:href="#TimesNewRomanPSMT-2d" transform="translate(1210.888672 0)"/>
     <use xlink:href="#TimesNewRomanPSMT-41" transform="translate(1244.189453 0)"/>
     <use xlink:href="#TimesNewRomanPSMT-67" transform="translate(1316.40625 0)"/>
     <use xlink:href="#TimesNewRomanPSMT-67" transform="translate(1366.40625 0)"/>
     <use xlink:href="#TimesNewRomanPSMT-29" transform="translate(1416.40625 0)"/>
    </g>
   </g>
   <g id="legend_1">
    <g id="line2d_32">
     <path d="M 539.657083 32.088125 
L 548.657083 32.088125 
L 557.657083 32.088125 
" style="fill: none; stroke: #1f77b4; stroke-opacity: 0.9; stroke-width: 2; stroke-linecap: square"/>
    </g>
    <g id="text_18">
     <!-- Layer 1 (n=1000) -->
     <g transform="translate(564.857083 35.238125) scale(0.09 -0.09)">
      <defs>
       <path id="TimesNewRomanPSMT-4c" d="M 3669 1172 
L 3772 1150 
L 3409 0 
L 128 0 
L 128 116 
L 288 116 
Q 556 116 672 291 
Q 738 391 738 753 
L 738 3488 
Q 738 3884 650 3984 
Q 528 4122 288 4122 
L 128 4122 
L 128 4238 
L 2047 4238 
L 2047 4122 
Q 1709 4125 1573 4059 
Q 1438 3994 1388 3894 
Q 1338 3794 1338 3416 
L 1338 753 
Q 1338 494 1388 397 
Q 1425 331 1503 300 
Q 1581 269 1991 269 
L 2300 269 
Q 2788 269 2984 341 
Q 3181 413 3343 595 
Q 3506 778 3669 1172 
z
" transform="scale(0.015625)"/>
       <path id="TimesNewRomanPSMT-3d" d="M 116 2759 
L 3488 2759 
L 3488 2503 
L 116 2503 
L 116 2759 
z
M 116 1741 
L 3488 1741 
L 3488 1484 
L 116 1484 
L 116 1741 
z
" transform="scale(0.015625)"/>
      </defs>
      <use xlink:href="#TimesNewRomanPSMT-4c"/>
      <use xlink:href="#TimesNewRomanPSMT-61" transform="translate(61.083984 0)"/>
      <use xlink:href="#TimesNewRomanPSMT-79" transform="translate(105.46875 0)"/>
      <use xlink:href="#TimesNewRomanPSMT-65" transform="translate(155.46875 0)"/>
      <use xlink:href="#TimesNewRomanPSMT-72" transform="translate(199.853516 0)"/>
      <use xlink:href="#TimesNewRomanPSMT-20" transform="translate(233.154297 0)"/>
      <use xlink:href="#TimesNewRomanPSMT-31" transform="translate(258.154297 0)"/>
      <use xlink:href="#TimesNewRomanPSMT-20" transform="translate(308.154297 0)"/>
      <use xlink:href="#TimesNewRomanPSMT-28" transform="translate(333.154297 0)"/>
      <use xlink:href="#TimesNewRomanPSMT-6e" transform="translate(366.455078 0)"/>
      <use xlink:href="#TimesNewRomanPSMT-3d" transform="translate(416.455078 0)"/>
      <use xlink:href="#TimesNewRomanPSMT-31" transform="translate(472.851562 0)"/>
      <use xlink:href="#TimesNewRomanPSMT-30" transform="translate(522.851562 0)"/>
      <use xlink:href="#TimesNewRomanPSMT-30" transform="translate(572.851562 0)"/>
      <use xlink:href="#TimesNewRomanPSMT-30" transform="translate(622.851562 0)"/>
      <use xlink:href="#TimesNewRomanPSMT-29" transform="translate(672.851562 0)"/>
     </g>
    </g>
    <g id="line2d_33">
     <path d="M 539.657083 44.830156 
L 548.657083 44.830156 
L 557.657083 44.830156 
" style="fill: none; stroke: #ff7f0e; stroke-opacity: 0.9; stroke-width: 2; stroke-linecap: square"/>
    </g>
    <g id="text_19">
     <!-- Layer 2 (n=1000) -->
     <g transform="translate(564.857083 47.980156) scale(0.09 -0.09)">
      <use xlink:href="#TimesNewRomanPSMT-4c"/>
      <use xlink:href="#TimesNewRomanPSMT-61" transform="translate(61.083984 0)"/>
      <use xlink:href="#TimesNewRomanPSMT-79" transform="translate(105.46875 0)"/>
      <use xlink:href="#TimesNewRomanPSMT-65" transform="translate(155.46875 0)"/>
      <use xlink:href="#TimesNewRomanPSMT-72" transform="translate(199.853516 0)"/>
      <use xlink:href="#TimesNewRomanPSMT-20" transform="translate(233.154297 0)"/>
      <use xlink:href="#TimesNewRomanPSMT-32" transform="translate(258.154297 0)"/>
      <use xlink:href="#TimesNewRomanPSMT-20" transform="translate(308.154297 0)"/>
      <use xlink:href="#TimesNewRomanPSMT-28" transform="translate(333.154297 0)"/>
      <use xlink:href="#TimesNewRomanPSMT-6e" transform="translate(366.455078 0)"/>
      <use xlink:href="#TimesNewRomanPSMT-3d" transform="translate(416.455078 0)"/>
      <use xlink:href="#TimesNewRomanPSMT-31" transform="translate(472.851562 0)"/>
      <use xlink:href="#TimesNewRomanPSMT-30" transform="translate(522.851562 0)"/>
      <use xlink:href="#TimesNewRomanPSMT-30" transform="translate(572.851562 0)"/>
      <use xlink:href="#TimesNewRomanPSMT-30" transform="translate(622.851562 0)"/>
      <use xlink:href="#TimesNewRomanPSMT-29" transform="translate(672.851562 0)"/>
     </g>
    </g>
    <g id="line2d_34">
     <path d="M 539.657083 57.572187 
L 548.657083 57.572187 
L 557.657083 57.572187 
" style="fill: none; stroke-dasharray: 5.55,2.4; stroke-dashoffset: 0; stroke: #ff0000; stroke-opacity: 0.8; stroke-width: 1.5"/>
    </g>
    <g id="text_20">
     <!-- Zero line -->
     <g transform="translate(564.857083 60.722187) scale(0.09 -0.09)">
      <defs>
       <path id="TimesNewRomanPSMT-5a" d="M 3681 4238 
L 897 256 
L 2634 256 
Q 3034 256 3248 431 
Q 3463 606 3628 1141 
L 3731 1122 
L 3531 0 
L 81 0 
L 81 116 
L 2800 3984 
L 1444 3984 
Q 1106 3984 954 3911 
Q 803 3838 723 3698 
Q 644 3559 578 3178 
L 459 3178 
L 547 4238 
L 3681 4238 
z
" transform="scale(0.015625)"/>
      </defs>
      <use xlink:href="#TimesNewRomanPSMT-5a"/>
      <use xlink:href="#TimesNewRomanPSMT-65" transform="translate(61.083984 0)"/>
      <use xlink:href="#TimesNewRomanPSMT-72" transform="translate(105.46875 0)"/>
      <use xlink:href="#TimesNewRomanPSMT-6f" transform="translate(138.769531 0)"/>
      <use xlink:href="#TimesNewRomanPSMT-20" transform="translate(188.769531 0)"/>
      <use xlink:href="#TimesNewRomanPSMT-6c" transform="translate(213.769531 0)"/>
      <use xlink:href="#TimesNewRomanPSMT-69" transform="translate(241.552734 0)"/>
      <use xlink:href="#TimesNewRomanPSMT-6e" transform="translate(269.335938 0)"/>
      <use xlink:href="#TimesNewRomanPSMT-65" transform="translate(319.335938 0)"/>
     </g>
    </g>
   </g>
  </g>
 </g>
 <defs>
  <clipPath id="p6c88ecf9e7">
   <rect x="32.801563" y="20.838125" width="488.976" height="226.26"/>
  </clipPath>
 </defs>
</svg>
