<?xml version="1.0" encoding="utf-8" standalone="no"?>
<!DOCTYPE svg PUBLIC "-//W3C//DTD SVG 1.1//EN"
  "http://www.w3.org/Graphics/SVG/1.1/DTD/svg11.dtd">
<svg xmlns:xlink="http://www.w3.org/1999/xlink" width="621.312812pt" height="260.655469pt" viewBox="0 0 621.312812 260.655469" xmlns="http://www.w3.org/2000/svg" version="1.1">
 <metadata>
  <rdf:RDF xmlns:dc="http://purl.org/dc/elements/1.1/" xmlns:cc="http://creativecommons.org/ns#" xmlns:rdf="http://www.w3.org/1999/02/22-rdf-syntax-ns#">
   <cc:Work>
    <dc:type rdf:resource="http://purl.org/dc/dcmitype/StillImage"/>
    <dc:date>2025-09-22T11:24:24.780976</dc:date>
    <dc:format>image/svg+xml</dc:format>
    <dc:creator>
     <cc:Agent>
      <dc:title>Matplotlib v3.10.6, https://matplotlib.org/</dc:title>
     </cc:Agent>
    </dc:creator>
   </cc:Work>
  </rdf:RDF>
 </metadata>
 <defs>
  <style type="text/css">*{stroke-linejoin: round; stroke-linecap: butt}</style>
 </defs>
 <g id="figure_1">
  <g id="patch_1">
   <path d="M 0 260.655469 
L 621.312812 260.655469 
L 621.312812 0 
L 0 0 
z
" style="fill: #ffffff"/>
  </g>
  <g id="axes_1">
   <g id="patch_2">
    <path d="M 35.032813 228.698125 
L 297.817813 228.698125 
L 297.817813 20.838125 
L 35.032813 20.838125 
z
" style="fill: #ffffff"/>
   </g>
   <g id="FillBetweenPolyCollection_1">
    <defs>
     <path id="ma5067856a2" d="M 46.977585 -230.369162 
L 46.977585 -198.093356 
L 49.390671 -181.996662 
L 51.803756 -166.73586 
L 54.216841 -155.645083 
L 56.629927 -145.680077 
L 59.043012 -136.769855 
L 61.456098 -128.921245 
L 63.869183 -121.671868 
L 66.282268 -115.164695 
L 68.695354 -109.335886 
L 71.108439 -104.204824 
L 73.521525 -99.601159 
L 75.93461 -95.484828 
L 78.347695 -91.796343 
L 80.760781 -88.323577 
L 83.173866 -85.088764 
L 85.586952 -82.188929 
L 88.000037 -79.613542 
L 90.413122 -77.40575 
L 92.826208 -75.291822 
L 95.239293 -73.352318 
L 97.652379 -71.633016 
L 100.065464 -70.066582 
L 102.478549 -68.631791 
L 104.891635 -67.334887 
L 107.30472 -66.075391 
L 109.717806 -64.918744 
L 112.130891 -63.776108 
L 114.543976 -62.761035 
L 116.957062 -61.885348 
L 119.370147 -61.09206 
L 121.783233 -60.334445 
L 124.196318 -59.555952 
L 126.609403 -58.839343 
L 129.022489 -58.15894 
L 131.435574 -57.53801 
L 133.84866 -56.89522 
L 136.261745 -56.273411 
L 138.67483 -55.681736 
L 141.087916 -55.17127 
L 143.501001 -54.698104 
L 145.914087 -54.229673 
L 148.327172 -53.839693 
L 150.740257 -53.463897 
L 153.153343 -53.121678 
L 155.566428 -52.785678 
L 157.979514 -52.440705 
L 160.392599 -52.104921 
L 162.805684 -51.757593 
L 165.21877 -51.416745 
L 167.631855 -51.073765 
L 170.044941 -50.764228 
L 172.458026 -50.498258 
L 174.871111 -50.255529 
L 177.284197 -50.041686 
L 179.697282 -49.816619 
L 182.110368 -49.567065 
L 184.523453 -49.309516 
L 186.936538 -49.074627 
L 189.349624 -48.838348 
L 191.762709 -48.625406 
L 194.175795 -48.404763 
L 196.58888 -48.169522 
L 199.001965 -47.976741 
L 201.415051 -47.787877 
L 203.828136 -47.619275 
L 206.241222 -47.470984 
L 208.654307 -47.290383 
L 211.067392 -47.121703 
L 213.480478 -46.949408 
L 215.893563 -46.749763 
L 218.306649 -46.537312 
L 220.719734 -46.353097 
L 223.132819 -46.183075 
L 225.545905 -46.012342 
L 227.95899 -45.813639 
L 230.372076 -45.63521 
L 232.785161 -45.490909 
L 235.198246 -45.34246 
L 237.611332 -45.20264 
L 240.024417 -45.073179 
L 242.437503 -44.923315 
L 244.850588 -44.793414 
L 247.263673 -44.663293 
L 249.676759 -44.527812 
L 252.089844 -44.445532 
L 254.50293 -44.36257 
L 256.916015 -44.265498 
L 259.3291 -44.187249 
L 261.742186 -44.074383 
L 264.155271 -43.952022 
L 266.568357 -43.807207 
L 268.981442 -43.70862 
L 271.394527 -43.591139 
L 273.807613 -43.495667 
L 276.220698 -43.408368 
L 278.633784 -43.314496 
L 281.046869 -43.203378 
L 283.459954 -43.131588 
L 285.87304 -43.09222 
L 285.87304 -43.268415 
L 285.87304 -43.268415 
L 283.459954 -43.360141 
L 281.046869 -43.446856 
L 278.633784 -43.561591 
L 276.220698 -43.641352 
L 273.807613 -43.756906 
L 271.394527 -43.883136 
L 268.981442 -44.018729 
L 266.568357 -44.125916 
L 264.155271 -44.230624 
L 261.742186 -44.330175 
L 259.3291 -44.394393 
L 256.916015 -44.4909 
L 254.50293 -44.599741 
L 252.089844 -44.715753 
L 249.676759 -44.864872 
L 247.263673 -44.993969 
L 244.850588 -45.128123 
L 242.437503 -45.28354 
L 240.024417 -45.415768 
L 237.611332 -45.550153 
L 235.198246 -45.725705 
L 232.785161 -45.914129 
L 230.372076 -46.098746 
L 227.95899 -46.26056 
L 225.545905 -46.440115 
L 223.132819 -46.646981 
L 220.719734 -46.845584 
L 218.306649 -47.027 
L 215.893563 -47.21427 
L 213.480478 -47.376937 
L 211.067392 -47.539078 
L 208.654307 -47.712409 
L 206.241222 -47.868216 
L 203.828136 -48.068252 
L 201.415051 -48.288838 
L 199.001965 -48.502169 
L 196.58888 -48.735575 
L 194.175795 -48.94873 
L 191.762709 -49.181118 
L 189.349624 -49.437033 
L 186.936538 -49.689772 
L 184.523453 -49.923522 
L 182.110368 -50.150842 
L 179.697282 -50.373665 
L 177.284197 -50.617586 
L 174.871111 -50.913514 
L 172.458026 -51.232966 
L 170.044941 -51.579173 
L 167.631855 -51.924229 
L 165.21877 -52.265083 
L 162.805684 -52.607369 
L 160.392599 -52.94553 
L 157.979514 -53.299889 
L 155.566428 -53.630106 
L 153.153343 -54.024197 
L 150.740257 -54.469157 
L 148.327172 -54.911515 
L 145.914087 -55.415483 
L 143.501001 -55.95384 
L 141.087916 -56.576523 
L 138.67483 -57.200165 
L 136.261745 -57.839761 
L 133.84866 -58.476472 
L 131.435574 -59.175437 
L 129.022489 -59.934543 
L 126.609403 -60.702312 
L 124.196318 -61.47987 
L 121.783233 -62.280249 
L 119.370147 -63.255795 
L 116.957062 -64.307367 
L 114.543976 -65.480462 
L 112.130891 -66.66209 
L 109.717806 -67.949824 
L 107.30472 -69.340295 
L 104.891635 -70.798941 
L 102.478549 -72.414738 
L 100.065464 -74.310909 
L 97.652379 -76.293007 
L 95.239293 -78.459242 
L 92.826208 -80.816011 
L 90.413122 -83.540817 
L 88.000037 -86.655036 
L 85.586952 -89.964151 
L 83.173866 -93.519381 
L 80.760781 -97.478889 
L 78.347695 -101.779852 
L 75.93461 -106.623313 
L 73.521525 -112.060395 
L 71.108439 -118.287476 
L 68.695354 -125.09159 
L 66.282268 -132.64469 
L 63.869183 -141.05918 
L 61.456098 -150.422871 
L 59.043012 -161.290356 
L 56.629927 -173.723273 
L 54.216841 -188.947491 
L 51.803756 -210.146551 
L 49.390671 -223.112452 
L 46.977585 -230.369162 
z
" style="stroke: #1f77b4; stroke-opacity: 0.2"/>
    </defs>
    <g clip-path="url(#p18cffe5d22)">
     <use xlink:href="#ma5067856a2" x="0" y="260.655469" style="fill: #1f77b4; fill-opacity: 0.2; stroke: #1f77b4; stroke-opacity: 0.2"/>
    </g>
   </g>
   <g id="FillBetweenPolyCollection_2">
    <defs>
     <path id="m1bdc096760" d="M 46.977585 -218.296648 
L 46.977585 -188.512347 
L 49.390671 -173.505727 
L 51.803756 -159.171536 
L 54.216841 -148.592456 
L 56.629927 -139.101836 
L 59.043012 -130.607996 
L 61.456098 -123.126861 
L 63.869183 -116.173706 
L 66.282268 -109.914282 
L 68.695354 -104.319747 
L 71.108439 -99.26752 
L 73.521525 -94.734845 
L 75.93461 -90.725063 
L 78.347695 -87.081693 
L 80.760781 -83.743962 
L 83.173866 -80.597021 
L 85.586952 -77.761529 
L 88.000037 -75.224395 
L 90.413122 -72.882139 
L 92.826208 -70.758883 
L 95.239293 -68.818371 
L 97.652379 -67.150918 
L 100.065464 -65.583266 
L 102.478549 -64.063803 
L 104.891635 -62.641353 
L 107.30472 -61.226508 
L 109.717806 -60.017719 
L 112.130891 -58.902793 
L 114.543976 -57.917159 
L 116.957062 -57.103851 
L 119.370147 -56.311821 
L 121.783233 -55.566937 
L 124.196318 -54.891144 
L 126.609403 -54.177669 
L 129.022489 -53.503058 
L 131.435574 -52.897635 
L 133.84866 -52.218199 
L 136.261745 -51.709034 
L 138.67483 -51.201443 
L 141.087916 -50.750888 
L 143.501001 -50.430258 
L 145.914087 -50.00033 
L 148.327172 -49.762901 
L 150.740257 -49.523734 
L 153.153343 -49.246404 
L 155.566428 -48.903112 
L 157.979514 -48.585443 
L 160.392599 -48.327822 
L 162.805684 -48.034295 
L 165.21877 -47.764706 
L 167.631855 -47.47614 
L 170.044941 -47.280142 
L 172.458026 -47.12046 
L 174.871111 -46.948016 
L 177.284197 -46.854158 
L 179.697282 -46.70396 
L 182.110368 -46.520248 
L 184.523453 -46.362448 
L 186.936538 -46.197675 
L 189.349624 -46.034713 
L 191.762709 -45.876038 
L 194.175795 -45.70179 
L 196.58888 -45.483436 
L 199.001965 -45.290226 
L 201.415051 -45.1173 
L 203.828136 -44.992671 
L 206.241222 -44.935766 
L 208.654307 -44.845175 
L 211.067392 -44.706905 
L 213.480478 -44.587604 
L 215.893563 -44.39952 
L 218.306649 -44.179686 
L 220.719734 -44.051319 
L 223.132819 -43.902941 
L 225.545905 -43.784643 
L 227.95899 -43.622722 
L 230.372076 -43.463888 
L 232.785161 -43.374788 
L 235.198246 -43.191292 
L 237.611332 -43.056466 
L 240.024417 -42.892422 
L 242.437503 -42.684248 
L 244.850588 -42.542707 
L 247.263673 -42.419574 
L 249.676759 -42.325143 
L 252.089844 -42.326998 
L 254.50293 -42.313922 
L 256.916015 -42.275048 
L 259.3291 -42.261324 
L 261.742186 -42.15466 
L 264.155271 -42.038269 
L 266.568357 -41.888222 
L 268.981442 -41.818432 
L 271.394527 -41.760078 
L 273.807613 -41.72315 
L 276.220698 -41.698307 
L 278.633784 -41.68091 
L 281.046869 -41.543172 
L 283.459954 -41.461846 
L 285.87304 -41.405526 
L 285.87304 -41.641283 
L 285.87304 -41.641283 
L 283.459954 -41.707995 
L 281.046869 -41.748003 
L 278.633784 -41.782394 
L 276.220698 -41.795233 
L 273.807613 -41.875369 
L 271.394527 -41.964687 
L 268.981442 -42.13456 
L 266.568357 -42.226572 
L 264.155271 -42.308533 
L 261.742186 -42.374113 
L 259.3291 -42.360053 
L 256.916015 -42.377703 
L 254.50293 -42.417787 
L 252.089844 -42.474251 
L 249.676759 -42.623522 
L 247.263673 -42.805851 
L 244.850588 -42.947235 
L 242.437503 -43.168087 
L 240.024417 -43.292694 
L 237.611332 -43.411488 
L 235.198246 -43.568628 
L 232.785161 -43.700024 
L 230.372076 -43.872935 
L 227.95899 -43.969912 
L 225.545905 -44.113929 
L 223.132819 -44.321346 
L 220.719734 -44.47884 
L 218.306649 -44.653554 
L 215.893563 -44.80508 
L 213.480478 -44.89301 
L 211.067392 -44.974964 
L 208.654307 -45.06471 
L 206.241222 -45.187936 
L 203.828136 -45.39069 
L 201.415051 -45.592656 
L 199.001965 -45.778065 
L 196.58888 -45.96248 
L 194.175795 -46.124691 
L 191.762709 -46.26509 
L 189.349624 -46.442762 
L 186.936538 -46.64525 
L 184.523453 -46.766227 
L 182.110368 -46.911992 
L 179.697282 -47.066155 
L 177.284197 -47.185026 
L 174.871111 -47.381924 
L 172.458026 -47.605259 
L 170.044941 -47.916286 
L 167.631855 -48.188189 
L 165.21877 -48.428817 
L 162.805684 -48.754579 
L 160.392599 -49.092058 
L 157.979514 -49.423592 
L 155.566428 -49.621023 
L 153.153343 -49.931474 
L 150.740257 -50.218531 
L 148.327172 -50.565559 
L 145.914087 -51.017611 
L 143.501001 -51.399078 
L 141.087916 -51.97955 
L 138.67483 -52.547591 
L 136.261745 -53.158339 
L 133.84866 -53.859909 
L 131.435574 -54.503133 
L 129.022489 -55.204915 
L 126.609403 -55.952896 
L 124.196318 -56.678721 
L 121.783233 -57.482369 
L 119.370147 -58.41266 
L 116.957062 -59.397552 
L 114.543976 -60.604568 
L 112.130891 -61.887446 
L 109.717806 -63.298173 
L 107.30472 -64.827067 
L 104.891635 -66.318961 
L 102.478549 -67.940046 
L 100.065464 -69.731681 
L 97.652379 -71.775588 
L 95.239293 -74.00698 
L 92.826208 -76.389152 
L 90.413122 -79.11014 
L 88.000037 -82.094815 
L 85.586952 -85.347011 
L 83.173866 -88.786418 
L 80.760781 -92.62408 
L 78.347695 -96.913864 
L 75.93461 -101.644282 
L 73.521525 -106.918192 
L 71.108439 -112.934121 
L 68.695354 -119.451486 
L 66.282268 -126.679339 
L 63.869183 -134.692219 
L 61.456098 -143.606741 
L 59.043012 -153.949594 
L 56.629927 -165.724274 
L 54.216841 -180.023899 
L 51.803756 -199.63751 
L 49.390671 -211.621114 
L 46.977585 -218.296648 
z
" style="stroke: #ff7f0e; stroke-opacity: 0.2"/>
    </defs>
    <g clip-path="url(#p18cffe5d22)">
     <use xlink:href="#m1bdc096760" x="0" y="260.655469" style="fill: #ff7f0e; fill-opacity: 0.2; stroke: #ff7f0e; stroke-opacity: 0.2"/>
    </g>
   </g>
   <g id="matplotlib.axis_1">
    <g id="xtick_1">
     <g id="line2d_1">
      <path d="M 44.5645 228.698125 
L 44.5645 20.838125 
" clip-path="url(#p18cffe5d22)" style="fill: none; stroke: #b0b0b0; stroke-opacity: 0.3; stroke-width: 0.5; stroke-linecap: square"/>
     </g>
     <g id="line2d_2">
      <defs>
       <path id="m99f4d96a6f" d="M 0 0 
L 0 -3 
" style="stroke: #000000; stroke-width: 0.8"/>
      </defs>
      <g>
       <use xlink:href="#m99f4d96a6f" x="44.5645" y="228.698125" style="stroke: #000000; stroke-width: 0.8"/>
      </g>
     </g>
     <g id="text_1">
      <!-- 0 -->
      <g transform="translate(42.3145 238.4475) scale(0.09 -0.09)">
       <defs>
        <path id="TimesNewRomanPSMT-30" d="M 231 2094 
Q 231 2819 450 3342 
Q 669 3866 1031 4122 
Q 1313 4325 1613 4325 
Q 2100 4325 2488 3828 
Q 2972 3213 2972 2159 
Q 2972 1422 2759 906 
Q 2547 391 2217 158 
Q 1888 -75 1581 -75 
Q 975 -75 572 641 
Q 231 1244 231 2094 
z
M 844 2016 
Q 844 1141 1059 588 
Q 1238 122 1591 122 
Q 1759 122 1940 273 
Q 2122 425 2216 781 
Q 2359 1319 2359 2297 
Q 2359 3022 2209 3506 
Q 2097 3866 1919 4016 
Q 1791 4119 1609 4119 
Q 1397 4119 1231 3928 
Q 1006 3669 925 3112 
Q 844 2556 844 2016 
z
" transform="scale(0.015625)"/>
       </defs>
       <use xlink:href="#TimesNewRomanPSMT-30"/>
      </g>
     </g>
    </g>
    <g id="xtick_2">
     <g id="line2d_3">
      <path d="M 92.826208 228.698125 
L 92.826208 20.838125 
" clip-path="url(#p18cffe5d22)" style="fill: none; stroke: #b0b0b0; stroke-opacity: 0.3; stroke-width: 0.5; stroke-linecap: square"/>
     </g>
     <g id="line2d_4">
      <g>
       <use xlink:href="#m99f4d96a6f" x="92.826208" y="228.698125" style="stroke: #000000; stroke-width: 0.8"/>
      </g>
     </g>
     <g id="text_2">
      <!-- 20 -->
      <g transform="translate(88.326208 238.4475) scale(0.09 -0.09)">
       <defs>
        <path id="TimesNewRomanPSMT-32" d="M 2934 816 
L 2638 0 
L 138 0 
L 138 116 
Q 1241 1122 1691 1759 
Q 2141 2397 2141 2925 
Q 2141 3328 1894 3587 
Q 1647 3847 1303 3847 
Q 991 3847 742 3664 
Q 494 3481 375 3128 
L 259 3128 
Q 338 3706 661 4015 
Q 984 4325 1469 4325 
Q 1984 4325 2329 3994 
Q 2675 3663 2675 3213 
Q 2675 2891 2525 2569 
Q 2294 2063 1775 1497 
Q 997 647 803 472 
L 1909 472 
Q 2247 472 2383 497 
Q 2519 522 2628 598 
Q 2738 675 2819 816 
L 2934 816 
z
" transform="scale(0.015625)"/>
       </defs>
       <use xlink:href="#TimesNewRomanPSMT-32"/>
       <use xlink:href="#TimesNewRomanPSMT-30" transform="translate(50 0)"/>
      </g>
     </g>
    </g>
    <g id="xtick_3">
     <g id="line2d_5">
      <path d="M 141.087916 228.698125 
L 141.087916 20.838125 
" clip-path="url(#p18cffe5d22)" style="fill: none; stroke: #b0b0b0; stroke-opacity: 0.3; stroke-width: 0.5; stroke-linecap: square"/>
     </g>
     <g id="line2d_6">
      <g>
       <use xlink:href="#m99f4d96a6f" x="141.087916" y="228.698125" style="stroke: #000000; stroke-width: 0.8"/>
      </g>
     </g>
     <g id="text_3">
      <!-- 40 -->
      <g transform="translate(136.587916 238.4475) scale(0.09 -0.09)">
       <defs>
        <path id="TimesNewRomanPSMT-34" d="M 2978 1563 
L 2978 1119 
L 2409 1119 
L 2409 0 
L 1894 0 
L 1894 1119 
L 100 1119 
L 100 1519 
L 2066 4325 
L 2409 4325 
L 2409 1563 
L 2978 1563 
z
M 1894 1563 
L 1894 3666 
L 406 1563 
L 1894 1563 
z
" transform="scale(0.015625)"/>
       </defs>
       <use xlink:href="#TimesNewRomanPSMT-34"/>
       <use xlink:href="#TimesNewRomanPSMT-30" transform="translate(50 0)"/>
      </g>
     </g>
    </g>
    <g id="xtick_4">
     <g id="line2d_7">
      <path d="M 189.349624 228.698125 
L 189.349624 20.838125 
" clip-path="url(#p18cffe5d22)" style="fill: none; stroke: #b0b0b0; stroke-opacity: 0.3; stroke-width: 0.5; stroke-linecap: square"/>
     </g>
     <g id="line2d_8">
      <g>
       <use xlink:href="#m99f4d96a6f" x="189.349624" y="228.698125" style="stroke: #000000; stroke-width: 0.8"/>
      </g>
     </g>
     <g id="text_4">
      <!-- 60 -->
      <g transform="translate(184.849624 238.4475) scale(0.09 -0.09)">
       <defs>
        <path id="TimesNewRomanPSMT-36" d="M 2869 4325 
L 2869 4209 
Q 2456 4169 2195 4045 
Q 1934 3922 1679 3669 
Q 1425 3416 1258 3105 
Q 1091 2794 978 2366 
Q 1428 2675 1881 2675 
Q 2316 2675 2634 2325 
Q 2953 1975 2953 1425 
Q 2953 894 2631 456 
Q 2244 -75 1606 -75 
Q 1172 -75 869 213 
Q 275 772 275 1663 
Q 275 2231 503 2743 
Q 731 3256 1154 3653 
Q 1578 4050 1965 4187 
Q 2353 4325 2688 4325 
L 2869 4325 
z
M 925 2138 
Q 869 1716 869 1456 
Q 869 1156 980 804 
Q 1091 453 1309 247 
Q 1469 100 1697 100 
Q 1969 100 2183 356 
Q 2397 613 2397 1088 
Q 2397 1622 2184 2012 
Q 1972 2403 1581 2403 
Q 1463 2403 1327 2353 
Q 1191 2303 925 2138 
z
" transform="scale(0.015625)"/>
       </defs>
       <use xlink:href="#TimesNewRomanPSMT-36"/>
       <use xlink:href="#TimesNewRomanPSMT-30" transform="translate(50 0)"/>
      </g>
     </g>
    </g>
    <g id="xtick_5">
     <g id="line2d_9">
      <path d="M 237.611332 228.698125 
L 237.611332 20.838125 
" clip-path="url(#p18cffe5d22)" style="fill: none; stroke: #b0b0b0; stroke-opacity: 0.3; stroke-width: 0.5; stroke-linecap: square"/>
     </g>
     <g id="line2d_10">
      <g>
       <use xlink:href="#m99f4d96a6f" x="237.611332" y="228.698125" style="stroke: #000000; stroke-width: 0.8"/>
      </g>
     </g>
     <g id="text_5">
      <!-- 80 -->
      <g transform="translate(233.111332 238.4475) scale(0.09 -0.09)">
       <defs>
        <path id="TimesNewRomanPSMT-38" d="M 1228 2134 
Q 725 2547 579 2797 
Q 434 3047 434 3316 
Q 434 3728 753 4026 
Q 1072 4325 1600 4325 
Q 2113 4325 2425 4047 
Q 2738 3769 2738 3413 
Q 2738 3175 2569 2928 
Q 2400 2681 1866 2347 
Q 2416 1922 2594 1678 
Q 2831 1359 2831 1006 
Q 2831 559 2490 242 
Q 2150 -75 1597 -75 
Q 994 -75 656 303 
Q 388 606 388 966 
Q 388 1247 577 1523 
Q 766 1800 1228 2134 
z
M 1719 2469 
Q 2094 2806 2194 3001 
Q 2294 3197 2294 3444 
Q 2294 3772 2109 3958 
Q 1925 4144 1606 4144 
Q 1288 4144 1088 3959 
Q 888 3775 888 3528 
Q 888 3366 970 3203 
Q 1053 3041 1206 2894 
L 1719 2469 
z
M 1375 2016 
Q 1116 1797 991 1539 
Q 866 1281 866 981 
Q 866 578 1086 336 
Q 1306 94 1647 94 
Q 1984 94 2187 284 
Q 2391 475 2391 747 
Q 2391 972 2272 1150 
Q 2050 1481 1375 2016 
z
" transform="scale(0.015625)"/>
       </defs>
       <use xlink:href="#TimesNewRomanPSMT-38"/>
       <use xlink:href="#TimesNewRomanPSMT-30" transform="translate(50 0)"/>
      </g>
     </g>
    </g>
    <g id="xtick_6">
     <g id="line2d_11">
      <path d="M 285.87304 228.698125 
L 285.87304 20.838125 
" clip-path="url(#p18cffe5d22)" style="fill: none; stroke: #b0b0b0; stroke-opacity: 0.3; stroke-width: 0.5; stroke-linecap: square"/>
     </g>
     <g id="line2d_12">
      <g>
       <use xlink:href="#m99f4d96a6f" x="285.87304" y="228.698125" style="stroke: #000000; stroke-width: 0.8"/>
      </g>
     </g>
     <g id="text_6">
      <!-- 100 -->
      <g transform="translate(279.12304 238.4475) scale(0.09 -0.09)">
       <defs>
        <path id="TimesNewRomanPSMT-31" d="M 750 3822 
L 1781 4325 
L 1884 4325 
L 1884 747 
Q 1884 391 1914 303 
Q 1944 216 2037 169 
Q 2131 122 2419 116 
L 2419 0 
L 825 0 
L 825 116 
Q 1125 122 1212 167 
Q 1300 213 1334 289 
Q 1369 366 1369 747 
L 1369 3034 
Q 1369 3497 1338 3628 
Q 1316 3728 1258 3775 
Q 1200 3822 1119 3822 
Q 1003 3822 797 3725 
L 750 3822 
z
" transform="scale(0.015625)"/>
       </defs>
       <use xlink:href="#TimesNewRomanPSMT-31"/>
       <use xlink:href="#TimesNewRomanPSMT-30" transform="translate(50 0)"/>
       <use xlink:href="#TimesNewRomanPSMT-30" transform="translate(100 0)"/>
      </g>
     </g>
    </g>
    <g id="text_7">
     <!-- Epoch -->
     <g transform="translate(153.651875 251.316406) scale(0.1 -0.1)">
      <defs>
       <path id="TimesNewRomanPSMT-45" d="M 1338 4006 
L 1338 2331 
L 2269 2331 
Q 2631 2331 2753 2441 
Q 2916 2584 2934 2947 
L 3050 2947 
L 3050 1472 
L 2934 1472 
Q 2891 1781 2847 1869 
Q 2791 1978 2662 2040 
Q 2534 2103 2269 2103 
L 1338 2103 
L 1338 706 
Q 1338 425 1363 364 
Q 1388 303 1450 267 
Q 1513 231 1688 231 
L 2406 231 
Q 2766 231 2928 281 
Q 3091 331 3241 478 
Q 3434 672 3638 1063 
L 3763 1063 
L 3397 0 
L 131 0 
L 131 116 
L 281 116 
Q 431 116 566 188 
Q 666 238 702 338 
Q 738 438 738 747 
L 738 3500 
Q 738 3903 656 3997 
Q 544 4122 281 4122 
L 131 4122 
L 131 4238 
L 3397 4238 
L 3444 3309 
L 3322 3309 
Q 3256 3644 3176 3769 
Q 3097 3894 2941 3959 
Q 2816 4006 2500 4006 
L 1338 4006 
z
" transform="scale(0.015625)"/>
       <path id="TimesNewRomanPSMT-70" d="M -6 2578 
L 875 2934 
L 994 2934 
L 994 2266 
Q 1216 2644 1439 2795 
Q 1663 2947 1909 2947 
Q 2341 2947 2628 2609 
Q 2981 2197 2981 1534 
Q 2981 794 2556 309 
Q 2206 -88 1675 -88 
Q 1444 -88 1275 -22 
Q 1150 25 994 166 
L 994 -706 
Q 994 -1000 1030 -1079 
Q 1066 -1159 1155 -1206 
Q 1244 -1253 1478 -1253 
L 1478 -1369 
L -22 -1369 
L -22 -1253 
L 56 -1253 
Q 228 -1256 350 -1188 
Q 409 -1153 442 -1076 
Q 475 -1000 475 -688 
L 475 2019 
Q 475 2297 450 2372 
Q 425 2447 370 2484 
Q 316 2522 222 2522 
Q 147 2522 31 2478 
L -6 2578 
z
M 994 2081 
L 994 1013 
Q 994 666 1022 556 
Q 1066 375 1236 237 
Q 1406 100 1666 100 
Q 1978 100 2172 344 
Q 2425 663 2425 1241 
Q 2425 1897 2138 2250 
Q 1938 2494 1663 2494 
Q 1513 2494 1366 2419 
Q 1253 2363 994 2081 
z
" transform="scale(0.015625)"/>
       <path id="TimesNewRomanPSMT-6f" d="M 1600 2947 
Q 2250 2947 2644 2453 
Q 2978 2031 2978 1484 
Q 2978 1100 2793 706 
Q 2609 313 2286 112 
Q 1963 -88 1566 -88 
Q 919 -88 538 428 
Q 216 863 216 1403 
Q 216 1797 411 2186 
Q 606 2575 925 2761 
Q 1244 2947 1600 2947 
z
M 1503 2744 
Q 1338 2744 1170 2645 
Q 1003 2547 900 2300 
Q 797 2053 797 1666 
Q 797 1041 1045 587 
Q 1294 134 1700 134 
Q 2003 134 2200 384 
Q 2397 634 2397 1244 
Q 2397 2006 2069 2444 
Q 1847 2744 1503 2744 
z
" transform="scale(0.015625)"/>
       <path id="TimesNewRomanPSMT-63" d="M 2631 1088 
Q 2516 522 2178 217 
Q 1841 -88 1431 -88 
Q 944 -88 581 321 
Q 219 731 219 1428 
Q 219 2103 620 2525 
Q 1022 2947 1584 2947 
Q 2006 2947 2278 2723 
Q 2550 2500 2550 2259 
Q 2550 2141 2473 2067 
Q 2397 1994 2259 1994 
Q 2075 1994 1981 2113 
Q 1928 2178 1911 2362 
Q 1894 2547 1784 2644 
Q 1675 2738 1481 2738 
Q 1169 2738 978 2506 
Q 725 2200 725 1697 
Q 725 1184 976 792 
Q 1228 400 1656 400 
Q 1963 400 2206 609 
Q 2378 753 2541 1131 
L 2631 1088 
z
" transform="scale(0.015625)"/>
       <path id="TimesNewRomanPSMT-68" d="M 1041 4444 
L 1041 2350 
Q 1388 2731 1591 2839 
Q 1794 2947 1997 2947 
Q 2241 2947 2416 2812 
Q 2591 2678 2675 2391 
Q 2734 2191 2734 1659 
L 2734 647 
Q 2734 375 2778 275 
Q 2809 200 2884 156 
Q 2959 113 3159 113 
L 3159 0 
L 1753 0 
L 1753 113 
L 1819 113 
Q 2019 113 2097 173 
Q 2175 234 2206 353 
Q 2216 403 2216 647 
L 2216 1659 
Q 2216 2128 2167 2275 
Q 2119 2422 2012 2495 
Q 1906 2569 1756 2569 
Q 1603 2569 1437 2487 
Q 1272 2406 1041 2159 
L 1041 647 
Q 1041 353 1073 281 
Q 1106 209 1195 161 
Q 1284 113 1503 113 
L 1503 0 
L 84 0 
L 84 113 
Q 275 113 384 172 
Q 447 203 484 290 
Q 522 378 522 647 
L 522 3238 
Q 522 3728 498 3840 
Q 475 3953 426 3993 
Q 378 4034 297 4034 
Q 231 4034 84 3984 
L 41 4094 
L 897 4444 
L 1041 4444 
z
" transform="scale(0.015625)"/>
      </defs>
      <use xlink:href="#TimesNewRomanPSMT-45"/>
      <use xlink:href="#TimesNewRomanPSMT-70" transform="translate(61.083984 0)"/>
      <use xlink:href="#TimesNewRomanPSMT-6f" transform="translate(111.083984 0)"/>
      <use xlink:href="#TimesNewRomanPSMT-63" transform="translate(161.083984 0)"/>
      <use xlink:href="#TimesNewRomanPSMT-68" transform="translate(205.46875 0)"/>
     </g>
    </g>
   </g>
   <g id="matplotlib.axis_2">
    <g id="ytick_1">
     <g id="line2d_13">
      <path d="M 35.032813 203.04128 
L 297.817813 203.04128 
" clip-path="url(#p18cffe5d22)" style="fill: none; stroke: #b0b0b0; stroke-opacity: 0.3; stroke-width: 0.5; stroke-linecap: square"/>
     </g>
     <g id="line2d_14">
      <defs>
       <path id="m504f9b321b" d="M 0 0 
L 3 0 
" style="stroke: #000000; stroke-width: 0.8"/>
      </defs>
      <g>
       <use xlink:href="#m504f9b321b" x="35.032813" y="203.04128" style="stroke: #000000; stroke-width: 0.8"/>
      </g>
     </g>
     <g id="text_8">
      <!-- 0.3 -->
      <g transform="translate(20.282813 206.165967) scale(0.09 -0.09)">
       <defs>
        <path id="TimesNewRomanPSMT-2e" d="M 800 606 
Q 947 606 1047 504 
Q 1147 403 1147 259 
Q 1147 116 1045 14 
Q 944 -88 800 -88 
Q 656 -88 554 14 
Q 453 116 453 259 
Q 453 406 554 506 
Q 656 606 800 606 
z
" transform="scale(0.015625)"/>
        <path id="TimesNewRomanPSMT-33" d="M 325 3431 
Q 506 3859 782 4092 
Q 1059 4325 1472 4325 
Q 1981 4325 2253 3994 
Q 2459 3747 2459 3466 
Q 2459 3003 1878 2509 
Q 2269 2356 2469 2072 
Q 2669 1788 2669 1403 
Q 2669 853 2319 450 
Q 1863 -75 997 -75 
Q 569 -75 414 31 
Q 259 138 259 259 
Q 259 350 332 419 
Q 406 488 509 488 
Q 588 488 669 463 
Q 722 447 909 348 
Q 1097 250 1169 231 
Q 1284 197 1416 197 
Q 1734 197 1970 444 
Q 2206 691 2206 1028 
Q 2206 1275 2097 1509 
Q 2016 1684 1919 1775 
Q 1784 1900 1550 2001 
Q 1316 2103 1072 2103 
L 972 2103 
L 972 2197 
Q 1219 2228 1467 2375 
Q 1716 2522 1828 2728 
Q 1941 2934 1941 3181 
Q 1941 3503 1739 3701 
Q 1538 3900 1238 3900 
Q 753 3900 428 3381 
L 325 3431 
z
" transform="scale(0.015625)"/>
       </defs>
       <use xlink:href="#TimesNewRomanPSMT-30"/>
       <use xlink:href="#TimesNewRomanPSMT-2e" transform="translate(50 0)"/>
       <use xlink:href="#TimesNewRomanPSMT-33" transform="translate(75 0)"/>
      </g>
     </g>
    </g>
    <g id="ytick_2">
     <g id="line2d_15">
      <path d="M 35.032813 160.701996 
L 297.817813 160.701996 
" clip-path="url(#p18cffe5d22)" style="fill: none; stroke: #b0b0b0; stroke-opacity: 0.3; stroke-width: 0.5; stroke-linecap: square"/>
     </g>
     <g id="line2d_16">
      <g>
       <use xlink:href="#m504f9b321b" x="35.032813" y="160.701996" style="stroke: #000000; stroke-width: 0.8"/>
      </g>
     </g>
     <g id="text_9">
      <!-- 0.4 -->
      <g transform="translate(20.282813 163.826683) scale(0.09 -0.09)">
       <use xlink:href="#TimesNewRomanPSMT-30"/>
       <use xlink:href="#TimesNewRomanPSMT-2e" transform="translate(50 0)"/>
       <use xlink:href="#TimesNewRomanPSMT-34" transform="translate(75 0)"/>
      </g>
     </g>
    </g>
    <g id="ytick_3">
     <g id="line2d_17">
      <path d="M 35.032813 118.362711 
L 297.817813 118.362711 
" clip-path="url(#p18cffe5d22)" style="fill: none; stroke: #b0b0b0; stroke-opacity: 0.3; stroke-width: 0.5; stroke-linecap: square"/>
     </g>
     <g id="line2d_18">
      <g>
       <use xlink:href="#m504f9b321b" x="35.032813" y="118.362711" style="stroke: #000000; stroke-width: 0.8"/>
      </g>
     </g>
     <g id="text_10">
      <!-- 0.5 -->
      <g transform="translate(20.282813 121.487399) scale(0.09 -0.09)">
       <defs>
        <path id="TimesNewRomanPSMT-35" d="M 2778 4238 
L 2534 3706 
L 1259 3706 
L 981 3138 
Q 1809 3016 2294 2522 
Q 2709 2097 2709 1522 
Q 2709 1188 2573 903 
Q 2438 619 2231 419 
Q 2025 219 1772 97 
Q 1413 -75 1034 -75 
Q 653 -75 479 54 
Q 306 184 306 341 
Q 306 428 378 495 
Q 450 563 559 563 
Q 641 563 702 538 
Q 763 513 909 409 
Q 1144 247 1384 247 
Q 1750 247 2026 523 
Q 2303 800 2303 1197 
Q 2303 1581 2056 1914 
Q 1809 2247 1375 2428 
Q 1034 2569 447 2591 
L 1259 4238 
L 2778 4238 
z
" transform="scale(0.015625)"/>
       </defs>
       <use xlink:href="#TimesNewRomanPSMT-30"/>
       <use xlink:href="#TimesNewRomanPSMT-2e" transform="translate(50 0)"/>
       <use xlink:href="#TimesNewRomanPSMT-35" transform="translate(75 0)"/>
      </g>
     </g>
    </g>
    <g id="ytick_4">
     <g id="line2d_19">
      <path d="M 35.032813 76.023427 
L 297.817813 76.023427 
" clip-path="url(#p18cffe5d22)" style="fill: none; stroke: #b0b0b0; stroke-opacity: 0.3; stroke-width: 0.5; stroke-linecap: square"/>
     </g>
     <g id="line2d_20">
      <g>
       <use xlink:href="#m504f9b321b" x="35.032813" y="76.023427" style="stroke: #000000; stroke-width: 0.8"/>
      </g>
     </g>
     <g id="text_11">
      <!-- 0.6 -->
      <g transform="translate(20.282813 79.148115) scale(0.09 -0.09)">
       <use xlink:href="#TimesNewRomanPSMT-30"/>
       <use xlink:href="#TimesNewRomanPSMT-2e" transform="translate(50 0)"/>
       <use xlink:href="#TimesNewRomanPSMT-36" transform="translate(75 0)"/>
      </g>
     </g>
    </g>
    <g id="ytick_5">
     <g id="line2d_21">
      <path d="M 35.032813 33.684143 
L 297.817813 33.684143 
" clip-path="url(#p18cffe5d22)" style="fill: none; stroke: #b0b0b0; stroke-opacity: 0.3; stroke-width: 0.5; stroke-linecap: square"/>
     </g>
     <g id="line2d_22">
      <g>
       <use xlink:href="#m504f9b321b" x="35.032813" y="33.684143" style="stroke: #000000; stroke-width: 0.8"/>
      </g>
     </g>
     <g id="text_12">
      <!-- 0.7 -->
      <g transform="translate(20.282813 36.808831) scale(0.09 -0.09)">
       <defs>
        <path id="TimesNewRomanPSMT-37" d="M 644 4238 
L 2916 4238 
L 2916 4119 
L 1503 -88 
L 1153 -88 
L 2419 3728 
L 1253 3728 
Q 900 3728 750 3644 
Q 488 3500 328 3200 
L 238 3234 
L 644 4238 
z
" transform="scale(0.015625)"/>
       </defs>
       <use xlink:href="#TimesNewRomanPSMT-30"/>
       <use xlink:href="#TimesNewRomanPSMT-2e" transform="translate(50 0)"/>
       <use xlink:href="#TimesNewRomanPSMT-37" transform="translate(75 0)"/>
      </g>
     </g>
    </g>
    <g id="text_13">
     <!-- Loss -->
     <g transform="translate(14.14375 134.214219) rotate(-90) scale(0.1 -0.1)">
      <defs>
       <path id="TimesNewRomanPSMT-4c" d="M 3669 1172 
L 3772 1150 
L 3409 0 
L 128 0 
L 128 116 
L 288 116 
Q 556 116 672 291 
Q 738 391 738 753 
L 738 3488 
Q 738 3884 650 3984 
Q 528 4122 288 4122 
L 128 4122 
L 128 4238 
L 2047 4238 
L 2047 4122 
Q 1709 4125 1573 4059 
Q 1438 3994 1388 3894 
Q 1338 3794 1338 3416 
L 1338 753 
Q 1338 494 1388 397 
Q 1425 331 1503 300 
Q 1581 269 1991 269 
L 2300 269 
Q 2788 269 2984 341 
Q 3181 413 3343 595 
Q 3506 778 3669 1172 
z
" transform="scale(0.015625)"/>
       <path id="TimesNewRomanPSMT-73" d="M 2050 2947 
L 2050 1972 
L 1947 1972 
Q 1828 2431 1642 2597 
Q 1456 2763 1169 2763 
Q 950 2763 815 2647 
Q 681 2531 681 2391 
Q 681 2216 781 2091 
Q 878 1963 1175 1819 
L 1631 1597 
Q 2266 1288 2266 781 
Q 2266 391 1970 151 
Q 1675 -88 1309 -88 
Q 1047 -88 709 6 
Q 606 38 541 38 
Q 469 38 428 -44 
L 325 -44 
L 325 978 
L 428 978 
Q 516 541 762 319 
Q 1009 97 1316 97 
Q 1531 97 1667 223 
Q 1803 350 1803 528 
Q 1803 744 1651 891 
Q 1500 1038 1047 1263 
Q 594 1488 453 1669 
Q 313 1847 313 2119 
Q 313 2472 555 2709 
Q 797 2947 1181 2947 
Q 1350 2947 1591 2875 
Q 1750 2828 1803 2828 
Q 1853 2828 1881 2850 
Q 1909 2872 1947 2947 
L 2050 2947 
z
" transform="scale(0.015625)"/>
      </defs>
      <use xlink:href="#TimesNewRomanPSMT-4c"/>
      <use xlink:href="#TimesNewRomanPSMT-6f" transform="translate(61.083984 0)"/>
      <use xlink:href="#TimesNewRomanPSMT-73" transform="translate(111.083984 0)"/>
      <use xlink:href="#TimesNewRomanPSMT-73" transform="translate(150 0)"/>
     </g>
    </g>
   </g>
   <g id="line2d_23">
    <path d="M 46.977585 32.110327 
L 49.390671 59.002346 
L 51.803756 76.787721 
L 54.216841 90.493839 
L 56.629927 102.677084 
L 59.043012 112.834919 
L 61.456098 121.975406 
L 63.869183 130.145569 
L 66.282268 137.284075 
L 68.695354 144.209754 
L 71.108439 150.139078 
L 73.521525 155.430177 
L 75.93461 159.983509 
L 78.347695 164.36094 
L 80.760781 168.093287 
L 83.173866 171.468943 
L 85.586952 174.8645 
L 88.000037 177.969311 
L 90.413122 180.498603 
L 92.826208 182.804542 
L 95.239293 184.773971 
L 97.652379 186.961334 
L 100.065464 188.709995 
L 102.478549 190.212445 
L 104.891635 191.675869 
L 107.30472 193.101379 
L 109.717806 194.243087 
L 112.130891 195.505349 
L 114.543976 196.580241 
L 116.957062 197.751795 
L 119.370147 198.593129 
L 121.783233 199.365043 
L 124.196318 200.117499 
L 126.609403 200.913142 
L 129.022489 201.698977 
L 131.435574 202.328546 
L 133.84866 202.985474 
L 136.261745 203.567588 
L 138.67483 204.26753 
L 141.087916 204.845274 
L 143.501001 205.406725 
L 145.914087 205.820743 
L 148.327172 206.307211 
L 150.740257 206.784502 
L 153.153343 207.080142 
L 155.566428 207.452111 
L 157.979514 207.788689 
L 160.392599 208.13244 
L 162.805684 208.472476 
L 165.21877 208.805501 
L 167.631855 209.165831 
L 170.044941 209.496527 
L 172.458026 209.842025 
L 174.871111 210.108956 
L 177.284197 210.335946 
L 179.697282 210.571282 
L 182.110368 210.770956 
L 184.523453 211.014494 
L 186.936538 211.289899 
L 189.349624 211.548117 
L 191.762709 211.74288 
L 194.175795 211.993501 
L 196.58888 212.186637 
L 199.001965 212.422476 
L 201.415051 212.669108 
L 203.828136 212.808346 
L 206.241222 212.99899 
L 208.654307 213.159608 
L 211.067392 213.293291 
L 213.480478 213.510128 
L 215.893563 213.663377 
L 218.306649 213.835078 
L 220.719734 214.065389 
L 223.132819 214.292592 
L 225.545905 214.424207 
L 227.95899 214.584938 
L 230.372076 214.779073 
L 232.785161 215.011036 
L 235.198246 215.143201 
L 237.611332 215.2465 
L 240.024417 215.427121 
L 242.437503 215.567504 
L 244.850588 215.670651 
L 247.263673 215.848429 
L 249.676759 215.959797 
L 252.089844 216.08781 
L 254.50293 216.228946 
L 256.916015 216.24915 
L 259.3291 216.345863 
L 261.742186 216.474581 
L 264.155271 216.524699 
L 266.568357 216.671654 
L 268.981442 216.803931 
L 271.394527 216.969671 
L 273.807613 216.989017 
L 276.220698 217.157384 
L 278.633784 217.22591 
L 281.046869 217.311062 
L 283.459954 217.403754 
L 285.87304 217.553647 
" clip-path="url(#p18cffe5d22)" style="fill: none; stroke: #1f77b4; stroke-width: 1.2; stroke-linecap: square"/>
   </g>
   <g id="line2d_24">
    <path d="M 46.977585 44.057981 
L 49.390671 68.738612 
L 51.803756 85.342302 
L 54.216841 98.263364 
L 56.629927 109.85247 
L 59.043012 119.539709 
L 61.456098 128.214224 
L 63.869183 136.013601 
L 66.282268 142.823335 
L 68.695354 149.521663 
L 71.108439 155.220468 
L 73.521525 160.270194 
L 75.93461 164.937582 
L 78.347695 169.194846 
L 80.760781 172.730892 
L 83.173866 176.154937 
L 85.586952 179.338984 
L 88.000037 182.39909 
L 90.413122 184.882089 
L 92.826208 187.204217 
L 95.239293 189.472266 
L 97.652379 191.449594 
L 100.065464 193.205798 
L 102.478549 194.629204 
L 104.891635 196.233115 
L 107.30472 197.750008 
L 109.717806 199.058434 
L 112.130891 200.472646 
L 114.543976 201.473412 
L 116.957062 202.547247 
L 119.370147 203.421287 
L 121.783233 204.109243 
L 124.196318 204.91495 
L 126.609403 205.661353 
L 129.022489 206.245846 
L 131.435574 207.01954 
L 133.84866 207.665723 
L 136.261745 208.182963 
L 138.67483 208.968002 
L 141.087916 209.272683 
L 143.501001 209.815389 
L 145.914087 210.212211 
L 148.327172 210.435719 
L 150.740257 210.996491 
L 153.153343 210.996383 
L 155.566428 211.280876 
L 157.979514 211.623178 
L 160.392599 212.070077 
L 162.805684 212.284239 
L 165.21877 212.469273 
L 167.631855 212.858392 
L 170.044941 213.111555 
L 172.458026 213.393062 
L 174.871111 213.453992 
L 177.284197 213.646046 
L 179.697282 213.847839 
L 182.110368 213.838445 
L 184.523453 214.065735 
L 186.936538 214.298679 
L 189.349624 214.404958 
L 191.762709 214.562215 
L 194.175795 214.752069 
L 196.58888 214.906602 
L 199.001965 215.085297 
L 201.415051 215.356373 
L 203.828136 215.506275 
L 206.241222 215.647907 
L 208.654307 215.72309 
L 211.067392 215.734443 
L 213.480478 215.890918 
L 215.893563 216.076313 
L 218.306649 216.151044 
L 220.719734 216.413126 
L 223.132819 216.662842 
L 225.545905 216.64862 
L 227.95899 216.840995 
L 230.372076 216.965331 
L 232.785161 217.177972 
L 235.198246 217.302369 
L 237.611332 217.303647 
L 240.024417 217.628226 
L 242.437503 217.695243 
L 244.850588 217.885068 
L 247.263673 218.134323 
L 249.676759 218.209628 
L 252.089844 218.289519 
L 254.50293 218.387145 
L 256.916015 218.253606 
L 259.3291 218.308176 
L 261.742186 218.407022 
L 264.155271 218.367953 
L 266.568357 218.618656 
L 268.981442 218.708533 
L 271.394527 218.888195 
L 273.807613 218.811528 
L 276.220698 218.938518 
L 278.633784 218.934273 
L 281.046869 218.970978 
L 283.459954 218.963784 
L 285.87304 219.241853 
" clip-path="url(#p18cffe5d22)" style="fill: none; stroke: #ff7f0e; stroke-width: 1.2; stroke-linecap: square"/>
   </g>
   <g id="patch_3">
    <path d="M 35.032813 228.698125 
L 35.032813 20.838125 
" style="fill: none; stroke: #000000; stroke-width: 0.8; stroke-linejoin: miter; stroke-linecap: square"/>
   </g>
   <g id="patch_4">
    <path d="M 35.032813 228.698125 
L 297.817813 228.698125 
" style="fill: none; stroke: #000000; stroke-width: 0.8; stroke-linejoin: miter; stroke-linecap: square"/>
   </g>
   <g id="text_14">
    <!-- Loss -->
    <g transform="translate(156.034609 14.838125) scale(0.11 -0.11)">
     <use xlink:href="#TimesNewRomanPSMT-4c"/>
     <use xlink:href="#TimesNewRomanPSMT-6f" transform="translate(61.083984 0)"/>
     <use xlink:href="#TimesNewRomanPSMT-73" transform="translate(111.083984 0)"/>
     <use xlink:href="#TimesNewRomanPSMT-73" transform="translate(150 0)"/>
    </g>
   </g>
   <g id="legend_1">
    <g id="line2d_25">
     <path d="M 227.527813 32.088125 
L 236.527813 32.088125 
L 245.527813 32.088125 
" style="fill: none; stroke: #1f77b4; stroke-width: 1.2; stroke-linecap: square"/>
    </g>
    <g id="text_15">
     <!-- Training -->
     <g transform="translate(252.727813 35.238125) scale(0.09 -0.09)">
      <defs>
       <path id="TimesNewRomanPSMT-54" d="M 3703 4238 
L 3750 3244 
L 3631 3244 
Q 3597 3506 3538 3619 
Q 3441 3800 3280 3886 
Q 3119 3972 2856 3972 
L 2259 3972 
L 2259 734 
Q 2259 344 2344 247 
Q 2463 116 2709 116 
L 2856 116 
L 2856 0 
L 1059 0 
L 1059 116 
L 1209 116 
Q 1478 116 1591 278 
Q 1659 378 1659 734 
L 1659 3972 
L 1150 3972 
Q 853 3972 728 3928 
Q 566 3869 450 3700 
Q 334 3531 313 3244 
L 194 3244 
L 244 4238 
L 3703 4238 
z
" transform="scale(0.015625)"/>
       <path id="TimesNewRomanPSMT-72" d="M 1038 2947 
L 1038 2303 
Q 1397 2947 1775 2947 
Q 1947 2947 2059 2842 
Q 2172 2738 2172 2600 
Q 2172 2478 2090 2393 
Q 2009 2309 1897 2309 
Q 1788 2309 1652 2417 
Q 1516 2525 1450 2525 
Q 1394 2525 1328 2463 
Q 1188 2334 1038 2041 
L 1038 669 
Q 1038 431 1097 309 
Q 1138 225 1241 169 
Q 1344 113 1538 113 
L 1538 0 
L 72 0 
L 72 113 
Q 291 113 397 181 
Q 475 231 506 341 
Q 522 394 522 644 
L 522 1753 
Q 522 2253 501 2348 
Q 481 2444 426 2487 
Q 372 2531 291 2531 
Q 194 2531 72 2484 
L 41 2597 
L 906 2947 
L 1038 2947 
z
" transform="scale(0.015625)"/>
       <path id="TimesNewRomanPSMT-61" d="M 1822 413 
Q 1381 72 1269 19 
Q 1100 -59 909 -59 
Q 613 -59 420 144 
Q 228 347 228 678 
Q 228 888 322 1041 
Q 450 1253 767 1440 
Q 1084 1628 1822 1897 
L 1822 2009 
Q 1822 2438 1686 2597 
Q 1550 2756 1291 2756 
Q 1094 2756 978 2650 
Q 859 2544 859 2406 
L 866 2225 
Q 866 2081 792 2003 
Q 719 1925 600 1925 
Q 484 1925 411 2006 
Q 338 2088 338 2228 
Q 338 2497 613 2722 
Q 888 2947 1384 2947 
Q 1766 2947 2009 2819 
Q 2194 2722 2281 2516 
Q 2338 2381 2338 1966 
L 2338 994 
Q 2338 584 2353 492 
Q 2369 400 2405 369 
Q 2441 338 2488 338 
Q 2538 338 2575 359 
Q 2641 400 2828 588 
L 2828 413 
Q 2478 -56 2159 -56 
Q 2006 -56 1915 50 
Q 1825 156 1822 413 
z
M 1822 616 
L 1822 1706 
Q 1350 1519 1213 1441 
Q 966 1303 859 1153 
Q 753 1003 753 825 
Q 753 600 887 451 
Q 1022 303 1197 303 
Q 1434 303 1822 616 
z
" transform="scale(0.015625)"/>
       <path id="TimesNewRomanPSMT-69" d="M 928 4444 
Q 1059 4444 1151 4351 
Q 1244 4259 1244 4128 
Q 1244 3997 1151 3903 
Q 1059 3809 928 3809 
Q 797 3809 703 3903 
Q 609 3997 609 4128 
Q 609 4259 701 4351 
Q 794 4444 928 4444 
z
M 1188 2947 
L 1188 647 
Q 1188 378 1227 289 
Q 1266 200 1342 156 
Q 1419 113 1622 113 
L 1622 0 
L 231 0 
L 231 113 
Q 441 113 512 153 
Q 584 194 626 287 
Q 669 381 669 647 
L 669 1750 
Q 669 2216 641 2353 
Q 619 2453 572 2492 
Q 525 2531 444 2531 
Q 356 2531 231 2484 
L 188 2597 
L 1050 2947 
L 1188 2947 
z
" transform="scale(0.015625)"/>
       <path id="TimesNewRomanPSMT-6e" d="M 1034 2341 
Q 1538 2947 1994 2947 
Q 2228 2947 2397 2830 
Q 2566 2713 2666 2444 
Q 2734 2256 2734 1869 
L 2734 647 
Q 2734 375 2778 278 
Q 2813 200 2889 156 
Q 2966 113 3172 113 
L 3172 0 
L 1756 0 
L 1756 113 
L 1816 113 
Q 2016 113 2095 173 
Q 2175 234 2206 353 
Q 2219 400 2219 647 
L 2219 1819 
Q 2219 2209 2117 2386 
Q 2016 2563 1775 2563 
Q 1403 2563 1034 2156 
L 1034 647 
Q 1034 356 1069 288 
Q 1113 197 1189 155 
Q 1266 113 1500 113 
L 1500 0 
L 84 0 
L 84 113 
L 147 113 
Q 366 113 442 223 
Q 519 334 519 647 
L 519 1709 
Q 519 2225 495 2337 
Q 472 2450 423 2490 
Q 375 2531 294 2531 
Q 206 2531 84 2484 
L 38 2597 
L 900 2947 
L 1034 2947 
L 1034 2341 
z
" transform="scale(0.015625)"/>
       <path id="TimesNewRomanPSMT-67" d="M 966 1044 
Q 703 1172 562 1401 
Q 422 1631 422 1909 
Q 422 2334 742 2640 
Q 1063 2947 1563 2947 
Q 1972 2947 2272 2747 
L 2878 2747 
Q 3013 2747 3034 2739 
Q 3056 2731 3066 2713 
Q 3084 2684 3084 2613 
Q 3084 2531 3069 2500 
Q 3059 2484 3036 2475 
Q 3013 2466 2878 2466 
L 2506 2466 
Q 2681 2241 2681 1891 
Q 2681 1491 2375 1206 
Q 2069 922 1553 922 
Q 1341 922 1119 984 
Q 981 866 932 777 
Q 884 688 884 625 
Q 884 572 936 522 
Q 988 472 1138 450 
Q 1225 438 1575 428 
Q 2219 413 2409 384 
Q 2700 344 2873 169 
Q 3047 -6 3047 -263 
Q 3047 -616 2716 -925 
Q 2228 -1381 1444 -1381 
Q 841 -1381 425 -1109 
Q 191 -953 191 -784 
Q 191 -709 225 -634 
Q 278 -519 444 -313 
Q 466 -284 763 25 
Q 600 122 533 198 
Q 466 275 466 372 
Q 466 481 555 628 
Q 644 775 966 1044 
z
M 1509 2797 
Q 1278 2797 1122 2612 
Q 966 2428 966 2047 
Q 966 1553 1178 1281 
Q 1341 1075 1591 1075 
Q 1828 1075 1981 1253 
Q 2134 1431 2134 1813 
Q 2134 2309 1919 2591 
Q 1759 2797 1509 2797 
z
M 934 0 
Q 788 -159 713 -296 
Q 638 -434 638 -550 
Q 638 -700 819 -813 
Q 1131 -1006 1722 -1006 
Q 2284 -1006 2551 -807 
Q 2819 -609 2819 -384 
Q 2819 -222 2659 -153 
Q 2497 -84 2016 -72 
Q 1313 -53 934 0 
z
" transform="scale(0.015625)"/>
      </defs>
      <use xlink:href="#TimesNewRomanPSMT-54"/>
      <use xlink:href="#TimesNewRomanPSMT-72" transform="translate(57.583984 0)"/>
      <use xlink:href="#TimesNewRomanPSMT-61" transform="translate(90.884766 0)"/>
      <use xlink:href="#TimesNewRomanPSMT-69" transform="translate(135.269531 0)"/>
      <use xlink:href="#TimesNewRomanPSMT-6e" transform="translate(163.052734 0)"/>
      <use xlink:href="#TimesNewRomanPSMT-69" transform="translate(213.052734 0)"/>
      <use xlink:href="#TimesNewRomanPSMT-6e" transform="translate(240.835938 0)"/>
      <use xlink:href="#TimesNewRomanPSMT-67" transform="translate(290.835938 0)"/>
     </g>
    </g>
    <g id="line2d_26">
     <path d="M 227.527813 44.830156 
L 236.527813 44.830156 
L 245.527813 44.830156 
" style="fill: none; stroke: #ff7f0e; stroke-width: 1.2; stroke-linecap: square"/>
    </g>
    <g id="text_16">
     <!-- Validation -->
     <g transform="translate(252.727813 47.980156) scale(0.09 -0.09)">
      <defs>
       <path id="TimesNewRomanPSMT-56" d="M 4544 4238 
L 4544 4122 
Q 4319 4081 4203 3978 
Q 4038 3825 3909 3509 
L 2431 -97 
L 2316 -97 
L 728 3556 
Q 606 3838 556 3900 
Q 478 3997 364 4051 
Q 250 4106 56 4122 
L 56 4238 
L 1788 4238 
L 1788 4122 
Q 1494 4094 1406 4022 
Q 1319 3950 1319 3838 
Q 1319 3681 1463 3350 
L 2541 866 
L 3541 3319 
Q 3688 3681 3688 3822 
Q 3688 3913 3597 3995 
Q 3506 4078 3291 4113 
Q 3275 4116 3238 4122 
L 3238 4238 
L 4544 4238 
z
" transform="scale(0.015625)"/>
       <path id="TimesNewRomanPSMT-6c" d="M 1184 4444 
L 1184 647 
Q 1184 378 1223 290 
Q 1263 203 1344 158 
Q 1425 113 1647 113 
L 1647 0 
L 244 0 
L 244 113 
Q 441 113 512 153 
Q 584 194 625 287 
Q 666 381 666 647 
L 666 3247 
Q 666 3731 644 3842 
Q 622 3953 573 3993 
Q 525 4034 450 4034 
Q 369 4034 244 3984 
L 191 4094 
L 1044 4444 
L 1184 4444 
z
" transform="scale(0.015625)"/>
       <path id="TimesNewRomanPSMT-64" d="M 2222 322 
Q 2013 103 1813 7 
Q 1613 -88 1381 -88 
Q 913 -88 563 304 
Q 213 697 213 1313 
Q 213 1928 600 2439 
Q 988 2950 1597 2950 
Q 1975 2950 2222 2709 
L 2222 3238 
Q 2222 3728 2198 3840 
Q 2175 3953 2125 3993 
Q 2075 4034 2000 4034 
Q 1919 4034 1784 3984 
L 1744 4094 
L 2597 4444 
L 2738 4444 
L 2738 1134 
Q 2738 631 2761 520 
Q 2784 409 2836 365 
Q 2888 322 2956 322 
Q 3041 322 3181 375 
L 3216 266 
L 2366 -88 
L 2222 -88 
L 2222 322 
z
M 2222 541 
L 2222 2016 
Q 2203 2228 2109 2403 
Q 2016 2578 1861 2667 
Q 1706 2756 1559 2756 
Q 1284 2756 1069 2509 
Q 784 2184 784 1559 
Q 784 928 1059 592 
Q 1334 256 1672 256 
Q 1956 256 2222 541 
z
" transform="scale(0.015625)"/>
       <path id="TimesNewRomanPSMT-74" d="M 1031 3803 
L 1031 2863 
L 1700 2863 
L 1700 2644 
L 1031 2644 
L 1031 788 
Q 1031 509 1111 412 
Q 1191 316 1316 316 
Q 1419 316 1516 380 
Q 1613 444 1666 569 
L 1788 569 
Q 1678 263 1478 108 
Q 1278 -47 1066 -47 
Q 922 -47 784 33 
Q 647 113 581 261 
Q 516 409 516 719 
L 516 2644 
L 63 2644 
L 63 2747 
Q 234 2816 414 2980 
Q 594 3144 734 3369 
Q 806 3488 934 3803 
L 1031 3803 
z
" transform="scale(0.015625)"/>
      </defs>
      <use xlink:href="#TimesNewRomanPSMT-56"/>
      <use xlink:href="#TimesNewRomanPSMT-61" transform="translate(61.091797 0)"/>
      <use xlink:href="#TimesNewRomanPSMT-6c" transform="translate(105.476562 0)"/>
      <use xlink:href="#TimesNewRomanPSMT-69" transform="translate(133.259766 0)"/>
      <use xlink:href="#TimesNewRomanPSMT-64" transform="translate(161.042969 0)"/>
      <use xlink:href="#TimesNewRomanPSMT-61" transform="translate(211.042969 0)"/>
      <use xlink:href="#TimesNewRomanPSMT-74" transform="translate(255.427734 0)"/>
      <use xlink:href="#TimesNewRomanPSMT-69" transform="translate(283.210938 0)"/>
      <use xlink:href="#TimesNewRomanPSMT-6f" transform="translate(310.994141 0)"/>
      <use xlink:href="#TimesNewRomanPSMT-6e" transform="translate(360.994141 0)"/>
     </g>
    </g>
   </g>
  </g>
  <g id="axes_2">
   <g id="patch_5">
    <path d="M 351.327812 228.698125 
L 614.112813 228.698125 
L 614.112813 20.838125 
L 351.327812 20.838125 
z
" style="fill: #ffffff"/>
   </g>
   <g id="FillBetweenPolyCollection_3">
    <defs>
     <path id="mcf047c48bd" d="M 363.272585 -84.381606 
L 363.272585 -41.405526 
L 365.685671 -50.344065 
L 368.098756 -68.065526 
L 370.511841 -97.140503 
L 372.924927 -122.709656 
L 375.338012 -141.984383 
L 377.751098 -155.543285 
L 380.164183 -165.172335 
L 382.577268 -173.876778 
L 384.990354 -179.863528 
L 387.403439 -184.580051 
L 389.816525 -189.122976 
L 392.22961 -192.369411 
L 394.642695 -195.594081 
L 397.055781 -198.086078 
L 399.468866 -200.189179 
L 401.881952 -202.934578 
L 404.295037 -204.216541 
L 406.708122 -205.593217 
L 409.121208 -206.392918 
L 411.534293 -207.322331 
L 413.947379 -208.118914 
L 416.360464 -209.321265 
L 418.773549 -210.618922 
L 421.186635 -211.777156 
L 423.59972 -212.708649 
L 426.012806 -213.254821 
L 428.425891 -213.607541 
L 430.838976 -213.939043 
L 433.252062 -214.095498 
L 435.665147 -214.233558 
L 438.078233 -214.52985 
L 440.491318 -215.236928 
L 442.904403 -215.736383 
L 445.317489 -216.406064 
L 447.730574 -216.807247 
L 450.14366 -217.12058 
L 452.556745 -217.12058 
L 454.96983 -216.980971 
L 457.382916 -216.980971 
L 459.796001 -217.086147 
L 462.209087 -217.164844 
L 464.622172 -217.471696 
L 467.035257 -218.116721 
L 469.448343 -218.715849 
L 471.861428 -218.848449 
L 474.274514 -218.888628 
L 476.687599 -218.954928 
L 479.100684 -219.046105 
L 481.51377 -219.179951 
L 483.926855 -219.179951 
L 486.339941 -219.179951 
L 488.753026 -219.179951 
L 491.166111 -219.179951 
L 493.579197 -219.22013 
L 495.992282 -219.277636 
L 498.405368 -219.397655 
L 500.818453 -219.62032 
L 503.231538 -219.819221 
L 505.644624 -220.124528 
L 508.057709 -220.280936 
L 510.470795 -220.280936 
L 512.88388 -220.214636 
L 515.296965 -220.174457 
L 517.710051 -220.224386 
L 520.123136 -220.174457 
L 522.536222 -220.214636 
L 524.949307 -220.280936 
L 527.362392 -220.280936 
L 529.775478 -220.373358 
L 532.188563 -220.373358 
L 534.601649 -220.372113 
L 537.014734 -220.372113 
L 539.427819 -220.546137 
L 541.840905 -220.546137 
L 544.25399 -220.546137 
L 546.667076 -220.505959 
L 549.080161 -220.372113 
L 551.493246 -220.280936 
L 553.906332 -220.214636 
L 556.319417 -220.174457 
L 558.732503 -220.124528 
L 561.145588 -220.204885 
L 563.558673 -220.204885 
L 565.971759 -220.295991 
L 568.384844 -220.295991 
L 570.79793 -220.272142 
L 573.211015 -220.073241 
L 575.6241 -220.124528 
L 578.037186 -220.124528 
L 580.450271 -220.124528 
L 582.863357 -220.073241 
L 585.276442 -220.214636 
L 587.689527 -220.214636 
L 590.102613 -220.214636 
L 592.515698 -220.280936 
L 594.928784 -220.373358 
L 597.341869 -220.505959 
L 599.754954 -220.546137 
L 602.16804 -220.612438 
L 602.16804 -220.897141 
L 602.16804 -220.897141 
L 599.754954 -220.830841 
L 597.341869 -220.738419 
L 594.928784 -220.605818 
L 592.515698 -220.565639 
L 590.102613 -220.499339 
L 587.689527 -220.499339 
L 585.276442 -220.499339 
L 582.863357 -220.508133 
L 580.450271 -220.589447 
L 578.037186 -220.589447 
L 575.6241 -220.589447 
L 573.211015 -220.508133 
L 570.79793 -220.707034 
L 568.384844 -220.815786 
L 565.971759 -220.815786 
L 563.558673 -220.774291 
L 561.145588 -220.774291 
L 558.732503 -220.589447 
L 556.319417 -220.406917 
L 553.906332 -220.499339 
L 551.493246 -220.565639 
L 549.080161 -220.739664 
L 546.667076 -220.738419 
L 544.25399 -220.830841 
L 541.840905 -220.830841 
L 539.427819 -220.830841 
L 537.014734 -220.739664 
L 534.601649 -220.739664 
L 532.188563 -220.605818 
L 529.775478 -220.605818 
L 527.362392 -220.565639 
L 524.949307 -220.565639 
L 522.536222 -220.499339 
L 520.123136 -220.406917 
L 517.710051 -220.224386 
L 515.296965 -220.406917 
L 512.88388 -220.499339 
L 510.470795 -220.565639 
L 508.057709 -220.565639 
L 505.644624 -220.589447 
L 503.231538 -220.496951 
L 500.818453 -220.29805 
L 498.405368 -219.990312 
L 495.992282 -219.712528 
L 493.579197 -219.504833 
L 491.166111 -219.412411 
L 488.753026 -219.412411 
L 486.339941 -219.412411 
L 483.926855 -219.412411 
L 481.51377 -219.412411 
L 479.100684 -219.413656 
L 476.687599 -219.239632 
L 474.274514 -219.173331 
L 471.861428 -219.080909 
L 469.448343 -218.948308 
L 467.035257 -219.017032 
L 464.622172 -218.866453 
L 462.209087 -218.510301 
L 459.796001 -218.058595 
L 457.382916 -217.500767 
L 454.96983 -217.500767 
L 452.556745 -217.891561 
L 450.14366 -217.891561 
L 447.730574 -217.807092 
L 445.317489 -217.810473 
L 442.904403 -217.551949 
L 440.491318 -216.725395 
L 438.078233 -216.106466 
L 435.665147 -215.474552 
L 433.252062 -214.949608 
L 430.838976 -214.57566 
L 428.425891 -214.244158 
L 426.012806 -214.199076 
L 423.59972 -213.949643 
L 421.186635 -213.555129 
L 418.773549 -212.989552 
L 416.360464 -212.298198 
L 413.947379 -211.246336 
L 411.534293 -209.921306 
L 409.121208 -208.729106 
L 406.708122 -207.672397 
L 404.295037 -206.92746 
L 401.881952 -206.087811 
L 399.468866 -205.120388 
L 397.055781 -203.643268 
L 394.642695 -201.626839 
L 392.22961 -199.547478 
L 389.816525 -196.561677 
L 387.403439 -194.341962 
L 384.990354 -190.837237 
L 382.577268 -186.878929 
L 380.164183 -182.721096 
L 377.751098 -176.835856 
L 375.338012 -170.23944 
L 372.924927 -161.402802 
L 370.511841 -149.445936 
L 368.098756 -133.304048 
L 365.685671 -109.786668 
L 363.272585 -84.381606 
z
" style="stroke: #1f77b4; stroke-opacity: 0.2"/>
    </defs>
    <g clip-path="url(#pdafb6a4111)">
     <use xlink:href="#mcf047c48bd" x="0" y="260.655469" style="fill: #1f77b4; fill-opacity: 0.2; stroke: #1f77b4; stroke-opacity: 0.2"/>
    </g>
   </g>
   <g id="FillBetweenPolyCollection_4">
    <defs>
     <path id="mae4d4a59a2" d="M 363.272585 -103.12091 
L 363.272585 -62.313854 
L 365.685671 -71.436069 
L 368.098756 -88.119129 
L 370.511841 -116.010757 
L 372.924927 -135.564456 
L 375.338012 -153.000447 
L 377.751098 -165.792414 
L 380.164183 -171.424286 
L 382.577268 -175.460738 
L 384.990354 -180.064653 
L 387.403439 -183.770325 
L 389.816525 -188.161775 
L 392.22961 -194.478435 
L 394.642695 -197.658053 
L 397.055781 -200.117978 
L 399.468866 -202.153158 
L 401.881952 -203.665473 
L 404.295037 -205.338995 
L 406.708122 -207.018433 
L 409.121208 -209.95876 
L 411.534293 -212.632015 
L 413.947379 -215.183925 
L 416.360464 -215.809557 
L 418.773549 -215.774382 
L 421.186635 -215.700203 
L 423.59972 -216.640901 
L 426.012806 -217.436506 
L 428.425891 -219.161948 
L 430.838976 -220.15727 
L 433.252062 -220.15727 
L 435.665147 -220.15727 
L 438.078233 -220.15727 
L 440.491318 -220.88739 
L 442.904403 -220.88739 
L 445.317489 -220.88739 
L 447.730574 -220.88739 
L 450.14366 -220.487956 
L 452.556745 -220.809383 
L 454.96983 -221.349045 
L 457.382916 -222.266173 
L 459.796001 -223.730429 
L 462.209087 -224.260832 
L 464.622172 -225.091611 
L 467.035257 -225.091611 
L 469.448343 -225.45632 
L 471.861428 -225.586839 
L 474.274514 -225.791987 
L 476.687599 -226.113414 
L 479.100684 -227.383196 
L 481.51377 -227.803847 
L 483.926855 -228.444002 
L 486.339941 -229.439324 
L 488.753026 -229.439324 
L 491.166111 -228.444002 
L 493.579197 -228.444002 
L 495.992282 -228.238855 
L 498.405368 -227.708452 
L 500.818453 -227.708452 
L 503.231538 -227.708452 
L 505.644624 -227.478425 
L 508.057709 -227.317712 
L 510.470795 -227.317712 
L 512.88388 -227.317712 
L 515.296965 -227.478425 
L 517.710051 -227.743627 
L 520.123136 -228.113317 
L 522.536222 -228.64372 
L 524.949307 -228.64372 
L 527.362392 -228.64372 
L 529.775478 -228.64372 
L 532.188563 -228.108336 
L 534.601649 -227.117995 
L 537.014734 -226.477839 
L 539.427819 -226.057188 
L 541.840905 -225.991704 
L 544.25399 -225.991704 
L 546.667076 -226.152418 
L 549.080161 -226.382444 
L 551.493246 -226.912847 
L 553.906332 -227.478425 
L 556.319417 -226.912847 
L 558.732503 -226.477839 
L 561.145588 -226.057188 
L 563.558673 -225.991704 
L 565.971759 -226.191421 
L 568.384844 -226.191421 
L 570.79793 -226.191421 
L 573.211015 -226.191421 
L 575.6241 -226.191421 
L 578.037186 -225.991704 
L 580.450271 -225.991704 
L 582.863357 -225.991704 
L 585.276442 -225.991704 
L 587.689527 -226.152418 
L 590.102613 -226.152418 
L 592.515698 -226.417619 
L 594.928784 -226.787309 
L 597.341869 -227.317712 
L 599.754954 -227.478425 
L 602.16804 -227.743627 
L 602.16804 -228.882441 
L 602.16804 -228.882441 
L 599.754954 -228.617239 
L 597.341869 -228.24755 
L 594.928784 -227.717146 
L 592.515698 -227.556433 
L 590.102613 -227.291231 
L 587.689527 -227.291231 
L 585.276442 -226.921542 
L 582.863357 -226.921542 
L 580.450271 -226.921542 
L 578.037186 -226.921542 
L 575.6241 -226.191421 
L 573.211015 -226.191421 
L 570.79793 -226.191421 
L 568.384844 -226.191421 
L 565.971759 -226.191421 
L 563.558673 -226.921542 
L 561.145588 -227.916864 
L 558.732503 -228.557019 
L 556.319417 -228.652414 
L 553.906332 -228.617239 
L 551.493246 -228.652414 
L 549.080161 -228.122011 
L 546.667076 -227.291231 
L 544.25399 -226.921542 
L 541.840905 -226.921542 
L 539.427819 -227.916864 
L 537.014734 -228.557019 
L 534.601649 -228.97767 
L 532.188563 -229.578538 
L 529.775478 -229.573557 
L 527.362392 -229.573557 
L 524.949307 -229.573557 
L 522.536222 -229.573557 
L 520.123136 -229.043154 
L 517.710051 -228.882441 
L 515.296965 -228.617239 
L 512.88388 -228.24755 
L 510.470795 -228.24755 
L 508.057709 -228.24755 
L 505.644624 -228.617239 
L 503.231538 -229.448019 
L 500.818453 -229.448019 
L 498.405368 -229.448019 
L 495.992282 -229.978422 
L 493.579197 -230.303678 
L 491.166111 -230.303678 
L 488.753026 -230.369162 
L 486.339941 -230.369162 
L 483.926855 -230.303678 
L 481.51377 -229.883027 
L 479.100684 -229.242871 
L 476.687599 -228.391041 
L 474.274514 -227.651662 
L 471.861428 -227.326406 
L 469.448343 -226.926523 
L 467.035257 -226.230425 
L 464.622172 -226.230425 
L 462.209087 -226.000399 
L 459.796001 -225.469996 
L 457.382916 -224.812638 
L 454.96983 -224.138558 
L 452.556745 -223.08701 
L 450.14366 -222.347631 
L 447.730574 -220.88739 
L 445.317489 -220.88739 
L 442.904403 -220.88739 
L 440.491318 -220.88739 
L 438.078233 -221.087108 
L 435.665147 -221.087108 
L 433.252062 -221.087108 
L 430.838976 -221.087108 
L 428.425891 -221.021623 
L 426.012806 -221.155856 
L 423.59972 -220.360252 
L 421.186635 -219.179337 
L 418.773549 -217.513949 
L 416.360464 -216.948371 
L 413.947379 -217.0436 
L 411.534293 -216.943495 
L 409.121208 -216.43433 
L 406.708122 -214.60103 
L 404.295037 -211.50684 
L 401.881952 -208.406734 
L 399.468866 -206.206227 
L 397.055781 -204.528585 
L 394.642695 -203.275689 
L 392.22961 -201.151276 
L 389.816525 -199.511889 
L 387.403439 -195.947293 
L 384.990354 -191.696918 
L 382.577268 -186.753577 
L 380.164183 -181.242773 
L 377.751098 -178.388196 
L 375.338012 -175.268069 
L 372.924927 -169.366324 
L 370.511841 -160.278256 
L 368.098756 -146.798441 
L 365.685671 -124.762075 
L 363.272585 -103.12091 
z
" style="stroke: #ff7f0e; stroke-opacity: 0.2"/>
    </defs>
    <g clip-path="url(#pdafb6a4111)">
     <use xlink:href="#mae4d4a59a2" x="0" y="260.655469" style="fill: #ff7f0e; fill-opacity: 0.2; stroke: #ff7f0e; stroke-opacity: 0.2"/>
    </g>
   </g>
   <g id="matplotlib.axis_3">
    <g id="xtick_7">
     <g id="line2d_27">
      <path d="M 360.8595 228.698125 
L 360.8595 20.838125 
" clip-path="url(#pdafb6a4111)" style="fill: none; stroke: #b0b0b0; stroke-opacity: 0.3; stroke-width: 0.5; stroke-linecap: square"/>
     </g>
     <g id="line2d_28">
      <g>
       <use xlink:href="#m99f4d96a6f" x="360.8595" y="228.698125" style="stroke: #000000; stroke-width: 0.8"/>
      </g>
     </g>
     <g id="text_17">
      <!-- 0 -->
      <g transform="translate(358.6095 238.4475) scale(0.09 -0.09)">
       <use xlink:href="#TimesNewRomanPSMT-30"/>
      </g>
     </g>
    </g>
    <g id="xtick_8">
     <g id="line2d_29">
      <path d="M 409.121208 228.698125 
L 409.121208 20.838125 
" clip-path="url(#pdafb6a4111)" style="fill: none; stroke: #b0b0b0; stroke-opacity: 0.3; stroke-width: 0.5; stroke-linecap: square"/>
     </g>
     <g id="line2d_30">
      <g>
       <use xlink:href="#m99f4d96a6f" x="409.121208" y="228.698125" style="stroke: #000000; stroke-width: 0.8"/>
      </g>
     </g>
     <g id="text_18">
      <!-- 20 -->
      <g transform="translate(404.621208 238.4475) scale(0.09 -0.09)">
       <use xlink:href="#TimesNewRomanPSMT-32"/>
       <use xlink:href="#TimesNewRomanPSMT-30" transform="translate(50 0)"/>
      </g>
     </g>
    </g>
    <g id="xtick_9">
     <g id="line2d_31">
      <path d="M 457.382916 228.698125 
L 457.382916 20.838125 
" clip-path="url(#pdafb6a4111)" style="fill: none; stroke: #b0b0b0; stroke-opacity: 0.3; stroke-width: 0.5; stroke-linecap: square"/>
     </g>
     <g id="line2d_32">
      <g>
       <use xlink:href="#m99f4d96a6f" x="457.382916" y="228.698125" style="stroke: #000000; stroke-width: 0.8"/>
      </g>
     </g>
     <g id="text_19">
      <!-- 40 -->
      <g transform="translate(452.882916 238.4475) scale(0.09 -0.09)">
       <use xlink:href="#TimesNewRomanPSMT-34"/>
       <use xlink:href="#TimesNewRomanPSMT-30" transform="translate(50 0)"/>
      </g>
     </g>
    </g>
    <g id="xtick_10">
     <g id="line2d_33">
      <path d="M 505.644624 228.698125 
L 505.644624 20.838125 
" clip-path="url(#pdafb6a4111)" style="fill: none; stroke: #b0b0b0; stroke-opacity: 0.3; stroke-width: 0.5; stroke-linecap: square"/>
     </g>
     <g id="line2d_34">
      <g>
       <use xlink:href="#m99f4d96a6f" x="505.644624" y="228.698125" style="stroke: #000000; stroke-width: 0.8"/>
      </g>
     </g>
     <g id="text_20">
      <!-- 60 -->
      <g transform="translate(501.144624 238.4475) scale(0.09 -0.09)">
       <use xlink:href="#TimesNewRomanPSMT-36"/>
       <use xlink:href="#TimesNewRomanPSMT-30" transform="translate(50 0)"/>
      </g>
     </g>
    </g>
    <g id="xtick_11">
     <g id="line2d_35">
      <path d="M 553.906332 228.698125 
L 553.906332 20.838125 
" clip-path="url(#pdafb6a4111)" style="fill: none; stroke: #b0b0b0; stroke-opacity: 0.3; stroke-width: 0.5; stroke-linecap: square"/>
     </g>
     <g id="line2d_36">
      <g>
       <use xlink:href="#m99f4d96a6f" x="553.906332" y="228.698125" style="stroke: #000000; stroke-width: 0.8"/>
      </g>
     </g>
     <g id="text_21">
      <!-- 80 -->
      <g transform="translate(549.406332 238.4475) scale(0.09 -0.09)">
       <use xlink:href="#TimesNewRomanPSMT-38"/>
       <use xlink:href="#TimesNewRomanPSMT-30" transform="translate(50 0)"/>
      </g>
     </g>
    </g>
    <g id="xtick_12">
     <g id="line2d_37">
      <path d="M 602.16804 228.698125 
L 602.16804 20.838125 
" clip-path="url(#pdafb6a4111)" style="fill: none; stroke: #b0b0b0; stroke-opacity: 0.3; stroke-width: 0.5; stroke-linecap: square"/>
     </g>
     <g id="line2d_38">
      <g>
       <use xlink:href="#m99f4d96a6f" x="602.16804" y="228.698125" style="stroke: #000000; stroke-width: 0.8"/>
      </g>
     </g>
     <g id="text_22">
      <!-- 100 -->
      <g transform="translate(595.41804 238.4475) scale(0.09 -0.09)">
       <use xlink:href="#TimesNewRomanPSMT-31"/>
       <use xlink:href="#TimesNewRomanPSMT-30" transform="translate(50 0)"/>
       <use xlink:href="#TimesNewRomanPSMT-30" transform="translate(100 0)"/>
      </g>
     </g>
    </g>
    <g id="text_23">
     <!-- Epoch -->
     <g transform="translate(469.946875 251.316406) scale(0.1 -0.1)">
      <use xlink:href="#TimesNewRomanPSMT-45"/>
      <use xlink:href="#TimesNewRomanPSMT-70" transform="translate(61.083984 0)"/>
      <use xlink:href="#TimesNewRomanPSMT-6f" transform="translate(111.083984 0)"/>
      <use xlink:href="#TimesNewRomanPSMT-63" transform="translate(161.083984 0)"/>
      <use xlink:href="#TimesNewRomanPSMT-68" transform="translate(205.46875 0)"/>
     </g>
    </g>
   </g>
   <g id="matplotlib.axis_4">
    <g id="ytick_6">
     <g id="line2d_39">
      <path d="M 351.327812 221.431141 
L 614.112813 221.431141 
" clip-path="url(#pdafb6a4111)" style="fill: none; stroke: #b0b0b0; stroke-opacity: 0.3; stroke-width: 0.5; stroke-linecap: square"/>
     </g>
     <g id="line2d_40">
      <g>
       <use xlink:href="#m504f9b321b" x="351.327812" y="221.431141" style="stroke: #000000; stroke-width: 0.8"/>
      </g>
     </g>
     <g id="text_24">
      <!-- 0.55 -->
      <g transform="translate(332.077812 224.555829) scale(0.09 -0.09)">
       <use xlink:href="#TimesNewRomanPSMT-30"/>
       <use xlink:href="#TimesNewRomanPSMT-2e" transform="translate(50 0)"/>
       <use xlink:href="#TimesNewRomanPSMT-35" transform="translate(75 0)"/>
       <use xlink:href="#TimesNewRomanPSMT-35" transform="translate(125 0)"/>
      </g>
     </g>
    </g>
    <g id="ytick_7">
     <g id="line2d_41">
      <path d="M 351.327812 194.910986 
L 614.112813 194.910986 
" clip-path="url(#pdafb6a4111)" style="fill: none; stroke: #b0b0b0; stroke-opacity: 0.3; stroke-width: 0.5; stroke-linecap: square"/>
     </g>
     <g id="line2d_42">
      <g>
       <use xlink:href="#m504f9b321b" x="351.327812" y="194.910986" style="stroke: #000000; stroke-width: 0.8"/>
      </g>
     </g>
     <g id="text_25">
      <!-- 0.60 -->
      <g transform="translate(332.077812 198.035674) scale(0.09 -0.09)">
       <use xlink:href="#TimesNewRomanPSMT-30"/>
       <use xlink:href="#TimesNewRomanPSMT-2e" transform="translate(50 0)"/>
       <use xlink:href="#TimesNewRomanPSMT-36" transform="translate(75 0)"/>
       <use xlink:href="#TimesNewRomanPSMT-30" transform="translate(125 0)"/>
      </g>
     </g>
    </g>
    <g id="ytick_8">
     <g id="line2d_43">
      <path d="M 351.327812 168.390831 
L 614.112813 168.390831 
" clip-path="url(#pdafb6a4111)" style="fill: none; stroke: #b0b0b0; stroke-opacity: 0.3; stroke-width: 0.5; stroke-linecap: square"/>
     </g>
     <g id="line2d_44">
      <g>
       <use xlink:href="#m504f9b321b" x="351.327812" y="168.390831" style="stroke: #000000; stroke-width: 0.8"/>
      </g>
     </g>
     <g id="text_26">
      <!-- 0.65 -->
      <g transform="translate(332.077812 171.515518) scale(0.09 -0.09)">
       <use xlink:href="#TimesNewRomanPSMT-30"/>
       <use xlink:href="#TimesNewRomanPSMT-2e" transform="translate(50 0)"/>
       <use xlink:href="#TimesNewRomanPSMT-36" transform="translate(75 0)"/>
       <use xlink:href="#TimesNewRomanPSMT-35" transform="translate(125 0)"/>
      </g>
     </g>
    </g>
    <g id="ytick_9">
     <g id="line2d_45">
      <path d="M 351.327812 141.870676 
L 614.112813 141.870676 
" clip-path="url(#pdafb6a4111)" style="fill: none; stroke: #b0b0b0; stroke-opacity: 0.3; stroke-width: 0.5; stroke-linecap: square"/>
     </g>
     <g id="line2d_46">
      <g>
       <use xlink:href="#m504f9b321b" x="351.327812" y="141.870676" style="stroke: #000000; stroke-width: 0.8"/>
      </g>
     </g>
     <g id="text_27">
      <!-- 0.70 -->
      <g transform="translate(332.077812 144.995363) scale(0.09 -0.09)">
       <use xlink:href="#TimesNewRomanPSMT-30"/>
       <use xlink:href="#TimesNewRomanPSMT-2e" transform="translate(50 0)"/>
       <use xlink:href="#TimesNewRomanPSMT-37" transform="translate(75 0)"/>
       <use xlink:href="#TimesNewRomanPSMT-30" transform="translate(125 0)"/>
      </g>
     </g>
    </g>
    <g id="ytick_10">
     <g id="line2d_47">
      <path d="M 351.327812 115.350521 
L 614.112813 115.350521 
" clip-path="url(#pdafb6a4111)" style="fill: none; stroke: #b0b0b0; stroke-opacity: 0.3; stroke-width: 0.5; stroke-linecap: square"/>
     </g>
     <g id="line2d_48">
      <g>
       <use xlink:href="#m504f9b321b" x="351.327812" y="115.350521" style="stroke: #000000; stroke-width: 0.8"/>
      </g>
     </g>
     <g id="text_28">
      <!-- 0.75 -->
      <g transform="translate(332.077812 118.475208) scale(0.09 -0.09)">
       <use xlink:href="#TimesNewRomanPSMT-30"/>
       <use xlink:href="#TimesNewRomanPSMT-2e" transform="translate(50 0)"/>
       <use xlink:href="#TimesNewRomanPSMT-37" transform="translate(75 0)"/>
       <use xlink:href="#TimesNewRomanPSMT-35" transform="translate(125 0)"/>
      </g>
     </g>
    </g>
    <g id="ytick_11">
     <g id="line2d_49">
      <path d="M 351.327812 88.830365 
L 614.112813 88.830365 
" clip-path="url(#pdafb6a4111)" style="fill: none; stroke: #b0b0b0; stroke-opacity: 0.3; stroke-width: 0.5; stroke-linecap: square"/>
     </g>
     <g id="line2d_50">
      <g>
       <use xlink:href="#m504f9b321b" x="351.327812" y="88.830365" style="stroke: #000000; stroke-width: 0.8"/>
      </g>
     </g>
     <g id="text_29">
      <!-- 0.80 -->
      <g transform="translate(332.077812 91.955053) scale(0.09 -0.09)">
       <use xlink:href="#TimesNewRomanPSMT-30"/>
       <use xlink:href="#TimesNewRomanPSMT-2e" transform="translate(50 0)"/>
       <use xlink:href="#TimesNewRomanPSMT-38" transform="translate(75 0)"/>
       <use xlink:href="#TimesNewRomanPSMT-30" transform="translate(125 0)"/>
      </g>
     </g>
    </g>
    <g id="ytick_12">
     <g id="line2d_51">
      <path d="M 351.327812 62.31021 
L 614.112813 62.31021 
" clip-path="url(#pdafb6a4111)" style="fill: none; stroke: #b0b0b0; stroke-opacity: 0.3; stroke-width: 0.5; stroke-linecap: square"/>
     </g>
     <g id="line2d_52">
      <g>
       <use xlink:href="#m504f9b321b" x="351.327812" y="62.31021" style="stroke: #000000; stroke-width: 0.8"/>
      </g>
     </g>
     <g id="text_30">
      <!-- 0.85 -->
      <g transform="translate(332.077812 65.434898) scale(0.09 -0.09)">
       <use xlink:href="#TimesNewRomanPSMT-30"/>
       <use xlink:href="#TimesNewRomanPSMT-2e" transform="translate(50 0)"/>
       <use xlink:href="#TimesNewRomanPSMT-38" transform="translate(75 0)"/>
       <use xlink:href="#TimesNewRomanPSMT-35" transform="translate(125 0)"/>
      </g>
     </g>
    </g>
    <g id="ytick_13">
     <g id="line2d_53">
      <path d="M 351.327812 35.790055 
L 614.112813 35.790055 
" clip-path="url(#pdafb6a4111)" style="fill: none; stroke: #b0b0b0; stroke-opacity: 0.3; stroke-width: 0.5; stroke-linecap: square"/>
     </g>
     <g id="line2d_54">
      <g>
       <use xlink:href="#m504f9b321b" x="351.327812" y="35.790055" style="stroke: #000000; stroke-width: 0.8"/>
      </g>
     </g>
     <g id="text_31">
      <!-- 0.90 -->
      <g transform="translate(332.077812 38.914743) scale(0.09 -0.09)">
       <defs>
        <path id="TimesNewRomanPSMT-39" d="M 338 -88 
L 338 28 
Q 744 34 1094 217 
Q 1444 400 1770 856 
Q 2097 1313 2225 1859 
Q 1734 1544 1338 1544 
Q 891 1544 572 1889 
Q 253 2234 253 2806 
Q 253 3363 572 3797 
Q 956 4325 1575 4325 
Q 2097 4325 2469 3894 
Q 2925 3359 2925 2575 
Q 2925 1869 2578 1258 
Q 2231 647 1613 244 
Q 1109 -88 516 -88 
L 338 -88 
z
M 2275 2091 
Q 2331 2497 2331 2741 
Q 2331 3044 2228 3395 
Q 2125 3747 1936 3934 
Q 1747 4122 1506 4122 
Q 1228 4122 1018 3872 
Q 809 3622 809 3128 
Q 809 2469 1088 2097 
Q 1291 1828 1588 1828 
Q 1731 1828 1928 1897 
Q 2125 1966 2275 2091 
z
" transform="scale(0.015625)"/>
       </defs>
       <use xlink:href="#TimesNewRomanPSMT-30"/>
       <use xlink:href="#TimesNewRomanPSMT-2e" transform="translate(50 0)"/>
       <use xlink:href="#TimesNewRomanPSMT-39" transform="translate(75 0)"/>
       <use xlink:href="#TimesNewRomanPSMT-30" transform="translate(125 0)"/>
      </g>
     </g>
    </g>
    <g id="text_32">
     <!-- Accuracy -->
     <g transform="translate(325.92 143.922031) rotate(-90) scale(0.1 -0.1)">
      <defs>
       <path id="TimesNewRomanPSMT-41" d="M 2928 1419 
L 1288 1419 
L 1000 750 
Q 894 503 894 381 
Q 894 284 986 211 
Q 1078 138 1384 116 
L 1384 0 
L 50 0 
L 50 116 
Q 316 163 394 238 
Q 553 388 747 847 
L 2238 4334 
L 2347 4334 
L 3822 809 
Q 4000 384 4145 257 
Q 4291 131 4550 116 
L 4550 0 
L 2878 0 
L 2878 116 
Q 3131 128 3220 200 
Q 3309 272 3309 375 
Q 3309 513 3184 809 
L 2928 1419 
z
M 2841 1650 
L 2122 3363 
L 1384 1650 
L 2841 1650 
z
" transform="scale(0.015625)"/>
       <path id="TimesNewRomanPSMT-75" d="M 2709 2863 
L 2709 1128 
Q 2709 631 2732 520 
Q 2756 409 2807 365 
Q 2859 322 2928 322 
Q 3025 322 3147 375 
L 3191 266 
L 2334 -88 
L 2194 -88 
L 2194 519 
Q 1825 119 1631 15 
Q 1438 -88 1222 -88 
Q 981 -88 804 51 
Q 628 191 559 409 
Q 491 628 491 1028 
L 491 2306 
Q 491 2509 447 2587 
Q 403 2666 317 2708 
Q 231 2750 6 2747 
L 6 2863 
L 1009 2863 
L 1009 947 
Q 1009 547 1148 422 
Q 1288 297 1484 297 
Q 1619 297 1789 381 
Q 1959 466 2194 703 
L 2194 2325 
Q 2194 2569 2105 2655 
Q 2016 2741 1734 2747 
L 1734 2863 
L 2709 2863 
z
" transform="scale(0.015625)"/>
       <path id="TimesNewRomanPSMT-79" d="M 38 2863 
L 1372 2863 
L 1372 2747 
L 1306 2747 
Q 1166 2747 1095 2686 
Q 1025 2625 1025 2534 
Q 1025 2413 1128 2197 
L 1825 753 
L 2466 2334 
Q 2519 2463 2519 2588 
Q 2519 2644 2497 2672 
Q 2472 2706 2419 2726 
Q 2366 2747 2231 2747 
L 2231 2863 
L 3163 2863 
L 3163 2747 
Q 3047 2734 2984 2696 
Q 2922 2659 2847 2556 
Q 2819 2513 2741 2316 
L 1575 -541 
Q 1406 -956 1132 -1168 
Q 859 -1381 606 -1381 
Q 422 -1381 303 -1275 
Q 184 -1169 184 -1031 
Q 184 -900 270 -820 
Q 356 -741 506 -741 
Q 609 -741 788 -809 
Q 913 -856 944 -856 
Q 1038 -856 1148 -759 
Q 1259 -663 1372 -384 
L 1575 113 
L 547 2272 
Q 500 2369 397 2513 
Q 319 2622 269 2659 
Q 197 2709 38 2747 
L 38 2863 
z
" transform="scale(0.015625)"/>
      </defs>
      <use xlink:href="#TimesNewRomanPSMT-41"/>
      <use xlink:href="#TimesNewRomanPSMT-63" transform="translate(72.216797 0)"/>
      <use xlink:href="#TimesNewRomanPSMT-63" transform="translate(116.601562 0)"/>
      <use xlink:href="#TimesNewRomanPSMT-75" transform="translate(160.986328 0)"/>
      <use xlink:href="#TimesNewRomanPSMT-72" transform="translate(210.986328 0)"/>
      <use xlink:href="#TimesNewRomanPSMT-61" transform="translate(244.287109 0)"/>
      <use xlink:href="#TimesNewRomanPSMT-63" transform="translate(288.671875 0)"/>
      <use xlink:href="#TimesNewRomanPSMT-79" transform="translate(333.056641 0)"/>
     </g>
    </g>
   </g>
   <g id="line2d_55">
    <path d="M 363.272585 216.12711 
L 365.685671 185.628932 
L 368.098756 154.799251 
L 370.511841 130.268108 
L 372.924927 113.030007 
L 375.338012 103.084949 
L 377.751098 91.813883 
L 380.164183 84.52084 
L 382.577268 79.879813 
L 384.990354 74.24428 
L 387.403439 70.929261 
L 389.816525 66.951237 
L 392.22961 63.96772 
L 394.642695 62.973214 
L 397.055781 58.663689 
L 399.468866 57.669183 
L 401.881952 55.680172 
L 404.295037 55.017168 
L 406.708122 53.69116 
L 409.121208 53.359658 
L 411.534293 52.365152 
L 413.947379 51.039144 
L 416.360464 49.713137 
L 418.773549 48.387129 
L 421.186635 47.724125 
L 423.59972 47.392623 
L 426.012806 46.729619 
L 428.425891 46.398117 
L 430.838976 46.398117 
L 433.252062 46.729619 
L 435.665147 45.735113 
L 438.078233 45.403611 
L 440.491318 44.740607 
L 442.904403 44.077604 
L 445.317489 43.4146 
L 447.730574 42.420094 
L 450.14366 43.083098 
L 452.556745 43.746102 
L 454.96983 43.083098 
L 457.382916 43.4146 
L 459.796001 43.746102 
L 462.209087 43.083098 
L 464.622172 42.088592 
L 467.035257 41.75709 
L 469.448343 41.75709 
L 471.861428 41.75709 
L 474.274514 41.75709 
L 476.687599 41.425588 
L 479.100684 41.425588 
L 481.51377 41.425588 
L 483.926855 41.094086 
L 486.339941 41.425588 
L 488.753026 41.425588 
L 491.166111 41.425588 
L 493.579197 41.425588 
L 495.992282 41.094086 
L 498.405368 41.094086 
L 500.818453 40.762584 
L 503.231538 40.431082 
L 505.644624 40.09958 
L 508.057709 40.09958 
L 510.470795 40.09958 
L 512.88388 40.431082 
L 515.296965 40.431082 
L 517.710051 40.431082 
L 520.123136 40.431082 
L 522.536222 40.431082 
L 524.949307 40.09958 
L 527.362392 40.09958 
L 529.775478 40.09958 
L 532.188563 40.431082 
L 534.601649 40.09958 
L 537.014734 40.09958 
L 539.427819 39.768078 
L 541.840905 40.09958 
L 544.25399 39.768078 
L 546.667076 40.09958 
L 549.080161 40.09958 
L 551.493246 40.09958 
L 553.906332 40.431082 
L 556.319417 40.431082 
L 558.732503 40.431082 
L 561.145588 40.431082 
L 563.558673 39.768078 
L 565.971759 39.768078 
L 568.384844 40.431082 
L 570.79793 40.09958 
L 573.211015 40.431082 
L 575.6241 40.09958 
L 578.037186 40.762584 
L 580.450271 40.09958 
L 582.863357 40.09958 
L 585.276442 40.431082 
L 587.689527 40.431082 
L 590.102613 40.431082 
L 592.515698 40.09958 
L 594.928784 40.09958 
L 597.341869 40.09958 
L 599.754954 40.09958 
L 602.16804 39.768078 
" clip-path="url(#pdafb6a4111)" style="fill: none; stroke: #1f77b4; stroke-width: 1.2; stroke-linecap: square"/>
   </g>
   <g id="line2d_56">
    <path d="M 363.272585 196.236994 
L 365.685671 160.434784 
L 368.098756 140.544668 
L 370.511841 119.328544 
L 372.924927 99.438428 
L 375.338012 92.808389 
L 377.751098 88.830365 
L 380.164183 82.200327 
L 382.577268 79.548311 
L 384.990354 78.222303 
L 387.403439 68.940249 
L 389.816525 64.962226 
L 392.22961 62.31021 
L 394.642695 59.658195 
L 397.055781 58.332187 
L 399.468866 55.680172 
L 401.881952 55.680172 
L 404.295037 53.028156 
L 406.708122 50.37614 
L 409.121208 46.398117 
L 411.534293 43.746102 
L 413.947379 43.746102 
L 416.360464 45.072109 
L 418.773549 43.746102 
L 421.186635 45.072109 
L 423.59972 42.420094 
L 426.012806 39.768078 
L 428.425891 39.768078 
L 430.838976 39.768078 
L 433.252062 41.094086 
L 435.665147 39.768078 
L 438.078233 39.768078 
L 440.491318 39.768078 
L 442.904403 39.768078 
L 445.317489 39.768078 
L 447.730574 39.768078 
L 450.14366 39.768078 
L 452.556745 39.768078 
L 454.96983 37.116063 
L 457.382916 37.116063 
L 459.796001 35.790055 
L 462.209087 35.790055 
L 464.622172 34.464047 
L 467.035257 34.464047 
L 469.448343 34.464047 
L 471.861428 35.790055 
L 474.274514 33.13804 
L 476.687599 33.13804 
L 479.100684 33.13804 
L 481.51377 31.812032 
L 483.926855 30.486024 
L 486.339941 30.486024 
L 488.753026 30.486024 
L 491.166111 30.486024 
L 493.579197 31.812032 
L 495.992282 33.13804 
L 498.405368 30.486024 
L 500.818453 31.812032 
L 503.231538 33.13804 
L 505.644624 31.812032 
L 508.057709 33.13804 
L 510.470795 33.13804 
L 512.88388 33.13804 
L 515.296965 33.13804 
L 517.710051 31.812032 
L 520.123136 31.812032 
L 522.536222 31.812032 
L 524.949307 31.812032 
L 527.362392 30.486024 
L 529.775478 31.812032 
L 532.188563 31.812032 
L 534.601649 31.812032 
L 537.014734 33.13804 
L 539.427819 34.464047 
L 541.840905 34.464047 
L 544.25399 34.464047 
L 546.667076 34.464047 
L 549.080161 33.13804 
L 551.493246 33.13804 
L 553.906332 31.812032 
L 556.319417 31.812032 
L 558.732503 33.13804 
L 561.145588 34.464047 
L 563.558673 34.464047 
L 565.971759 34.464047 
L 568.384844 34.464047 
L 570.79793 34.464047 
L 573.211015 34.464047 
L 575.6241 34.464047 
L 578.037186 34.464047 
L 580.450271 34.464047 
L 582.863357 33.13804 
L 585.276442 34.464047 
L 587.689527 34.464047 
L 590.102613 34.464047 
L 592.515698 33.13804 
L 594.928784 33.13804 
L 597.341869 33.13804 
L 599.754954 33.13804 
L 602.16804 31.812032 
" clip-path="url(#pdafb6a4111)" style="fill: none; stroke: #ff7f0e; stroke-width: 1.2; stroke-linecap: square"/>
   </g>
   <g id="patch_6">
    <path d="M 351.327812 228.698125 
L 351.327812 20.838125 
" style="fill: none; stroke: #000000; stroke-width: 0.8; stroke-linejoin: miter; stroke-linecap: square"/>
   </g>
   <g id="patch_7">
    <path d="M 351.327812 228.698125 
L 614.112813 228.698125 
" style="fill: none; stroke: #000000; stroke-width: 0.8; stroke-linejoin: miter; stroke-linecap: square"/>
   </g>
   <g id="text_33">
    <!-- Accuracy -->
    <g transform="translate(461.651016 14.838125) scale(0.11 -0.11)">
     <use xlink:href="#TimesNewRomanPSMT-41"/>
     <use xlink:href="#TimesNewRomanPSMT-63" transform="translate(72.216797 0)"/>
     <use xlink:href="#TimesNewRomanPSMT-63" transform="translate(116.601562 0)"/>
     <use xlink:href="#TimesNewRomanPSMT-75" transform="translate(160.986328 0)"/>
     <use xlink:href="#TimesNewRomanPSMT-72" transform="translate(210.986328 0)"/>
     <use xlink:href="#TimesNewRomanPSMT-61" transform="translate(244.287109 0)"/>
     <use xlink:href="#TimesNewRomanPSMT-63" transform="translate(288.671875 0)"/>
     <use xlink:href="#TimesNewRomanPSMT-79" transform="translate(333.056641 0)"/>
    </g>
   </g>
   <g id="legend_2">
    <g id="line2d_57">
     <path d="M 543.822813 202.780938 
L 552.822813 202.780938 
L 561.822813 202.780938 
" style="fill: none; stroke: #1f77b4; stroke-width: 1.2; stroke-linecap: square"/>
    </g>
    <g id="text_34">
     <!-- Training -->
     <g transform="translate(569.022813 205.930938) scale(0.09 -0.09)">
      <use xlink:href="#TimesNewRomanPSMT-54"/>
      <use xlink:href="#TimesNewRomanPSMT-72" transform="translate(57.583984 0)"/>
      <use xlink:href="#TimesNewRomanPSMT-61" transform="translate(90.884766 0)"/>
      <use xlink:href="#TimesNewRomanPSMT-69" transform="translate(135.269531 0)"/>
      <use xlink:href="#TimesNewRomanPSMT-6e" transform="translate(163.052734 0)"/>
      <use xlink:href="#TimesNewRomanPSMT-69" transform="translate(213.052734 0)"/>
      <use xlink:href="#TimesNewRomanPSMT-6e" transform="translate(240.835938 0)"/>
      <use xlink:href="#TimesNewRomanPSMT-67" transform="translate(290.835938 0)"/>
     </g>
    </g>
    <g id="line2d_58">
     <path d="M 543.822813 215.522969 
L 552.822813 215.522969 
L 561.822813 215.522969 
" style="fill: none; stroke: #ff7f0e; stroke-width: 1.2; stroke-linecap: square"/>
    </g>
    <g id="text_35">
     <!-- Validation -->
     <g transform="translate(569.022813 218.672969) scale(0.09 -0.09)">
      <use xlink:href="#TimesNewRomanPSMT-56"/>
      <use xlink:href="#TimesNewRomanPSMT-61" transform="translate(61.091797 0)"/>
      <use xlink:href="#TimesNewRomanPSMT-6c" transform="translate(105.476562 0)"/>
      <use xlink:href="#TimesNewRomanPSMT-69" transform="translate(133.259766 0)"/>
      <use xlink:href="#TimesNewRomanPSMT-64" transform="translate(161.042969 0)"/>
      <use xlink:href="#TimesNewRomanPSMT-61" transform="translate(211.042969 0)"/>
      <use xlink:href="#TimesNewRomanPSMT-74" transform="translate(255.427734 0)"/>
      <use xlink:href="#TimesNewRomanPSMT-69" transform="translate(283.210938 0)"/>
      <use xlink:href="#TimesNewRomanPSMT-6f" transform="translate(310.994141 0)"/>
      <use xlink:href="#TimesNewRomanPSMT-6e" transform="translate(360.994141 0)"/>
     </g>
    </g>
   </g>
  </g>
 </g>
 <defs>
  <clipPath id="p18cffe5d22">
   <rect x="35.032813" y="20.838125" width="262.785" height="207.86"/>
  </clipPath>
  <clipPath id="pdafb6a4111">
   <rect x="351.327812" y="20.838125" width="262.785" height="207.86"/>
  </clipPath>
 </defs>
</svg>
