<?xml version="1.0" encoding="utf-8" standalone="no"?>
<!DOCTYPE svg PUBLIC "-//W3C//DTD SVG 1.1//EN"
  "http://www.w3.org/Graphics/SVG/1.1/DTD/svg11.dtd">
<svg xmlns:xlink="http://www.w3.org/1999/xlink" width="811.108875pt" height="274.555469pt" viewBox="0 0 811.108875 274.555469" xmlns="http://www.w3.org/2000/svg" version="1.1">
 <metadata>
  <rdf:RDF xmlns:dc="http://purl.org/dc/elements/1.1/" xmlns:cc="http://creativecommons.org/ns#" xmlns:rdf="http://www.w3.org/1999/02/22-rdf-syntax-ns#">
   <cc:Work>
    <dc:type rdf:resource="http://purl.org/dc/dcmitype/StillImage"/>
    <dc:date>2025-09-22T10:58:17.899385</dc:date>
    <dc:format>image/svg+xml</dc:format>
    <dc:creator>
     <cc:Agent>
      <dc:title>Matplotlib v3.10.6, https://matplotlib.org/</dc:title>
     </cc:Agent>
    </dc:creator>
   </cc:Work>
  </rdf:RDF>
 </metadata>
 <defs>
  <style type="text/css">*{stroke-linejoin: round; stroke-linecap: butt}</style>
 </defs>
 <g id="figure_1">
  <g id="patch_1">
   <path d="M 0 274.555469 
L 811.108875 274.555469 
L 811.108875 0 
L 0 0 
z
" style="fill: #ffffff"/>
  </g>
  <g id="axes_1">
   <g id="patch_2">
    <path d="M 56.282813 242.598125 
L 725.882812 242.598125 
L 725.882812 20.838125 
L 56.282813 20.838125 
z
" style="fill: #ffffff"/>
   </g>
   <g id="matplotlib.axis_1">
    <g id="xtick_1">
     <g id="line2d_1">
      <path d="M 78.709607 242.598125 
L 78.709607 20.838125 
" clip-path="url(#p090f5da845)" style="fill: none; stroke: #b0b0b0; stroke-opacity: 0.3; stroke-width: 0.5; stroke-linecap: square"/>
     </g>
     <g id="line2d_2">
      <defs>
       <path id="m172fe366b2" d="M 0 0 
L 0 -3 
" style="stroke: #000000; stroke-width: 0.8"/>
      </defs>
      <g>
       <use xlink:href="#m172fe366b2" x="78.709607" y="242.598125" style="stroke: #000000; stroke-width: 0.8"/>
      </g>
     </g>
     <g id="text_1">
      <!-- 0 -->
      <g transform="translate(76.459607 252.3475) scale(0.09 -0.09)">
       <defs>
        <path id="TimesNewRomanPSMT-30" d="M 231 2094 
Q 231 2819 450 3342 
Q 669 3866 1031 4122 
Q 1313 4325 1613 4325 
Q 2100 4325 2488 3828 
Q 2972 3213 2972 2159 
Q 2972 1422 2759 906 
Q 2547 391 2217 158 
Q 1888 -75 1581 -75 
Q 975 -75 572 641 
Q 231 1244 231 2094 
z
M 844 2016 
Q 844 1141 1059 588 
Q 1238 122 1591 122 
Q 1759 122 1940 273 
Q 2122 425 2216 781 
Q 2359 1319 2359 2297 
Q 2359 3022 2209 3506 
Q 2097 3866 1919 4016 
Q 1791 4119 1609 4119 
Q 1397 4119 1231 3928 
Q 1006 3669 925 3112 
Q 844 2556 844 2016 
z
" transform="scale(0.015625)"/>
       </defs>
       <use xlink:href="#TimesNewRomanPSMT-30"/>
      </g>
     </g>
    </g>
    <g id="xtick_2">
     <g id="line2d_3">
      <path d="M 158.805301 242.598125 
L 158.805301 20.838125 
" clip-path="url(#p090f5da845)" style="fill: none; stroke: #b0b0b0; stroke-opacity: 0.3; stroke-width: 0.5; stroke-linecap: square"/>
     </g>
     <g id="line2d_4">
      <g>
       <use xlink:href="#m172fe366b2" x="158.805301" y="242.598125" style="stroke: #000000; stroke-width: 0.8"/>
      </g>
     </g>
     <g id="text_2">
      <!-- 10 -->
      <g transform="translate(154.305301 252.3475) scale(0.09 -0.09)">
       <defs>
        <path id="TimesNewRomanPSMT-31" d="M 750 3822 
L 1781 4325 
L 1884 4325 
L 1884 747 
Q 1884 391 1914 303 
Q 1944 216 2037 169 
Q 2131 122 2419 116 
L 2419 0 
L 825 0 
L 825 116 
Q 1125 122 1212 167 
Q 1300 213 1334 289 
Q 1369 366 1369 747 
L 1369 3034 
Q 1369 3497 1338 3628 
Q 1316 3728 1258 3775 
Q 1200 3822 1119 3822 
Q 1003 3822 797 3725 
L 750 3822 
z
" transform="scale(0.015625)"/>
       </defs>
       <use xlink:href="#TimesNewRomanPSMT-31"/>
       <use xlink:href="#TimesNewRomanPSMT-30" transform="translate(50 0)"/>
      </g>
     </g>
    </g>
    <g id="xtick_3">
     <g id="line2d_5">
      <path d="M 238.900994 242.598125 
L 238.900994 20.838125 
" clip-path="url(#p090f5da845)" style="fill: none; stroke: #b0b0b0; stroke-opacity: 0.3; stroke-width: 0.5; stroke-linecap: square"/>
     </g>
     <g id="line2d_6">
      <g>
       <use xlink:href="#m172fe366b2" x="238.900994" y="242.598125" style="stroke: #000000; stroke-width: 0.8"/>
      </g>
     </g>
     <g id="text_3">
      <!-- 20 -->
      <g transform="translate(234.400994 252.3475) scale(0.09 -0.09)">
       <defs>
        <path id="TimesNewRomanPSMT-32" d="M 2934 816 
L 2638 0 
L 138 0 
L 138 116 
Q 1241 1122 1691 1759 
Q 2141 2397 2141 2925 
Q 2141 3328 1894 3587 
Q 1647 3847 1303 3847 
Q 991 3847 742 3664 
Q 494 3481 375 3128 
L 259 3128 
Q 338 3706 661 4015 
Q 984 4325 1469 4325 
Q 1984 4325 2329 3994 
Q 2675 3663 2675 3213 
Q 2675 2891 2525 2569 
Q 2294 2063 1775 1497 
Q 997 647 803 472 
L 1909 472 
Q 2247 472 2383 497 
Q 2519 522 2628 598 
Q 2738 675 2819 816 
L 2934 816 
z
" transform="scale(0.015625)"/>
       </defs>
       <use xlink:href="#TimesNewRomanPSMT-32"/>
       <use xlink:href="#TimesNewRomanPSMT-30" transform="translate(50 0)"/>
      </g>
     </g>
    </g>
    <g id="xtick_4">
     <g id="line2d_7">
      <path d="M 318.996688 242.598125 
L 318.996688 20.838125 
" clip-path="url(#p090f5da845)" style="fill: none; stroke: #b0b0b0; stroke-opacity: 0.3; stroke-width: 0.5; stroke-linecap: square"/>
     </g>
     <g id="line2d_8">
      <g>
       <use xlink:href="#m172fe366b2" x="318.996688" y="242.598125" style="stroke: #000000; stroke-width: 0.8"/>
      </g>
     </g>
     <g id="text_4">
      <!-- 30 -->
      <g transform="translate(314.496688 252.3475) scale(0.09 -0.09)">
       <defs>
        <path id="TimesNewRomanPSMT-33" d="M 325 3431 
Q 506 3859 782 4092 
Q 1059 4325 1472 4325 
Q 1981 4325 2253 3994 
Q 2459 3747 2459 3466 
Q 2459 3003 1878 2509 
Q 2269 2356 2469 2072 
Q 2669 1788 2669 1403 
Q 2669 853 2319 450 
Q 1863 -75 997 -75 
Q 569 -75 414 31 
Q 259 138 259 259 
Q 259 350 332 419 
Q 406 488 509 488 
Q 588 488 669 463 
Q 722 447 909 348 
Q 1097 250 1169 231 
Q 1284 197 1416 197 
Q 1734 197 1970 444 
Q 2206 691 2206 1028 
Q 2206 1275 2097 1509 
Q 2016 1684 1919 1775 
Q 1784 1900 1550 2001 
Q 1316 2103 1072 2103 
L 972 2103 
L 972 2197 
Q 1219 2228 1467 2375 
Q 1716 2522 1828 2728 
Q 1941 2934 1941 3181 
Q 1941 3503 1739 3701 
Q 1538 3900 1238 3900 
Q 753 3900 428 3381 
L 325 3431 
z
" transform="scale(0.015625)"/>
       </defs>
       <use xlink:href="#TimesNewRomanPSMT-33"/>
       <use xlink:href="#TimesNewRomanPSMT-30" transform="translate(50 0)"/>
      </g>
     </g>
    </g>
    <g id="xtick_5">
     <g id="line2d_9">
      <path d="M 399.092382 242.598125 
L 399.092382 20.838125 
" clip-path="url(#p090f5da845)" style="fill: none; stroke: #b0b0b0; stroke-opacity: 0.3; stroke-width: 0.5; stroke-linecap: square"/>
     </g>
     <g id="line2d_10">
      <g>
       <use xlink:href="#m172fe366b2" x="399.092382" y="242.598125" style="stroke: #000000; stroke-width: 0.8"/>
      </g>
     </g>
     <g id="text_5">
      <!-- 40 -->
      <g transform="translate(394.592382 252.3475) scale(0.09 -0.09)">
       <defs>
        <path id="TimesNewRomanPSMT-34" d="M 2978 1563 
L 2978 1119 
L 2409 1119 
L 2409 0 
L 1894 0 
L 1894 1119 
L 100 1119 
L 100 1519 
L 2066 4325 
L 2409 4325 
L 2409 1563 
L 2978 1563 
z
M 1894 1563 
L 1894 3666 
L 406 1563 
L 1894 1563 
z
" transform="scale(0.015625)"/>
       </defs>
       <use xlink:href="#TimesNewRomanPSMT-34"/>
       <use xlink:href="#TimesNewRomanPSMT-30" transform="translate(50 0)"/>
      </g>
     </g>
    </g>
    <g id="xtick_6">
     <g id="line2d_11">
      <path d="M 479.188076 242.598125 
L 479.188076 20.838125 
" clip-path="url(#p090f5da845)" style="fill: none; stroke: #b0b0b0; stroke-opacity: 0.3; stroke-width: 0.5; stroke-linecap: square"/>
     </g>
     <g id="line2d_12">
      <g>
       <use xlink:href="#m172fe366b2" x="479.188076" y="242.598125" style="stroke: #000000; stroke-width: 0.8"/>
      </g>
     </g>
     <g id="text_6">
      <!-- 50 -->
      <g transform="translate(474.688076 252.3475) scale(0.09 -0.09)">
       <defs>
        <path id="TimesNewRomanPSMT-35" d="M 2778 4238 
L 2534 3706 
L 1259 3706 
L 981 3138 
Q 1809 3016 2294 2522 
Q 2709 2097 2709 1522 
Q 2709 1188 2573 903 
Q 2438 619 2231 419 
Q 2025 219 1772 97 
Q 1413 -75 1034 -75 
Q 653 -75 479 54 
Q 306 184 306 341 
Q 306 428 378 495 
Q 450 563 559 563 
Q 641 563 702 538 
Q 763 513 909 409 
Q 1144 247 1384 247 
Q 1750 247 2026 523 
Q 2303 800 2303 1197 
Q 2303 1581 2056 1914 
Q 1809 2247 1375 2428 
Q 1034 2569 447 2591 
L 1259 4238 
L 2778 4238 
z
" transform="scale(0.015625)"/>
       </defs>
       <use xlink:href="#TimesNewRomanPSMT-35"/>
       <use xlink:href="#TimesNewRomanPSMT-30" transform="translate(50 0)"/>
      </g>
     </g>
    </g>
    <g id="xtick_7">
     <g id="line2d_13">
      <path d="M 559.283769 242.598125 
L 559.283769 20.838125 
" clip-path="url(#p090f5da845)" style="fill: none; stroke: #b0b0b0; stroke-opacity: 0.3; stroke-width: 0.5; stroke-linecap: square"/>
     </g>
     <g id="line2d_14">
      <g>
       <use xlink:href="#m172fe366b2" x="559.283769" y="242.598125" style="stroke: #000000; stroke-width: 0.8"/>
      </g>
     </g>
     <g id="text_7">
      <!-- 60 -->
      <g transform="translate(554.783769 252.3475) scale(0.09 -0.09)">
       <defs>
        <path id="TimesNewRomanPSMT-36" d="M 2869 4325 
L 2869 4209 
Q 2456 4169 2195 4045 
Q 1934 3922 1679 3669 
Q 1425 3416 1258 3105 
Q 1091 2794 978 2366 
Q 1428 2675 1881 2675 
Q 2316 2675 2634 2325 
Q 2953 1975 2953 1425 
Q 2953 894 2631 456 
Q 2244 -75 1606 -75 
Q 1172 -75 869 213 
Q 275 772 275 1663 
Q 275 2231 503 2743 
Q 731 3256 1154 3653 
Q 1578 4050 1965 4187 
Q 2353 4325 2688 4325 
L 2869 4325 
z
M 925 2138 
Q 869 1716 869 1456 
Q 869 1156 980 804 
Q 1091 453 1309 247 
Q 1469 100 1697 100 
Q 1969 100 2183 356 
Q 2397 613 2397 1088 
Q 2397 1622 2184 2012 
Q 1972 2403 1581 2403 
Q 1463 2403 1327 2353 
Q 1191 2303 925 2138 
z
" transform="scale(0.015625)"/>
       </defs>
       <use xlink:href="#TimesNewRomanPSMT-36"/>
       <use xlink:href="#TimesNewRomanPSMT-30" transform="translate(50 0)"/>
      </g>
     </g>
    </g>
    <g id="xtick_8">
     <g id="line2d_15">
      <path d="M 639.379463 242.598125 
L 639.379463 20.838125 
" clip-path="url(#p090f5da845)" style="fill: none; stroke: #b0b0b0; stroke-opacity: 0.3; stroke-width: 0.5; stroke-linecap: square"/>
     </g>
     <g id="line2d_16">
      <g>
       <use xlink:href="#m172fe366b2" x="639.379463" y="242.598125" style="stroke: #000000; stroke-width: 0.8"/>
      </g>
     </g>
     <g id="text_8">
      <!-- 70 -->
      <g transform="translate(634.879463 252.3475) scale(0.09 -0.09)">
       <defs>
        <path id="TimesNewRomanPSMT-37" d="M 644 4238 
L 2916 4238 
L 2916 4119 
L 1503 -88 
L 1153 -88 
L 2419 3728 
L 1253 3728 
Q 900 3728 750 3644 
Q 488 3500 328 3200 
L 238 3234 
L 644 4238 
z
" transform="scale(0.015625)"/>
       </defs>
       <use xlink:href="#TimesNewRomanPSMT-37"/>
       <use xlink:href="#TimesNewRomanPSMT-30" transform="translate(50 0)"/>
      </g>
     </g>
    </g>
    <g id="xtick_9">
     <g id="line2d_17">
      <path d="M 719.475157 242.598125 
L 719.475157 20.838125 
" clip-path="url(#p090f5da845)" style="fill: none; stroke: #b0b0b0; stroke-opacity: 0.3; stroke-width: 0.5; stroke-linecap: square"/>
     </g>
     <g id="line2d_18">
      <g>
       <use xlink:href="#m172fe366b2" x="719.475157" y="242.598125" style="stroke: #000000; stroke-width: 0.8"/>
      </g>
     </g>
     <g id="text_9">
      <!-- 80 -->
      <g transform="translate(714.975157 252.3475) scale(0.09 -0.09)">
       <defs>
        <path id="TimesNewRomanPSMT-38" d="M 1228 2134 
Q 725 2547 579 2797 
Q 434 3047 434 3316 
Q 434 3728 753 4026 
Q 1072 4325 1600 4325 
Q 2113 4325 2425 4047 
Q 2738 3769 2738 3413 
Q 2738 3175 2569 2928 
Q 2400 2681 1866 2347 
Q 2416 1922 2594 1678 
Q 2831 1359 2831 1006 
Q 2831 559 2490 242 
Q 2150 -75 1597 -75 
Q 994 -75 656 303 
Q 388 606 388 966 
Q 388 1247 577 1523 
Q 766 1800 1228 2134 
z
M 1719 2469 
Q 2094 2806 2194 3001 
Q 2294 3197 2294 3444 
Q 2294 3772 2109 3958 
Q 1925 4144 1606 4144 
Q 1288 4144 1088 3959 
Q 888 3775 888 3528 
Q 888 3366 970 3203 
Q 1053 3041 1206 2894 
L 1719 2469 
z
M 1375 2016 
Q 1116 1797 991 1539 
Q 866 1281 866 981 
Q 866 578 1086 336 
Q 1306 94 1647 94 
Q 1984 94 2187 284 
Q 2391 475 2391 747 
Q 2391 972 2272 1150 
Q 2050 1481 1375 2016 
z
" transform="scale(0.015625)"/>
       </defs>
       <use xlink:href="#TimesNewRomanPSMT-38"/>
       <use xlink:href="#TimesNewRomanPSMT-30" transform="translate(50 0)"/>
      </g>
     </g>
    </g>
    <g id="text_10">
     <!-- Epoch -->
     <g transform="translate(378.309375 265.216406) scale(0.1 -0.1)">
      <defs>
       <path id="TimesNewRomanPSMT-45" d="M 1338 4006 
L 1338 2331 
L 2269 2331 
Q 2631 2331 2753 2441 
Q 2916 2584 2934 2947 
L 3050 2947 
L 3050 1472 
L 2934 1472 
Q 2891 1781 2847 1869 
Q 2791 1978 2662 2040 
Q 2534 2103 2269 2103 
L 1338 2103 
L 1338 706 
Q 1338 425 1363 364 
Q 1388 303 1450 267 
Q 1513 231 1688 231 
L 2406 231 
Q 2766 231 2928 281 
Q 3091 331 3241 478 
Q 3434 672 3638 1063 
L 3763 1063 
L 3397 0 
L 131 0 
L 131 116 
L 281 116 
Q 431 116 566 188 
Q 666 238 702 338 
Q 738 438 738 747 
L 738 3500 
Q 738 3903 656 3997 
Q 544 4122 281 4122 
L 131 4122 
L 131 4238 
L 3397 4238 
L 3444 3309 
L 3322 3309 
Q 3256 3644 3176 3769 
Q 3097 3894 2941 3959 
Q 2816 4006 2500 4006 
L 1338 4006 
z
" transform="scale(0.015625)"/>
       <path id="TimesNewRomanPSMT-70" d="M -6 2578 
L 875 2934 
L 994 2934 
L 994 2266 
Q 1216 2644 1439 2795 
Q 1663 2947 1909 2947 
Q 2341 2947 2628 2609 
Q 2981 2197 2981 1534 
Q 2981 794 2556 309 
Q 2206 -88 1675 -88 
Q 1444 -88 1275 -22 
Q 1150 25 994 166 
L 994 -706 
Q 994 -1000 1030 -1079 
Q 1066 -1159 1155 -1206 
Q 1244 -1253 1478 -1253 
L 1478 -1369 
L -22 -1369 
L -22 -1253 
L 56 -1253 
Q 228 -1256 350 -1188 
Q 409 -1153 442 -1076 
Q 475 -1000 475 -688 
L 475 2019 
Q 475 2297 450 2372 
Q 425 2447 370 2484 
Q 316 2522 222 2522 
Q 147 2522 31 2478 
L -6 2578 
z
M 994 2081 
L 994 1013 
Q 994 666 1022 556 
Q 1066 375 1236 237 
Q 1406 100 1666 100 
Q 1978 100 2172 344 
Q 2425 663 2425 1241 
Q 2425 1897 2138 2250 
Q 1938 2494 1663 2494 
Q 1513 2494 1366 2419 
Q 1253 2363 994 2081 
z
" transform="scale(0.015625)"/>
       <path id="TimesNewRomanPSMT-6f" d="M 1600 2947 
Q 2250 2947 2644 2453 
Q 2978 2031 2978 1484 
Q 2978 1100 2793 706 
Q 2609 313 2286 112 
Q 1963 -88 1566 -88 
Q 919 -88 538 428 
Q 216 863 216 1403 
Q 216 1797 411 2186 
Q 606 2575 925 2761 
Q 1244 2947 1600 2947 
z
M 1503 2744 
Q 1338 2744 1170 2645 
Q 1003 2547 900 2300 
Q 797 2053 797 1666 
Q 797 1041 1045 587 
Q 1294 134 1700 134 
Q 2003 134 2200 384 
Q 2397 634 2397 1244 
Q 2397 2006 2069 2444 
Q 1847 2744 1503 2744 
z
" transform="scale(0.015625)"/>
       <path id="TimesNewRomanPSMT-63" d="M 2631 1088 
Q 2516 522 2178 217 
Q 1841 -88 1431 -88 
Q 944 -88 581 321 
Q 219 731 219 1428 
Q 219 2103 620 2525 
Q 1022 2947 1584 2947 
Q 2006 2947 2278 2723 
Q 2550 2500 2550 2259 
Q 2550 2141 2473 2067 
Q 2397 1994 2259 1994 
Q 2075 1994 1981 2113 
Q 1928 2178 1911 2362 
Q 1894 2547 1784 2644 
Q 1675 2738 1481 2738 
Q 1169 2738 978 2506 
Q 725 2200 725 1697 
Q 725 1184 976 792 
Q 1228 400 1656 400 
Q 1963 400 2206 609 
Q 2378 753 2541 1131 
L 2631 1088 
z
" transform="scale(0.015625)"/>
       <path id="TimesNewRomanPSMT-68" d="M 1041 4444 
L 1041 2350 
Q 1388 2731 1591 2839 
Q 1794 2947 1997 2947 
Q 2241 2947 2416 2812 
Q 2591 2678 2675 2391 
Q 2734 2191 2734 1659 
L 2734 647 
Q 2734 375 2778 275 
Q 2809 200 2884 156 
Q 2959 113 3159 113 
L 3159 0 
L 1753 0 
L 1753 113 
L 1819 113 
Q 2019 113 2097 173 
Q 2175 234 2206 353 
Q 2216 403 2216 647 
L 2216 1659 
Q 2216 2128 2167 2275 
Q 2119 2422 2012 2495 
Q 1906 2569 1756 2569 
Q 1603 2569 1437 2487 
Q 1272 2406 1041 2159 
L 1041 647 
Q 1041 353 1073 281 
Q 1106 209 1195 161 
Q 1284 113 1503 113 
L 1503 0 
L 84 0 
L 84 113 
Q 275 113 384 172 
Q 447 203 484 290 
Q 522 378 522 647 
L 522 3238 
Q 522 3728 498 3840 
Q 475 3953 426 3993 
Q 378 4034 297 4034 
Q 231 4034 84 3984 
L 41 4094 
L 897 4444 
L 1041 4444 
z
" transform="scale(0.015625)"/>
      </defs>
      <use xlink:href="#TimesNewRomanPSMT-45"/>
      <use xlink:href="#TimesNewRomanPSMT-70" transform="translate(61.083984 0)"/>
      <use xlink:href="#TimesNewRomanPSMT-6f" transform="translate(111.083984 0)"/>
      <use xlink:href="#TimesNewRomanPSMT-63" transform="translate(161.083984 0)"/>
      <use xlink:href="#TimesNewRomanPSMT-68" transform="translate(205.46875 0)"/>
     </g>
    </g>
   </g>
   <g id="matplotlib.axis_2">
    <g id="ytick_1">
     <g id="line2d_19">
      <path d="M 56.282813 155.396498 
L 725.882812 155.396498 
" clip-path="url(#p090f5da845)" style="fill: none; stroke: #b0b0b0; stroke-opacity: 0.3; stroke-width: 0.5; stroke-linecap: square"/>
     </g>
     <g id="line2d_20">
      <defs>
       <path id="m1589d59167" d="M 0 0 
L 3 0 
" style="stroke: #000000; stroke-width: 0.8"/>
      </defs>
      <g>
       <use xlink:href="#m1589d59167" x="56.282813" y="155.396498" style="stroke: #000000; stroke-width: 0.8"/>
      </g>
     </g>
     <g id="text_11">
      <!-- $\mathdefault{10^{-3}}$ -->
      <g transform="translate(36.492813 159.38392) scale(0.09 -0.09)">
       <defs>
        <path id="TimesNewRomanPSMT-2212" d="M 3484 2000 
L 116 2000 
L 116 2256 
L 3484 2256 
L 3484 2000 
z
" transform="scale(0.015625)"/>
       </defs>
       <use xlink:href="#TimesNewRomanPSMT-31" transform="translate(0 0.582813)"/>
       <use xlink:href="#TimesNewRomanPSMT-30" transform="translate(50 0.582813)"/>
       <use xlink:href="#TimesNewRomanPSMT-2212" transform="translate(101.502813 60.695312) scale(0.7)"/>
       <use xlink:href="#TimesNewRomanPSMT-33" transform="translate(140.980352 60.695312) scale(0.7)"/>
      </g>
     </g>
    </g>
    <g id="ytick_2">
     <g id="line2d_21">
      <defs>
       <path id="m912f50040c" d="M 0 0 
L 1.5 0 
" style="stroke: #000000; stroke-width: 0.6"/>
      </defs>
      <g>
       <use xlink:href="#m912f50040c" x="56.282813" y="230.0965" style="stroke: #000000; stroke-width: 0.6"/>
      </g>
     </g>
    </g>
    <g id="ytick_3">
     <g id="line2d_22">
      <g>
       <use xlink:href="#m912f50040c" x="56.282813" y="210.447829" style="stroke: #000000; stroke-width: 0.6"/>
      </g>
     </g>
     <g id="text_12">
      <!-- $\mathdefault{6\times10^{-4}}$ -->
      <g transform="translate(20.282813 214.878298) scale(0.1 -0.1)">
       <defs>
        <path id="TimesNewRomanPSMT-d7" d="M 516 1025 
L 1619 2128 
L 519 3228 
L 700 3409 
L 1800 2309 
L 2900 3409 
L 3075 3231 
L 1975 2131 
L 3081 1025 
L 2903 844 
L 1797 1950 
L 694 847 
L 516 1025 
z
" transform="scale(0.015625)"/>
       </defs>
       <use xlink:href="#TimesNewRomanPSMT-36" transform="translate(0 0.582813)"/>
       <use xlink:href="#TimesNewRomanPSMT-d7" transform="translate(69.482422 0.582813)"/>
       <use xlink:href="#TimesNewRomanPSMT-31" transform="translate(145.361328 0.582813)"/>
       <use xlink:href="#TimesNewRomanPSMT-30" transform="translate(195.361328 0.582813)"/>
       <use xlink:href="#TimesNewRomanPSMT-2212" transform="translate(246.864141 60.695312) scale(0.7)"/>
       <use xlink:href="#TimesNewRomanPSMT-34" transform="translate(286.34168 60.695312) scale(0.7)"/>
      </g>
     </g>
    </g>
    <g id="ytick_4">
     <g id="line2d_23">
      <g>
       <use xlink:href="#m912f50040c" x="56.282813" y="193.835115" style="stroke: #000000; stroke-width: 0.6"/>
      </g>
     </g>
    </g>
    <g id="ytick_5">
     <g id="line2d_24">
      <g>
       <use xlink:href="#m912f50040c" x="56.282813" y="179.444527" style="stroke: #000000; stroke-width: 0.6"/>
      </g>
     </g>
    </g>
    <g id="ytick_6">
     <g id="line2d_25">
      <g>
       <use xlink:href="#m912f50040c" x="56.282813" y="166.751129" style="stroke: #000000; stroke-width: 0.6"/>
      </g>
     </g>
    </g>
    <g id="ytick_7">
     <g id="line2d_26">
      <g>
       <use xlink:href="#m912f50040c" x="56.282813" y="80.696495" style="stroke: #000000; stroke-width: 0.6"/>
      </g>
     </g>
     <g id="text_13">
      <!-- $\mathdefault{2\times10^{-3}}$ -->
      <g transform="translate(20.282813 85.126964) scale(0.1 -0.1)">
       <use xlink:href="#TimesNewRomanPSMT-32" transform="translate(0 0.582813)"/>
       <use xlink:href="#TimesNewRomanPSMT-d7" transform="translate(69.482422 0.582813)"/>
       <use xlink:href="#TimesNewRomanPSMT-31" transform="translate(145.361328 0.582813)"/>
       <use xlink:href="#TimesNewRomanPSMT-30" transform="translate(195.361328 0.582813)"/>
       <use xlink:href="#TimesNewRomanPSMT-2212" transform="translate(246.864141 60.695312) scale(0.7)"/>
       <use xlink:href="#TimesNewRomanPSMT-33" transform="translate(286.34168 60.695312) scale(0.7)"/>
      </g>
     </g>
    </g>
    <g id="ytick_8">
     <g id="line2d_27">
      <g>
       <use xlink:href="#m912f50040c" x="56.282813" y="36.999795" style="stroke: #000000; stroke-width: 0.6"/>
      </g>
     </g>
     <g id="text_14">
      <!-- $\mathdefault{3\times10^{-3}}$ -->
      <g transform="translate(20.282813 41.430264) scale(0.1 -0.1)">
       <use xlink:href="#TimesNewRomanPSMT-33" transform="translate(0 0.582813)"/>
       <use xlink:href="#TimesNewRomanPSMT-d7" transform="translate(69.482422 0.582813)"/>
       <use xlink:href="#TimesNewRomanPSMT-31" transform="translate(145.361328 0.582813)"/>
       <use xlink:href="#TimesNewRomanPSMT-30" transform="translate(195.361328 0.582813)"/>
       <use xlink:href="#TimesNewRomanPSMT-2212" transform="translate(246.864141 60.695312) scale(0.7)"/>
       <use xlink:href="#TimesNewRomanPSMT-33" transform="translate(286.34168 60.695312) scale(0.7)"/>
      </g>
     </g>
    </g>
    <g id="text_15">
     <!-- Update Ratio -->
     <g transform="translate(14.14375 158.24) rotate(-90) scale(0.1 -0.1)">
      <defs>
       <path id="TimesNewRomanPSMT-55" d="M 3053 4122 
L 3053 4238 
L 4553 4238 
L 4553 4122 
L 4394 4122 
Q 4144 4122 4009 3913 
Q 3944 3816 3944 3463 
L 3944 1744 
Q 3944 1106 3817 754 
Q 3691 403 3320 151 
Q 2950 -100 2313 -100 
Q 1619 -100 1259 140 
Q 900 381 750 788 
Q 650 1066 650 1831 
L 650 3488 
Q 650 3878 542 4000 
Q 434 4122 194 4122 
L 34 4122 
L 34 4238 
L 1866 4238 
L 1866 4122 
L 1703 4122 
Q 1441 4122 1328 3956 
Q 1250 3844 1250 3488 
L 1250 1641 
Q 1250 1394 1295 1075 
Q 1341 756 1459 578 
Q 1578 400 1801 284 
Q 2025 169 2350 169 
Q 2766 169 3094 350 
Q 3422 531 3542 814 
Q 3663 1097 3663 1772 
L 3663 3488 
Q 3663 3884 3575 3984 
Q 3453 4122 3213 4122 
L 3053 4122 
z
" transform="scale(0.015625)"/>
       <path id="TimesNewRomanPSMT-64" d="M 2222 322 
Q 2013 103 1813 7 
Q 1613 -88 1381 -88 
Q 913 -88 563 304 
Q 213 697 213 1313 
Q 213 1928 600 2439 
Q 988 2950 1597 2950 
Q 1975 2950 2222 2709 
L 2222 3238 
Q 2222 3728 2198 3840 
Q 2175 3953 2125 3993 
Q 2075 4034 2000 4034 
Q 1919 4034 1784 3984 
L 1744 4094 
L 2597 4444 
L 2738 4444 
L 2738 1134 
Q 2738 631 2761 520 
Q 2784 409 2836 365 
Q 2888 322 2956 322 
Q 3041 322 3181 375 
L 3216 266 
L 2366 -88 
L 2222 -88 
L 2222 322 
z
M 2222 541 
L 2222 2016 
Q 2203 2228 2109 2403 
Q 2016 2578 1861 2667 
Q 1706 2756 1559 2756 
Q 1284 2756 1069 2509 
Q 784 2184 784 1559 
Q 784 928 1059 592 
Q 1334 256 1672 256 
Q 1956 256 2222 541 
z
" transform="scale(0.015625)"/>
       <path id="TimesNewRomanPSMT-61" d="M 1822 413 
Q 1381 72 1269 19 
Q 1100 -59 909 -59 
Q 613 -59 420 144 
Q 228 347 228 678 
Q 228 888 322 1041 
Q 450 1253 767 1440 
Q 1084 1628 1822 1897 
L 1822 2009 
Q 1822 2438 1686 2597 
Q 1550 2756 1291 2756 
Q 1094 2756 978 2650 
Q 859 2544 859 2406 
L 866 2225 
Q 866 2081 792 2003 
Q 719 1925 600 1925 
Q 484 1925 411 2006 
Q 338 2088 338 2228 
Q 338 2497 613 2722 
Q 888 2947 1384 2947 
Q 1766 2947 2009 2819 
Q 2194 2722 2281 2516 
Q 2338 2381 2338 1966 
L 2338 994 
Q 2338 584 2353 492 
Q 2369 400 2405 369 
Q 2441 338 2488 338 
Q 2538 338 2575 359 
Q 2641 400 2828 588 
L 2828 413 
Q 2478 -56 2159 -56 
Q 2006 -56 1915 50 
Q 1825 156 1822 413 
z
M 1822 616 
L 1822 1706 
Q 1350 1519 1213 1441 
Q 966 1303 859 1153 
Q 753 1003 753 825 
Q 753 600 887 451 
Q 1022 303 1197 303 
Q 1434 303 1822 616 
z
" transform="scale(0.015625)"/>
       <path id="TimesNewRomanPSMT-74" d="M 1031 3803 
L 1031 2863 
L 1700 2863 
L 1700 2644 
L 1031 2644 
L 1031 788 
Q 1031 509 1111 412 
Q 1191 316 1316 316 
Q 1419 316 1516 380 
Q 1613 444 1666 569 
L 1788 569 
Q 1678 263 1478 108 
Q 1278 -47 1066 -47 
Q 922 -47 784 33 
Q 647 113 581 261 
Q 516 409 516 719 
L 516 2644 
L 63 2644 
L 63 2747 
Q 234 2816 414 2980 
Q 594 3144 734 3369 
Q 806 3488 934 3803 
L 1031 3803 
z
" transform="scale(0.015625)"/>
       <path id="TimesNewRomanPSMT-65" d="M 681 1784 
Q 678 1147 991 784 
Q 1303 422 1725 422 
Q 2006 422 2214 576 
Q 2422 731 2563 1106 
L 2659 1044 
Q 2594 616 2278 264 
Q 1963 -88 1488 -88 
Q 972 -88 605 314 
Q 238 716 238 1394 
Q 238 2128 614 2539 
Q 991 2950 1559 2950 
Q 2041 2950 2350 2633 
Q 2659 2316 2659 1784 
L 681 1784 
z
M 681 1966 
L 2006 1966 
Q 1991 2241 1941 2353 
Q 1863 2528 1708 2628 
Q 1553 2728 1384 2728 
Q 1125 2728 920 2526 
Q 716 2325 681 1966 
z
" transform="scale(0.015625)"/>
       <path id="TimesNewRomanPSMT-20" transform="scale(0.015625)"/>
       <path id="TimesNewRomanPSMT-52" d="M 4325 0 
L 3194 0 
L 1759 1981 
Q 1600 1975 1500 1975 
Q 1459 1975 1412 1976 
Q 1366 1978 1316 1981 
L 1316 750 
Q 1316 350 1403 253 
Q 1522 116 1759 116 
L 1925 116 
L 1925 0 
L 109 0 
L 109 116 
L 269 116 
Q 538 116 653 291 
Q 719 388 719 750 
L 719 3488 
Q 719 3888 631 3984 
Q 509 4122 269 4122 
L 109 4122 
L 109 4238 
L 1653 4238 
Q 2328 4238 2648 4139 
Q 2969 4041 3192 3777 
Q 3416 3513 3416 3147 
Q 3416 2756 3161 2468 
Q 2906 2181 2372 2063 
L 3247 847 
Q 3547 428 3762 290 
Q 3978 153 4325 116 
L 4325 0 
z
M 1316 2178 
Q 1375 2178 1419 2176 
Q 1463 2175 1491 2175 
Q 2097 2175 2405 2437 
Q 2713 2700 2713 3106 
Q 2713 3503 2464 3751 
Q 2216 4000 1806 4000 
Q 1625 4000 1316 3941 
L 1316 2178 
z
" transform="scale(0.015625)"/>
       <path id="TimesNewRomanPSMT-69" d="M 928 4444 
Q 1059 4444 1151 4351 
Q 1244 4259 1244 4128 
Q 1244 3997 1151 3903 
Q 1059 3809 928 3809 
Q 797 3809 703 3903 
Q 609 3997 609 4128 
Q 609 4259 701 4351 
Q 794 4444 928 4444 
z
M 1188 2947 
L 1188 647 
Q 1188 378 1227 289 
Q 1266 200 1342 156 
Q 1419 113 1622 113 
L 1622 0 
L 231 0 
L 231 113 
Q 441 113 512 153 
Q 584 194 626 287 
Q 669 381 669 647 
L 669 1750 
Q 669 2216 641 2353 
Q 619 2453 572 2492 
Q 525 2531 444 2531 
Q 356 2531 231 2484 
L 188 2597 
L 1050 2947 
L 1188 2947 
z
" transform="scale(0.015625)"/>
      </defs>
      <use xlink:href="#TimesNewRomanPSMT-55"/>
      <use xlink:href="#TimesNewRomanPSMT-70" transform="translate(72.216797 0)"/>
      <use xlink:href="#TimesNewRomanPSMT-64" transform="translate(122.216797 0)"/>
      <use xlink:href="#TimesNewRomanPSMT-61" transform="translate(172.216797 0)"/>
      <use xlink:href="#TimesNewRomanPSMT-74" transform="translate(216.601562 0)"/>
      <use xlink:href="#TimesNewRomanPSMT-65" transform="translate(244.384766 0)"/>
      <use xlink:href="#TimesNewRomanPSMT-20" transform="translate(288.769531 0)"/>
      <use xlink:href="#TimesNewRomanPSMT-52" transform="translate(313.769531 0)"/>
      <use xlink:href="#TimesNewRomanPSMT-61" transform="translate(380.46875 0)"/>
      <use xlink:href="#TimesNewRomanPSMT-74" transform="translate(424.853516 0)"/>
      <use xlink:href="#TimesNewRomanPSMT-69" transform="translate(452.636719 0)"/>
      <use xlink:href="#TimesNewRomanPSMT-6f" transform="translate(480.419922 0)"/>
     </g>
    </g>
   </g>
   <g id="line2d_28">
    <path d="M 86.719176 92.210038 
L 94.728746 114.2885 
L 102.738315 126.859621 
L 110.747884 127.458578 
L 118.757454 131.501856 
L 126.767023 134.570403 
L 134.776592 140.060348 
L 142.786162 150.182879 
L 150.795731 159.889643 
L 158.805301 165.182427 
L 166.81487 175.383401 
L 174.824439 174.156598 
L 182.834009 177.606748 
L 190.843578 180.853693 
L 198.853147 185.340071 
L 206.862717 187.325266 
L 214.872286 187.157457 
L 222.881856 190.702302 
L 230.891425 193.35095 
L 238.900994 189.349011 
L 246.910564 193.049344 
L 254.920133 195.87766 
L 262.929702 196.175589 
L 270.939272 199.383436 
L 278.948841 197.55497 
L 286.958411 201.85531 
L 294.96798 199.096507 
L 302.977549 202.961466 
L 310.987119 201.163854 
L 318.996688 201.370411 
L 327.006257 203.11239 
L 335.015827 203.916662 
L 343.025396 194.323466 
L 351.034966 196.550605 
L 359.044535 200.248833 
L 367.054104 202.448102 
L 375.063674 205.380931 
L 383.073243 203.374949 
L 391.082813 206.645674 
L 399.092382 194.183073 
L 407.101951 198.746524 
L 415.111521 201.718766 
L 423.12109 196.015423 
L 431.130659 199.280212 
L 439.140229 198.876798 
L 447.149798 198.200485 
L 455.159368 199.831654 
L 463.168937 203.308643 
L 471.178506 197.171313 
L 479.188076 198.217593 
L 487.197645 201.906347 
L 495.207214 194.041368 
L 503.216784 197.469464 
L 511.226353 198.01977 
L 519.235923 204.183349 
L 527.245492 191.451662 
L 535.255061 200.399799 
L 543.264631 201.015489 
L 551.2742 205.152383 
L 559.283769 199.192868 
L 567.293339 201.047157 
L 575.302908 203.810239 
L 583.312478 208.580325 
L 591.322047 200.336198 
L 599.331616 197.282619 
L 607.341186 199.843575 
L 615.350755 195.343224 
L 623.360324 198.027716 
L 631.369894 201.525941 
L 639.379463 200.350066 
L 647.389033 197.605303 
L 655.398602 201.608523 
L 663.408171 205.586516 
L 671.417741 197.260963 
L 679.42731 203.944965 
L 687.436879 201.8452 
L 695.446449 207.035612 
" clip-path="url(#p090f5da845)" style="fill: none; stroke: #1f77b4; stroke-width: 1.2; stroke-linecap: square"/>
    <defs>
     <path id="m645a44a32b" d="M 0 1.5 
C 0.397805 1.5 0.77937 1.341951 1.06066 1.06066 
C 1.341951 0.77937 1.5 0.397805 1.5 0 
C 1.5 -0.397805 1.341951 -0.77937 1.06066 -1.06066 
C 0.77937 -1.341951 0.397805 -1.5 0 -1.5 
C -0.397805 -1.5 -0.77937 -1.341951 -1.06066 -1.06066 
C -1.341951 -0.77937 -1.5 -0.397805 -1.5 0 
C -1.5 0.397805 -1.341951 0.77937 -1.06066 1.06066 
C -0.77937 1.341951 -0.397805 1.5 0 1.5 
z
" style="stroke: #1f77b4"/>
    </defs>
    <g clip-path="url(#p090f5da845)">
     <use xlink:href="#m645a44a32b" x="86.719176" y="92.210038" style="fill: #1f77b4; stroke: #1f77b4"/>
     <use xlink:href="#m645a44a32b" x="102.738315" y="126.859621" style="fill: #1f77b4; stroke: #1f77b4"/>
     <use xlink:href="#m645a44a32b" x="118.757454" y="131.501856" style="fill: #1f77b4; stroke: #1f77b4"/>
     <use xlink:href="#m645a44a32b" x="134.776592" y="140.060348" style="fill: #1f77b4; stroke: #1f77b4"/>
     <use xlink:href="#m645a44a32b" x="150.795731" y="159.889643" style="fill: #1f77b4; stroke: #1f77b4"/>
     <use xlink:href="#m645a44a32b" x="166.81487" y="175.383401" style="fill: #1f77b4; stroke: #1f77b4"/>
     <use xlink:href="#m645a44a32b" x="182.834009" y="177.606748" style="fill: #1f77b4; stroke: #1f77b4"/>
     <use xlink:href="#m645a44a32b" x="198.853147" y="185.340071" style="fill: #1f77b4; stroke: #1f77b4"/>
     <use xlink:href="#m645a44a32b" x="214.872286" y="187.157457" style="fill: #1f77b4; stroke: #1f77b4"/>
     <use xlink:href="#m645a44a32b" x="230.891425" y="193.35095" style="fill: #1f77b4; stroke: #1f77b4"/>
     <use xlink:href="#m645a44a32b" x="246.910564" y="193.049344" style="fill: #1f77b4; stroke: #1f77b4"/>
     <use xlink:href="#m645a44a32b" x="262.929702" y="196.175589" style="fill: #1f77b4; stroke: #1f77b4"/>
     <use xlink:href="#m645a44a32b" x="278.948841" y="197.55497" style="fill: #1f77b4; stroke: #1f77b4"/>
     <use xlink:href="#m645a44a32b" x="294.96798" y="199.096507" style="fill: #1f77b4; stroke: #1f77b4"/>
     <use xlink:href="#m645a44a32b" x="310.987119" y="201.163854" style="fill: #1f77b4; stroke: #1f77b4"/>
     <use xlink:href="#m645a44a32b" x="327.006257" y="203.11239" style="fill: #1f77b4; stroke: #1f77b4"/>
     <use xlink:href="#m645a44a32b" x="343.025396" y="194.323466" style="fill: #1f77b4; stroke: #1f77b4"/>
     <use xlink:href="#m645a44a32b" x="359.044535" y="200.248833" style="fill: #1f77b4; stroke: #1f77b4"/>
     <use xlink:href="#m645a44a32b" x="375.063674" y="205.380931" style="fill: #1f77b4; stroke: #1f77b4"/>
     <use xlink:href="#m645a44a32b" x="391.082813" y="206.645674" style="fill: #1f77b4; stroke: #1f77b4"/>
     <use xlink:href="#m645a44a32b" x="407.101951" y="198.746524" style="fill: #1f77b4; stroke: #1f77b4"/>
     <use xlink:href="#m645a44a32b" x="423.12109" y="196.015423" style="fill: #1f77b4; stroke: #1f77b4"/>
     <use xlink:href="#m645a44a32b" x="439.140229" y="198.876798" style="fill: #1f77b4; stroke: #1f77b4"/>
     <use xlink:href="#m645a44a32b" x="455.159368" y="199.831654" style="fill: #1f77b4; stroke: #1f77b4"/>
     <use xlink:href="#m645a44a32b" x="471.178506" y="197.171313" style="fill: #1f77b4; stroke: #1f77b4"/>
     <use xlink:href="#m645a44a32b" x="487.197645" y="201.906347" style="fill: #1f77b4; stroke: #1f77b4"/>
     <use xlink:href="#m645a44a32b" x="503.216784" y="197.469464" style="fill: #1f77b4; stroke: #1f77b4"/>
     <use xlink:href="#m645a44a32b" x="519.235923" y="204.183349" style="fill: #1f77b4; stroke: #1f77b4"/>
     <use xlink:href="#m645a44a32b" x="535.255061" y="200.399799" style="fill: #1f77b4; stroke: #1f77b4"/>
     <use xlink:href="#m645a44a32b" x="551.2742" y="205.152383" style="fill: #1f77b4; stroke: #1f77b4"/>
     <use xlink:href="#m645a44a32b" x="567.293339" y="201.047157" style="fill: #1f77b4; stroke: #1f77b4"/>
     <use xlink:href="#m645a44a32b" x="583.312478" y="208.580325" style="fill: #1f77b4; stroke: #1f77b4"/>
     <use xlink:href="#m645a44a32b" x="599.331616" y="197.282619" style="fill: #1f77b4; stroke: #1f77b4"/>
     <use xlink:href="#m645a44a32b" x="615.350755" y="195.343224" style="fill: #1f77b4; stroke: #1f77b4"/>
     <use xlink:href="#m645a44a32b" x="631.369894" y="201.525941" style="fill: #1f77b4; stroke: #1f77b4"/>
     <use xlink:href="#m645a44a32b" x="647.389033" y="197.605303" style="fill: #1f77b4; stroke: #1f77b4"/>
     <use xlink:href="#m645a44a32b" x="663.408171" y="205.586516" style="fill: #1f77b4; stroke: #1f77b4"/>
     <use xlink:href="#m645a44a32b" x="679.42731" y="203.944965" style="fill: #1f77b4; stroke: #1f77b4"/>
     <use xlink:href="#m645a44a32b" x="695.446449" y="207.035612" style="fill: #1f77b4; stroke: #1f77b4"/>
    </g>
   </g>
   <g id="line2d_29">
    <path d="M 86.719176 72.87779 
L 94.728746 92.23165 
L 102.738315 105.80009 
L 110.747884 111.253802 
L 118.757454 124.441754 
L 126.767023 139.632396 
L 134.776592 150.856079 
L 142.786162 173.853683 
L 150.795731 189.157877 
L 158.805301 189.155256 
L 166.81487 212.41595 
L 174.824439 206.101684 
L 182.834009 208.549022 
L 190.843578 214.121204 
L 198.853147 214.681305 
L 206.862717 217.962571 
L 214.872286 205.372427 
L 222.881856 214.202543 
L 230.891425 215.382257 
L 238.900994 216.372923 
L 246.910564 210.630805 
L 254.920133 205.58268 
L 262.929702 215.332392 
L 270.939272 217.831776 
L 278.948841 209.845284 
L 286.958411 201.901287 
L 294.96798 202.480024 
L 302.977549 205.397705 
L 310.987119 212.322134 
L 318.996688 196.036144 
L 327.006257 178.32227 
L 335.015827 188.5754 
L 343.025396 179.202505 
L 351.034966 188.515116 
L 359.044535 201.437128 
L 367.054104 192.497656 
L 375.063674 210.045181 
L 383.073243 209.173155 
L 391.082813 198.323699 
L 399.092382 192.226227 
L 407.101951 203.153796 
L 415.111521 196.358734 
L 423.12109 191.322163 
L 431.130659 197.571461 
L 439.140229 196.692895 
L 447.149798 204.462001 
L 455.159368 201.825056 
L 463.168937 195.911007 
L 471.178506 196.170102 
L 479.188076 194.203516 
L 487.197645 199.693252 
L 495.207214 185.38628 
L 503.216784 198.968081 
L 511.226353 191.261419 
L 519.235923 184.454843 
L 527.245492 172.863836 
L 535.255061 189.775469 
L 543.264631 198.719893 
L 551.2742 196.997877 
L 559.283769 187.861853 
L 567.293339 198.614648 
L 575.302908 203.715931 
L 583.312478 200.680687 
L 591.322047 188.615386 
L 599.331616 201.036575 
L 607.341186 201.615856 
L 615.350755 196.473992 
L 623.360324 209.054333 
L 631.369894 209.3305 
L 639.379463 209.247739 
L 647.389033 208.136216 
L 655.398602 180.024765 
L 663.408171 209.250778 
L 671.417741 205.323361 
L 679.42731 202.503447 
L 687.436879 209.12253 
L 695.446449 217.730766 
" clip-path="url(#p090f5da845)" style="fill: none; stroke: #ff7f0e; stroke-width: 1.2; stroke-linecap: square"/>
    <defs>
     <path id="m3e6ebd2cd1" d="M 0 1.5 
C 0.397805 1.5 0.77937 1.341951 1.06066 1.06066 
C 1.341951 0.77937 1.5 0.397805 1.5 0 
C 1.5 -0.397805 1.341951 -0.77937 1.06066 -1.06066 
C 0.77937 -1.341951 0.397805 -1.5 0 -1.5 
C -0.397805 -1.5 -0.77937 -1.341951 -1.06066 -1.06066 
C -1.341951 -0.77937 -1.5 -0.397805 -1.5 0 
C -1.5 0.397805 -1.341951 0.77937 -1.06066 1.06066 
C -0.77937 1.341951 -0.397805 1.5 0 1.5 
z
" style="stroke: #ff7f0e"/>
    </defs>
    <g clip-path="url(#p090f5da845)">
     <use xlink:href="#m3e6ebd2cd1" x="86.719176" y="72.87779" style="fill: #ff7f0e; stroke: #ff7f0e"/>
     <use xlink:href="#m3e6ebd2cd1" x="102.738315" y="105.80009" style="fill: #ff7f0e; stroke: #ff7f0e"/>
     <use xlink:href="#m3e6ebd2cd1" x="118.757454" y="124.441754" style="fill: #ff7f0e; stroke: #ff7f0e"/>
     <use xlink:href="#m3e6ebd2cd1" x="134.776592" y="150.856079" style="fill: #ff7f0e; stroke: #ff7f0e"/>
     <use xlink:href="#m3e6ebd2cd1" x="150.795731" y="189.157877" style="fill: #ff7f0e; stroke: #ff7f0e"/>
     <use xlink:href="#m3e6ebd2cd1" x="166.81487" y="212.41595" style="fill: #ff7f0e; stroke: #ff7f0e"/>
     <use xlink:href="#m3e6ebd2cd1" x="182.834009" y="208.549022" style="fill: #ff7f0e; stroke: #ff7f0e"/>
     <use xlink:href="#m3e6ebd2cd1" x="198.853147" y="214.681305" style="fill: #ff7f0e; stroke: #ff7f0e"/>
     <use xlink:href="#m3e6ebd2cd1" x="214.872286" y="205.372427" style="fill: #ff7f0e; stroke: #ff7f0e"/>
     <use xlink:href="#m3e6ebd2cd1" x="230.891425" y="215.382257" style="fill: #ff7f0e; stroke: #ff7f0e"/>
     <use xlink:href="#m3e6ebd2cd1" x="246.910564" y="210.630805" style="fill: #ff7f0e; stroke: #ff7f0e"/>
     <use xlink:href="#m3e6ebd2cd1" x="262.929702" y="215.332392" style="fill: #ff7f0e; stroke: #ff7f0e"/>
     <use xlink:href="#m3e6ebd2cd1" x="278.948841" y="209.845284" style="fill: #ff7f0e; stroke: #ff7f0e"/>
     <use xlink:href="#m3e6ebd2cd1" x="294.96798" y="202.480024" style="fill: #ff7f0e; stroke: #ff7f0e"/>
     <use xlink:href="#m3e6ebd2cd1" x="310.987119" y="212.322134" style="fill: #ff7f0e; stroke: #ff7f0e"/>
     <use xlink:href="#m3e6ebd2cd1" x="327.006257" y="178.32227" style="fill: #ff7f0e; stroke: #ff7f0e"/>
     <use xlink:href="#m3e6ebd2cd1" x="343.025396" y="179.202505" style="fill: #ff7f0e; stroke: #ff7f0e"/>
     <use xlink:href="#m3e6ebd2cd1" x="359.044535" y="201.437128" style="fill: #ff7f0e; stroke: #ff7f0e"/>
     <use xlink:href="#m3e6ebd2cd1" x="375.063674" y="210.045181" style="fill: #ff7f0e; stroke: #ff7f0e"/>
     <use xlink:href="#m3e6ebd2cd1" x="391.082813" y="198.323699" style="fill: #ff7f0e; stroke: #ff7f0e"/>
     <use xlink:href="#m3e6ebd2cd1" x="407.101951" y="203.153796" style="fill: #ff7f0e; stroke: #ff7f0e"/>
     <use xlink:href="#m3e6ebd2cd1" x="423.12109" y="191.322163" style="fill: #ff7f0e; stroke: #ff7f0e"/>
     <use xlink:href="#m3e6ebd2cd1" x="439.140229" y="196.692895" style="fill: #ff7f0e; stroke: #ff7f0e"/>
     <use xlink:href="#m3e6ebd2cd1" x="455.159368" y="201.825056" style="fill: #ff7f0e; stroke: #ff7f0e"/>
     <use xlink:href="#m3e6ebd2cd1" x="471.178506" y="196.170102" style="fill: #ff7f0e; stroke: #ff7f0e"/>
     <use xlink:href="#m3e6ebd2cd1" x="487.197645" y="199.693252" style="fill: #ff7f0e; stroke: #ff7f0e"/>
     <use xlink:href="#m3e6ebd2cd1" x="503.216784" y="198.968081" style="fill: #ff7f0e; stroke: #ff7f0e"/>
     <use xlink:href="#m3e6ebd2cd1" x="519.235923" y="184.454843" style="fill: #ff7f0e; stroke: #ff7f0e"/>
     <use xlink:href="#m3e6ebd2cd1" x="535.255061" y="189.775469" style="fill: #ff7f0e; stroke: #ff7f0e"/>
     <use xlink:href="#m3e6ebd2cd1" x="551.2742" y="196.997877" style="fill: #ff7f0e; stroke: #ff7f0e"/>
     <use xlink:href="#m3e6ebd2cd1" x="567.293339" y="198.614648" style="fill: #ff7f0e; stroke: #ff7f0e"/>
     <use xlink:href="#m3e6ebd2cd1" x="583.312478" y="200.680687" style="fill: #ff7f0e; stroke: #ff7f0e"/>
     <use xlink:href="#m3e6ebd2cd1" x="599.331616" y="201.036575" style="fill: #ff7f0e; stroke: #ff7f0e"/>
     <use xlink:href="#m3e6ebd2cd1" x="615.350755" y="196.473992" style="fill: #ff7f0e; stroke: #ff7f0e"/>
     <use xlink:href="#m3e6ebd2cd1" x="631.369894" y="209.3305" style="fill: #ff7f0e; stroke: #ff7f0e"/>
     <use xlink:href="#m3e6ebd2cd1" x="647.389033" y="208.136216" style="fill: #ff7f0e; stroke: #ff7f0e"/>
     <use xlink:href="#m3e6ebd2cd1" x="663.408171" y="209.250778" style="fill: #ff7f0e; stroke: #ff7f0e"/>
     <use xlink:href="#m3e6ebd2cd1" x="679.42731" y="202.503447" style="fill: #ff7f0e; stroke: #ff7f0e"/>
     <use xlink:href="#m3e6ebd2cd1" x="695.446449" y="217.730766" style="fill: #ff7f0e; stroke: #ff7f0e"/>
    </g>
   </g>
   <g id="line2d_30">
    <path d="M 86.719176 30.918125 
L 94.728746 45.994874 
L 102.738315 60.6131 
L 110.747884 65.571959 
L 118.757454 84.392201 
L 126.767023 99.073776 
L 134.776592 118.997487 
L 142.786162 146.130487 
L 150.795731 174.509455 
L 158.805301 171.726283 
L 166.81487 217.203304 
L 174.824439 213.816614 
L 182.834009 215.340681 
L 190.843578 226.57979 
L 198.853147 224.89807 
L 206.862717 221.746478 
L 214.872286 208.513241 
L 222.881856 214.170096 
L 230.891425 232.518125 
L 238.900994 228.372284 
L 246.910564 214.493387 
L 254.920133 213.386654 
L 262.929702 219.669396 
L 270.939272 213.07656 
L 278.948841 212.074419 
L 286.958411 204.380336 
L 294.96798 207.911757 
L 302.977549 211.438129 
L 310.987119 212.043642 
L 318.996688 184.806402 
L 327.006257 169.013622 
L 335.015827 192.771263 
L 343.025396 183.595591 
L 351.034966 179.373113 
L 359.044535 181.057569 
L 367.054104 170.880559 
L 375.063674 199.001572 
L 383.073243 198.31148 
L 391.082813 188.216281 
L 399.092382 174.955082 
L 407.101951 193.410221 
L 415.111521 187.469228 
L 423.12109 206.9393 
L 431.130659 179.084689 
L 439.140229 198.722562 
L 447.149798 204.845499 
L 455.159368 195.804682 
L 463.168937 188.404644 
L 471.178506 205.06153 
L 479.188076 192.691217 
L 487.197645 193.338886 
L 495.207214 196.458245 
L 503.216784 199.41013 
L 511.226353 196.664616 
L 519.235923 193.033306 
L 527.245492 170.127066 
L 535.255061 210.076754 
L 543.264631 201.001933 
L 551.2742 197.029745 
L 559.283769 197.244848 
L 567.293339 200.452471 
L 575.302908 202.373851 
L 583.312478 202.988612 
L 591.322047 189.704563 
L 599.331616 212.798136 
L 607.341186 201.835259 
L 615.350755 203.667163 
L 623.360324 206.884029 
L 631.369894 197.815698 
L 639.379463 213.335747 
L 647.389033 213.379145 
L 655.398602 182.890995 
L 663.408171 216.465969 
L 671.417741 207.264951 
L 679.42731 219.972279 
L 687.436879 210.071351 
L 695.446449 216.422907 
" clip-path="url(#p090f5da845)" style="fill: none; stroke: #2ca02c; stroke-width: 1.2; stroke-linecap: square"/>
    <defs>
     <path id="mb92093bada" d="M 0 1.5 
C 0.397805 1.5 0.77937 1.341951 1.06066 1.06066 
C 1.341951 0.77937 1.5 0.397805 1.5 0 
C 1.5 -0.397805 1.341951 -0.77937 1.06066 -1.06066 
C 0.77937 -1.341951 0.397805 -1.5 0 -1.5 
C -0.397805 -1.5 -0.77937 -1.341951 -1.06066 -1.06066 
C -1.341951 -0.77937 -1.5 -0.397805 -1.5 0 
C -1.5 0.397805 -1.341951 0.77937 -1.06066 1.06066 
C -0.77937 1.341951 -0.397805 1.5 0 1.5 
z
" style="stroke: #2ca02c"/>
    </defs>
    <g clip-path="url(#p090f5da845)">
     <use xlink:href="#mb92093bada" x="86.719176" y="30.918125" style="fill: #2ca02c; stroke: #2ca02c"/>
     <use xlink:href="#mb92093bada" x="102.738315" y="60.6131" style="fill: #2ca02c; stroke: #2ca02c"/>
     <use xlink:href="#mb92093bada" x="118.757454" y="84.392201" style="fill: #2ca02c; stroke: #2ca02c"/>
     <use xlink:href="#mb92093bada" x="134.776592" y="118.997487" style="fill: #2ca02c; stroke: #2ca02c"/>
     <use xlink:href="#mb92093bada" x="150.795731" y="174.509455" style="fill: #2ca02c; stroke: #2ca02c"/>
     <use xlink:href="#mb92093bada" x="166.81487" y="217.203304" style="fill: #2ca02c; stroke: #2ca02c"/>
     <use xlink:href="#mb92093bada" x="182.834009" y="215.340681" style="fill: #2ca02c; stroke: #2ca02c"/>
     <use xlink:href="#mb92093bada" x="198.853147" y="224.89807" style="fill: #2ca02c; stroke: #2ca02c"/>
     <use xlink:href="#mb92093bada" x="214.872286" y="208.513241" style="fill: #2ca02c; stroke: #2ca02c"/>
     <use xlink:href="#mb92093bada" x="230.891425" y="232.518125" style="fill: #2ca02c; stroke: #2ca02c"/>
     <use xlink:href="#mb92093bada" x="246.910564" y="214.493387" style="fill: #2ca02c; stroke: #2ca02c"/>
     <use xlink:href="#mb92093bada" x="262.929702" y="219.669396" style="fill: #2ca02c; stroke: #2ca02c"/>
     <use xlink:href="#mb92093bada" x="278.948841" y="212.074419" style="fill: #2ca02c; stroke: #2ca02c"/>
     <use xlink:href="#mb92093bada" x="294.96798" y="207.911757" style="fill: #2ca02c; stroke: #2ca02c"/>
     <use xlink:href="#mb92093bada" x="310.987119" y="212.043642" style="fill: #2ca02c; stroke: #2ca02c"/>
     <use xlink:href="#mb92093bada" x="327.006257" y="169.013622" style="fill: #2ca02c; stroke: #2ca02c"/>
     <use xlink:href="#mb92093bada" x="343.025396" y="183.595591" style="fill: #2ca02c; stroke: #2ca02c"/>
     <use xlink:href="#mb92093bada" x="359.044535" y="181.057569" style="fill: #2ca02c; stroke: #2ca02c"/>
     <use xlink:href="#mb92093bada" x="375.063674" y="199.001572" style="fill: #2ca02c; stroke: #2ca02c"/>
     <use xlink:href="#mb92093bada" x="391.082813" y="188.216281" style="fill: #2ca02c; stroke: #2ca02c"/>
     <use xlink:href="#mb92093bada" x="407.101951" y="193.410221" style="fill: #2ca02c; stroke: #2ca02c"/>
     <use xlink:href="#mb92093bada" x="423.12109" y="206.9393" style="fill: #2ca02c; stroke: #2ca02c"/>
     <use xlink:href="#mb92093bada" x="439.140229" y="198.722562" style="fill: #2ca02c; stroke: #2ca02c"/>
     <use xlink:href="#mb92093bada" x="455.159368" y="195.804682" style="fill: #2ca02c; stroke: #2ca02c"/>
     <use xlink:href="#mb92093bada" x="471.178506" y="205.06153" style="fill: #2ca02c; stroke: #2ca02c"/>
     <use xlink:href="#mb92093bada" x="487.197645" y="193.338886" style="fill: #2ca02c; stroke: #2ca02c"/>
     <use xlink:href="#mb92093bada" x="503.216784" y="199.41013" style="fill: #2ca02c; stroke: #2ca02c"/>
     <use xlink:href="#mb92093bada" x="519.235923" y="193.033306" style="fill: #2ca02c; stroke: #2ca02c"/>
     <use xlink:href="#mb92093bada" x="535.255061" y="210.076754" style="fill: #2ca02c; stroke: #2ca02c"/>
     <use xlink:href="#mb92093bada" x="551.2742" y="197.029745" style="fill: #2ca02c; stroke: #2ca02c"/>
     <use xlink:href="#mb92093bada" x="567.293339" y="200.452471" style="fill: #2ca02c; stroke: #2ca02c"/>
     <use xlink:href="#mb92093bada" x="583.312478" y="202.988612" style="fill: #2ca02c; stroke: #2ca02c"/>
     <use xlink:href="#mb92093bada" x="599.331616" y="212.798136" style="fill: #2ca02c; stroke: #2ca02c"/>
     <use xlink:href="#mb92093bada" x="615.350755" y="203.667163" style="fill: #2ca02c; stroke: #2ca02c"/>
     <use xlink:href="#mb92093bada" x="631.369894" y="197.815698" style="fill: #2ca02c; stroke: #2ca02c"/>
     <use xlink:href="#mb92093bada" x="647.389033" y="213.379145" style="fill: #2ca02c; stroke: #2ca02c"/>
     <use xlink:href="#mb92093bada" x="663.408171" y="216.465969" style="fill: #2ca02c; stroke: #2ca02c"/>
     <use xlink:href="#mb92093bada" x="679.42731" y="219.972279" style="fill: #2ca02c; stroke: #2ca02c"/>
     <use xlink:href="#mb92093bada" x="695.446449" y="216.422907" style="fill: #2ca02c; stroke: #2ca02c"/>
    </g>
   </g>
   <g id="patch_3">
    <path d="M 56.282813 242.598125 
L 56.282813 20.838125 
" style="fill: none; stroke: #000000; stroke-width: 0.8; stroke-linejoin: miter; stroke-linecap: square"/>
   </g>
   <g id="patch_4">
    <path d="M 56.282813 242.598125 
L 725.882812 242.598125 
" style="fill: none; stroke: #000000; stroke-width: 0.8; stroke-linejoin: miter; stroke-linecap: square"/>
   </g>
   <g id="text_16">
    <!-- Weight Update Ratios Over Epochs -->
    <g transform="translate(312.707813 14.838125) scale(0.11 -0.11)">
     <defs>
      <path id="TimesNewRomanPSMT-57" d="M 5991 4238 
L 5991 4122 
Q 5825 4122 5722 4062 
Q 5619 4003 5525 3841 
Q 5463 3731 5328 3319 
L 4147 -97 
L 4022 -97 
L 3056 2613 
L 2097 -97 
L 1984 -97 
L 725 3422 
Q 584 3816 547 3888 
Q 484 4006 376 4064 
Q 269 4122 84 4122 
L 84 4238 
L 1653 4238 
L 1653 4122 
L 1578 4122 
Q 1413 4122 1325 4047 
Q 1238 3972 1238 3866 
Q 1238 3756 1375 3363 
L 2209 984 
L 2913 3006 
L 2788 3363 
L 2688 3647 
Q 2622 3803 2541 3922 
Q 2500 3981 2441 4022 
Q 2363 4078 2284 4103 
Q 2225 4122 2097 4122 
L 2097 4238 
L 3747 4238 
L 3747 4122 
L 3634 4122 
Q 3459 4122 3378 4047 
Q 3297 3972 3297 3844 
Q 3297 3684 3438 3288 
L 4250 984 
L 5056 3319 
Q 5194 3706 5194 3856 
Q 5194 3928 5148 3990 
Q 5103 4053 5034 4078 
Q 4916 4122 4725 4122 
L 4725 4238 
L 5991 4238 
z
" transform="scale(0.015625)"/>
      <path id="TimesNewRomanPSMT-67" d="M 966 1044 
Q 703 1172 562 1401 
Q 422 1631 422 1909 
Q 422 2334 742 2640 
Q 1063 2947 1563 2947 
Q 1972 2947 2272 2747 
L 2878 2747 
Q 3013 2747 3034 2739 
Q 3056 2731 3066 2713 
Q 3084 2684 3084 2613 
Q 3084 2531 3069 2500 
Q 3059 2484 3036 2475 
Q 3013 2466 2878 2466 
L 2506 2466 
Q 2681 2241 2681 1891 
Q 2681 1491 2375 1206 
Q 2069 922 1553 922 
Q 1341 922 1119 984 
Q 981 866 932 777 
Q 884 688 884 625 
Q 884 572 936 522 
Q 988 472 1138 450 
Q 1225 438 1575 428 
Q 2219 413 2409 384 
Q 2700 344 2873 169 
Q 3047 -6 3047 -263 
Q 3047 -616 2716 -925 
Q 2228 -1381 1444 -1381 
Q 841 -1381 425 -1109 
Q 191 -953 191 -784 
Q 191 -709 225 -634 
Q 278 -519 444 -313 
Q 466 -284 763 25 
Q 600 122 533 198 
Q 466 275 466 372 
Q 466 481 555 628 
Q 644 775 966 1044 
z
M 1509 2797 
Q 1278 2797 1122 2612 
Q 966 2428 966 2047 
Q 966 1553 1178 1281 
Q 1341 1075 1591 1075 
Q 1828 1075 1981 1253 
Q 2134 1431 2134 1813 
Q 2134 2309 1919 2591 
Q 1759 2797 1509 2797 
z
M 934 0 
Q 788 -159 713 -296 
Q 638 -434 638 -550 
Q 638 -700 819 -813 
Q 1131 -1006 1722 -1006 
Q 2284 -1006 2551 -807 
Q 2819 -609 2819 -384 
Q 2819 -222 2659 -153 
Q 2497 -84 2016 -72 
Q 1313 -53 934 0 
z
" transform="scale(0.015625)"/>
      <path id="TimesNewRomanPSMT-73" d="M 2050 2947 
L 2050 1972 
L 1947 1972 
Q 1828 2431 1642 2597 
Q 1456 2763 1169 2763 
Q 950 2763 815 2647 
Q 681 2531 681 2391 
Q 681 2216 781 2091 
Q 878 1963 1175 1819 
L 1631 1597 
Q 2266 1288 2266 781 
Q 2266 391 1970 151 
Q 1675 -88 1309 -88 
Q 1047 -88 709 6 
Q 606 38 541 38 
Q 469 38 428 -44 
L 325 -44 
L 325 978 
L 428 978 
Q 516 541 762 319 
Q 1009 97 1316 97 
Q 1531 97 1667 223 
Q 1803 350 1803 528 
Q 1803 744 1651 891 
Q 1500 1038 1047 1263 
Q 594 1488 453 1669 
Q 313 1847 313 2119 
Q 313 2472 555 2709 
Q 797 2947 1181 2947 
Q 1350 2947 1591 2875 
Q 1750 2828 1803 2828 
Q 1853 2828 1881 2850 
Q 1909 2872 1947 2947 
L 2050 2947 
z
" transform="scale(0.015625)"/>
      <path id="TimesNewRomanPSMT-4f" d="M 2341 4334 
Q 3166 4334 3770 3707 
Q 4375 3081 4375 2144 
Q 4375 1178 3765 540 
Q 3156 -97 2291 -97 
Q 1416 -97 820 525 
Q 225 1147 225 2134 
Q 225 3144 913 3781 
Q 1509 4334 2341 4334 
z
M 2281 4106 
Q 1713 4106 1369 3684 
Q 941 3159 941 2147 
Q 941 1109 1384 550 
Q 1725 125 2284 125 
Q 2881 125 3270 590 
Q 3659 1056 3659 2059 
Q 3659 3147 3231 3681 
Q 2888 4106 2281 4106 
z
" transform="scale(0.015625)"/>
      <path id="TimesNewRomanPSMT-76" d="M 53 2863 
L 1400 2863 
L 1400 2747 
L 1313 2747 
Q 1191 2747 1127 2687 
Q 1063 2628 1063 2528 
Q 1063 2419 1128 2269 
L 1794 688 
L 2463 2328 
Q 2534 2503 2534 2594 
Q 2534 2638 2509 2666 
Q 2475 2713 2422 2730 
Q 2369 2747 2206 2747 
L 2206 2863 
L 3141 2863 
L 3141 2747 
Q 2978 2734 2916 2681 
Q 2806 2588 2719 2369 
L 1703 -88 
L 1575 -88 
L 553 2328 
Q 484 2497 421 2570 
Q 359 2644 263 2694 
Q 209 2722 53 2747 
L 53 2863 
z
" transform="scale(0.015625)"/>
      <path id="TimesNewRomanPSMT-72" d="M 1038 2947 
L 1038 2303 
Q 1397 2947 1775 2947 
Q 1947 2947 2059 2842 
Q 2172 2738 2172 2600 
Q 2172 2478 2090 2393 
Q 2009 2309 1897 2309 
Q 1788 2309 1652 2417 
Q 1516 2525 1450 2525 
Q 1394 2525 1328 2463 
Q 1188 2334 1038 2041 
L 1038 669 
Q 1038 431 1097 309 
Q 1138 225 1241 169 
Q 1344 113 1538 113 
L 1538 0 
L 72 0 
L 72 113 
Q 291 113 397 181 
Q 475 231 506 341 
Q 522 394 522 644 
L 522 1753 
Q 522 2253 501 2348 
Q 481 2444 426 2487 
Q 372 2531 291 2531 
Q 194 2531 72 2484 
L 41 2597 
L 906 2947 
L 1038 2947 
z
" transform="scale(0.015625)"/>
     </defs>
     <use xlink:href="#TimesNewRomanPSMT-57"/>
     <use xlink:href="#TimesNewRomanPSMT-65" transform="translate(86.384766 0)"/>
     <use xlink:href="#TimesNewRomanPSMT-69" transform="translate(130.769531 0)"/>
     <use xlink:href="#TimesNewRomanPSMT-67" transform="translate(158.552734 0)"/>
     <use xlink:href="#TimesNewRomanPSMT-68" transform="translate(208.552734 0)"/>
     <use xlink:href="#TimesNewRomanPSMT-74" transform="translate(258.552734 0)"/>
     <use xlink:href="#TimesNewRomanPSMT-20" transform="translate(286.335938 0)"/>
     <use xlink:href="#TimesNewRomanPSMT-55" transform="translate(311.335938 0)"/>
     <use xlink:href="#TimesNewRomanPSMT-70" transform="translate(383.552734 0)"/>
     <use xlink:href="#TimesNewRomanPSMT-64" transform="translate(433.552734 0)"/>
     <use xlink:href="#TimesNewRomanPSMT-61" transform="translate(483.552734 0)"/>
     <use xlink:href="#TimesNewRomanPSMT-74" transform="translate(527.9375 0)"/>
     <use xlink:href="#TimesNewRomanPSMT-65" transform="translate(555.720703 0)"/>
     <use xlink:href="#TimesNewRomanPSMT-20" transform="translate(600.105469 0)"/>
     <use xlink:href="#TimesNewRomanPSMT-52" transform="translate(625.105469 0)"/>
     <use xlink:href="#TimesNewRomanPSMT-61" transform="translate(691.804688 0)"/>
     <use xlink:href="#TimesNewRomanPSMT-74" transform="translate(736.189453 0)"/>
     <use xlink:href="#TimesNewRomanPSMT-69" transform="translate(763.972656 0)"/>
     <use xlink:href="#TimesNewRomanPSMT-6f" transform="translate(791.755859 0)"/>
     <use xlink:href="#TimesNewRomanPSMT-73" transform="translate(841.755859 0)"/>
     <use xlink:href="#TimesNewRomanPSMT-20" transform="translate(880.671875 0)"/>
     <use xlink:href="#TimesNewRomanPSMT-4f" transform="translate(905.671875 0)"/>
     <use xlink:href="#TimesNewRomanPSMT-76" transform="translate(977.888672 0)"/>
     <use xlink:href="#TimesNewRomanPSMT-65" transform="translate(1027.888672 0)"/>
     <use xlink:href="#TimesNewRomanPSMT-72" transform="translate(1072.273438 0)"/>
     <use xlink:href="#TimesNewRomanPSMT-20" transform="translate(1105.574219 0)"/>
     <use xlink:href="#TimesNewRomanPSMT-45" transform="translate(1130.574219 0)"/>
     <use xlink:href="#TimesNewRomanPSMT-70" transform="translate(1191.658203 0)"/>
     <use xlink:href="#TimesNewRomanPSMT-6f" transform="translate(1241.658203 0)"/>
     <use xlink:href="#TimesNewRomanPSMT-63" transform="translate(1291.658203 0)"/>
     <use xlink:href="#TimesNewRomanPSMT-68" transform="translate(1336.042969 0)"/>
     <use xlink:href="#TimesNewRomanPSMT-73" transform="translate(1386.042969 0)"/>
    </g>
   </g>
   <g id="legend_1">
    <g id="line2d_31">
     <path d="M 747.374813 32.088125 
L 756.374813 32.088125 
L 765.374813 32.088125 
" style="fill: none; stroke: #1f77b4; stroke-width: 1.2; stroke-linecap: square"/>
     <g>
      <use xlink:href="#m645a44a32b" x="756.374813" y="32.088125" style="fill: #1f77b4; stroke: #1f77b4"/>
     </g>
    </g>
    <g id="text_17">
     <!-- Layer 1 -->
     <g transform="translate(772.574813 35.238125) scale(0.09 -0.09)">
      <defs>
       <path id="TimesNewRomanPSMT-4c" d="M 3669 1172 
L 3772 1150 
L 3409 0 
L 128 0 
L 128 116 
L 288 116 
Q 556 116 672 291 
Q 738 391 738 753 
L 738 3488 
Q 738 3884 650 3984 
Q 528 4122 288 4122 
L 128 4122 
L 128 4238 
L 2047 4238 
L 2047 4122 
Q 1709 4125 1573 4059 
Q 1438 3994 1388 3894 
Q 1338 3794 1338 3416 
L 1338 753 
Q 1338 494 1388 397 
Q 1425 331 1503 300 
Q 1581 269 1991 269 
L 2300 269 
Q 2788 269 2984 341 
Q 3181 413 3343 595 
Q 3506 778 3669 1172 
z
" transform="scale(0.015625)"/>
       <path id="TimesNewRomanPSMT-79" d="M 38 2863 
L 1372 2863 
L 1372 2747 
L 1306 2747 
Q 1166 2747 1095 2686 
Q 1025 2625 1025 2534 
Q 1025 2413 1128 2197 
L 1825 753 
L 2466 2334 
Q 2519 2463 2519 2588 
Q 2519 2644 2497 2672 
Q 2472 2706 2419 2726 
Q 2366 2747 2231 2747 
L 2231 2863 
L 3163 2863 
L 3163 2747 
Q 3047 2734 2984 2696 
Q 2922 2659 2847 2556 
Q 2819 2513 2741 2316 
L 1575 -541 
Q 1406 -956 1132 -1168 
Q 859 -1381 606 -1381 
Q 422 -1381 303 -1275 
Q 184 -1169 184 -1031 
Q 184 -900 270 -820 
Q 356 -741 506 -741 
Q 609 -741 788 -809 
Q 913 -856 944 -856 
Q 1038 -856 1148 -759 
Q 1259 -663 1372 -384 
L 1575 113 
L 547 2272 
Q 500 2369 397 2513 
Q 319 2622 269 2659 
Q 197 2709 38 2747 
L 38 2863 
z
" transform="scale(0.015625)"/>
      </defs>
      <use xlink:href="#TimesNewRomanPSMT-4c"/>
      <use xlink:href="#TimesNewRomanPSMT-61" transform="translate(61.083984 0)"/>
      <use xlink:href="#TimesNewRomanPSMT-79" transform="translate(105.46875 0)"/>
      <use xlink:href="#TimesNewRomanPSMT-65" transform="translate(155.46875 0)"/>
      <use xlink:href="#TimesNewRomanPSMT-72" transform="translate(199.853516 0)"/>
      <use xlink:href="#TimesNewRomanPSMT-20" transform="translate(233.154297 0)"/>
      <use xlink:href="#TimesNewRomanPSMT-31" transform="translate(258.154297 0)"/>
     </g>
    </g>
    <g id="line2d_32">
     <path d="M 747.374813 44.830156 
L 756.374813 44.830156 
L 765.374813 44.830156 
" style="fill: none; stroke: #ff7f0e; stroke-width: 1.2; stroke-linecap: square"/>
     <g>
      <use xlink:href="#m3e6ebd2cd1" x="756.374813" y="44.830156" style="fill: #ff7f0e; stroke: #ff7f0e"/>
     </g>
    </g>
    <g id="text_18">
     <!-- Layer 2 -->
     <g transform="translate(772.574813 47.980156) scale(0.09 -0.09)">
      <use xlink:href="#TimesNewRomanPSMT-4c"/>
      <use xlink:href="#TimesNewRomanPSMT-61" transform="translate(61.083984 0)"/>
      <use xlink:href="#TimesNewRomanPSMT-79" transform="translate(105.46875 0)"/>
      <use xlink:href="#TimesNewRomanPSMT-65" transform="translate(155.46875 0)"/>
      <use xlink:href="#TimesNewRomanPSMT-72" transform="translate(199.853516 0)"/>
      <use xlink:href="#TimesNewRomanPSMT-20" transform="translate(233.154297 0)"/>
      <use xlink:href="#TimesNewRomanPSMT-32" transform="translate(258.154297 0)"/>
     </g>
    </g>
    <g id="line2d_33">
     <path d="M 747.374813 57.572187 
L 756.374813 57.572187 
L 765.374813 57.572187 
" style="fill: none; stroke: #2ca02c; stroke-width: 1.2; stroke-linecap: square"/>
     <g>
      <use xlink:href="#mb92093bada" x="756.374813" y="57.572187" style="fill: #2ca02c; stroke: #2ca02c"/>
     </g>
    </g>
    <g id="text_19">
     <!-- Layer 3 -->
     <g transform="translate(772.574813 60.722187) scale(0.09 -0.09)">
      <use xlink:href="#TimesNewRomanPSMT-4c"/>
      <use xlink:href="#TimesNewRomanPSMT-61" transform="translate(61.083984 0)"/>
      <use xlink:href="#TimesNewRomanPSMT-79" transform="translate(105.46875 0)"/>
      <use xlink:href="#TimesNewRomanPSMT-65" transform="translate(155.46875 0)"/>
      <use xlink:href="#TimesNewRomanPSMT-72" transform="translate(199.853516 0)"/>
      <use xlink:href="#TimesNewRomanPSMT-20" transform="translate(233.154297 0)"/>
      <use xlink:href="#TimesNewRomanPSMT-33" transform="translate(258.154297 0)"/>
     </g>
    </g>
   </g>
  </g>
 </g>
 <defs>
  <clipPath id="p090f5da845">
   <rect x="56.282813" y="20.838125" width="669.6" height="221.76"/>
  </clipPath>
 </defs>
</svg>
