<?xml version="1.0" encoding="utf-8"?>
<!-- Generator: Adobe Illustrator 28.2.0, SVG Export Plug-In . SVG Version: 6.00 Build 0)  -->
<svg version="1.1" id="Layer_1" xmlns="http://www.w3.org/2000/svg" xmlns:xlink="http://www.w3.org/1999/xlink" x="0px" y="0px"
	 viewBox="0 0 3615.9 825.7" style="enable-background:new 0 0 3615.9 825.7;" xml:space="preserve">
<style type="text/css">
	.st0{fill:#1F94CF;}
	.st1{fill:#050606;}
</style>
<g>
	<g>
		<path class="st1" d="M1037.3,597.5V268.2h49.9l160.4,190.5c3.8,4.4,7.4,8.9,11.1,13.4c3.6,4.5,7.1,9.2,10.6,13.9
			c-0.9-6.9-1.6-15.1-1.9-24.7c-0.3-9.6-0.5-19.2-0.5-28.9V268.2h60.2v329.3h-42.8l-166.5-198.1c-3.8-4.4-7.5-8.9-11.1-13.4
			c-3.6-4.5-7.1-9.2-10.6-13.9c0.9,6.9,1.6,15.1,1.9,24.7c0.3,9.6,0.5,19.2,0.5,28.9v171.7H1037.3z"/>
		<path class="st1" d="M1486.6,603.6c-25.1,0-47.2-5.8-66.3-17.4c-19.1-11.6-34-27.1-44.5-46.3c-10.5-19.3-15.8-40.7-15.8-64.2
			c0-23.5,5.5-45.1,16.5-64.7c11-19.6,25.9-35.2,44.9-46.8c19-11.6,40.7-17.4,65.2-17.4c24.5,0,46,5.8,64.7,17.4
			c18.7,11.6,33.2,27.2,43.8,46.8c10.5,19.6,15.8,41.2,15.8,64.7c0,3.5-0.2,7.1-0.5,10.8c-0.3,3.8-0.8,7.7-1.4,11.8h-183
			c3.4,14.4,10.4,26.2,20.9,35.3c10.5,9.1,23.8,13.6,39.8,13.6c13.8,0,25.8-3.1,36-9.4c10.2-6.3,18.1-14.1,23.8-23.5l49.4,37.2
			c-9.7,15.4-24.3,27.9-43.8,37.6C1532.6,598.8,1510.8,603.6,1486.6,603.6z M1485.7,401.4c-15.1,0-27.9,4.5-38.6,13.6
			c-10.7,9.1-17.7,21-21.2,35.8h120.9c-3.5-13.5-10.6-25.1-21.4-34.8C1514.6,406.2,1501.4,401.4,1485.7,401.4z"/>
		<path class="st1" d="M1729.4,603.2c-17.6,0-33.4-4.1-47.5-12.2c-14.1-8.2-25.2-19.8-33.4-35c-8.2-15.2-12.2-33-12.2-53.4V352.9
			h63.5V487c0,21,4.2,36.4,12.7,46.1c8.5,9.7,20.5,14.6,36.2,14.6c13.5,0,25.3-4.9,35.5-14.6c10.2-9.7,15.3-25.1,15.3-46.1V352.9
			h63.5v244.6h-61.6v-36.7c-6,14.1-14.7,24.7-26.1,31.8C1763.8,599.6,1748.5,603.2,1729.4,603.2z"/>
		<path class="st1" d="M1900.6,597.5V352.9h61.6v46.6c4.1-17.6,12.4-31,24.9-40.2c12.5-9.2,29.5-13.2,50.8-12V407h-8.9
			c-18.2,0-33.6,5.8-46.1,17.4c-12.5,11.6-18.8,27.6-18.8,48v125.1H1900.6z"/>
		<path class="st1" d="M2168.3,603.6c-25.1,0-47.5-5.8-67.3-17.4c-19.8-11.6-35.2-27.1-46.3-46.3c-11.1-19.3-16.7-40.7-16.7-64.2
			c0-23.5,5.6-45,16.7-64.5c11.1-19.4,26.6-35,46.3-46.6c19.8-11.6,42.2-17.4,67.3-17.4c25.4,0,47.9,5.8,67.5,17.4
			c19.6,11.6,35,27.1,46.1,46.6c11.1,19.5,16.7,40.9,16.7,64.5c0,23.5-5.6,44.9-16.7,64.2c-11.1,19.3-26.5,34.7-46.1,46.3
			C2216.2,597.8,2193.7,603.6,2168.3,603.6z M2168.3,545.8c13.5,0,25.2-3.2,35.3-9.6c10-6.4,17.8-15,23.3-25.6
			c5.5-10.7,8.2-22.3,8.2-34.8c0-12.9-2.8-24.6-8.2-35.3c-5.5-10.7-13.3-19.2-23.3-25.6c-10-6.4-21.8-9.6-35.3-9.6
			c-13.5,0-25.2,3.2-35.3,9.6c-10,6.4-17.8,15-23.3,25.6c-5.5,10.7-8.2,22.4-8.2,35.3c0,12.5,2.7,24.2,8.2,34.8
			c5.5,10.7,13.2,19.2,23.3,25.6C2143.1,542.6,2154.8,545.8,2168.3,545.8z"/>
		<path class="st1" d="M2429.4,603.6c-26,0-49.9-5.6-71.7-16.7c-21.8-11.1-39.9-29.2-54.3-54.3l56.9-36.2
			c8.5,16.9,19.1,29.2,32,36.9c12.9,7.7,26.5,11.5,40.9,11.5c15.4,0,27.4-3.4,36.2-10.3c8.8-6.9,13.2-16,13.2-27.3
			c0-11-3.5-19.8-10.4-26.3c-6.9-6.6-16.1-11.9-27.5-16c-11.5-4.1-23.9-7.8-37.4-11.3c-25.4-6.6-45.6-17.5-60.7-32.7
			c-15.1-15.2-22.6-35.2-22.6-60c0-19.8,4.9-37,14.6-51.7c9.7-14.7,23.3-26.2,40.7-34.3c17.4-8.2,37.7-12.2,60.9-12.2
			c25.7,0,47.2,5.3,64.5,16c17.2,10.7,32,25.7,44.2,45.2l-56.5,34.8c-7.8-12.9-16-22.3-24.5-28.2c-8.5-6-18.8-8.9-31-8.9
			c-13.2,0-24.1,3.3-32.7,9.9c-8.6,6.6-12.9,15.4-12.9,26.3c0,12.2,5.1,21.1,15.3,26.6c10.2,5.5,22.5,10.4,36.9,14.8
			c9.7,3.1,20.6,6.8,32.7,11.1c12.1,4.2,23.8,10,35,17.4c11.3,7.4,20.5,17.2,27.8,29.4c7.2,12.2,10.8,27.8,10.8,46.6
			c0,19.8-4.9,37.2-14.6,52.2c-9.7,15.1-23.5,26.8-41.4,35.3C2476,599.4,2454.5,603.6,2429.4,603.6z"/>
		<path class="st1" d="M2693.3,603.6c-17.6,0-34-3.3-49.2-9.9c-15.2-6.6-28.6-15.8-40.2-27.5c-11.6-11.8-20.6-25.4-27.1-40.9
			c-6.4-15.5-9.6-32.2-9.6-50.1c0-23.8,5.6-45.4,16.7-64.7c11.1-19.3,26.5-34.7,46.1-46.3c19.6-11.6,41.8-17.4,66.6-17.4
			c22.3-0.3,42.2,3.6,59.7,11.8c17.6,8.2,31.5,19.4,41.9,33.9l-48.9,40c-5.6-8.5-12.9-15.2-21.9-20.2c-8.9-5-18.9-7.5-29.9-7.5
			c-13.5,0-25.2,3.2-35.3,9.6c-10,6.4-17.8,15-23.3,25.6c-5.5,10.7-8.2,22.4-8.2,35.3c0,12.5,2.9,24.2,8.7,35
			c5.8,10.8,13.8,19.5,24,25.9c10.2,6.4,22,9.6,35.5,9.6c12.2,0,22.6-2.7,31-8.2c8.5-5.5,15.8-12.5,22.1-20.9l46.1,40
			c-11.6,14.7-26,26.3-43,34.6C2738.1,599.5,2717.5,603.6,2693.3,603.6z"/>
		<path class="st1" d="M2928.6,603.6c-25.1,0-47.5-5.8-67.3-17.4c-19.8-11.6-35.2-27.1-46.3-46.3c-11.1-19.3-16.7-40.7-16.7-64.2
			c0-23.5,5.6-45,16.7-64.5c11.1-19.4,26.6-35,46.3-46.6c19.8-11.6,42.2-17.4,67.3-17.4c25.4,0,47.9,5.8,67.5,17.4
			c19.6,11.6,35,27.1,46.1,46.6c11.1,19.5,16.7,40.9,16.7,64.5c0,23.5-5.6,44.9-16.7,64.2c-11.1,19.3-26.5,34.7-46.1,46.3
			C2976.5,597.8,2954,603.6,2928.6,603.6z M2928.6,545.8c13.5,0,25.2-3.2,35.3-9.6c10-6.4,17.8-15,23.3-25.6
			c5.5-10.7,8.2-22.3,8.2-34.8c0-12.9-2.8-24.6-8.2-35.3c-5.5-10.7-13.3-19.2-23.3-25.6c-10-6.4-21.8-9.6-35.3-9.6
			c-13.5,0-25.2,3.2-35.3,9.6c-10,6.4-17.8,15-23.3,25.6c-5.5,10.7-8.2,22.4-8.2,35.3c0,12.5,2.7,24.2,8.2,34.8
			c5.5,10.7,13.2,19.2,23.3,25.6C2903.3,542.6,2915.1,545.8,2928.6,545.8z"/>
		<path class="st1" d="M3087.1,691.6V352.9h62.6v39.5c6.6-13.5,15.9-24.3,28-32.5c12.1-8.2,28.8-12.2,50.1-12.2
			c16.9,0,32.7,3.4,47.3,10.1c14.6,6.7,27.4,16,38.3,27.8c11,11.8,19.6,25.4,25.9,40.9c6.3,15.5,9.4,32.1,9.4,49.6
			c0,23.5-5.4,44.9-16.2,64.2c-10.8,19.3-25.3,34.7-43.5,46.1c-18.2,11.4-38.6,17.2-61.2,17.2c-21,0-37.5-3.8-49.4-11.5
			c-11.9-7.7-21.2-18-27.8-30.8v130.3H3087.1z M3217.4,546.3c13.5,0,25.3-3.3,35.5-9.9c10.2-6.6,18.1-15.3,23.8-26.1
			c5.6-10.8,8.5-22.3,8.5-34.6c0-12.9-2.8-24.6-8.5-35.3c-5.6-10.7-13.6-19.2-23.8-25.6c-10.2-6.4-22-9.6-35.5-9.6
			c-13.8,0-25.9,3.3-36.2,9.9c-10.3,6.6-18.3,15.2-24,25.9c-5.6,10.7-8.5,22.4-8.5,35.3c0,12.5,2.8,24.2,8.5,34.8
			c5.6,10.7,13.6,19.2,24,25.6C3191.5,543,3203.6,546.3,3217.4,546.3z"/>
		<path class="st1" d="M3491.7,603.6c-25.1,0-47.2-5.8-66.3-17.4c-19.1-11.6-34-27.1-44.5-46.3c-10.5-19.3-15.8-40.7-15.8-64.2
			c0-23.5,5.5-45.1,16.5-64.7c11-19.6,25.9-35.2,44.9-46.8c19-11.6,40.7-17.4,65.2-17.4c24.5,0,46,5.8,64.7,17.4
			c18.7,11.6,33.2,27.2,43.8,46.8c10.5,19.6,15.8,41.2,15.8,64.7c0,3.5-0.2,7.1-0.5,10.8c-0.3,3.8-0.8,7.7-1.4,11.8h-183
			c3.4,14.4,10.4,26.2,20.9,35.3c10.5,9.1,23.8,13.6,39.8,13.6c13.8,0,25.8-3.1,36-9.4c10.2-6.3,18.1-14.1,23.8-23.5l49.4,37.2
			c-9.7,15.4-24.3,27.9-43.8,37.6C3537.6,598.8,3515.8,603.6,3491.7,603.6z M3490.8,401.4c-15.1,0-27.9,4.5-38.6,13.6
			c-10.7,9.1-17.7,21-21.2,35.8h120.9c-3.5-13.5-10.6-25.1-21.4-34.8C3519.7,406.2,3506.4,401.4,3490.8,401.4z"/>
	</g>
	<g>
		<path class="st0" d="M983.4,115.7c0,58.6-47.6,106.1-106.2,106.1c-58.6,0-106.1-47.5-106.1-106.1c0-58.7,47.5-106.2,106.1-106.2
			C935.8,9.5,983.4,57.1,983.4,115.7z"/>
		<path class="st0" d="M914.4,750.9c-4.6,14.4-11.6,27.8-20.8,38.8c-33.3,39.8-94.8,40.4-141.5,31.1c-82.2-16.5-152.4-59-209-119.9
			c-71.5-76.9-51.3-195.7-53.7-291.7c-1.2-46.5-4.1-94.7-38.8-129.3c-22.9-22.9-54-37.6-88.5-39.4c-2.3-0.1-4.6-0.2-7-0.2
			c-1.2,0-2.3,0-3.5,0c-72.8,1.9-124.6,62.5-124.6,135.9c0,0-4.8,264.8-4.8,265c-0.5,26.8-12.5,51.9-30.3,71.6
			c-18.1,20.1-41.9,35.2-67.6,43.7c-23.2,7.8-49.5,10.6-73.1,2.6c-23.8-8.1-40.2-27.4-47-51.3c-7-24.4-3.8-51.7-3.7-76.8
			c0.1-27,0.1-54,0.2-81c0.1-54,0.2-108-0.3-162c0-1.4,0-2.7,0-4.1C0,296.4,18.5,214.3,71.8,143.2c46.9-62.6,114.1-108.9,189.5-130
			C292.6,4.4,325.1,0,357.7,0c98.6,0,187.9,40,252.5,104.6c64.6,64.6,104.6,153.9,104.6,252.5c0,63.3-11.1,137,29.5,190.6
			c19.7,25.9,46.6,42.5,77.2,52.5c30.2,9.8,64.1,16.6,82.6,45.3C922.8,674.6,925.6,715.9,914.4,750.9z"/>
	</g>
</g>
</svg>
